<svg width="21" height="20" viewBox="0 0 21 20" fill="none" xmlns="http://www.w3.org/2000/svg">
<path d="M12.707 19.9883V19.0605H19.1621C19.39 19.0605 19.5527 19.0117 19.6504 18.9141C19.748 18.8164 19.7969 18.6569 19.7969 18.4355V7.55664C19.7969 7.33529 19.748 7.17578 19.6504 7.07812C19.5527 6.98047 19.39 6.93164 19.1621 6.93164H13.3906V6.00391H19.3867C19.8164 6.00391 20.1452 6.12435 20.373 6.36523C20.6074 6.60612 20.7246 6.95117 20.7246 7.40039V18.582C20.7246 19.0378 20.6074 19.3861 20.373 19.627C20.1452 19.8678 19.8164 19.9883 19.3867 19.9883H12.707ZM16.0957 10.5449C15.9264 10.5449 15.8418 10.457 15.8418 10.2812V8.66016C15.8418 8.49089 15.9264 8.40625 16.0957 8.40625H17.7363C17.9056 8.40625 17.9902 8.49089 17.9902 8.66016V10.2812C17.9902 10.457 17.9056 10.5449 17.7363 10.5449H16.0957ZM16.0957 14.0605C15.9264 14.0605 15.8418 13.9759 15.8418 13.8066V12.1855C15.8418 12.0163 15.9264 11.9316 16.0957 11.9316H17.7363C17.9056 11.9316 17.9902 12.0163 17.9902 12.1855V13.8066C17.9902 13.9759 17.9056 14.0605 17.7363 14.0605H16.0957ZM16.0957 17.5859C15.9264 17.5859 15.8418 17.5013 15.8418 17.332V15.7109C15.8418 15.5417 15.9264 15.457 16.0957 15.457H17.7363C17.9056 15.457 17.9902 15.5417 17.9902 15.7109V17.332C17.9902 17.5013 17.9056 17.5859 17.7363 17.5859H16.0957ZM0.353516 18.582V2.13672C0.353516 1.6875 0.467448 1.34245 0.695312 1.10156C0.923177 0.854167 1.25521 0.730469 1.69141 0.730469H12.707C13.1367 0.730469 13.4655 0.854167 13.6934 1.10156C13.9212 1.34245 14.0352 1.6875 14.0352 2.13672V18.582C14.0352 19.0378 13.9212 19.3861 13.6934 19.627C13.4655 19.8678 13.1367 19.9883 12.707 19.9883H1.69141C1.25521 19.9883 0.923177 19.8678 0.695312 19.627C0.467448 19.3861 0.353516 19.0378 0.353516 18.582ZM1.28125 18.4355C1.28125 18.6569 1.33008 18.8164 1.42773 18.9141C1.52539 19.0117 1.6849 19.0605 1.90625 19.0605H12.4824C12.7038 19.0605 12.8633 19.0117 12.9609 18.9141C13.0586 18.8164 13.1074 18.6569 13.1074 18.4355V2.2832C13.1074 2.06836 13.0586 1.91211 12.9609 1.81445C12.8633 1.7168 12.7038 1.66797 12.4824 1.66797H1.90625C1.6849 1.66797 1.52539 1.7168 1.42773 1.81445C1.33008 1.91211 1.28125 2.06836 1.28125 2.2832V18.4355ZM4.04492 19.5098V16.4531C4.04492 16.1016 4.1263 15.8411 4.28906 15.6719C4.45182 15.5026 4.70898 15.418 5.06055 15.418H9.33789C9.68294 15.418 9.93685 15.5026 10.0996 15.6719C10.2689 15.8411 10.3535 16.1016 10.3535 16.4531V19.5098H9.55273V16.6094C9.55273 16.349 9.41927 16.2188 9.15234 16.2188H5.23633C4.97591 16.2188 4.8457 16.349 4.8457 16.6094V19.5098H4.04492ZM4.16211 6.01367C3.96029 6.01367 3.85938 5.90951 3.85938 5.70117V3.74805C3.85938 3.53971 3.96029 3.43555 4.16211 3.43555H6.14453C6.34635 3.43555 6.44727 3.53971 6.44727 3.74805V5.70117C6.44727 5.90951 6.34635 6.01367 6.14453 6.01367H4.16211ZM8.23438 6.01367C8.03906 6.01367 7.94141 5.90951 7.94141 5.70117V3.74805C7.94141 3.53971 8.03906 3.43555 8.23438 3.43555H10.2168C10.4251 3.43555 10.5293 3.53971 10.5293 3.74805V5.70117C10.5293 5.90951 10.4251 6.01367 10.2168 6.01367H8.23438ZM4.16211 9.91016C3.96029 9.91016 3.85938 9.80599 3.85938 9.59766V7.6543C3.85938 7.44596 3.96029 7.3418 4.16211 7.3418H6.14453C6.34635 7.3418 6.44727 7.44596 6.44727 7.6543V9.59766C6.44727 9.80599 6.34635 9.91016 6.14453 9.91016H4.16211ZM8.23438 9.91016C8.03906 9.91016 7.94141 9.80599 7.94141 9.59766V7.6543C7.94141 7.44596 8.03906 7.3418 8.23438 7.3418H10.2168C10.4251 7.3418 10.5293 7.44596 10.5293 7.6543V9.59766C10.5293 9.80599 10.4251 9.91016 10.2168 9.91016H8.23438ZM4.16211 13.8164C3.96029 13.8164 3.85938 13.7122 3.85938 13.5039V11.5605C3.85938 11.3522 3.96029 11.248 4.16211 11.248H6.14453C6.34635 11.248 6.44727 11.3522 6.44727 11.5605V13.5039C6.44727 13.7122 6.34635 13.8164 6.14453 13.8164H4.16211ZM8.23438 13.8164C8.03906 13.8164 7.94141 13.7122 7.94141 13.5039V11.5605C7.94141 11.3522 8.03906 11.248 8.23438 11.248H10.2168C10.4251 11.248 10.5293 11.3522 10.5293 11.5605V13.5039C10.5293 13.7122 10.4251 13.8164 10.2168 13.8164H8.23438Z" fill="#0067AB"/>
</svg>
