<svg width="24" height="24" viewBox="0 0 24 24" fill="none" xmlns="http://www.w3.org/2000/svg">
<path d="M7.02512 18C6.79179 18 6.56262 17.8833 6.33762 17.65C6.11262 17.4167 6.00012 17.1833 6.00012 16.95V14.5H18.5001V6H21.0001C21.2335 6 21.4585 6.11667 21.6751 6.35C21.8918 6.58333 22.0001 6.825 22.0001 7.075V21.975L18.0251 18H7.02512ZM2.00012 17V3.05C2.00012 2.81667 2.10846 2.58333 2.32512 2.35C2.54179 2.11667 2.76679 2 3.00012 2H15.9751C16.2251 2 16.4585 2.1125 16.6751 2.3375C16.8918 2.5625 17.0001 2.8 17.0001 3.05V11.95C17.0001 12.1833 16.8918 12.4167 16.6751 12.65C16.4585 12.8833 16.2251 13 15.9751 13H6.00012L2.00012 17ZM15.5001 11.5V3.5H3.50012V13.5L5.35012 11.5H15.5001Z" fill="#0067AB"/>
</svg>
