<svg width="20" height="20" viewBox="0 0 20 20" fill="none" xmlns="http://www.w3.org/2000/svg">
<path d="M10.0053 20C8.63143 20 7.33938 19.7366 6.1292 19.2098C4.92614 18.6902 3.86546 17.9712 2.94714 17.0529C2.02883 16.1345 1.30628 15.0739 0.779498 13.8708C0.259833 12.6606 0 11.3686 0 9.99466C0 8.62787 0.259833 7.34294 0.779498 6.13988C1.29916 4.9297 2.01815 3.86546 2.93647 2.94714C3.8619 2.02171 4.92614 1.29916 6.1292 0.779498C7.33938 0.259833 8.62787 0 9.99466 0C11.3686 0 12.6571 0.259833 13.8601 0.779498C15.0703 1.29916 16.1345 2.02171 17.0529 2.94714C17.9783 3.86546 18.7008 4.9297 19.2205 6.13988C19.7402 7.34294 20 8.62787 20 9.99466C20 11.3686 19.7402 12.6606 19.2205 13.8708C18.7008 15.0739 17.9783 16.1345 17.0529 17.0529C16.1345 17.9712 15.0703 18.6902 13.8601 19.2098C12.6571 19.7366 11.3721 20 10.0053 20ZM10.4538 14.5969C10.6247 14.5969 10.7564 14.5471 10.8489 14.4474C10.9414 14.3406 10.9877 14.2018 10.9877 14.031V5.937C10.9877 5.75903 10.9343 5.61666 10.8275 5.50988C10.7279 5.4031 10.5891 5.34971 10.4111 5.34971C10.2901 5.34971 10.1762 5.37106 10.0694 5.41377C9.96263 5.45649 9.83805 5.52767 9.69568 5.62734L7.65617 6.97277C7.57786 7.0226 7.52091 7.07955 7.48532 7.14362C7.44972 7.20057 7.43193 7.27532 7.43193 7.36786C7.43193 7.47464 7.47108 7.57074 7.54939 7.65617C7.62769 7.74159 7.72379 7.7843 7.83769 7.7843C7.89464 7.7843 7.94091 7.78074 7.97651 7.77363C8.01922 7.75939 8.07617 7.72735 8.14736 7.67752L9.8772 6.55633H9.94127V14.031C9.94127 14.2018 9.98754 14.3406 10.0801 14.4474C10.1726 14.5471 10.2972 14.5969 10.4538 14.5969Z" fill="#0067AB"/>
</svg>
