<svg width="20" height="20" viewBox="0 0 20 20" fill="none" xmlns="http://www.w3.org/2000/svg">
<path d="M10.0053 20C8.63143 20 7.33938 19.7366 6.1292 19.2098C4.92614 18.6902 3.86546 17.9712 2.94714 17.0529C2.02883 16.1345 1.30628 15.0739 0.779498 13.8708C0.259833 12.6606 0 11.3686 0 9.99466C0 8.62787 0.259833 7.34294 0.779498 6.13988C1.29916 4.9297 2.01815 3.86546 2.93647 2.94714C3.8619 2.02171 4.92614 1.29916 6.1292 0.779498C7.33938 0.259833 8.62787 0 9.99466 0C11.3686 0 12.6571 0.259833 13.8601 0.779498C15.0703 1.29916 16.1345 2.02171 17.0529 2.94714C17.9783 3.86546 18.7008 4.9297 19.2205 6.13988C19.7402 7.34294 20 8.62787 20 9.99466C20 11.3686 19.7402 12.6606 19.2205 13.8708C18.7008 15.0739 17.9783 16.1345 17.0529 17.0529C16.1345 17.9712 15.0703 18.6902 13.8601 19.2098C12.6571 19.7366 11.3721 20 10.0053 20ZM7.72023 14.5649H12.9311C13.0664 14.5649 13.1767 14.5222 13.2621 14.4367C13.3476 14.3513 13.3903 14.241 13.3903 14.1057C13.3903 13.9705 13.3476 13.8637 13.2621 13.7854C13.1767 13.6999 13.0664 13.6572 12.9311 13.6572H8.69194V13.6038L11.4682 10.5606C11.9665 10.0196 12.3403 9.5355 12.5894 9.10838C12.8386 8.68126 12.9632 8.2221 12.9632 7.73091C12.9632 6.99057 12.6998 6.3926 12.173 5.937C11.6533 5.4814 10.9592 5.2536 10.0908 5.2536C9.37889 5.2536 8.74533 5.44937 8.19007 5.8409C7.63481 6.22531 7.29667 6.71294 7.17565 7.30379C7.16142 7.36786 7.15074 7.42837 7.14362 7.48532C7.1365 7.53515 7.13294 7.58854 7.13294 7.64549C7.13294 7.78074 7.17209 7.89108 7.2504 7.97651C7.33582 8.06193 7.44972 8.10464 7.5921 8.10464C7.72735 8.10464 7.83057 8.06905 7.90176 7.99786C7.98007 7.92668 8.04058 7.83413 8.08329 7.72023C8.16871 7.29311 8.38583 6.92294 8.73465 6.60972C9.09059 6.29649 9.5533 6.13988 10.1228 6.13988C10.6923 6.13988 11.1443 6.28938 11.4789 6.58836C11.8206 6.88735 11.9915 7.28599 11.9915 7.7843C11.9915 8.15448 11.8847 8.51041 11.6711 8.85211C11.4647 9.18669 11.1835 9.54262 10.8275 9.91991L7.39989 13.6679C7.33582 13.7391 7.28955 13.8103 7.26108 13.8815C7.2326 13.9455 7.21837 14.0132 7.21837 14.0844C7.21837 14.2338 7.26108 14.3513 7.3465 14.4367C7.43905 14.5222 7.56362 14.5649 7.72023 14.5649Z" fill="#0067AB"/>
</svg>
