<svg width="20" height="20" viewBox="0 0 20 20" fill="none" xmlns="http://www.w3.org/2000/svg">
<path d="M10.0053 20C8.63143 20 7.33938 19.7366 6.1292 19.2098C4.92614 18.6902 3.86546 17.9712 2.94714 17.0529C2.02883 16.1345 1.30628 15.0739 0.779498 13.8708C0.259833 12.6606 0 11.3686 0 9.99466C0 8.62787 0.259833 7.34294 0.779498 6.13988C1.29916 4.9297 2.01815 3.86546 2.93647 2.94714C3.8619 2.02171 4.92614 1.29916 6.1292 0.779498C7.33938 0.259833 8.62787 0 9.99466 0C11.3686 0 12.6571 0.259833 13.8601 0.779498C15.0703 1.29916 16.1345 2.02171 17.0529 2.94714C17.9783 3.86546 18.7008 4.9297 19.2205 6.13988C19.7402 7.34294 20 8.62787 20 9.99466C20 11.3686 19.7402 12.6606 19.2205 13.8708C18.7008 15.0739 17.9783 16.1345 17.0529 17.0529C16.1345 17.9712 15.0703 18.6902 13.8601 19.2098C12.6571 19.7366 11.3721 20 10.0053 20ZM11.244 14.6076C11.4006 14.6076 11.5216 14.5578 11.607 14.4581C11.6996 14.3584 11.7459 14.2267 11.7459 14.063V12.504H12.7923C12.9276 12.504 13.0343 12.4649 13.1127 12.3865C13.1981 12.3011 13.2408 12.1943 13.2408 12.0662C13.2408 11.9309 13.1981 11.8206 13.1127 11.7352C13.0343 11.6498 12.9276 11.607 12.7923 11.607H11.7459V5.99039C11.7459 5.77683 11.6711 5.60242 11.5216 5.46716C11.3721 5.32479 11.1728 5.2536 10.9237 5.2536C10.6959 5.2536 10.5001 5.29988 10.3364 5.39242C10.1797 5.48496 10.0303 5.63801 9.88788 5.85157C9.64584 6.21463 9.36466 6.63463 9.04431 7.11159C8.72397 7.58854 8.39295 8.07973 8.05125 8.58516C7.71668 9.09059 7.39989 9.57466 7.10091 10.0374C6.80192 10.493 6.54921 10.8881 6.34277 11.2226C6.2787 11.3294 6.22887 11.4326 6.19327 11.5323C6.1648 11.6248 6.15056 11.7209 6.15056 11.8206C6.15056 12.0342 6.21819 12.2015 6.35344 12.3225C6.4887 12.4435 6.67023 12.504 6.89802 12.504H10.7528V14.063C10.7528 14.2267 10.7955 14.3584 10.8809 14.4581C10.9735 14.5578 11.0945 14.6076 11.244 14.6076ZM10.7528 11.607H7.18633V11.5537C7.32159 11.3116 7.50311 11.0162 7.73091 10.6674C7.95871 10.3186 8.20431 9.94127 8.4677 9.5355C8.73821 9.12974 9.00872 8.72041 9.27923 8.30753C9.55686 7.89464 9.81669 7.50667 10.0587 7.14362C10.3079 6.78057 10.5179 6.47446 10.6887 6.22531H10.7528V11.607Z" fill="#0067AB"/>
</svg>
