<svg width="20" height="20" viewBox="0 0 20 20" fill="none" xmlns="http://www.w3.org/2000/svg">
<path d="M10.0053 20C8.63143 20 7.33938 19.7366 6.1292 19.2098C4.92614 18.6902 3.86546 17.9712 2.94714 17.0529C2.02883 16.1345 1.30628 15.0739 0.779498 13.8708C0.259833 12.6606 0 11.3686 0 9.99466C0 8.62787 0.259833 7.34294 0.779498 6.13988C1.29916 4.9297 2.01815 3.86546 2.93647 2.94714C3.8619 2.02171 4.92614 1.29916 6.1292 0.779498C7.33938 0.259833 8.62787 0 9.99466 0C11.3686 0 12.6571 0.259833 13.8601 0.779498C15.0703 1.29916 16.1345 2.02171 17.0529 2.94714C17.9783 3.86546 18.7008 4.9297 19.2205 6.13988C19.7402 7.34294 20 8.62787 20 9.99466C20 11.3686 19.7402 12.6606 19.2205 13.8708C18.7008 15.0739 17.9783 16.1345 17.0529 17.0529C16.1345 17.9712 15.0703 18.6902 13.8601 19.2098C12.6571 19.7366 11.3721 20 10.0053 20ZM10.0053 14.7357C10.9877 14.7357 11.7743 14.4866 12.3652 13.9883C12.9632 13.4899 13.2621 12.8528 13.2621 12.0769C13.2621 11.5003 13.0593 10.9984 12.6535 10.5713C12.2477 10.137 11.7387 9.89144 11.1265 9.83449V9.77042C11.6462 9.685 12.0769 9.43584 12.4186 9.02296C12.7674 8.60295 12.9418 8.126 12.9418 7.5921C12.9418 6.91582 12.6677 6.357 12.1196 5.91564C11.5715 5.47428 10.8774 5.2536 10.0374 5.2536C9.29703 5.2536 8.65279 5.42801 8.10464 5.77683C7.5565 6.12565 7.23616 6.58124 7.14362 7.14362C7.12938 7.20769 7.1187 7.26464 7.11159 7.31447C7.10447 7.3643 7.10091 7.41769 7.10091 7.47464C7.10091 7.61701 7.14362 7.73447 7.22904 7.82702C7.32159 7.91244 7.43549 7.95515 7.57074 7.95515C7.82702 7.95515 7.98719 7.82346 8.05125 7.56006C8.12956 7.13294 8.34668 6.79124 8.70262 6.53497C9.05855 6.27158 9.49991 6.13988 10.0267 6.13988C10.6033 6.13988 11.0625 6.28226 11.4042 6.567C11.753 6.85175 11.9274 7.2326 11.9274 7.70956C11.9274 8.20075 11.7459 8.60651 11.3828 8.92686C11.0269 9.2472 10.5784 9.40737 10.0374 9.40737H9.26855C9.14042 9.40737 9.03364 9.45008 8.94821 9.5355C8.86991 9.61381 8.83075 9.71703 8.83075 9.84517C8.83075 9.9733 8.86991 10.0801 8.94821 10.1655C9.03364 10.2438 9.14042 10.283 9.26855 10.283H10.1121C10.7314 10.283 11.244 10.4503 11.6498 10.7848C12.0555 11.1194 12.2584 11.5394 12.2584 12.0448C12.2584 12.5859 12.052 13.0237 11.6391 13.3582C11.2262 13.6928 10.6852 13.8601 10.016 13.8601C9.44652 13.8601 8.96957 13.7249 8.58516 13.4544C8.20787 13.1838 7.96583 12.8457 7.85905 12.4399C7.77363 12.1765 7.61345 12.0448 7.37854 12.0448C7.23616 12.0448 7.1187 12.0911 7.02616 12.1837C6.94074 12.2762 6.89802 12.3901 6.89802 12.5254C6.89802 12.625 6.91582 12.7354 6.95141 12.8564C7.10091 13.4188 7.45684 13.8744 8.01922 14.2232C8.5816 14.5649 9.24364 14.7357 10.0053 14.7357Z" fill="#0067AB"/>
</svg>
