<svg width="32" height="32" viewBox="0 0 32 32" fill="none" xmlns="http://www.w3.org/2000/svg">
<path d="M14.6667 15.3334C13.2889 15.3334 12.1111 14.8445 11.1333 13.8667C10.1556 12.8889 9.66667 11.7112 9.66667 10.3334C9.66667 8.93337 10.1556 7.75004 11.1333 6.78337C12.1111 5.81671 13.2889 5.33337 14.6667 5.33337C16.0667 5.33337 17.25 5.81671 18.2167 6.78337C19.1833 7.75004 19.6667 8.93337 19.6667 10.3334C19.6667 11.7112 19.1833 12.8889 18.2167 13.8667C17.25 14.8445 16.0667 15.3334 14.6667 15.3334ZM29.9333 31.3334L25.2667 26.6667C24.7556 27.0445 24.2278 27.3056 23.6833 27.45C23.1389 27.5945 22.5778 27.6667 22 27.6667C20.4222 27.6667 19.0833 27.1167 17.9833 26.0167C16.8833 24.9167 16.3333 23.5778 16.3333 22C16.3333 20.4223 16.8833 19.0834 17.9833 17.9834C19.0833 16.8834 20.4222 16.3334 22 16.3334C23.5778 16.3334 24.9167 16.8834 26.0167 17.9834C27.1167 19.0834 27.6667 20.4223 27.6667 22C27.6667 22.5778 27.5944 23.1389 27.45 23.6834C27.3056 24.2278 27.0444 24.7556 26.6667 25.2667L31.3333 29.9334L29.9333 31.3334ZM22 25.6667C23.0444 25.6667 23.9167 25.3167 24.6167 24.6167C25.3167 23.9167 25.6667 23.0445 25.6667 22C25.6667 20.9556 25.3167 20.0834 24.6167 19.3834C23.9167 18.6834 23.0444 18.3334 22 18.3334C20.9556 18.3334 20.0833 18.6834 19.3833 19.3834C18.6833 20.0834 18.3333 20.9556 18.3333 22C18.3333 23.0445 18.6833 23.9167 19.3833 24.6167C20.0833 25.3167 20.9556 25.6667 22 25.6667ZM15.4667 18.0334C14.6222 19.3667 14.25 20.8334 14.35 22.4334C14.45 24.0334 14.9778 25.4445 15.9333 26.6667H4V23.5334C4 22.7112 4.19444 22.0112 4.58333 21.4334C4.97222 20.8556 5.53333 20.3778 6.26667 20C7.31111 19.4889 8.67222 19.0056 10.35 18.55C12.0278 18.0945 13.7333 17.9223 15.4667 18.0334Z" fill="#0067AB"/>
</svg>
