<svg width="18" height="19" viewBox="0 0 18 19" fill="none" xmlns="http://www.w3.org/2000/svg">
<g clip-path="url(#clip0_227_1253)">
<path d="M2.88477 15.833C2.4974 15.833 2.19434 15.7441 1.97559 15.5664C1.75684 15.3932 1.64746 15.1494 1.64746 14.835C1.64746 14.4248 1.77507 13.9919 2.03027 13.5361C2.29004 13.0758 2.65918 12.6497 3.1377 12.2578C3.62077 11.8613 4.19954 11.5378 4.87402 11.2871C5.5485 11.0365 6.30501 10.9111 7.14355 10.9111C7.9821 10.9111 8.73861 11.0365 9.41309 11.2871C10.0876 11.5378 10.6641 11.8613 11.1426 12.2578C11.6257 12.6497 11.9948 13.0758 12.25 13.5361C12.5052 13.9919 12.6328 14.4248 12.6328 14.835C12.6328 15.1494 12.5234 15.3932 12.3047 15.5664C12.0859 15.7441 11.7852 15.833 11.4023 15.833H2.88477ZM7.14355 9.7832C6.66048 9.7832 6.21842 9.6556 5.81738 9.40039C5.4209 9.14062 5.10417 8.79199 4.86719 8.35449C4.63021 7.91699 4.51172 7.42936 4.51172 6.8916C4.50716 6.37207 4.62337 5.89811 4.86035 5.46973C5.10189 5.03678 5.42318 4.69271 5.82422 4.4375C6.22526 4.18229 6.66504 4.05469 7.14355 4.05469C7.62207 4.05469 8.06185 4.18229 8.46289 4.4375C8.86393 4.68815 9.18294 5.02767 9.41992 5.45605C9.66146 5.87988 9.78223 6.35612 9.78223 6.88477C9.78223 7.42708 9.66146 7.91699 9.41992 8.35449C9.18294 8.79199 8.86393 9.14062 8.46289 9.40039C8.06641 9.6556 7.62663 9.7832 7.14355 9.7832ZM13.8906 10.2344C13.7539 10.2344 13.6331 10.2048 13.5283 10.1455C13.4235 10.0863 13.3232 9.9974 13.2275 9.87891L11.7646 8.12207C11.637 7.96257 11.5732 7.80078 11.5732 7.63672C11.5732 7.45443 11.637 7.30176 11.7646 7.17871C11.8923 7.05111 12.0472 6.9873 12.2295 6.9873C12.3343 6.9873 12.43 7.01009 12.5166 7.05566C12.6032 7.09668 12.6875 7.16732 12.7695 7.26758L13.8701 8.63477L16.249 4.82031C16.3994 4.56966 16.5931 4.44434 16.8301 4.44434C17.0033 4.44434 17.1582 4.50358 17.2949 4.62207C17.4316 4.736 17.5 4.88184 17.5 5.05957C17.5 5.13704 17.484 5.2168 17.4521 5.29883C17.4202 5.38086 17.3792 5.45833 17.3291 5.53125L14.5264 9.86523C14.3714 10.1113 14.1595 10.2344 13.8906 10.2344Z" fill="white"/>
</g>
<defs>
<clipPath id="clip0_227_1253">
<rect width="18" height="18" fill="white" transform="translate(0 0.5)"/>
</clipPath>
</defs>
</svg>
