<svg width="24" height="31" viewBox="0 0 24 31" fill="none" xmlns="http://www.w3.org/2000/svg">
<path d="M3.93164 27.9102C2.72852 27.9102 1.82161 27.6003 1.21094 26.9805C0.60026 26.3698 0.294922 25.4629 0.294922 24.2598V4.17578C0.294922 2.97266 0.60026 2.06576 1.21094 1.45508C1.83073 0.835286 2.73763 0.525391 3.93164 0.525391H17.7812C18.9753 0.525391 19.8776 0.830729 20.4883 1.44141C21.099 2.05208 21.4043 2.96354 21.4043 4.17578V18.75C21.2129 18.513 21.0078 18.2943 20.7891 18.0938C20.5794 17.8932 20.347 17.7064 20.0918 17.5332V4.20312C20.0918 3.42839 19.8867 2.84049 19.4766 2.43945C19.0755 2.0293 18.4831 1.82422 17.6992 1.82422H4C3.20703 1.82422 2.60547 2.03385 2.19531 2.45312C1.79427 2.86328 1.59375 3.44661 1.59375 4.20312V24.2324C1.59375 25.0163 1.79427 25.6087 2.19531 26.0098C2.60547 26.4108 3.20703 26.6113 4 26.6113H11.041C11.2051 26.8574 11.3874 27.0853 11.5879 27.2949C11.7975 27.5137 12.0163 27.7188 12.2441 27.9102H3.93164ZM5.68164 7.01953C5.51758 7.01953 5.38086 6.9694 5.27148 6.86914C5.17122 6.75977 5.12109 6.6276 5.12109 6.47266C5.12109 6.32682 5.17122 6.20378 5.27148 6.10352C5.38086 5.99414 5.51758 5.93945 5.68164 5.93945H16.0176C16.1725 5.93945 16.3047 5.99414 16.4141 6.10352C16.5234 6.20378 16.5781 6.32682 16.5781 6.47266C16.5781 6.6276 16.5234 6.75977 16.4141 6.86914C16.3047 6.9694 16.1725 7.01953 16.0176 7.01953H5.68164ZM5.68164 11.5586C5.51758 11.5586 5.38086 11.5085 5.27148 11.4082C5.17122 11.2988 5.12109 11.1712 5.12109 11.0254C5.12109 10.8704 5.17122 10.7428 5.27148 10.6426C5.38086 10.5332 5.51758 10.4785 5.68164 10.4785H16.0176C16.1725 10.4785 16.3047 10.5332 16.4141 10.6426C16.5234 10.7428 16.5781 10.8704 16.5781 11.0254C16.5781 11.1712 16.5234 11.2988 16.4141 11.4082C16.3047 11.5085 16.1725 11.5586 16.0176 11.5586H5.68164ZM16.1953 27.9102C15.2292 27.9102 14.3496 27.6732 13.5566 27.1992C12.7728 26.7344 12.1439 26.1055 11.6699 25.3125C11.196 24.5286 10.959 23.6582 10.959 22.7012C10.959 21.7441 11.196 20.8691 11.6699 20.0762C12.1439 19.2832 12.7728 18.6497 13.5566 18.1758C14.3496 17.7018 15.2292 17.4648 16.1953 17.4648C17.1523 17.4648 18.0228 17.7018 18.8066 18.1758C19.5996 18.6497 20.2285 19.2832 20.6934 20.0762C21.1673 20.86 21.4043 21.735 21.4043 22.7012C21.4043 23.6582 21.1673 24.5286 20.6934 25.3125C20.2285 26.1055 19.5996 26.7344 18.8066 27.1992C18.0228 27.6732 17.1523 27.9102 16.1953 27.9102ZM16.1953 26.707C16.9245 26.707 17.5898 26.5247 18.1914 26.1602C18.8021 25.8047 19.2897 25.3216 19.6543 24.7109C20.0189 24.1094 20.2012 23.4395 20.2012 22.7012C20.2012 21.9629 20.0189 21.2884 19.6543 20.6777C19.2897 20.0671 18.8021 19.5794 18.1914 19.2148C17.5898 18.8503 16.9245 18.668 16.1953 18.668C15.4479 18.668 14.7689 18.8503 14.1582 19.2148C13.5566 19.5794 13.0736 20.0671 12.709 20.6777C12.3444 21.2884 12.1621 21.9629 12.1621 22.7012C12.1621 23.4395 12.3444 24.1094 12.709 24.7109C13.0736 25.3216 13.5566 25.8047 14.1582 26.1602C14.7689 26.5247 15.4479 26.707 16.1953 26.707ZM22.8809 30.2207C22.653 30.2207 22.4434 30.1204 22.252 29.9199L18.7793 26.4336L19.873 25.4492L23.332 28.9219C23.4141 29.0039 23.4779 29.0905 23.5234 29.1816C23.569 29.2728 23.5918 29.373 23.5918 29.4824C23.5918 29.6921 23.5234 29.8652 23.3867 30.002C23.2591 30.1478 23.0905 30.2207 22.8809 30.2207Z" fill="#0067AB"/>
</svg>
