<svg width="250" height="38" viewBox="0 0 250 38" fill="none" xmlns="http://www.w3.org/2000/svg">
<path d="M0 37.9874L8.38442 31.6164V6.37731L0 0V37.9874ZM40 0L31.6092 6.37731V31.629L40 38V0ZM24.834 31.6101L20 37.9937L15.1596 31.6101V6.37731L20 0L24.834 6.37731V31.6101Z" fill="url(#paint0_linear_83_935)"/>
<path d="M188.393 29.1345C184.357 29.1345 182.298 25.1342 182.298 20.9297C182.298 17.1864 184.228 14.0255 187.836 14.0255C192.1 14.0255 193.931 18.23 193.931 22.2303C193.931 26.2307 191.856 29.1421 188.393 29.1421V29.1345ZM188.263 12.9593C187.081 12.9441 185.906 13.1559 184.808 13.5869C183.709 14.0179 182.71 14.6607 181.863 15.4774C181.016 16.2941 180.337 17.2696 179.872 18.3434C179.407 19.4173 179.155 20.5742 179.147 21.7464C179.147 26.7827 183.076 30.1705 187.958 30.1705C189.14 30.1856 190.315 29.9663 191.414 29.5277C192.512 29.0891 193.512 28.4388 194.358 27.6221C195.205 26.8054 195.876 25.8223 196.334 24.7409C196.792 23.6596 197.036 22.5026 197.043 21.3305C197.043 16.4529 193.26 12.9668 188.271 12.9668L188.263 12.9593Z" fill="white"/>
<path d="M78.3915 27.221C78.1397 23.077 77.7659 16.6492 77.5371 11.3255C77.4761 10.1459 78.1397 9.677 79.406 9.31403V8.82249C77.8422 8.8603 75.9351 8.82249 74.3789 8.82249L67.6507 24.7179H67.399L59.4654 8.7998C57.7796 8.8603 55.7733 8.86786 54.0798 8.7998V9.29134C55.9716 9.84337 56.6277 10.6601 56.5209 12.543C56.4141 14.426 55.8801 24.3247 55.7733 26.1925C55.6665 27.894 55.0486 28.6351 53.2635 29.1871V29.6787C55.4758 29.6333 57.749 29.6333 59.9536 29.6787V29.1796C57.8558 28.6275 57.1845 27.8184 57.2379 26.1925L57.7567 12.8531H57.9779L66.4378 29.6862H66.8573L74.3637 12.1725H74.5925C74.7909 17.2164 75.0426 22.1393 75.3477 27.1832C75.4011 28.3099 74.9892 28.7788 73.3796 29.1947V29.6862C75.5919 29.6484 78.0634 29.6484 80.2757 29.6862V29.1947C78.9178 28.8544 78.4372 28.3402 78.3762 27.2285L78.3915 27.221Z" fill="white"/>
<path d="M103.657 21.7914C103.107 21.7914 102.566 21.7082 102.047 21.5343V14.5621C102.451 14.5167 102.856 14.494 103.26 14.494C106.082 14.494 107.395 16.135 107.395 18.1163C107.395 20.6798 105.449 21.8141 103.657 21.7914ZM109.614 26.616C108.89 25.5195 107.021 22.2905 107.021 22.2905C109.119 21.5419 110.431 19.9765 110.431 17.897C110.431 15.0839 107.906 13.3446 103.504 13.511C101.917 13.5715 99.4687 13.5715 97.4853 13.511V13.9571C98.8736 14.3201 99.1483 14.6604 99.1483 15.6813V27.5461C99.1483 28.567 98.8508 28.9073 97.4471 29.2703V29.7165C99.5907 29.6711 101.956 29.6711 103.748 29.7165V29.3005C102.329 28.93 102.024 28.5973 102.024 27.5688V22.5249C102.619 22.714 103.237 22.7972 103.863 22.7896H104.313C104.313 22.7896 107.097 27.4932 107.684 28.4914C107.936 28.9603 108.302 29.361 108.752 29.6408C109.202 29.9282 109.721 30.0946 110.255 30.1172C111.079 30.1172 111.888 29.9358 112.635 29.5955V29.361C111.621 29.1871 110.637 28.1814 109.607 26.6236L109.614 26.616Z" fill="white"/>
<path d="M90.3605 27.5457V15.6808C90.3605 14.6751 90.6427 14.3499 92.0235 13.9642V13.5181C90.0554 13.5634 87.8279 13.5634 85.8674 13.5181V13.9642C87.21 14.3196 87.5304 14.6675 87.5304 15.6733V27.5381C87.5304 28.5439 87.2405 28.8917 85.8674 29.2472V29.6933C87.8508 29.6479 90.0859 29.6479 92.0693 29.6933V29.2472C90.6733 28.8993 90.3681 28.5514 90.3681 27.5457H90.3605Z" fill="white"/>
<path d="M119.348 23.8416L122.133 17.4819H122.362L125.138 23.8416H119.348ZM130.158 27.6907L123.376 13.3682H122.659L116.854 26.5942C116.205 28.0915 115.58 28.7872 114.443 29.2636V29.7098C116.06 29.6644 117.746 29.6644 119.379 29.7098V29.2863C117.685 28.8401 117.586 27.8873 118.074 26.7833L118.921 24.8852H125.565L126.786 27.6756C127.236 28.6738 126.969 29.0065 125.482 29.377V29.7098C127.564 29.6644 129.936 29.6644 132.034 29.7098V29.377C131.607 29.2712 131.218 29.0594 130.89 28.7721C130.562 28.4772 130.318 28.1142 130.165 27.7058V27.6907H130.158Z" fill="white"/>
<path d="M245.285 19.8409C243.493 18.7444 241.807 17.958 241.807 16.4002C241.807 14.8424 242.997 14.0106 244.668 14.0106C246.506 14.0106 247.734 15.4247 248.703 17.4664H249.176C249.176 16.2036 249.222 14.9256 249.336 13.6627C247.994 13.3981 246.399 12.9443 244.973 12.9443C241.799 12.9443 239.389 14.8046 239.389 17.4362C239.389 19.7124 241.54 21.0282 243.478 22.17C245.545 23.3724 247.643 24.363 247.643 26.4124C247.643 28.4617 246.109 29.1271 244.607 29.1271C242.677 29.1271 241.631 27.8945 240.327 25.1268H239.854C239.824 26.5939 239.808 27.8643 239.709 29.2557C241.151 29.8833 242.715 30.1934 244.286 30.1707C247.315 30.1707 250 28.318 250 25.3537C250.023 22.7372 247.406 21.1265 245.285 19.8409Z" fill="white"/>
<path d="M220.394 13.5037V13.9498C221.79 14.3128 222.087 14.6531 222.087 15.674V27.5842C222.087 28.6127 221.79 28.9454 220.363 29.3159V29.7621C222.385 29.7167 224.651 29.7167 226.672 29.7621V29.3159C225.276 28.9529 224.979 28.6202 224.979 27.5918V15.5832C224.979 14.5623 225.276 14.3052 226.665 13.9498V13.5263C224.62 13.5415 222.4 13.5566 220.402 13.4961L220.394 13.5037Z" fill="white"/>
<path d="M233.088 26.8122C232.073 25.5417 228.007 20.1954 228.007 20.1954C228.007 20.1954 231.02 16.8151 231.798 15.9908C232.691 15.0758 233.782 14.3801 234.987 13.9491V13.5029C233.461 13.5483 231.722 13.5483 230.212 13.5029V14.002C230.761 14.1457 231.074 14.3726 231.074 14.6977C231.074 15.0229 230.708 15.4918 230.021 16.2631L225.566 21.2011C225.566 21.2011 230.395 27.9011 230.875 28.5212C231.837 29.7689 232.447 30.0336 233.614 30.0336C234.484 30.0336 235.338 29.8294 236.116 29.4438V29.1261C234.979 28.8312 234.323 28.3473 233.095 26.8122H233.088Z" fill="white"/>
<path d="M207.731 21.7914C207.182 21.7914 206.64 21.7082 206.121 21.5343V14.5621C206.526 14.5167 206.93 14.494 207.334 14.494C210.157 14.494 211.476 16.135 211.476 18.1163C211.476 20.6798 209.524 21.8141 207.731 21.7914ZM213.689 26.616C212.964 25.5195 211.095 22.2905 211.095 22.2905C213.193 21.5419 214.505 19.9765 214.505 17.897C214.505 15.0839 211.98 13.3446 207.586 13.511C205.992 13.5715 203.551 13.5715 201.567 13.511V13.9571C202.955 14.3201 203.23 14.6604 203.23 15.6813V27.5461C203.23 28.567 202.933 28.9073 201.521 29.2703V29.7165C203.665 29.6711 206.007 29.6711 207.8 29.7165V29.3005C206.381 28.93 206.075 28.5973 206.075 27.5688V22.5249C206.671 22.714 207.288 22.7972 207.914 22.7896H208.364C208.364 22.7896 211.141 27.4932 211.736 28.4914C211.988 28.9602 212.354 29.3535 212.804 29.6408C213.254 29.9282 213.773 30.0946 214.307 30.1248C215.13 30.1248 215.939 29.9433 216.687 29.603V29.3686C215.695 29.1947 214.718 28.1889 213.689 26.6311V26.616Z" fill="white"/>
<path d="M139.899 27.5457V15.6808C139.899 14.6751 140.181 14.3499 141.562 13.9642V13.5181C139.586 13.5634 137.367 13.5634 135.398 13.5181V13.9642C136.741 14.3196 137.061 14.6675 137.061 15.6733V27.5381C137.061 28.5439 136.772 28.8917 135.398 29.2472V29.6933C137.382 29.6479 139.617 29.6479 141.6 29.6933V29.2472C140.204 28.8993 139.899 28.5514 139.899 27.5457Z" fill="white"/>
<path d="M172.45 8.82249V9.30646C173.754 9.66188 174.319 10.1156 174.319 10.955C174.28 11.4314 174.166 11.9002 173.99 12.3464L169.261 24.9524H169.024C169.024 24.9524 163.921 12.7245 163.387 11.3331C162.899 10.1156 163.761 9.55601 164.981 9.27621V8.83005C163.006 8.87543 160.847 8.87543 158.902 8.83005V9.14766L161.632 15.2729L157.948 24.8994H157.727C157.727 24.8994 152.677 12.717 152.135 11.3331C151.685 10.1912 152.524 9.55601 153.729 9.26865V8.82249C151.395 8.86786 148.741 8.86786 146.429 8.82249V9.26865C147.604 9.58626 148.092 10.1156 148.626 11.318C149.206 12.6489 153.806 23.0997 156.888 30.1475H157.254L162.365 16.9668L168.162 30.1475H168.529L175.47 12.3615C176.21 10.5088 176.988 9.7375 178.506 9.27621V8.7998C176.592 8.85274 174.364 8.85274 172.457 8.81493L172.45 8.82249Z" fill="white"/>
<defs>
<linearGradient id="paint0_linear_83_935" x1="2.22861" y1="1.50794" x2="37.6353" y2="37.493" gradientUnits="userSpaceOnUse">
<stop stop-color="#BC0900"/>
<stop offset="1" stop-color="#530E06"/>
</linearGradient>
</defs>
</svg>
