<svg width="14" height="14" viewBox="0 0 14 14" fill="none" xmlns="http://www.w3.org/2000/svg">
<path d="M6.016 6.88L0.568 1.432L1.528 0.448L7 5.92L12.424 0.472L13.408 1.432L7.96 6.88L13.432 12.328L12.448 13.288L6.976 7.84L1.504 13.312L0.544 12.352L6.016 6.88Z" fill="#252828"/>
<path d="M6.016 6.88L6.36955 7.23355C6.56482 7.03829 6.56482 6.72171 6.36955 6.52645L6.016 6.88ZM0.568 1.432L0.210109 1.08284C0.0189536 1.27877 0.0208869 1.59199 0.214447 1.78555L0.568 1.432ZM1.528 0.448L1.88155 0.0944466C1.78703 -7.80363e-05 1.65859 -0.0528156 1.52491 -0.0519905C1.39124 -0.0511654 1.26346 0.00315356 1.17011 0.0988378L1.528 0.448ZM7 5.92L6.64645 6.27355C6.74035 6.36746 6.86775 6.42015 7.00055 6.42C7.13335 6.41985 7.26064 6.36688 7.35433 6.27277L7 5.92ZM12.424 0.472L12.7732 0.114108C12.5769 -0.0773473 12.2631 -0.0750637 12.0697 0.119228L12.424 0.472ZM13.408 1.432L13.7616 1.78555C13.8561 1.69103 13.9088 1.56259 13.908 1.42891C13.9072 1.29524 13.8528 1.16746 13.7572 1.07411L13.408 1.432ZM7.96 6.88L7.60645 6.52645C7.51254 6.62035 7.45985 6.74775 7.46 6.88055C7.46015 7.01335 7.51312 7.14063 7.60722 7.23433L7.96 6.88ZM13.432 12.328L13.7812 12.6859C13.877 12.5924 13.9313 12.4644 13.932 12.3305C13.9327 12.1967 13.8796 12.0681 13.7848 11.9737L13.432 12.328ZM12.448 13.288L12.0952 13.6423C12.2889 13.8352 12.6015 13.8367 12.7972 13.6459L12.448 13.288ZM6.976 7.84L7.32878 7.48567C7.13339 7.29114 6.81741 7.29149 6.62245 7.48645L6.976 7.84ZM1.504 13.312L1.15045 13.6656C1.34571 13.8608 1.66229 13.8608 1.85755 13.6656L1.504 13.312ZM0.544 12.352L0.190447 11.9984C0.0966786 12.0922 0.0440001 12.2194 0.0440001 12.352C0.0440002 12.4846 0.0966786 12.6118 0.190447 12.7056L0.544 12.352ZM6.36955 6.52645L0.921554 1.07845L0.214447 1.78555L5.66245 7.23355L6.36955 6.52645ZM0.925891 1.78116L1.88589 0.797162L1.17011 0.0988378L0.210109 1.08284L0.925891 1.78116ZM1.17445 0.801553L6.64645 6.27355L7.35355 5.56645L1.88155 0.0944466L1.17445 0.801553ZM7.35433 6.27277L12.7783 0.824772L12.0697 0.119228L6.64567 5.56723L7.35433 6.27277ZM12.0748 0.829891L13.0588 1.78989L13.7572 1.07411L12.7732 0.114108L12.0748 0.829891ZM13.0544 1.07845L7.60645 6.52645L8.31355 7.23355L13.7616 1.78555L13.0544 1.07845ZM7.60722 7.23433L13.0792 12.6823L13.7848 11.9737L8.31278 6.52567L7.60722 7.23433ZM13.0828 11.9701L12.0988 12.9301L12.7972 13.6459L13.7812 12.6859L13.0828 11.9701ZM12.8008 12.9337L7.32878 7.48567L6.62322 8.19433L12.0952 13.6423L12.8008 12.9337ZM6.62245 7.48645L1.15045 12.9584L1.85755 13.6656L7.32955 8.19355L6.62245 7.48645ZM1.85755 12.9584L0.897553 11.9984L0.190447 12.7056L1.15045 13.6656L1.85755 12.9584ZM0.897554 12.7056L6.36955 7.23355L5.66245 6.52645L0.190447 11.9984L0.897554 12.7056Z" fill="#252828"/>
</svg>
