<svg xmlns="http://www.w3.org/2000/svg" viewBox="0 0 9.27 12.31"><defs><style>.cls-1{opacity:0.95;}.cls-2{fill:#a0a0a0;}</style></defs><title>icon_upload_file</title><g id="Layer_2" data-name="Layer 2"><g id="レイヤー_1" data-name="レイヤー 1"><g class="cls-1"><path class="cls-2" d="M7.35,2.25,4.87.12A.43.43,0,0,0,4.56,0a.47.47,0,0,0-.32.12L1.76,2.24a.49.49,0,0,0-.18.32.49.49,0,0,0,.1.36.51.51,0,0,0,.38.18A.44.44,0,0,0,2.38,3l1.7-1.45v8a.47.47,0,0,0,.48.48A.48.48,0,0,0,5,9.55v-8L6.72,3a.49.49,0,0,0,.35.15A.46.46,0,0,0,7.41,3,.49.49,0,0,0,7.35,2.25Z"/><path class="cls-2" d="M9.27,5.23v6.6a.47.47,0,0,1-.19.37.44.44,0,0,1-.29.11H.48a.44.44,0,0,1-.34-.14A.48.48,0,0,1,0,11.83V5.23a.47.47,0,0,1,.18-.37.5.5,0,0,1,.3-.11H2.34a.47.47,0,0,1,.33.14.48.48,0,0,1,.14.34.48.48,0,0,1-.14.34.47.47,0,0,1-.33.14H1v5.64H8.31V5.71H6.93a.48.48,0,0,1-.34-.14.51.51,0,0,1,0-.68.36.36,0,0,1,.15-.1.41.41,0,0,1,.19,0H8.79a.48.48,0,0,1,.48.48Z"/></g></g></g></svg>