<svg xmlns="http://www.w3.org/2000/svg" viewBox="0 0 186 186"><defs><style>.cls-1{fill:#f7f7f7;}.cls-2{fill:#505050;}.cls-3{fill:#ce002e;}</style></defs><title>icon_step06</title><g id="Layer_2" data-name="Layer 2"><g id="service"><rect class="cls-1" width="186" height="186"/><path class="cls-2" d="M67.43,115a9.15,9.15,0,1,0-11.7,0,10.67,10.67,0,0,0-6.35,9.75v10.67A1.52,1.52,0,0,0,50.9,137H72.26a1.52,1.52,0,0,0,1.52-1.53V124.75A10.67,10.67,0,0,0,67.43,115ZM63,123l-1.45,2.9L60.13,123l1.17-5.89h.56Zm-1.45-21.14a6.09,6.09,0,0,1,4.88,2.48,21.45,21.45,0,0,1-9.76,0A6.09,6.09,0,0,1,61.58,101.87Zm-6,5.34a24.26,24.26,0,0,0,12,0,6.31,6.31,0,0,1,.08.76,6.1,6.1,0,0,1-12.2,0A6.31,6.31,0,0,1,55.55,107.21ZM70.73,133.9H52.43v-9.15a7.6,7.6,0,0,1,5.71-7.35L57,122.92a1.54,1.54,0,0,0,.14,1l3,6.1a1.52,1.52,0,0,0,2.72,0l3-6.11a1.5,1.5,0,0,0,.14-1L65,117.4a7.62,7.62,0,0,1,5.71,7.35Z"/><path class="cls-2" d="M133,115a9.15,9.15,0,1,0-11.71,0,10.67,10.67,0,0,0-6.34,9.75v10.67A1.52,1.52,0,0,0,116.5,137h21.35a1.53,1.53,0,0,0,1.53-1.53V124.75A10.68,10.68,0,0,0,133,115Zm-4.4,8-1.45,2.9-1.46-2.9,1.18-5.89h.55Zm-1.45-21.14a6.09,6.09,0,0,1,4.88,2.48,21.49,21.49,0,0,1-9.77,0A6.11,6.11,0,0,1,127.18,101.87Zm-6,5.34a24.26,24.26,0,0,0,12,0,6.31,6.31,0,0,1,.08.76,6.1,6.1,0,1,1-12.2,0A6.31,6.31,0,0,1,121.15,107.21Zm15.18,26.69H118v-9.15a7.6,7.6,0,0,1,5.71-7.35l-1.11,5.52a1.5,1.5,0,0,0,.13,1l3,6.11a1.53,1.53,0,0,0,2.73,0l3.05-6.11a1.5,1.5,0,0,0,.13-1l-1.1-5.52a7.62,7.62,0,0,1,5.71,7.35Z"/><path class="cls-2" d="M89,52.55H63.1a1.52,1.52,0,0,0-1.52,1.53v32a1.52,1.52,0,0,0,1.52,1.53H89a1.53,1.53,0,0,0,1.53-1.53v-32A1.53,1.53,0,0,0,89,52.55Zm-1.52,32H64.63v-29H87.51Z"/><path class="cls-3" d="M130.21,86.1v-32a1.52,1.52,0,0,0-1.52-1.53H98.18a1.52,1.52,0,0,0-1.52,1.53v32a1.52,1.52,0,0,0,1.52,1.53h30.51A1.52,1.52,0,0,0,130.21,86.1Zm-3.05-1.52H99.71v-29h27.45Z"/><rect class="cls-3" x="116.48" y="73.9" width="3.05" height="7.63"/><rect class="cls-3" x="121.06" y="67.8" width="3.05" height="13.73"/><path class="cls-2" d="M136.31,86.1v-32a7.63,7.63,0,0,0-7.62-7.63H61.58A7.64,7.64,0,0,0,54,54.08v32a7.64,7.64,0,0,0,7.63,7.63H81.09l-2.46,8.42A1.52,1.52,0,0,0,79.1,104a1.5,1.5,0,0,0,.92.31,1.55,1.55,0,0,0,1-.36L96.22,93.73h32.47A7.63,7.63,0,0,0,136.31,86.1ZM95.66,90.68a1.52,1.52,0,0,0-1,.36L82.92,99.1l1.93-6.26a1.54,1.54,0,0,0-.11-1.46,1.51,1.51,0,0,0-1.28-.7H61.58A4.59,4.59,0,0,1,57,86.1v-32a4.59,4.59,0,0,1,4.58-4.58h67.11a4.58,4.58,0,0,1,4.57,4.58v32a4.58,4.58,0,0,1-4.57,4.58Z"/><rect class="cls-3" x="111.91" y="76.95" width="3.05" height="4.58"/><rect class="cls-2" x="67.68" y="64.75" width="3.05" height="3.05" rx="0.87"/><rect class="cls-2" x="73.78" y="64.75" width="10.68" height="3.05" rx="0.87"/><rect class="cls-2" x="67.68" y="70.85" width="3.05" height="3.05" rx="0.87"/><rect class="cls-2" x="73.78" y="70.85" width="10.68" height="3.05" rx="0.87"/><rect class="cls-2" x="67.68" y="76.95" width="3.05" height="3.05" rx="0.87"/><rect class="cls-2" x="73.78" y="76.95" width="10.68" height="3.05" rx="0.87"/><rect class="cls-2" x="72.26" y="58.65" width="7.63" height="3.05" rx="0.87"/><path class="cls-3" d="M112.84,60.14l-.31-.25a.86.86,0,0,0-1.21.13l-2.89,3.61L105.55,60a.87.87,0,0,0-1.22-.13l-.31.25a.87.87,0,0,0-.14,1.21l3.19,4h-2a.87.87,0,0,0-.87.87v.4a.87.87,0,0,0,.87.86h2.33v1.07H105a.86.86,0,0,0-.87.86v.4a.86.86,0,0,0,.87.86h2.33V73a.87.87,0,0,0,.86.87h.4a.87.87,0,0,0,.87-.87V70.65h2.32a.86.86,0,0,0,.87-.86v-.4a.86.86,0,0,0-.87-.86H109.5V67.46h2.32a.87.87,0,0,0,.87-.86v-.4a.87.87,0,0,0-.87-.87h-2l3.19-4A.85.85,0,0,0,112.84,60.14Z"/><path class="cls-2" d="M79,136.86a2.48,2.48,0,0,1-2.48-2.48v-9.14A2.48,2.48,0,0,1,79,122.76h3.29v-.58a2.48,2.48,0,0,1,2.48-2.47h3.92a2.48,2.48,0,0,1,2.48,2.47v.58h3.3a2.48,2.48,0,0,1,2.47,2.48v9.14a2.48,2.48,0,0,1-2.47,2.48Zm-.13-2.48a.13.13,0,0,0,.13.13H94.42a.13.13,0,0,0,.13-.13v-5.87h0c-1.15,1.06-2.34,2.15-3.62,2.15H89.16v.13A1.18,1.18,0,0,1,88,132h-2.6a1.18,1.18,0,0,1-1.18-1.17v-.13H82.44c-1.28,0-2.47-1.09-3.62-2.15h0ZM87.21,130v-.93H86.07V130Zm3.71-1.7c.56,0,1.81-1.2,2.82-2.16l.81-.77v-.14a.13.13,0,0,0-.13-.13H79a.13.13,0,0,0-.13.13v.14l.81.77c1,1,2.25,2.16,2.81,2.16H84.2v-.13A1.17,1.17,0,0,1,85.38,127H88a1.17,1.17,0,0,1,1.18,1.17v.13Zm-2.15-5.55v-.58a.13.13,0,0,0-.13-.13H84.72a.13.13,0,0,0-.13.13v.58Z"/></g></g></svg>