<svg xmlns="http://www.w3.org/2000/svg" viewBox="0 0 172 172"><defs><style>.cls-1{fill:#fff;}.cls-2{fill:#505050;}.cls-3{fill:#ce002e;}</style></defs><title>icon_sf_step05A</title><g id="Layer_2" data-name="Layer 2"><g id="service_flow_pc"><rect class="cls-1" width="172" height="172"/><path class="cls-2" d="M116.79,47H102.28a1.61,1.61,0,0,0-1.61,1.61V63.1a1.61,1.61,0,0,0,1.61,1.61h4l-6.88,8.53a1.61,1.61,0,0,0,2.5,2l8.5-10.55h6.42a1.61,1.61,0,0,0,1.6-1.61V48.59a1.6,1.6,0,0,0-1.6-1.61Zm-1.6,14.52H103.88V50.19h11.23Z"/><path class="cls-2" d="M70.5,75.09a1.61,1.61,0,0,0,2.25.28,1.59,1.59,0,0,0,.3-2.24l-6.42-8.42h4.21a1.61,1.61,0,0,0,1.6-1.61h0v-6a1.61,1.61,0,0,0-3.21,0V61.5H57.88V50.19h6.57a1.61,1.61,0,1,0,0-3.21H56.27a1.61,1.61,0,0,0-1.6,1.61V63.1a1.61,1.61,0,0,0,1.6,1.61h6.27Z"/><path class="cls-3" d="M61.73,53.67a1.6,1.6,0,0,0-2.25,2.26l2.94,3a1.6,1.6,0,0,0,1.14.46h0a1.59,1.59,0,0,0,1.15-.51l10-10.76a1.63,1.63,0,0,0-2.41-2.19l-8.82,9.55Z"/><path class="cls-2" d="M79.45,62h5.44v3.13a1.61,1.61,0,0,0,3.21,0V62H94a1.61,1.61,0,0,0,1.61-1.6v-6a1.61,1.61,0,0,0-3.21,0V58.8H81.06V47.5h6.57a1.61,1.61,0,0,0,0-3.21H79.45a1.6,1.6,0,0,0-1.6,1.6V60.41A1.6,1.6,0,0,0,79.45,62Z"/><path class="cls-3" d="M84.89,51a1.6,1.6,0,0,0-2.27,0h0a1.61,1.61,0,0,0,0,2.26l2.94,2.95a1.64,1.64,0,0,0,1.13.46h0a1.57,1.57,0,0,0,1.14-.51l10-10.76a1.61,1.61,0,0,0,.07-2.27A1.59,1.59,0,0,0,95.66,43a.75.75,0,0,0-.15.16l-8.83,9.54Z"/><path class="cls-3" d="M105.19,59.93a1.64,1.64,0,0,0,1.13.48,1.62,1.62,0,0,0,1.14-.48l2.08-2.09,2.09,2.09a1.6,1.6,0,0,0,2.26-2.26l-2.09-2.09,2.09-2.08a1.6,1.6,0,0,0-.18-2.26,1.58,1.58,0,0,0-2.08,0l-2.09,2.16-2.08-2.08a1.6,1.6,0,1,0-2.27,2.26l2.07,2.08-2.07,2.09A1.6,1.6,0,0,0,105.19,59.93Z"/><path class="cls-2" d="M71.93,125.39a1.65,1.65,0,0,1-1.65-1.65v-14a14.23,14.23,0,0,1,8.43-13,.43.43,0,0,0,.11-.73,12.1,12.1,0,1,1,15.48,0,.42.42,0,0,0-.16.39.44.44,0,0,0,.26.34,14.23,14.23,0,0,1,8.44,13v14a1.65,1.65,0,0,1-1.65,1.65Zm9.91-26.12-.11,0a10.87,10.87,0,0,0-8.15,10.49v11.87a.44.44,0,0,0,.44.44H99.1a.44.44,0,0,0,.43-.44V109.78a10.87,10.87,0,0,0-8.15-10.49l-.11,0a.42.42,0,0,0-.3.12.44.44,0,0,0-.13.41l1.52,7.57a1.63,1.63,0,0,1-.15,1.06L88,116.79a1.65,1.65,0,0,1-3,0l-4.18-8.36a1.63,1.63,0,0,1-.15-1.06l1.52-7.57a.44.44,0,0,0-.13-.41A.42.42,0,0,0,81.84,99.27Zm4.34-.37a.43.43,0,0,0-.43.35l-1.61,8.07a.4.4,0,0,0,0,.28l2,4a.45.45,0,0,0,.4.24.46.46,0,0,0,.39-.24l2-4a.48.48,0,0,0,0-.29l-1.61-8.06a.43.43,0,0,0-.43-.35ZM78.3,85.32a.45.45,0,0,0-.25.07.44.44,0,0,0-.18.31l0,.25a7.9,7.9,0,0,0-.07.85,8.8,8.8,0,0,0,17.59,0,6,6,0,0,0-.07-.85l0-.25a.48.48,0,0,0-.19-.31.45.45,0,0,0-.25-.07H94.7a32.72,32.72,0,0,1-16.29,0ZM86.56,78a8.73,8.73,0,0,0-7,3.57.44.44,0,0,0,.25.69,30,30,0,0,0,13.59,0,.44.44,0,0,0,.25-.69A8.72,8.72,0,0,0,86.56,78Z"/></g></g></svg>