<svg xmlns="http://www.w3.org/2000/svg" viewBox="0 0 20 16.66"><defs><style>.cls-1{fill:#fff;}</style></defs><title>icon_b!</title><g id="Layer_2" data-name="Layer 2"><g id="interview_detail"><path class="cls-1" d="M12.07,8.92A3.93,3.93,0,0,0,9.3,7.68a4.59,4.59,0,0,0,2.3-1.27,3.36,3.36,0,0,0,.72-2.25,4,4,0,0,0-.49-2A3.52,3.52,0,0,0,10.43.81,5.84,5.84,0,0,0,8.5.18,27.15,27.15,0,0,0,4.57,0H0V16.66H4.71a32,32,0,0,0,4.09-.19,6.86,6.86,0,0,0,2.09-.66,3.81,3.81,0,0,0,1.61-1.57,4.78,4.78,0,0,0,.56-2.35A4.3,4.3,0,0,0,12.07,8.92ZM4.22,3.69h1a4.51,4.51,0,0,1,2.27.38,1.47,1.47,0,0,1,.58,1.32,1.35,1.35,0,0,1-.62,1.27A4.9,4.9,0,0,1,5.12,7h-.9V3.69Zm3.87,9.55a4.68,4.68,0,0,1-2.28.4H4.22V10H5.88a4.33,4.33,0,0,1,2.27.42,1.67,1.67,0,0,1,.61,1.47,1.38,1.38,0,0,1-.67,1.35Z"/><path class="cls-1" d="M17.89,12.44A2.11,2.11,0,1,0,20,14.55h0A2.12,2.12,0,0,0,17.89,12.44Z"/><rect class="cls-1" x="16.06" width="3.67" height="11.11"/></g></g></svg>