<svg xmlns="http://www.w3.org/2000/svg" viewBox="0 0 186 186"><defs><style>.cls-1{fill:#f7f7f7;}.cls-2{fill:#505050;}.cls-3{fill:#ce002e;}</style></defs><title>icon_step05</title><g id="Layer_2" data-name="Layer 2"><g id="service"><rect class="cls-1" width="186" height="186"/><path class="cls-2" d="M63.17,145.22a1.52,1.52,0,0,1-1.51-1.91.25.25,0,0,1,0-.08l.93-2.58H58.45a7.41,7.41,0,0,1-7.4-7.4V118a.27.27,0,0,1,.08-.19.28.28,0,0,1,.2-.08h1.42a1.71,1.71,0,0,1,1.71,1.7v13.8a4,4,0,0,0,4,4h5.38l.31-.87H62.73A7.42,7.42,0,0,1,55.32,129V114.72a7.34,7.34,0,0,1,3.19-6,8.83,8.83,0,1,1,11.87-.53,7.46,7.46,0,0,1,3,2.79l3.48-9.62a1.7,1.7,0,0,1,1.6-1.12H81V93.34a10.28,10.28,0,0,1,5.71-9.18,8.83,8.83,0,1,1,11.94,0,10.28,10.28,0,0,1,5.71,9.18v6.85h2.57a1.7,1.7,0,0,1,1.6,1.12l3.48,9.62a7.42,7.42,0,0,1,3-2.79,8.83,8.83,0,1,1,11.86.53,7.34,7.34,0,0,1,3.19,6V129a7.42,7.42,0,0,1-7.41,7.41h-1.41l.31.87h5.38a4,4,0,0,0,4-4v-13.8a1.7,1.7,0,0,1,1.7-1.7H134a.32.32,0,0,1,.2.08.27.27,0,0,1,.08.19v15.23a7.41,7.41,0,0,1-7.4,7.4h-4.15l.93,2.59a1.46,1.46,0,0,1,.07.42,1.56,1.56,0,0,1-1.56,1.56Zm56.45-3.11-13.9-38.51H79.6L65.7,142.11Zm3-9.14a4,4,0,0,0,4-4V114.72a4,4,0,0,0-4-4h-4.27a4,4,0,0,0-4,4v2.71L120,133ZM62.73,110.72a4,4,0,0,0-4,4V129a4,4,0,0,0,4,4h2.64L71,117.34l0-2.62a4,4,0,0,0-4-4Zm55-13a5.39,5.39,0,0,0-2,4.15,5.44,5.44,0,0,0,5.43,5.43,5.24,5.24,0,0,0,2.5-.65A11,11,0,0,0,117.72,97.74Zm-56.07,8.93a5.24,5.24,0,0,0,2.5.65,5.41,5.41,0,0,0,3.46-9.58A11,11,0,0,0,61.65,106.67ZM122,96.53a14.54,14.54,0,0,1,4.44,6.67,5.22,5.22,0,0,0,.16-1.31A5.43,5.43,0,0,0,122,96.53Zm-58.66,0a5.43,5.43,0,0,0-4.6,5.36,5.22,5.22,0,0,0,.16,1.31A14.54,14.54,0,0,1,63.33,96.53Zm37.6,3.66V93.34a6.82,6.82,0,0,0-4.69-6.47l.94,4.71a1.74,1.74,0,0,1-.14,1.1l-2.86,5.7a1.7,1.7,0,0,1-3,0l-2.85-5.7a1.68,1.68,0,0,1-.15-1.1l.94-4.71a6.83,6.83,0,0,0-4.69,6.47v6.85Zm-8.27-6.38,1.07-2.13-1-5.19h-.06l-1,5.19ZM87.27,77.3a2.19,2.19,0,0,0,0,.36,5.42,5.42,0,1,0,10.84,0c0-.12,0-.24,0-.36a23.06,23.06,0,0,1-10.79,0Zm1.32-3.19a20.41,20.41,0,0,0,8.14,0,5.36,5.36,0,0,0-8.14,0Z"/><path class="cls-3" d="M104,37.42a1.47,1.47,0,0,0,.36,1.44l1.74,1.74L95.3,49,89,44a1.43,1.43,0,0,0-1.65-.11L72.82,52.52,74.31,55l13.61-8.17L94.38,52a1.44,1.44,0,0,0,1.79,0l12-9.35,2,2a1.41,1.41,0,0,0,1,.43,1.23,1.23,0,0,0,.42-.07,1.42,1.42,0,0,0,1-1.1l1.45-7.24a1.44,1.44,0,0,0-1.7-1.7l-7.24,1.45A1.45,1.45,0,0,0,104,37.42Zm6.78.81-.49,2.46-2-2Z"/><rect class="cls-3" x="106.87" y="47.97" width="2.9" height="15.93"/><rect class="cls-3" x="101.07" y="52.32" width="2.9" height="11.58"/><rect class="cls-3" x="95.28" y="55.21" width="2.9" height="8.69"/><rect class="cls-3" x="89.49" y="52.32" width="2.9" height="11.58"/><rect class="cls-3" x="83.7" y="52.32" width="2.9" height="11.58"/><rect class="cls-3" x="77.91" y="55.21" width="2.9" height="8.69"/></g></g></svg>