<svg xmlns="http://www.w3.org/2000/svg" viewBox="0 0 172 172"><defs><style>.cls-1{fill:#505050;}.cls-2{fill:#ce002e;}.cls-3{fill:#fff;}</style></defs><title>icon_sf_step04</title><g id="Layer_2" data-name="Layer 2"><g id="service_flow_pc"><path class="cls-1" d="M66.72,54.62a1.14,1.14,0,0,1-1.13-1.13V44.41a1.14,1.14,0,1,1,2.27,0v9.08A1.14,1.14,0,0,1,66.72,54.62Z"/><path class="cls-1" d="M71.26,50.08H62.18a1.14,1.14,0,0,1,0-2.27h9.08a1.14,1.14,0,1,1,0,2.27Z"/><path class="cls-1" d="M57.65,68.24a1.14,1.14,0,0,1-.81-1.94l4.54-4.54a1.16,1.16,0,0,1,1.61,0,1.14,1.14,0,0,1,0,1.59l-4.54,4.54A1.15,1.15,0,0,1,57.65,68.24Z"/><path class="cls-1" d="M66.72,68.24a1.14,1.14,0,0,1-.8-.33l-4.54-4.54A1.14,1.14,0,0,1,63,61.76l4.54,4.54a1.15,1.15,0,0,1,0,1.61A1.18,1.18,0,0,1,66.72,68.24Z"/><path class="cls-1" d="M62.18,72.78a1.14,1.14,0,0,1-.8-.33l-4.54-4.54a1.16,1.16,0,0,1,0-1.61,1.14,1.14,0,0,1,1.59,0L63,70.84a1.15,1.15,0,0,1,0,1.61A1.16,1.16,0,0,1,62.18,72.78Z"/><path class="cls-1" d="M62.18,72.78a1.14,1.14,0,0,1-.8-1.94l4.54-4.54a1.14,1.14,0,0,1,1.61,0,1.16,1.16,0,0,1,0,1.59L63,72.45A1.16,1.16,0,0,1,62.18,72.78Z"/><path class="cls-2" d="M47.57,59.16a1.13,1.13,0,0,1-.8-1.94l4.53-4.53a1.13,1.13,0,0,1,1.61,1.6l-4.54,4.54A1.14,1.14,0,0,1,47.57,59.16Z"/><path class="cls-2" d="M52.11,59.16a1.18,1.18,0,0,1-.81-.33l-4.53-4.54a1.13,1.13,0,0,1,1.6-1.6l4.54,4.53a1.14,1.14,0,0,1-.8,1.94Z"/><rect class="cls-3" width="172" height="172"/><path class="cls-1" d="M116.77,87.28a1.62,1.62,0,0,0-.62-1.07l-6.6-5a1.6,1.6,0,0,0-2.23.29L93.77,98.89A17.69,17.69,0,0,0,92,98a.46.46,0,0,1-.27-.36.47.47,0,0,1,.16-.42,12.89,12.89,0,1,0-16.49,0,.45.45,0,0,1,.16.42.46.46,0,0,1-.27.36,17.69,17.69,0,0,0-1.78.94L60,81.46a1.6,1.6,0,0,0-2.23-.29l-6.6,5a1.61,1.61,0,0,0-.29,2.25l15.77,20.3a15.55,15.55,0,0,0-.31,3v14.87a1.76,1.76,0,0,0,1.76,1.76H99.22a1.76,1.76,0,0,0,1.76-1.76V111.75a14.8,14.8,0,0,0-.31-3l15.77-20.3A1.61,1.61,0,0,0,116.77,87.28ZM76.13,81.71a9.3,9.3,0,0,1,15,0,.47.47,0,0,1-.27.73,32.33,32.33,0,0,1-14.47,0,.47.47,0,0,1-.27-.73Zm-1.86,5.56a6.84,6.84,0,0,1,.08-.91l0-.26a.5.5,0,0,1,.2-.33.5.5,0,0,1,.26-.08l.12,0a35.07,35.07,0,0,0,17.35,0l.12,0a.5.5,0,0,1,.26.08.5.5,0,0,1,.2.33l0,.26a6.84,6.84,0,0,1,.08.91,9.37,9.37,0,0,1-18.74,0Zm11.94,21.85a.45.45,0,0,1,0,.3l-2.12,4.24a.46.46,0,0,1-.83,0l-2.12-4.23a.45.45,0,0,1,0-.3l1.72-8.6a.46.46,0,0,1,.46-.37H84a.48.48,0,0,1,.46.37Zm13.22-4-2,2.59a1.57,1.57,0,0,0-.29,1.32c0,.19.09.38.12.57a11.65,11.65,0,0,1,.21,2.13v12.64a.47.47,0,0,1-.47.47H70.28a.47.47,0,0,1-.47-.47V111.75a11.65,11.65,0,0,1,.21-2.13c0-.2.08-.41.14-.61a1.57,1.57,0,0,0-.31-1.34l-1-1.21v0l-1-1.34L54.74,88.28a.64.64,0,0,1,.11-.9l3-2.32a.64.64,0,0,1,.89.11L71,100.85l.84,1.07a2.12,2.12,0,0,0,2.92.4,10.26,10.26,0,0,1,1-.61,11.75,11.75,0,0,1,2.81-1.14h.11a.45.45,0,0,1,.32.12.47.47,0,0,1,.14.43l-1.61,8.07a1.7,1.7,0,0,0,.15,1.13l4.45,8.91a1.76,1.76,0,0,0,3.15,0l4.45-8.9a1.72,1.72,0,0,0,.15-1.14l-1.61-8.07a.46.46,0,0,1,.46-.55h.12a11.84,11.84,0,0,1,2.8,1.14c.33.19.65.4,1,.62a2.13,2.13,0,0,0,2.93-.42l.83-1.06,12.18-15.68a.64.64,0,0,1,.89-.11l3,2.32a.65.65,0,0,1,.12.9Z"/><path class="cls-2" d="M114.2,53.23a1.34,1.34,0,0,0-1.9.06l-4.73,5.2-2-2a1.39,1.39,0,0,0-2,2l3.09,3a1.37,1.37,0,0,0,2-.06l5.71-6.31a1.22,1.22,0,0,0-.13-1.84Z"/><path class="cls-2" d="M97.44,70.84a2.7,2.7,0,0,1-1.91-.78A2.6,2.6,0,0,1,95,67.49L96.9,62.3a12.62,12.62,0,0,1-1-5.06,13.22,13.22,0,1,1,13.22,13.14,13,13,0,0,1-4.75-.91L98,70.77A1.24,1.24,0,0,1,97.44,70.84Zm11.64-23.79a10.22,10.22,0,0,0-9.22,14.57,1.2,1.2,0,0,1,.07,1.15l-1.78,5,6-1.24a1.22,1.22,0,0,1,.37-.05,1.17,1.17,0,0,1,.55.13,9.3,9.3,0,0,0,4,.83,10.19,10.19,0,0,0,0-20.37Z"/><path class="cls-2" d="M116.58,107.49a1.13,1.13,0,0,1-.8-1.93l4.54-4.54a1.13,1.13,0,0,1,1.6,1.6l-4.53,4.54A1.18,1.18,0,0,1,116.58,107.49Z"/><path class="cls-2" d="M121.12,107.49a1.14,1.14,0,0,1-.8-.33l-4.54-4.54a1.13,1.13,0,0,1,0-1.6,1.14,1.14,0,0,1,1.59,0l4.53,4.54a1.12,1.12,0,0,1,0,1.6A1.14,1.14,0,0,1,121.12,107.49Z"/><path class="cls-1" d="M125.15,94.76a1.14,1.14,0,0,1-.8-1.94l4.54-4.54a1.14,1.14,0,0,1,1.61,0,1.16,1.16,0,0,1,0,1.59L126,94.43A1.16,1.16,0,0,1,125.15,94.76Z"/><path class="cls-1" d="M134.23,94.76a1.14,1.14,0,0,1-.8-.33l-4.54-4.54a1.14,1.14,0,0,1,1.61-1.61L135,92.82a1.14,1.14,0,0,1-.8,1.94Z"/><path class="cls-1" d="M129.69,99.3a1.1,1.1,0,0,1-.8-.34l-4.54-4.53A1.14,1.14,0,0,1,126,92.82l4.54,4.54a1.14,1.14,0,0,1-.81,1.94Z"/><path class="cls-1" d="M129.69,99.3a1.14,1.14,0,0,1-.8-1.94l4.54-4.54a1.13,1.13,0,0,1,1.6,0,1.14,1.14,0,0,1,0,1.59L130.5,99A1.14,1.14,0,0,1,129.69,99.3Z"/></g></g></svg>