<svg xmlns="http://www.w3.org/2000/svg" viewBox="0 0 172 172"><defs><style>.cls-1{fill:#fff;}.cls-2{fill:none;}.cls-3{fill:#505050;}.cls-4{fill:#f7f7f7;}.cls-5{fill:#ce002e;}</style></defs><title>icon_sf_step03</title><g id="Layer_2" data-name="Layer 2"><g id="service_flow_pc"><rect class="cls-1" width="172" height="172"/><path class="cls-2" d="M85.63,72.11a5.69,5.69,0,0,0,5.86-6.67,23.53,23.53,0,0,1-11.71,0,5.69,5.69,0,0,0,5.85,6.67Z"/><path class="cls-2" d="M90.38,62.66a5.89,5.89,0,0,0-9.5,0A21.16,21.16,0,0,0,90.38,62.66Z"/><path class="cls-2" d="M81.21,80.72l1.08-5.38a7.42,7.42,0,0,0-5.56,7.15V84h5.76l-1.15-2.31A1.48,1.48,0,0,1,81.21,80.72Z"/><polygon class="cls-2" points="85.37 75.08 84.22 80.8 85.63 83.63 87.05 80.8 85.9 75.08 85.37 75.08"/><path class="cls-2" d="M89,75.34l1.07,5.38a1.42,1.42,0,0,1-.13,1L88.77,84h5.76V82.49A7.42,7.42,0,0,0,89,75.34Z"/><path class="cls-3" d="M41.14,123a1.74,1.74,0,0,1-1.33-.61,1.79,1.79,0,0,1-.4-1.42L52.67,85.13a1.72,1.72,0,0,1,1.71-1.42H73.5V82.49a10.68,10.68,0,0,1,6-9.55,9.17,9.17,0,1,1,12.35,0,10.67,10.67,0,0,1,6,9.55v1.22h19.12a1.74,1.74,0,0,1,1.73,1.47l13.23,35.73a1.75,1.75,0,0,1-1.72,2.08Zm86.13-3.5L115.43,87.21H55.83L44,119.49Zm-33-35.78V82.49a7.15,7.15,0,0,0-4.93-6.77l1,5a1.68,1.68,0,0,1-.15,1.12l-1,1.92Zm-12.2,0-1-1.92A1.75,1.75,0,0,1,81,80.67l1-5A7.14,7.14,0,0,0,77,82.49v1.22ZM85.63,83l1.14-2.27-1.09-5.42h-.1L84.5,80.77ZM80,65.77a2.83,2.83,0,0,0,0,.41,5.67,5.67,0,1,0,11.33,0c0-.14,0-.27,0-.41a23.69,23.69,0,0,1-11.27,0Zm1.36-3.28a20.53,20.53,0,0,0,8.55,0,5.61,5.61,0,0,0-8.55,0Z"/><path class="cls-4" d="M95.88,122.56H75.26a10.32,10.32,0,0,1,20.62,0Z"/><path class="cls-4" d="M91.85,103.33a6.28,6.28,0,1,1-6.27-6.27A6.28,6.28,0,0,1,91.85,103.33Z"/><path class="cls-3" d="M73.74,126A1.77,1.77,0,0,1,72,124.2v-1a13.6,13.6,0,0,1,7.62-12.3,9.48,9.48,0,0,1-2.15-2.4,9.68,9.68,0,1,1,17.64-3,9.73,9.73,0,0,1-3.4,5.42,13.59,13.59,0,0,1,7.62,12.3v1A1.78,1.78,0,0,1,97.52,126Zm22-3.55a10.18,10.18,0,0,0-20.32,0ZM85.58,97.21a6.13,6.13,0,1,0,6.12,6.12A6.13,6.13,0,0,0,85.58,97.21Z"/><path class="cls-5" d="M100.42,64.54a1.41,1.41,0,0,1-1.19-2.13l2.57-4.25a9.87,9.87,0,0,1-1.11-4.52,9.55,9.55,0,0,1,18.47-3.4,9.44,9.44,0,0,1-.21,7.3,9.56,9.56,0,0,1-8.72,5.66h0a9.4,9.4,0,0,1-3.73-.77l-5.58,2-.41.09h-.09Zm6.17-5a1.47,1.47,0,0,1,.62.13,6.39,6.39,0,0,0,3,.72l.12.44v-.44a6.75,6.75,0,0,0,0-13.5v-.44l0,.44a6.74,6.74,0,0,0-6.72,6.78,6.63,6.63,0,0,0,1.13,3.74,1.34,1.34,0,0,1,0,1.51l-.92,1.57,2.39-.87A1.69,1.69,0,0,1,106.59,59.51Z"/><path class="cls-5" d="M110.21,55.25a1.61,1.61,0,1,1,1.6-1.61A1.61,1.61,0,0,1,110.21,55.25Z"/><path class="cls-5" d="M114.08,55.25a1.61,1.61,0,1,1,1.6-1.61A1.61,1.61,0,0,1,114.08,55.25Z"/><path class="cls-5" d="M106.37,55.25A1.61,1.61,0,1,1,108,53.64,1.62,1.62,0,0,1,106.37,55.25Z"/><path class="cls-5" d="M59.32,72.42a9.55,9.55,0,0,1-2-18.89,9.9,9.9,0,0,1,2-.21,9.59,9.59,0,0,1,9.32,7.5,9.76,9.76,0,0,1-.11,4.65l3.42,3.59a1.44,1.44,0,0,1,.25,1.57,1.43,1.43,0,0,1-1,.78l-.45,0-5.94-.78a9.46,9.46,0,0,1-5.53,1.77Zm0-16.34a6.85,6.85,0,0,0-1.42.15,6.78,6.78,0,0,0-5.19,8,6.79,6.79,0,0,0,6.6,5.33,6.88,6.88,0,0,0,1.43-.15,6.5,6.5,0,0,0,2.82-1.35,1.45,1.45,0,0,1,.9-.31h.2l2.52.33L65.9,66.77a1.35,1.35,0,0,1-.31-1.46,6.64,6.64,0,0,0,.31-3.89A6.79,6.79,0,0,0,59.3,56.08Z"/><path class="cls-5" d="M59.46,64.65A1.61,1.61,0,1,1,61.07,63,1.61,1.61,0,0,1,59.46,64.65Z"/><path class="cls-5" d="M55.6,64.65A1.61,1.61,0,1,1,57.2,63,1.61,1.61,0,0,1,55.6,64.65Z"/><path class="cls-5" d="M63.3,64.65A1.61,1.61,0,1,1,64.91,63,1.61,1.61,0,0,1,63.3,64.65Z"/></g></g></svg>