<svg xmlns="http://www.w3.org/2000/svg" viewBox="0 0 172 172"><defs><style>.cls-1{fill:#fff;}.cls-2{fill:#505050;}.cls-3{fill:#ce002e;}</style></defs><title>icon_sf_step06A</title><g id="Layer_2" data-name="Layer 2"><g id="service_flow_pc"><rect class="cls-1" width="172" height="172"/><path class="cls-2" d="M54.34,107a9.38,9.38,0,1,0-12,0,11,11,0,0,0-6.51,10v10.94a1.56,1.56,0,0,0,1.56,1.56H59.29a1.56,1.56,0,0,0,1.56-1.56V117A11,11,0,0,0,54.34,107Zm-4.51,8.21-1.48,3-1.49-3,1.2-6h.57ZM48.35,93.5a6.23,6.23,0,0,1,5,2.54,22.26,22.26,0,0,1-10,0A6.24,6.24,0,0,1,48.35,93.5ZM42.17,99a24.83,24.83,0,0,0,12.35,0,6.65,6.65,0,0,1,.08.78,6.26,6.26,0,0,1-12.51,0A6.65,6.65,0,0,1,42.17,99Zm15.55,27.35H39V117a7.81,7.81,0,0,1,5.85-7.54l-1.13,5.67a1.57,1.57,0,0,0,.13,1L47,122.34a1.56,1.56,0,0,0,2.79,0l3.13-6.25a1.53,1.53,0,0,0,.13-1l-1.13-5.66A7.81,7.81,0,0,1,57.72,117Z"/><path class="cls-2" d="M129.33,107a9.38,9.38,0,1,0-12,0,11,11,0,0,0-6.51,10v10.94a1.56,1.56,0,0,0,1.56,1.56h21.89a1.56,1.56,0,0,0,1.56-1.56V117A11,11,0,0,0,129.33,107Zm-4.51,8.21-1.48,3-1.49-3,1.2-6h.57ZM123.34,93.5a6.23,6.23,0,0,1,5,2.54,22.26,22.26,0,0,1-10,0A6.24,6.24,0,0,1,123.34,93.5ZM117.16,99a24.83,24.83,0,0,0,12.35,0,6.65,6.65,0,0,1,.08.78,6.26,6.26,0,0,1-12.51,0A6.65,6.65,0,0,1,117.16,99Zm15.55,27.35H114V117a7.81,7.81,0,0,1,5.85-7.54l-1.13,5.66a1.59,1.59,0,0,0,.13,1l3.13,6.25a1.55,1.55,0,0,0,2.79,0l3.13-6.25a1.53,1.53,0,0,0,.13-1l-1.13-5.66a7.81,7.81,0,0,1,5.85,7.54Z"/><path class="cls-2" d="M66.15,129.34a2.52,2.52,0,0,1-2.53-2.52v-9.37a2.53,2.53,0,0,1,2.53-2.53h3.39v-.6a2.52,2.52,0,0,1,2.52-2.53h4a2.53,2.53,0,0,1,2.53,2.53v.6H82a2.53,2.53,0,0,1,2.52,2.53v9.37A2.52,2.52,0,0,1,82,129.34ZM66,126.82a.15.15,0,0,0,.15.15H82a.15.15,0,0,0,.15-.15v-6l0,0c-1.17,1.08-2.39,2.2-3.7,2.2H76.6v.14a1.2,1.2,0,0,1-1.19,1.2H72.74a1.19,1.19,0,0,1-1.19-1.2V123H69.72c-1.3,0-2.52-1.12-3.69-2.2l0,0Zm8.62-4.47v-1H73.43v1Zm3.8-1.74c.58,0,1.86-1.23,2.89-2.22l.84-.79v-.15a.15.15,0,0,0-.15-.15H66.15a.15.15,0,0,0-.15.15v.15c.28.26.56.52.83.79,1,1,2.32,2.22,2.89,2.22h1.83v-.15a1.19,1.19,0,0,1,1.19-1.19h2.67a1.2,1.2,0,0,1,1.19,1.19v.15Zm-2.19-5.69v-.6a.15.15,0,0,0-.15-.15h-4a.14.14,0,0,0-.14.15v.6Z"/><path class="cls-3" d="M107.13,100.24l-6.46-1.78a10.55,10.55,0,0,1-4.91,1.21h0A10.61,10.61,0,0,1,95,78.48l.79,0a10.66,10.66,0,0,1,10.57,9.79,11,11,0,0,1-.85,5.12l3.24,4.52a1.56,1.56,0,0,1,0,1.72,1.59,1.59,0,0,1-1.14.69h0ZM95.75,81.43a5.12,5.12,0,0,0-.56,0,7.58,7.58,0,0,0-7,8.12,7.61,7.61,0,0,0,7.56,7l.56,0a7.35,7.35,0,0,0,3.36-1.06,1.52,1.52,0,0,1,.79-.22,1.54,1.54,0,0,1,.43.06l2.87.79-1.27-1.8a1.47,1.47,0,0,1-.11-1.61,7.42,7.42,0,0,0,1-4.28A7.62,7.62,0,0,0,95.75,81.43Z"/><path class="cls-3" d="M95.9,91.26a1.75,1.75,0,1,1,1.75-1.74A1.74,1.74,0,0,1,95.9,91.26Z"/><path class="cls-3" d="M91.58,91.26a1.75,1.75,0,1,1,1.75-1.74A1.74,1.74,0,0,1,91.58,91.26Z"/><path class="cls-3" d="M100.18,91.26a1.75,1.75,0,1,1,1.75-1.74A1.74,1.74,0,0,1,100.18,91.26Z"/><path class="cls-3" d="M58.76,84.36a3.73,3.73,0,0,1-2-.58,3.57,3.57,0,0,1-1.39-3.29l1.27-9.4a.46.46,0,0,0-.09-.36A20.89,20.89,0,0,1,53,62.89,21.66,21.66,0,0,1,69.57,37.18a21.22,21.22,0,0,1,4.62-.5,21.57,21.57,0,0,1,4.53,42.64,20.77,20.77,0,0,1-4.39.46h0a22.44,22.44,0,0,1-3.62-.29h-.07a.54.54,0,0,0-.21,0L60.21,84a.41.41,0,0,0-.11.07,1.91,1.91,0,0,1-.54.18A4.26,4.26,0,0,1,58.76,84.36ZM74.15,40.15a18.35,18.35,0,0,0-3.84.41A18.23,18.23,0,0,0,59.76,69.42a1.31,1.31,0,0,1,.37,1.22l-1.25,9.55a.51.51,0,0,0,.2.47.54.54,0,0,0,.3.1.46.46,0,0,0,.2-.05L69.7,76.23a1.31,1.31,0,0,1,1-.15,15.06,15.06,0,0,0,3.44.39A18.8,18.8,0,0,0,78,76,18.19,18.19,0,0,0,91.89,54.45,18.24,18.24,0,0,0,74.15,40.15Z"/><path class="cls-3" d="M72.41,68.65V65.74h3v2.91Zm.1-7.08a8.4,8.4,0,0,1,.35-2.43,4.89,4.89,0,0,1,1.53-1.68l.89-.69A3.29,3.29,0,0,0,76,56a2.73,2.73,0,0,0,.54-1.64,3.11,3.11,0,0,0-.6-1.86,2.52,2.52,0,0,0-2.21-.88,2.47,2.47,0,0,0-2.25,1.07,4,4,0,0,0-.62,1.8H68a5.27,5.27,0,0,1,2.26-4.35,6.11,6.11,0,0,1,3.36-.88A7.34,7.34,0,0,1,78,50.51a4.69,4.69,0,0,1,1,6.13,9.29,9.29,0,0,1-1.72,1.61l-.85.67a2.89,2.89,0,0,0-1,1.42,5,5,0,0,0-.16,1.23Z"/></g></g></svg>