<svg xmlns="http://www.w3.org/2000/svg" viewBox="0 0 20 16.67"><defs><style>.cls-1{fill:#fff;}</style></defs><title>icon_tw</title><g id="Layer_2" data-name="Layer 2"><g id="interview_detail"><path id="Twitter" class="cls-1" d="M19.45.31a8.21,8.21,0,0,1-2.61,1,4,4,0,0,0-3-1.33A4.16,4.16,0,0,0,9.74,4.21a4.35,4.35,0,0,0,.11,1A11.58,11.58,0,0,1,1.39.77,4.32,4.32,0,0,0,.84,2.89a4.25,4.25,0,0,0,1.82,3.5A4,4,0,0,1,.8,5.86v0A4.2,4.2,0,0,0,4.1,10a3.91,3.91,0,0,1-1.86.07A4.12,4.12,0,0,0,6.07,13,8.08,8.08,0,0,1,1,14.84a7.93,7.93,0,0,1-1-.06,11.44,11.44,0,0,0,6.29,1.89c7.55,0,11.67-6.41,11.67-12,0-.19,0-.37,0-.55A8.19,8.19,0,0,0,20,2a8.12,8.12,0,0,1-2.36.67A4.23,4.23,0,0,0,19.45.31Z"/></g></g></svg>