<svg xmlns="http://www.w3.org/2000/svg" viewBox="0 0 20 25.66"><defs><style>.cls-1{fill:#fff;}</style></defs><title>icon_download</title><g id="Layer_2" data-name="Layer 2"><g id="corporate_TOP_PC"><path class="cls-1" d="M10,25.66a1,1,0,0,1-.71-.29L5.44,21.52A1,1,0,0,1,6.86,20.1L10,23.25l3.14-3.15a1,1,0,0,1,1.42,1.42l-3.85,3.85A1,1,0,0,1,10,25.66Z"/><path class="cls-1" d="M10,25.66a1,1,0,0,1-1-1V10.11a1,1,0,0,1,2,0V24.66A1,1,0,0,1,10,25.66Z"/><path class="cls-1" d="M19,18.15H14.87a1,1,0,1,1,0-2H18V2H2V16.15H5.15a1,1,0,0,1,0,2H1a1,1,0,0,1-1-1V1A1,1,0,0,1,1,0H19a1,1,0,0,1,1,1V17.15A1,1,0,0,1,19,18.15Z"/></g></g></svg>