<svg xmlns="http://www.w3.org/2000/svg" viewBox="0 0 10 10"><defs><style>.cls-1{fill:#ce002e;}.cls-2{fill:#fff;}</style></defs><title>icon_info</title><g id="Layer_2" data-name="Layer 2"><g id="レイヤー_2" data-name="レイヤー 2"><circle class="cls-1" cx="5" cy="5" r="5"/><path class="cls-2" d="M6.22,3.77c0-.59-.41-1-1.3-1a2.24,2.24,0,0,0-1.62.77l-.4-.37A2.73,2.73,0,0,1,5,2.18c1.17,0,1.9.61,1.9,1.54,0,1.27-2,1.54-1.78,2.81H4.5C4.22,5.13,6.22,4.75,6.22,3.77ZM4.82,7.31a.62.62,0,1,1,0,1.24.62.62,0,1,1,0-1.24Z"/></g></g></svg>