<?xml version="1.0" encoding="utf-8"?>
<!-- Generator: Adobe Illustrator 24.0.1, SVG Export Plug-In . SVG Version: 6.00 Build 0)  -->
<svg version="1.1" xmlns="http://www.w3.org/2000/svg" xmlns:xlink="http://www.w3.org/1999/xlink" x="0px" y="0px"
	 viewBox="0 0 18.9 22" style="enable-background:new 0 0 18.9 22;" xml:space="preserve">
<style type="text/css">
	.st0{fill:#FFFFFF;}
	.st1{fill:none;stroke:#505050;stroke-linecap:round;stroke-linejoin:round;stroke-miterlimit:10;}
	.st2{fill:#CE002E;}
	.st3{fill:#FDFDFD;}
	.st4{fill:none;stroke:#F1F1F1;stroke-width:0.9995;stroke-miterlimit:10;}
	.st5{fill:#505050;}
	.st6{fill:none;stroke:#E6E6E6;stroke-miterlimit:10;}
	.st7{fill:#FFFFFF;stroke:#E6E6E6;stroke-miterlimit:10;}
	.st8{fill:none;stroke:#E6E6E6;stroke-width:2.2676;stroke-miterlimit:10;}
	.st9{fill:none;stroke:#E6E6E6;stroke-width:2;stroke-miterlimit:10;}
	.st10{fill:none;stroke:#505050;stroke-width:2;stroke-linecap:round;stroke-linejoin:round;stroke-miterlimit:10;}
	.st11{fill:none;stroke:#F1F1F1;stroke-width:2;stroke-miterlimit:10;}
	.st12{fill:none;stroke:#E6E6E6;stroke-width:2.0826;stroke-miterlimit:10;}
	.st13{fill:#FFFFFF;stroke:#E6E6E6;stroke-width:2;stroke-miterlimit:10;}
	.st14{fill:none;stroke:#E6E6E6;stroke-width:2.1041;stroke-miterlimit:10;}
	.st15{fill:none;stroke:#E6E6E6;stroke-width:2.0348;stroke-miterlimit:10;}
	.st16{fill:#FFFFFF;stroke:#E6E6E6;stroke-width:2.0348;stroke-miterlimit:10;}
	.st17{display:none;}
	.st18{display:inline;}
	.st19{opacity:0.5;}
	.st20{display:none;fill:none;stroke:#CE002E;stroke-width:1.5;stroke-linecap:square;stroke-miterlimit:10;}
	.st21{fill:none;stroke:#F1F1F1;stroke-miterlimit:10;}
	.st22{fill:none;stroke:#F1F1F1;stroke-width:0.739;stroke-miterlimit:10;}
	.st23{fill:none;stroke:#CE002E;stroke-width:1.5;stroke-linecap:square;stroke-miterlimit:10;}
	.st24{fill:none;stroke:#F1F1F1;stroke-width:1;stroke-miterlimit:10;}
	.st25{fill:none;stroke:#A0A0A0;stroke-width:1.5;stroke-linecap:round;stroke-linejoin:round;stroke-miterlimit:10;}
	.st26{fill:none;stroke:#FFFFFF;stroke-width:1.5;stroke-linecap:round;stroke-linejoin:round;stroke-miterlimit:10;}
	.st27{fill:none;stroke:#CE002E;stroke-width:1;stroke-miterlimit:10;}
	.st28{fill:#A0A0A0;}
	.st29{fill:none;stroke:#E6E6E6;stroke-width:1.0001;stroke-miterlimit:10;}
	.st30{fill:none;stroke:#E6E6E6;stroke-width:1.0286;stroke-miterlimit:10;}
	.st31{fill:none;stroke:#E6E6E6;stroke-width:0.9997;stroke-miterlimit:10;}
	.st32{fill:none;stroke:#F1F1F1;stroke-width:0.9354;stroke-miterlimit:10;}
	.st33{fill:none;stroke:#F1F1F1;stroke-width:0.7619;stroke-miterlimit:10;}
	.st34{fill:none;stroke:#E6E6E6;stroke-width:2.0001;stroke-miterlimit:10;}
	.st35{fill:none;stroke:#E6E6E6;stroke-width:2.0572;stroke-miterlimit:10;}
	.st36{fill:none;stroke:#E6E6E6;stroke-width:1.9993;stroke-miterlimit:10;}
	.st37{fill:none;stroke:#CE002E;stroke-width:3;stroke-linecap:square;stroke-miterlimit:10;}
	.st38{fill:none;stroke:#F1F1F1;stroke-width:1.8708;stroke-miterlimit:10;}
	.st39{fill:none;stroke:#F1F1F1;stroke-width:1.5239;stroke-miterlimit:10;}
</style>
<g id="レイヤー_3">
</g>
<g id="レイヤー_2">
</g>
<g id="レイヤー_1">
</g>
<g id="profile_x5F_sp">
	<g>
		<path class="st2" d="M18.1,22H0.8C0.4,22,0,21.6,0,21.2v-7.9C0,12,1.1,11,2.4,11h14.2c1.3,0,2.4,1.1,2.4,2.4v7.9
			C18.9,21.6,18.5,22,18.1,22z M1.6,20.4h15.7v-7.1c0-0.4-0.4-0.8-0.8-0.8H2.4c-0.4,0-0.8,0.4-0.8,0.8V20.4z"/>
		<path class="st2" d="M16.5,18.1c-0.9,0-1.8-0.4-2.4-1.1c-0.6,0.7-1.4,1.1-2.4,1.1S10,17.7,9.4,17c-0.6,0.7-1.4,1.1-2.4,1.1
			S5.3,17.7,4.7,17c-1.1,1.2-3.2,1.4-4.5,0.2c-0.3-0.3-0.3-0.8,0-1.1c0.3-0.3,0.8-0.3,1.1,0c0.3,0.3,0.7,0.4,1,0.4
			c0.9,0,1.6-0.7,1.6-1.6c0-0.4,0.4-0.8,0.8-0.8s0.8,0.4,0.8,0.8c0,0.9,0.7,1.6,1.6,1.6s1.6-0.7,1.6-1.6c0-0.4,0.4-0.8,0.8-0.8
			c0.4,0,0.8,0.4,0.8,0.8c0,0.9,0.7,1.6,1.6,1.6s1.6-0.7,1.6-1.6c0-0.4,0.4-0.8,0.8-0.8s0.8,0.4,0.8,0.8c0,0.9,0.7,1.6,1.6,1.6
			c0.4,0,0.8-0.1,1-0.4c0.3-0.3,0.8-0.3,1.1,0c0.3,0.3,0.3,0.8,0,1.1C18,17.8,17.3,18.1,16.5,18.1z"/>
		<path class="st2" d="M9.4,6.3c-1.3,0-2.4-1.1-2.4-2.4c0-1,1.2-2.8,1.7-3.6c0.3-0.4,1-0.4,1.3,0c0.5,0.7,1.7,2.6,1.7,3.6
			C11.8,5.2,10.7,6.3,9.4,6.3z M9.4,2.2C9,3,8.7,3.7,8.7,3.9c0,0.4,0.4,0.8,0.8,0.8c0.4,0,0.8-0.4,0.8-0.8C10.2,3.7,9.9,3,9.4,2.2z"
			/>
		<path class="st2" d="M10.2,12.6c-0.4,0-0.8-0.4-0.8-0.8c0,0.4-0.4,0.8-0.8,0.8s-0.8-0.4-0.8-0.8V8.6c0-0.4,0.4-0.8,0.8-0.8h1.6
			c0.4,0,0.8,0.4,0.8,0.8v3.1C11,12.2,10.7,12.6,10.2,12.6z"/>
	</g>
</g>
<g id="profile_x5F_education">
</g>
<g id="profile_x5F_qualification">
</g>
<g id="profile_x5F_work_x5F_experience_x5F_current">
</g>
<g id="profile_x5F_work_x5F_experience_x5F_turnover">
</g>
<g id="profile_x5F_desired_x5F_condition">
</g>
<g id="modal_x5F_pc">
</g>
<g id="modal_x5F_sp">
</g>
</svg>
