<svg xmlns="http://www.w3.org/2000/svg" viewBox="0 0 172 172"><defs><style>.cls-1{fill:#fff;}.cls-2{fill:#505050;}.cls-3{fill:#ce002e;}</style></defs><title>icon_sf_step08</title><g id="Layer_2" data-name="Layer 2"><g id="service_flow_pc"><rect class="cls-1" width="172" height="172"/><path class="cls-2" d="M62.36,106.34a8.47,8.47,0,1,0-10.83,0,9.89,9.89,0,0,0-5.87,9v9.87a1.41,1.41,0,0,0,1.41,1.41H66.82a1.41,1.41,0,0,0,1.41-1.41v-9.87A9.89,9.89,0,0,0,62.36,106.34Zm-4.07,7.41-1.35,2.69-1.34-2.69,1.09-5.44h.51ZM56.94,94.2a5.61,5.61,0,0,1,4.52,2.3,20,20,0,0,1-9,0A5.6,5.6,0,0,1,56.94,94.2Zm-5.57,4.94a22.51,22.51,0,0,0,11.14,0,5.35,5.35,0,0,1,.08.7,5.65,5.65,0,1,1-11.29,0C51.3,99.6,51.35,99.37,51.37,99.14Zm14,24.68H48.48v-8.46a7,7,0,0,1,5.28-6.8l-1,5.11a1.43,1.43,0,0,0,.12.91l2.82,5.64a1.42,1.42,0,0,0,2.53,0L61,114.58a1.43,1.43,0,0,0,.12-.91l-1-5.11a7.06,7.06,0,0,1,5.28,6.8Z"/><path class="cls-2" d="M123,106.34a8.47,8.47,0,1,0-10.83,0,9.89,9.89,0,0,0-5.87,9v9.87a1.41,1.41,0,0,0,1.41,1.41h19.75a1.41,1.41,0,0,0,1.41-1.41v-9.87A9.89,9.89,0,0,0,123,106.34ZM119,113.75l-1.35,2.69-1.34-2.69,1.09-5.44h.51ZM117.6,94.2a5.61,5.61,0,0,1,4.52,2.3,20,20,0,0,1-9,0A5.6,5.6,0,0,1,117.6,94.2ZM112,99.14a22.55,22.55,0,0,0,11.15,0c0,.23.07.46.07.7a5.65,5.65,0,1,1-11.29,0C112,99.6,112,99.37,112,99.14Zm14,24.68H109.14v-8.46a7,7,0,0,1,5.28-6.8l-1,5.11a1.43,1.43,0,0,0,.12.91l2.82,5.64a1.42,1.42,0,0,0,2.53,0l2.82-5.64a1.43,1.43,0,0,0,.12-.91l-1-5.11a7.06,7.06,0,0,1,5.28,6.8Z"/><path class="cls-2" d="M82.33,48.6h-24A1.41,1.41,0,0,0,56.94,50V79.62A1.41,1.41,0,0,0,58.35,81h24a1.41,1.41,0,0,0,1.41-1.41V50A1.41,1.41,0,0,0,82.33,48.6ZM80.92,78.21H59.76V51.42H80.92Z"/><path class="cls-3" d="M120.41,79.62V50A1.41,1.41,0,0,0,119,48.6H90.79A1.41,1.41,0,0,0,89.38,50V79.62A1.41,1.41,0,0,0,90.79,81H119A1.41,1.41,0,0,0,120.41,79.62Zm-2.82-1.41H92.2V51.42h25.39Z"/><rect class="cls-3" x="107.72" y="68.34" width="2.82" height="7.05"/><rect class="cls-3" x="111.95" y="62.7" width="2.82" height="12.69"/><path class="cls-2" d="M126.05,79.62V50A7.06,7.06,0,0,0,119,43H56.94a7.07,7.07,0,0,0-7,7.06V79.62a7.07,7.07,0,0,0,7,7.06H75l-2.28,7.78a1.41,1.41,0,0,0,.44,1.71,1.4,1.4,0,0,0,.85.28,1.42,1.42,0,0,0,.91-.33L89,86.68h30A7.06,7.06,0,0,0,126.05,79.62ZM88.46,83.85a1.41,1.41,0,0,0-.91.34L76.68,91.64l1.78-5.79a1.41,1.41,0,0,0-.09-1.35,1.43,1.43,0,0,0-1.19-.65H56.94a4.23,4.23,0,0,1-4.23-4.23V50a4.23,4.23,0,0,1,4.23-4.23H119A4.23,4.23,0,0,1,123.23,50V79.62A4.23,4.23,0,0,1,119,83.85Z"/><rect class="cls-3" x="103.49" y="71.16" width="2.82" height="4.23"/><rect class="cls-2" x="62.59" y="59.88" width="2.82" height="2.82" rx="0.87"/><rect class="cls-2" x="68.23" y="59.88" width="9.87" height="2.82" rx="0.87"/><rect class="cls-2" x="62.59" y="65.52" width="2.82" height="2.82" rx="0.87"/><rect class="cls-2" x="68.23" y="65.52" width="9.87" height="2.82" rx="0.87"/><rect class="cls-2" x="62.59" y="71.16" width="2.82" height="2.82" rx="0.87"/><rect class="cls-2" x="68.23" y="71.16" width="9.87" height="2.82" rx="0.87"/><rect class="cls-2" x="66.82" y="54.24" width="7.05" height="2.82" rx="0.87"/><path class="cls-3" d="M104.35,55.61l-.29-.23a.79.79,0,0,0-1.12.12l-2.67,3.34L97.6,55.5a.79.79,0,0,0-1.12-.12l-.29.23a.79.79,0,0,0-.12,1.12L99,60.42H97.13a.8.8,0,0,0-.8.8v.36a.8.8,0,0,0,.8.8h2.16v1H97.13a.8.8,0,0,0-.8.8v.37a.8.8,0,0,0,.8.8h2.16v2.15a.8.8,0,0,0,.8.8h.36a.8.8,0,0,0,.8-.8V65.34h2.16a.8.8,0,0,0,.8-.8v-.37a.8.8,0,0,0-.8-.8h-2.16v-1h2.16a.8.8,0,0,0,.8-.8v-.36a.8.8,0,0,0-.8-.8h-1.88l3-3.69A.8.8,0,0,0,104.35,55.61Z"/><path class="cls-2" d="M73,126.6a2.33,2.33,0,0,1-2.33-2.33v-8.46A2.33,2.33,0,0,1,73,113.48h3V113a2.32,2.32,0,0,1,2.32-2.33H82A2.33,2.33,0,0,1,84.3,113v.49h3a2.34,2.34,0,0,1,2.33,2.33v8.46a2.34,2.34,0,0,1-2.33,2.33Zm-.09-2.33a.09.09,0,0,0,.09.08h14.3a.09.09,0,0,0,.08-.08v-5.35c-1,1-2.13,1.94-3.31,1.94H82.49v.08a1.14,1.14,0,0,1-1.13,1.13H79a1.13,1.13,0,0,1-1.12-1.13v-.08h-1.6c-1.17,0-2.26-1-3.31-1.94Zm7.68-4.09v-.78h-1v.78Zm3.48-1.57c.5,0,1.7-1.15,2.57-2l.74-.7v-.12a.09.09,0,0,0-.08-.08H73a.09.09,0,0,0-.09.08v.12c.25.22.5.46.74.7.88.84,2.07,2,2.57,2h1.6v-.08A1.12,1.12,0,0,1,79,117.41h2.41a1.13,1.13,0,0,1,1.13,1.12v.08Zm-2-5.13V113a.08.08,0,0,0-.08-.09H78.34a.09.09,0,0,0-.08.09v.49Z"/></g></g></svg>