<svg xmlns="http://www.w3.org/2000/svg" viewBox="0 0 172 172"><defs><style>.cls-1{fill:#fff;}.cls-2{fill:#505050;}.cls-3{fill:none;}.cls-4{fill:#ce002e;}</style></defs><title>icon_sf_step01</title><g id="Layer_2" data-name="Layer 2"><g id="service_flow_pc"><rect class="cls-1" width="172" height="172"/><path class="cls-2" d="M87.51,58H71.58a1.88,1.88,0,1,1,0-3.76H87.51a1.88,1.88,0,0,1,0,3.76Z"/><path class="cls-2" d="M98.8,58H95a1.88,1.88,0,0,1,0-3.76H98.8a1.88,1.88,0,1,1,0,3.76Z"/><path class="cls-2" d="M87.51,64.63H71.58a1.88,1.88,0,1,1,0-3.76H87.51a1.88,1.88,0,0,1,0,3.76Z"/><path class="cls-2" d="M98.8,64.63H95a1.88,1.88,0,0,1,0-3.76H98.8a1.88,1.88,0,1,1,0,3.76Z"/><path class="cls-2" d="M87.51,71.31H71.58a1.89,1.89,0,0,1,0-3.77H87.51a1.89,1.89,0,0,1,0,3.77Z"/><path class="cls-2" d="M98.8,71.31H95a1.89,1.89,0,0,1,0-3.77H98.8a1.89,1.89,0,0,1,0,3.77Z"/><path class="cls-3" d="M74.87,84.93H95.53a1.73,1.73,0,0,0,0-3.45H74.87a1.73,1.73,0,0,0,0,3.45Z"/><path class="cls-3" d="M105.85,41.89a1.72,1.72,0,0,0-1.72-1.72H66.26a1.72,1.72,0,0,0-1.72,1.72v1.72h41.31Z"/><path class="cls-3" d="M74.87,78H95.53a5.17,5.17,0,0,1,0,10.33H74.87a5.17,5.17,0,1,1,0-10.33Z"/><path class="cls-3" d="M80,107.46H64.54v1.72a1.72,1.72,0,0,0,1.72,1.72H80Z"/><path class="cls-3" d="M90.36,109.47a5.4,5.4,0,0,1,5.17,1,5.14,5.14,0,0,1,6.88,0,5.15,5.15,0,0,1,3.44-1.32v-1.72H90.36Z"/><path class="cls-4" d="M74.87,88.37H95.53a5.17,5.17,0,0,0,0-10.33H74.87a5.17,5.17,0,1,0,0,10.33Zm0-6.89H95.53a1.73,1.73,0,0,1,0,3.45H74.87a1.73,1.73,0,0,1,0-3.45Z"/><path class="cls-2" d="M109.14,110.39a5.5,5.5,0,0,0,.16-1.21V41.89a5.16,5.16,0,0,0-5.17-5.16H66.26a5.16,5.16,0,0,0-5.16,5.16v67.29a5.16,5.16,0,0,0,5.16,5.16H80v4.46l-1.36-1.37a5.5,5.5,0,0,0-7.6,0,5.37,5.37,0,0,0,0,7.6L84,137.94a1.73,1.73,0,0,0,1.22.51h18.93a1.73,1.73,0,0,0,1.22-.51A19.25,19.25,0,0,0,111,124.26v-9.92A5.1,5.1,0,0,0,109.14,110.39Zm-44.6-68.5a1.72,1.72,0,0,1,1.72-1.72h37.87a1.72,1.72,0,0,1,1.72,1.72v1.72H64.54Zm0,5.16h41.31v57H90.36V95.41s0-.09,0-.13,0-.34,0-.5a4.77,4.77,0,0,0-.16-.75.07.07,0,0,1,0,0,5.17,5.17,0,0,0-9.86,0s0,0,0,0a6.24,6.24,0,0,0-.16.75c0,.16,0,.33,0,.5s0,.08,0,.13V104H64.54Zm25.82,60.41h15.49v1.72a5.15,5.15,0,0,0-3.44,1.32,5.14,5.14,0,0,0-6.88,0,5.4,5.4,0,0,0-5.17-1Zm-24.1,3.44a1.72,1.72,0,0,1-1.72-1.72v-1.72H80v3.44Zm41.32,13.36A15.78,15.78,0,0,1,103.4,135H85.91L73.5,122.6a1.93,1.93,0,0,1,2.73-2.73l4.31,4.3a1.72,1.72,0,0,0,2.43,0,1.78,1.78,0,0,0,.51-1.22V95.41a1.72,1.72,0,0,1,3.44,0v22.38a1.72,1.72,0,0,0,3.44,0v-3.45a1.72,1.72,0,0,1,3.44,0v3.45a1.73,1.73,0,0,0,3.45,0v-3.45a1.72,1.72,0,0,1,3.44,0v3.45a1.72,1.72,0,0,0,3.44,0v-3.45a1.73,1.73,0,0,1,3.45,0Z"/></g></g></svg>