<svg xmlns="http://www.w3.org/2000/svg" viewBox="0 0 172 172"><defs><style>.cls-1{fill:#fff;}.cls-2{fill:#505050;}.cls-3{fill:#ce002e;}</style></defs><title>icon_sf_step02</title><g id="Layer_2" data-name="Layer 2"><g id="service_flow_pc"><rect class="cls-1" width="172" height="172"/><path class="cls-2" d="M132.34,57.81l-1.76-8a1.74,1.74,0,0,0-3.16-.73l-5.09,6.45a1.61,1.61,0,0,0-.27.61l-6,26.15-1.57,6.84a1.76,1.76,0,0,0,1.31,2.11l6.85,1.57a1.75,1.75,0,0,0,2.1-1.32l1.57-6.84,6-26.15A2.17,2.17,0,0,0,132.34,57.81Zm-7.27.79,3.43.78-5.23,22.73-3.42-.78Zm3.4-2.82-1.78-.41,1.41-2ZM121.7,89l-3.42-.79.79-3.42,3.42.79Z"/><path class="cls-2" d="M104.24,61.24l-16.95-17a1.41,1.41,0,0,0-.5-.33,1.45,1.45,0,0,0-.59-.12H46.13a1.54,1.54,0,0,0-1.54,1.54v80.14a1.55,1.55,0,0,0,1.54,1.55h57a1.55,1.55,0,0,0,1.54-1.55V62.33a1.47,1.47,0,0,0-.11-.59A2,2,0,0,0,104.24,61.24ZM87.74,49.11,99.43,60.79H87.74ZM47.67,124V46.92h37V62.33a1.55,1.55,0,0,0,1.54,1.55h15.41V124Z"/><path class="cls-3" d="M95.19,84.62l-3.53,3.53-2-2a1.55,1.55,0,0,0-2.18,2.19l3.08,3.08a1.55,1.55,0,0,0,2.18,0l4.63-4.62a1.55,1.55,0,0,0-2.19-2.19Z"/><path class="cls-2" d="M81.58,86.38H52.29a1.54,1.54,0,0,0,0,3.08H81.58a1.54,1.54,0,1,0,0-3.08Z"/><path class="cls-3" d="M95.19,93.56l-3.53,3.53-2-2a1.55,1.55,0,1,0-2.18,2.19l3.08,3.08a1.55,1.55,0,0,0,2.18,0l4.63-4.63a1.55,1.55,0,0,0-2.19-2.18Z"/><path class="cls-2" d="M81.58,95.32H52.29a1.54,1.54,0,1,0,0,3.08H81.58a1.54,1.54,0,0,0,0-3.08Z"/><path class="cls-3" d="M95.19,102.5,91.66,106l-2-2a1.54,1.54,0,1,0-2.18,2.18l3.08,3.09a1.55,1.55,0,0,0,2.18,0l4.63-4.63a1.55,1.55,0,1,0-2.19-2.18Z"/><path class="cls-2" d="M81.58,104.26H52.29a1.54,1.54,0,1,0,0,3.08H81.58a1.54,1.54,0,1,0,0-3.08Z"/><path class="cls-3" d="M95.19,111.44,91.66,115l-2-2a1.54,1.54,0,1,0-2.18,2.18l3.08,3.09a1.55,1.55,0,0,0,2.18,0l4.63-4.63a1.55,1.55,0,1,0-2.19-2.18Z"/><path class="cls-2" d="M81.58,113.19H52.29a1.55,1.55,0,0,0,0,3.09H81.58a1.55,1.55,0,0,0,0-3.09Z"/><path class="cls-2" d="M55,81.76a1.45,1.45,0,0,1-1.45-1.45V55.64A1.45,1.45,0,0,1,55,54.19H78.34a1.45,1.45,0,0,1,1.45,1.45V80.31a1.45,1.45,0,0,1-1.45,1.45Zm21.93-2.9V57.09H56.41V78.86Z"/><path class="cls-2" d="M60.52,81.49a1.15,1.15,0,0,1-1.15-1.14V74.22a6.45,6.45,0,0,1,3.44-5.67,5.52,5.52,0,1,1,7.68,0,6.45,6.45,0,0,1,3.44,5.67v6.13a1.15,1.15,0,0,1-1.15,1.14ZM71.64,79.2v-5A4.08,4.08,0,0,0,69,70.39l.54,2.72a1.18,1.18,0,0,1-.09.74l-1.76,3.5a1.13,1.13,0,0,1-2,0l-1.76-3.5a1.18,1.18,0,0,1-.09-.74l.54-2.72a4.08,4.08,0,0,0-2.66,3.83v5Zm-5-4.91.59-1.19-.59-2.7-.56,2.82Zm-3.23-9.71a3.23,3.23,0,0,0,6.46,0v-.1a14.28,14.28,0,0,1-6.46,0Zm.92-2.25a12.24,12.24,0,0,0,4.62,0,3.21,3.21,0,0,0-4.62,0Z"/></g></g></svg>