<svg xmlns="http://www.w3.org/2000/svg" viewBox="0 0 172 172"><defs><style>.cls-1{fill:#fff;}.cls-2{fill:#505050;}.cls-3{fill:#ce002e;}.cls-4{fill:none;stroke:#505050;stroke-linecap:round;stroke-linejoin:round;stroke-width:2.4px;}</style></defs><title>icon_sf_step06B</title><g id="Layer_2" data-name="Layer 2"><g id="service_flow_pc"><rect class="cls-1" width="172" height="172"/><path class="cls-2" d="M70,105.07a1.57,1.57,0,0,1-1.63-1.63V59.58A1.57,1.57,0,0,1,70,58h25V47.42a1.58,1.58,0,0,1,1.63-1.63h5.15v-4a1.58,1.58,0,0,1,1.63-1.63h19.22a1.57,1.57,0,0,1,1.62,1.63v4h5.15a1.57,1.57,0,0,1,1.63,1.63v56a1.57,1.57,0,0,1-1.63,1.63Zm57.78-3.26V49.05H98.31v52.76H103V84.23a1.57,1.57,0,0,1,1.63-1.63h16.8a1.58,1.58,0,0,1,1.63,1.63v17.58Zm-8,0v-16H106.29v16Zm-24.79,0V61.21H71.67v40.6Zm25.9-56v-2.4H105.09v2.4Z"/><path class="cls-3" d="M55.1,109.43a8.92,8.92,0,1,0-11.41,0,10.42,10.42,0,0,0-6.19,9.51v10.4A1.49,1.49,0,0,0,39,130.83H59.8a1.49,1.49,0,0,0,1.49-1.49v-10.4A10.42,10.42,0,0,0,55.1,109.43Zm-4.29,7.81-1.41,2.83L48,117.24l1.15-5.74h.53ZM49.4,96.64a5.92,5.92,0,0,1,4.75,2.41,20.92,20.92,0,0,1-9.51,0A5.93,5.93,0,0,1,49.4,96.64Zm-5.88,5.2a23.69,23.69,0,0,0,11.75,0,6.17,6.17,0,0,1,.07.74,5.95,5.95,0,1,1-11.89,0A6.17,6.17,0,0,1,43.52,101.84Zm14.8,26H40.48v-8.92A7.42,7.42,0,0,1,46,111.77L45,117.16a1.52,1.52,0,0,0,.12,1l3,5.94a1.48,1.48,0,0,0,1.33.82,1.51,1.51,0,0,0,1.33-.82l3-6a1.48,1.48,0,0,0,.13-1l-1.08-5.39a7.43,7.43,0,0,1,5.57,7.17Z"/><path class="cls-3" d="M66.32,130.75a2.43,2.43,0,0,1-2.42-2.43v-8.9A2.43,2.43,0,0,1,66.32,117h3.21v-.55A2.42,2.42,0,0,1,72,114h3.82a2.43,2.43,0,0,1,2.43,2.43V117h3.2a2.43,2.43,0,0,1,2.43,2.43v8.9a2.43,2.43,0,0,1-2.43,2.43Zm-.11-2.43a.11.11,0,0,0,.11.12H81.4a.12.12,0,0,0,.12-.12v-5.69c-1.12,1-2.27,2.08-3.52,2.08H76.29v.11A1.16,1.16,0,0,1,75.13,126H72.59a1.16,1.16,0,0,1-1.16-1.16v-.11h-1.7c-1.25,0-2.4-1.06-3.52-2.08Zm8.15-4.27v-.88H73.28v.88ZM78,122.4c.54,0,1.81-1.22,2.73-2.11l.79-.74v-.13a.12.12,0,0,0-.12-.12H66.32a.11.11,0,0,0-.11.12v.13l.79.74c.92.89,2.19,2.11,2.73,2.11h1.7v-.12a1.16,1.16,0,0,1,1.16-1.16h2.54a1.16,1.16,0,0,1,1.16,1.16v.12ZM75.89,117v-.55a.12.12,0,0,0-.12-.12H72a.11.11,0,0,0-.11.12V117Z"/><rect class="cls-4" x="75.43" y="65.58" width="5.58" height="5.58"/><rect class="cls-4" x="85.71" y="65.58" width="5.58" height="5.58"/><rect class="cls-4" x="75.43" y="75.97" width="5.58" height="5.58"/><rect class="cls-4" x="85.71" y="75.97" width="5.58" height="5.58"/><rect class="cls-4" x="75.43" y="86.36" width="5.58" height="5.58"/><rect class="cls-4" x="85.71" y="86.36" width="5.58" height="5.58"/><rect class="cls-4" x="104.91" y="54.55" width="5.58" height="5.58"/><rect class="cls-4" x="115.19" y="54.55" width="5.58" height="5.58"/><rect class="cls-4" x="104.91" y="64.93" width="5.58" height="5.58"/><rect class="cls-4" x="115.19" y="64.93" width="5.58" height="5.58"/></g></g></svg>