<?xml version="1.0" encoding="utf-8"?>
<!-- Generator: Adobe Illustrator 24.0.1, SVG Export Plug-In . SVG Version: 6.00 Build 0)  -->
<svg version="1.1" xmlns="http://www.w3.org/2000/svg" xmlns:xlink="http://www.w3.org/1999/xlink" x="0px" y="0px"
	 viewBox="0 0 25.1 20.5" style="enable-background:new 0 0 25.1 20.5;" xml:space="preserve">
<style type="text/css">
	.st0{fill:#FFFFFF;}
	.st1{fill:none;stroke:#505050;stroke-linecap:round;stroke-linejoin:round;stroke-miterlimit:10;}
	.st2{fill:#CE002E;}
	.st3{fill:#FDFDFD;}
	.st4{fill:none;stroke:#F1F1F1;stroke-width:0.9995;stroke-miterlimit:10;}
	.st5{fill:#505050;}
	.st6{fill:none;stroke:#E6E6E6;stroke-miterlimit:10;}
	.st7{fill:#FFFFFF;stroke:#E6E6E6;stroke-miterlimit:10;}
	.st8{fill:none;stroke:#E6E6E6;stroke-width:2.2676;stroke-miterlimit:10;}
	.st9{fill:none;stroke:#E6E6E6;stroke-width:2;stroke-miterlimit:10;}
	.st10{fill:none;stroke:#505050;stroke-width:2;stroke-linecap:round;stroke-linejoin:round;stroke-miterlimit:10;}
	.st11{fill:none;stroke:#F1F1F1;stroke-width:2;stroke-miterlimit:10;}
	.st12{fill:none;stroke:#E6E6E6;stroke-width:2.0826;stroke-miterlimit:10;}
	.st13{fill:#FFFFFF;stroke:#E6E6E6;stroke-width:2;stroke-miterlimit:10;}
	.st14{fill:none;stroke:#E6E6E6;stroke-width:2.1041;stroke-miterlimit:10;}
	.st15{fill:none;stroke:#E6E6E6;stroke-width:2.0348;stroke-miterlimit:10;}
	.st16{fill:#FFFFFF;stroke:#E6E6E6;stroke-width:2.0348;stroke-miterlimit:10;}
	.st17{display:none;}
	.st18{display:inline;}
	.st19{opacity:0.5;}
	.st20{display:none;fill:none;stroke:#CE002E;stroke-width:1.5;stroke-linecap:square;stroke-miterlimit:10;}
	.st21{fill:none;stroke:#F1F1F1;stroke-miterlimit:10;}
	.st22{fill:none;stroke:#F1F1F1;stroke-width:0.739;stroke-miterlimit:10;}
	.st23{fill:none;stroke:#CE002E;stroke-width:1.5;stroke-linecap:square;stroke-miterlimit:10;}
	.st24{fill:none;stroke:#F1F1F1;stroke-width:1;stroke-miterlimit:10;}
	.st25{fill:none;stroke:#A0A0A0;stroke-width:1.5;stroke-linecap:round;stroke-linejoin:round;stroke-miterlimit:10;}
	.st26{fill:none;stroke:#FFFFFF;stroke-width:1.5;stroke-linecap:round;stroke-linejoin:round;stroke-miterlimit:10;}
	.st27{fill:none;stroke:#CE002E;stroke-width:1;stroke-miterlimit:10;}
	.st28{fill:#A0A0A0;}
	.st29{fill:none;stroke:#E6E6E6;stroke-width:1.0001;stroke-miterlimit:10;}
	.st30{fill:none;stroke:#E6E6E6;stroke-width:1.0286;stroke-miterlimit:10;}
	.st31{fill:none;stroke:#E6E6E6;stroke-width:0.9997;stroke-miterlimit:10;}
	.st32{fill:none;stroke:#F1F1F1;stroke-width:0.9354;stroke-miterlimit:10;}
	.st33{fill:none;stroke:#F1F1F1;stroke-width:0.7619;stroke-miterlimit:10;}
	.st34{fill:none;stroke:#E6E6E6;stroke-width:2.0001;stroke-miterlimit:10;}
	.st35{fill:none;stroke:#E6E6E6;stroke-width:2.0572;stroke-miterlimit:10;}
	.st36{fill:none;stroke:#E6E6E6;stroke-width:1.9993;stroke-miterlimit:10;}
	.st37{fill:none;stroke:#CE002E;stroke-width:3;stroke-linecap:square;stroke-miterlimit:10;}
	.st38{fill:none;stroke:#F1F1F1;stroke-width:1.8708;stroke-miterlimit:10;}
	.st39{fill:none;stroke:#F1F1F1;stroke-width:1.5239;stroke-miterlimit:10;}
</style>
<g id="レイヤー_3">
</g>
<g id="レイヤー_2">
</g>
<g id="レイヤー_1">
</g>
<g id="profile_x5F_sp">
	<g>
		<g>
			<g>
				<path class="st2" d="M6.7,7.5c-2.1,0-3.7-1.7-3.8-3.8C2.9,1.7,4.6,0,6.7,0c2.1,0,3.8,1.7,3.8,3.8C10.4,5.9,8.7,7.5,6.7,7.5
					C6.7,7.5,6.7,7.5,6.7,7.5z M6.7,1.9c-1,0-1.9,0.8-1.9,1.9c0,1,0.8,1.9,1.9,1.9c1,0,1.9-0.8,1.9-1.9C8.5,2.8,7.7,1.9,6.7,1.9z"/>
			</g>
			<g>
				<path class="st2" d="M6.7,20.4c-0.4,0-0.8-0.3-0.9-0.6L0.2,9.5C0,9.2,0.1,8.7,0.2,8.4C0.4,8.2,0.8,8,1.1,8h11.1
					c0.3,0,0.7,0.2,0.9,0.5c0.2,0.3,0.2,0.7,0.1,1L7.6,19.8C7.5,20.1,7,20.4,6.7,20.4L6.7,20.4z M6.7,17.2l4.1-7.3H2.5L6.7,17.2z"/>
			</g>
			<g>
				<path class="st2" d="M18.4,7.5c-2.1,0-3.7-1.7-3.8-3.8c0-2.1,1.7-3.8,3.8-3.8s3.8,1.7,3.8,3.8C22.2,5.9,20.5,7.5,18.4,7.5
					C18.4,7.5,18.4,7.5,18.4,7.5z M18.4,1.9c-1,0-1.9,0.8-1.9,1.9c0,1,0.8,1.9,1.9,1.9c1,0,1.9-0.8,1.9-1.9
					C20.3,2.8,19.5,1.9,18.4,1.9z"/>
			</g>
			<g>
				<path class="st2" d="M12.9,20.5c-0.3,0-0.7-0.2-0.9-0.5c-0.2-0.3-0.2-0.7-0.1-1l5.6-10.3C17.6,8.3,18,8,18.4,8
					c0.4,0,0.8,0.3,0.9,0.6L24.9,19c0,0,0,0.1,0,0.1c0.1,0.2,0.1,0.7-0.1,0.9c-0.2,0.3-0.6,0.5-0.9,0.5H12.9z M22.6,18.5l-4.1-7.3
					l-4.1,7.3H22.6z"/>
			</g>
		</g>
	</g>
</g>
<g id="profile_x5F_education">
</g>
<g id="profile_x5F_qualification">
</g>
<g id="profile_x5F_work_x5F_experience_x5F_current">
</g>
<g id="profile_x5F_work_x5F_experience_x5F_turnover">
</g>
<g id="profile_x5F_desired_x5F_condition">
</g>
<g id="modal_x5F_pc">
</g>
<g id="modal_x5F_sp">
</g>
</svg>
