<svg xmlns="http://www.w3.org/2000/svg" viewBox="0 0 172 172"><defs><style>.cls-1{fill:#fff;}.cls-2{fill:#505050;}.cls-3{fill:#ce002e;}</style></defs><title>icon_sf_step07</title><g id="Layer_2" data-name="Layer 2"><g id="service_flow_pc"><rect class="cls-1" width="172" height="172"/><path class="cls-2" d="M58.42,134.31A1.47,1.47,0,0,1,57,132.85a1.32,1.32,0,0,1,0-.33.22.22,0,0,1,0-.08l.85-2.35H54.05a6.87,6.87,0,0,1-6.86-6.87V109.14a.28.28,0,0,1,.09-.2.27.27,0,0,1,.19-.08h1.32a1.6,1.6,0,0,1,1.6,1.6v12.76a3.68,3.68,0,0,0,3.67,3.68h5l.28-.77H58a6.87,6.87,0,0,1-6.87-6.86V106.09a6.84,6.84,0,0,1,2.93-5.61,8.09,8.09,0,0,1-2.93-6.26,8.19,8.19,0,1,1,14,5.78,6.84,6.84,0,0,1,2.7,2.53L71,93.68a1.61,1.61,0,0,1,1.51-1.05h2.35V86.32a9.54,9.54,0,0,1,5.27-8.5,8.18,8.18,0,1,1,11.12,0,9.53,9.53,0,0,1,5.26,8.5v6.31h2.36a1.6,1.6,0,0,1,1.5,1.05l3.19,8.85a6.84,6.84,0,0,1,2.7-2.53,8.18,8.18,0,1,1,14-5.78,8.09,8.09,0,0,1-2.93,6.26,6.84,6.84,0,0,1,2.93,5.61v13.18a6.87,6.87,0,0,1-6.87,6.86h-1.27l.27.77h5a3.67,3.67,0,0,0,3.67-3.68V110.46a1.6,1.6,0,0,1,1.6-1.6h1.32a.28.28,0,0,1,.2.08.32.32,0,0,1,.08.2v14.08a6.88,6.88,0,0,1-6.87,6.87h-3.81l.86,2.36a1.62,1.62,0,0,1,.06.4,1.47,1.47,0,0,1-1.46,1.46Zm52.17-2.92L97.75,95.82H73.63L60.78,131.39Zm2.77-8.45a3.68,3.68,0,0,0,3.68-3.67V106.09a3.68,3.68,0,0,0-3.68-3.68h-4a3.68,3.68,0,0,0-3.68,3.68v2.5l5.2,14.35ZM58,102.41a3.68,3.68,0,0,0-3.68,3.68v13.18A3.68,3.68,0,0,0,58,122.94h2.43l5.21-14.44v-2.41A3.68,3.68,0,0,0,62,102.41Zm50.85-12a5,5,0,0,0-1.81,3.81,5,5,0,0,0,5,5,4.88,4.88,0,0,0,2.29-.59A10.15,10.15,0,0,0,108.86,90.41ZM57,98.63a4.89,4.89,0,0,0,2.3.59,5,5,0,0,0,3.18-8.81A10.15,10.15,0,0,0,57,98.63Zm55.84-9.33a13.39,13.39,0,0,1,4,6,4.72,4.72,0,0,0,.13-1.13A5,5,0,0,0,112.87,89.3Zm-54.37,0a5,5,0,0,0-4.17,4.92,5.29,5.29,0,0,0,.13,1.13A13.39,13.39,0,0,1,58.5,89.3Zm34.82,3.33V86.32a6.31,6.31,0,0,0-4.3-6l.87,4.32a1.6,1.6,0,0,1-.14,1L87.11,91a1.59,1.59,0,0,1-2.85,0l-2.64-5.27a1.66,1.66,0,0,1-.14-1l.87-4.32a6.3,6.3,0,0,0-4.29,6v6.31ZM85.69,86.7l1-1.93L85.7,80h0l-1,4.77Zm-5-15.19a3,3,0,0,0,0,.31,5,5,0,0,0,10,0,3,3,0,0,0,0-.31,21.27,21.27,0,0,1-10,0Zm1.25-3a18.45,18.45,0,0,0,7.45,0,5,5,0,0,0-7.45,0Z"/><path class="cls-3" d="M96.2,34.6a1.36,1.36,0,0,0,.34,1.34l1.6,1.6-10,7.8-5.87-4.7a1.33,1.33,0,0,0-1.52-.1l-13.39,8,1.37,2.3,12.6-7.56,6,4.78a1.35,1.35,0,0,0,1.66,0l11.12-8.65,1.84,1.84a1.33,1.33,0,0,0,1,.39,1.31,1.31,0,0,0,.39,0,1.34,1.34,0,0,0,.92-1l1.34-6.7a1.33,1.33,0,0,0-1.57-1.57l-6.7,1.34A1.34,1.34,0,0,0,96.2,34.6Zm6.27.76L102,37.63l-1.82-1.82Z"/><rect class="cls-3" x="98.82" y="44.36" width="2.68" height="14.73"/><rect class="cls-3" x="93.47" y="48.38" width="2.68" height="10.71"/><rect class="cls-3" x="88.11" y="51.06" width="2.68" height="8.03"/><rect class="cls-3" x="82.75" y="48.38" width="2.68" height="10.71"/><rect class="cls-3" x="77.4" y="48.38" width="2.68" height="10.71"/><rect class="cls-3" x="72.04" y="51.06" width="2.68" height="8.03"/></g></g></svg>