<svg xmlns="http://www.w3.org/2000/svg" viewBox="0 0 13 13"><defs><style>.cls-1{fill:#fdfdfd;}.cls-2{fill:none;stroke:#ce002e;stroke-miterlimit:10;}.cls-3{fill:#ce002e;}</style></defs><title>pin button_active</title><g id="Layer_2" data-name="Layer 2"><g id="modal_pc"><path class="cls-1" d="M6.5,12.5h0a6,6,0,0,1-6-6h0a6,6,0,0,1,6-6h0a6,6,0,0,1,6,6h0A6,6,0,0,1,6.5,12.5Z"/><path class="cls-2" d="M6.5,12.5h0a6,6,0,0,1-6-6h0a6,6,0,0,1,6-6h0a6,6,0,0,1,6,6h0A6,6,0,0,1,6.5,12.5Z"/><path class="cls-3" d="M6.5,9.5h0a3,3,0,0,1-3-3h0a3,3,0,0,1,3-3h0a3,3,0,0,1,3,3h0A3,3,0,0,1,6.5,9.5Z"/></g></g></svg>