<svg xmlns="http://www.w3.org/2000/svg" viewBox="0 0 13 12.5"><defs><style>.cls-1{fill:#ce002e;}</style></defs><title>icon_birthdate</title><g id="Layer_2" data-name="Layer 2"><g id="レイヤー_2" data-name="レイヤー 2"><path class="cls-1" d="M1.67,12.5A1.67,1.67,0,0,1,0,10.83V2.63A1.67,1.67,0,0,1,1.67,1H3.22V.7a.7.7,0,0,1,1.4,0V1H8.35V.7a.7.7,0,0,1,1.4,0V1h1.56A1.68,1.68,0,0,1,13,2.63v8.2a1.67,1.67,0,0,1-1.67,1.67ZM1.4,10.83a.27.27,0,0,0,.27.27h9.64a.29.29,0,0,0,.29-.28V5.52H1.4ZM11.6,4.14V2.63a.27.27,0,0,0-.27-.27H9.77v.25a.71.71,0,0,1-1.41,0V2.36H4.63v.25a.7.7,0,0,1-1.4,0V2.36H1.67a.27.27,0,0,0-.27.27V4.14Z"/></g></g></svg>