<svg xmlns="http://www.w3.org/2000/svg" viewBox="0 0 27.97 22.87"><defs><style>.cls-1{fill:#ff858c;}.cls-2{fill:#fff;}.cls-3{fill:none;stroke:#fff;stroke-linecap:round;stroke-linejoin:round;stroke-width:3.34px;}</style></defs><title>icon_recommendation</title><g id="Layer_2" data-name="Layer 2"><g id="fukidashi"><path class="cls-1" d="M12.74,22.87a1,1,0,0,1-.71-.29L2,12A7.28,7.28,0,0,1,2,2.07a6.61,6.61,0,0,1,9.61,0l1.17,1.22,1.16-1.21a6.61,6.61,0,0,1,9.61,0,7.28,7.28,0,0,1,0,10L13.44,22.58A.93.93,0,0,1,12.74,22.87Zm-6-21a4.71,4.71,0,0,0-3.4,1.5,5.32,5.32,0,0,0,0,7.26l9.37,9.82,9.38-9.81a5.32,5.32,0,0,0,0-7.26,4.61,4.61,0,0,0-6.81,0L13.46,5.38a1,1,0,0,1-1.42,0l-1.86-2A4.71,4.71,0,0,0,6.77,1.92Z"/><rect class="cls-2" x="15.18" y="14.43" width="11.12" height="2.22" rx="0.22"/><rect class="cls-3" x="15.18" y="14.43" width="11.12" height="2.22" rx="0.22"/><rect class="cls-2" x="19.63" y="9.98" width="2.22" height="11.12" rx="0.22"/><rect class="cls-3" x="19.63" y="9.98" width="2.22" height="11.12" rx="0.22"/><rect class="cls-1" x="15.18" y="14.43" width="11.12" height="2.22" rx="0.22"/><rect class="cls-1" x="19.63" y="9.98" width="2.22" height="11.12" rx="0.22"/></g></g></svg>