<svg xmlns="http://www.w3.org/2000/svg" viewBox="0 0 29.31 22.94"><defs><style>.cls-1{fill:#fff;}.cls-2,.cls-3{fill:#ff858c;stroke-miterlimit:10;}.cls-2{stroke:#ff858c;stroke-width:4px;}.cls-3{stroke:#fff;stroke-width:1.57px;}</style></defs><title>icon_recommendation_white</title><g id="Layer_2" data-name="Layer 2"><g id="レイヤー_2" data-name="レイヤー 2"><path class="cls-1" d="M12.74,22.87a1,1,0,0,1-.71-.29L2,12A7.27,7.27,0,0,1,2,2.07a6.61,6.61,0,0,1,9.61,0l1.17,1.22,1.16-1.21a6.61,6.61,0,0,1,9.61,0,7.28,7.28,0,0,1,0,10L13.44,22.58A.93.93,0,0,1,12.74,22.87Zm-6-21a4.71,4.71,0,0,0-3.4,1.5,5.32,5.32,0,0,0,0,7.26l9.37,9.82,9.38-9.81a5.32,5.32,0,0,0,0-7.26,4.61,4.61,0,0,0-6.81,0L13.46,5.38a1,1,0,0,1-.71.29,1,1,0,0,1-.71-.3L10.18,3.42A4.71,4.71,0,0,0,6.77,1.92Z"/><circle class="cls-2" cx="21.81" cy="15.44" r="5.5"/><circle class="cls-3" cx="21.81" cy="15.44" r="5.5"/><path class="cls-1" d="M21.5,17.46a.39.39,0,0,1-.56,0l-1.89-1.89a.4.4,0,0,1,0-.57l.42-.42a.4.4,0,0,1,.57,0l.9.9a.39.39,0,0,0,.56,0l1.94-1.94a.42.42,0,0,1,.57,0l.42.43a.39.39,0,0,1,0,.56Z"/></g></g></svg>