<svg xmlns="http://www.w3.org/2000/svg" viewBox="0 0 19 19"><defs><style>.cls-1{fill:#fdfdfd;}.cls-2{fill:none;stroke:#f1f1f1;stroke-miterlimit:10;}.cls-3{fill:#a0a0a0;}</style></defs><title>normal_checkbox</title><g id="Layer_2" data-name="Layer 2"><g id="レイヤー_2" data-name="レイヤー 2"><rect class="cls-1" x="0.5" y="0.5" width="18" height="18" rx="2"/><rect class="cls-2" x="0.5" y="0.5" width="18" height="18" rx="2"/><path class="cls-3" d="M8.11,13.25A.74.74,0,0,1,7.58,13L4.36,9.8a.74.74,0,0,1,0-1.06.75.75,0,0,1,1.06,0l2.69,2.7L13.58,6a.75.75,0,0,1,1.06,0,.74.74,0,0,1,0,1.06l-6,6A.71.71,0,0,1,8.11,13.25Z"/></g></g></svg>