<svg xmlns="http://www.w3.org/2000/svg" viewBox="0 0 10.12 12.2"><defs><style>.cls-1{fill:#ce002e;}</style></defs><title>icon_skills</title><g id="Layer_2" data-name="Layer 2"><g id="レイヤー_2" data-name="レイヤー 2"><path class="cls-1" d="M.58,12.2A.58.58,0,0,1,0,11.62v-8s0-.12,0-.13H0s0,0,0-.08l0-.11.07-.09L3.2.13A.32.32,0,0,1,3.33,0l.1,0H9.54a.58.58,0,0,1,.58.58v11a.58.58,0,0,1-.58.58ZM9,11V1.16H4.18V3.6a.58.58,0,0,1-.58.58H1.16V11ZM3,3V2L2,3Z"/><path class="cls-1" d="M2.46,6.13a.56.56,0,0,1-.54-.58A.58.58,0,0,1,2.5,5H7.6a.59.59,0,0,1,.58.57.58.58,0,0,1-.58.58H2.46Z"/><path class="cls-1" d="M2.5,8a.58.58,0,0,1-.58-.58.56.56,0,0,1,.56-.58H7.6a.58.58,0,0,1,.58.58A.6.6,0,0,1,7.61,8H2.5Z"/><path class="cls-1" d="M2.46,9.9a.57.57,0,0,1-.54-.59.58.58,0,0,1,.58-.57H7.6a.59.59,0,0,1,.58.57.58.58,0,0,1-.58.59H2.46Z"/></g></g></svg>