<svg xmlns="http://www.w3.org/2000/svg" viewBox="0 0 9.75 12"><defs><style>.cls-1{fill:#ce002e;}</style></defs><title>icon_yen</title><g id="Layer_2" data-name="Layer 2"><g id="レイヤー_2" data-name="レイヤー 2"><path class="cls-1" d="M9.71.16A.31.31,0,0,0,9.44,0H7.74a.28.28,0,0,0-.29.19L5,4.72,2.34.18A.33.33,0,0,0,2.05,0H.31A.3.3,0,0,0,0,.16.34.34,0,0,0,0,.47L3,5.29H.92a.27.27,0,0,0-.22.1.3.3,0,0,0-.1.22v1a.33.33,0,0,0,.1.23A.29.29,0,0,0,.92,7H3.75v.83H.92a.29.29,0,0,0-.22.09.34.34,0,0,0-.1.23v1a.33.33,0,0,0,.1.23.33.33,0,0,0,.22.08H3.75v2.27a.27.27,0,0,0,.1.22.29.29,0,0,0,.22.09H5.76A.31.31,0,0,0,6,11.91a.33.33,0,0,0,.09-.22V9.42H8.93a.35.35,0,0,0,.22-.08.32.32,0,0,0,.09-.23v-1a.33.33,0,0,0-.09-.23.31.31,0,0,0-.22-.09H6.07V7H8.93a.31.31,0,0,0,.22-.09.32.32,0,0,0,.09-.23v-1a.29.29,0,0,0-.09-.22.28.28,0,0,0-.22-.1H6.81L9.72.46A.29.29,0,0,0,9.71.16Z"/></g></g></svg>