<svg xmlns="http://www.w3.org/2000/svg" viewBox="0 0 10.01 14"><defs><style>.cls-1{fill:#ce002e;}</style></defs><title>icon_birthplace</title><g id="Layer_2" data-name="Layer 2"><g id="レイヤー_2" data-name="レイヤー 2"><path class="cls-1" d="M5,14a.68.68,0,0,1-.58-.33L.79,7.79A4.71,4.71,0,0,1,0,5.17,5.1,5.1,0,0,1,5,0a5.1,5.1,0,0,1,5,5.17,4.71,4.71,0,0,1-.79,2.62L5.58,13.67a.69.69,0,0,1-.22.23A.65.65,0,0,1,5,14ZM5,1.36A3.74,3.74,0,0,0,1.36,5.17,3.35,3.35,0,0,0,2,7.07L5,12,8.06,7.07a3.32,3.32,0,0,0,.59-1.9A3.74,3.74,0,0,0,5,1.36ZM5,7.68A2.68,2.68,0,1,1,7.68,5,2.68,2.68,0,0,1,5,7.68Zm0-4A1.32,1.32,0,1,0,6.32,5,1.3,1.3,0,0,0,5,3.69Z"/></g></g></svg>