<svg xmlns="http://www.w3.org/2000/svg" xmlns:xlink="http://www.w3.org/1999/xlink" viewBox="0 0 274.48 20.04"><defs><style>.cls-1{fill:none;}.cls-2{clip-path:url(#clip-path);}.cls-3{fill:#921f24;}</style><clipPath id="clip-path"><rect class="cls-1" x="-361.85" y="104.52" width="1280.5" height="691.57"/></clipPath></defs><title>200624_mirai_works_design_corporate_TOP_PC_X</title><g id="corporate_TOP_PC"><g class="cls-2"><image width="2048" height="1356" transform="translate(-365.37 -63.15) scale(0.69)" xlink:href="img/gettyimages-1153818857-2048x2048_1.jpg"/></g><path d="M198.35,1.42a2.49,2.49,0,1,0,2.49,2.49A2.49,2.49,0,0,0,198.35,1.42Zm0,4.39a1.9,1.9,0,1,1,1.9-1.9A1.9,1.9,0,0,1,198.35,5.81Zm.59-1.91a.56.56,0,0,0,.22-.11.57.57,0,0,0,.25-.63.68.68,0,0,0-.52-.51,3.59,3.59,0,0,0-1.46,0V5.12H198v-1h.21c.41,0,.51.09.61.47,0,.17.1.33.14.5h.6C199.31,4.7,199.41,4.17,198.94,3.9Zm-1-.2V3c.88-.16.88.36.88.36C198.81,3.83,198,3.7,198,3.7Z"/><path class="cls-3" d="M0,15.47H14.64V.83H0ZM1.34,2.18h12v12H1.34ZM194.18,8.82a6.73,6.73,0,0,0-.42-2A3.78,3.78,0,0,0,192,4.75a4.09,4.09,0,0,0-2-.43,4.41,4.41,0,0,0-3.63,1.83c-.05.07-.1.14-.2.26a6.75,6.75,0,0,0-.38-1.92l-1,.17a9.76,9.76,0,0,1,.28,3V19.85h1.15V14.2l.28.28.27.23a4.89,4.89,0,0,0,3.75.95,3.74,3.74,0,0,0,2.79-1.81,5.64,5.64,0,0,0,.64-1.59A11.07,11.07,0,0,0,194.18,8.82Zm-1.47,3.45a3.92,3.92,0,0,1-.82,1.53,2.85,2.85,0,0,1-1.95.9,4.17,4.17,0,0,1-3.42-1.26,1.06,1.06,0,0,1-.35-.79c0-.73,0-4.29,0-4.57a1.38,1.38,0,0,1,.21-.74,3.83,3.83,0,0,1,3.37-2,2.8,2.8,0,0,1,2.84,1.9A5.3,5.3,0,0,1,193,8.75,9.73,9.73,0,0,1,192.71,12.27ZM85.46,4.45A6.18,6.18,0,0,0,83,4.32,4.2,4.2,0,0,0,79.43,7a7.22,7.22,0,0,0-.52,3,7.62,7.62,0,0,0,.5,3,4.2,4.2,0,0,0,2.85,2.63,6.27,6.27,0,0,0,2.76.11A4.11,4.11,0,0,0,87.8,14a5,5,0,0,0,.68-1.36,7.92,7.92,0,0,0,.36-1.93,8.46,8.46,0,0,0-.43-3.53A4.16,4.16,0,0,0,85.46,4.45Zm1.77,8.23a3.25,3.25,0,0,1-3.08,2.15,4.46,4.46,0,0,1-1.62-.2,3.25,3.25,0,0,1-2-2,6.11,6.11,0,0,1-.37-1.56,9,9,0,0,1,.09-2.79,4.64,4.64,0,0,1,.52-1.43,3,3,0,0,1,1.9-1.48,4.59,4.59,0,0,1,2.44,0,3.11,3.11,0,0,1,2.12,1.92,6.33,6.33,0,0,1,.44,2.19c0,.17,0,.34,0,.5A7,7,0,0,1,87.23,12.68Zm60.57-.23c0-1.54,0-3.09,0-4.63a7.87,7.87,0,0,0-.12-1.38A2.29,2.29,0,0,0,146,4.51a4.32,4.32,0,0,0-.87-.17,8,8,0,0,0-4.22.74,4.1,4.1,0,0,0-.41.22c.1.34.2.64.3,1l.31-.17a7.37,7.37,0,0,1,1.49-.6,5.62,5.62,0,0,1,2.61-.14,1.64,1.64,0,0,1,1.38,1.38,13.25,13.25,0,0,1,.09,2.16l-.91.08a21.93,21.93,0,0,0-2.92.33,6.51,6.51,0,0,0-1.87.61,2.23,2.23,0,0,0-1.24,1.7,6.2,6.2,0,0,0-.06,1.22,2.79,2.79,0,0,0,2.13,2.7,4.4,4.4,0,0,0,1.84.16,3.82,3.82,0,0,0,3-2,1.62,1.62,0,0,1,.13-.19,8.71,8.71,0,0,0,.27,1,10.22,10.22,0,0,0,.46.94l.09.16,1-.22c-.1-.18-.2-.32-.28-.47A5.47,5.47,0,0,1,147.8,12.45Zm-1.39.44a3.4,3.4,0,0,1-3.5,1.84,3.75,3.75,0,0,1-.6-.12,2,2,0,0,1-1.57-2,3.08,3.08,0,0,1,.06-.74,1.6,1.6,0,0,1,.79-1.12,4.09,4.09,0,0,1,1.48-.52,23.92,23.92,0,0,1,3.37-.35h.24s0,1.35,0,1.88A2.27,2.27,0,0,1,146.41,12.89ZM76.06,14c.06.35.12.68.18,1.05l-.38.15a13.65,13.65,0,0,1-2.45.5,10.13,10.13,0,0,1-2.58,0,5.42,5.42,0,0,1-4.7-4.06,11.76,11.76,0,0,1-.41-3.68,11.63,11.63,0,0,1,.46-3.1A6.29,6.29,0,0,1,67.65,2.2,5.45,5.45,0,0,1,70.42.71,9.26,9.26,0,0,1,73.74.64a10.79,10.79,0,0,1,2.07.51l.23.1-.2,1-.36-.13a9.62,9.62,0,0,0-3.27-.57,5.42,5.42,0,0,0-2,.35,4.46,4.46,0,0,0-2.49,2.37,7.88,7.88,0,0,0-.67,2.47A12.28,12.28,0,0,0,67,9.29a7.5,7.5,0,0,0,.7,2.78,4.48,4.48,0,0,0,3.35,2.48,8.38,8.38,0,0,0,2.87,0,11.42,11.42,0,0,0,2-.48ZM48.19,6.72a3.5,3.5,0,0,0-1.9-2.14,4.56,4.56,0,0,0-1.4-.34,5,5,0,0,0-2.6.43,4.59,4.59,0,0,0-2.21,2.4,7.53,7.53,0,0,0-.57,2.47,7.87,7.87,0,0,0,.26,2.86,4.34,4.34,0,0,0,2.08,2.73,5.17,5.17,0,0,0,2.43.63,14.53,14.53,0,0,0,1.61-.06,8.55,8.55,0,0,0,2.28-.56A1.27,1.27,0,0,0,48.4,15c-.08-.31-.15-.61-.22-.92l-.12,0a7.62,7.62,0,0,1-2.05.57,7.14,7.14,0,0,1-2.44,0A3.39,3.39,0,0,1,41,12.53,5.77,5.77,0,0,1,40.64,10a.49.49,0,0,1,0-.1h7.89c0-.36,0-.66,0-1A7.16,7.16,0,0,0,48.19,6.72ZM40.68,9A4.9,4.9,0,0,1,41,7.75a4.3,4.3,0,0,1,.8-1.45,3.21,3.21,0,0,1,2.83-1.12,4.69,4.69,0,0,1,.82.14A2.47,2.47,0,0,1,47,6.62,5.24,5.24,0,0,1,47.49,9ZM60.27,6.62a3.43,3.43,0,0,0-2.22-2.17,5,5,0,0,0-2.74-.09,4.28,4.28,0,0,0-3,2.52A8,8,0,0,0,52,12.65a4.17,4.17,0,0,0,1.21,1.9,4.79,4.79,0,0,0,3,1.2,9.68,9.68,0,0,0,3.7-.44l.69-.27a8.78,8.78,0,0,0-.26-.95,8.43,8.43,0,0,1-2.59.65,6.64,6.64,0,0,1-2-.08A3.42,3.42,0,0,1,53,12.37,6.31,6.31,0,0,1,52.75,10a.33.33,0,0,1,0-.12h7.88v-1A6.5,6.5,0,0,0,60.27,6.62ZM59.59,9H52.82c0-.05,0-.09,0-.14A4.85,4.85,0,0,1,53.88,6.3a3.16,3.16,0,0,1,2.8-1.12,4.31,4.31,0,0,1,1,.2A2.52,2.52,0,0,1,59.26,7a5.86,5.86,0,0,1,.35,1.9A.74.74,0,0,1,59.59,9Zm64.22,6.45a.35.35,0,0,1,0,.12l-1,.17a6,6,0,0,1-.39-1.64,1.81,1.81,0,0,0-.19.15,6,6,0,0,1-3.1,1.51,4.55,4.55,0,0,1-1.8-.06,2.78,2.78,0,0,1-2.06-1.94,5.25,5.25,0,0,1-.26-1.67c0-2.4,0-7.45,0-7.45h1.15v6.9A5.77,5.77,0,0,0,116.3,13a3.91,3.91,0,0,0,.24.65,2,2,0,0,0,1.6,1.11,4.46,4.46,0,0,0,2.61-.47,5.18,5.18,0,0,0,1.45-1,.57.57,0,0,0,.18-.44c0-2.63,0-8.11,0-8.23h1.16v8.45A8.52,8.52,0,0,0,123.81,15.43ZM101.24,8.14v7.11c0,.06,0,.12,0,.21h-1.11c0-.11,0-.22,0-.34,0-2.07,0-4.15,0-6.22A6.91,6.91,0,0,0,100,7.27a2.79,2.79,0,0,0-.56-1.16A2.09,2.09,0,0,0,98,5.42a4.78,4.78,0,0,0-3.27.92c-.24.16-.44.36-.67.54a.61.61,0,0,0-.21.51c0,2.58,0,5.15,0,7.72v.35H92.72V6.91a8,8,0,0,0-.26-2.12.45.45,0,0,1,0-.13l1-.17a7.88,7.88,0,0,1,.38,1.68c.07-.06.13-.09.18-.14A5.69,5.69,0,0,1,97.2,4.46a4.15,4.15,0,0,1,2,.15,2.62,2.62,0,0,1,1.65,1.47A5.19,5.19,0,0,1,101.24,8.14Zm59.52,0c0,2.39,0,7.37,0,7.37h-1.13s0-4.58,0-6.71a5.49,5.49,0,0,0-.12-1.4,3.41,3.41,0,0,0-.26-.76,2,2,0,0,0-1.7-1.18A4.63,4.63,0,0,0,154.9,6a5.39,5.39,0,0,0-1.31.93.7.7,0,0,0-.22.54c0,2.55,0,8.05,0,8.05h-1.13V7A8,8,0,0,0,152,4.81a1.13,1.13,0,0,1,0-.14,6.65,6.65,0,0,1,1-.17,7.66,7.66,0,0,1,.38,1.67.9.9,0,0,0,.17-.14,5.78,5.78,0,0,1,3.19-1.57,4.24,4.24,0,0,1,2,.16,2.64,2.64,0,0,1,1.62,1.5A5,5,0,0,1,160.76,8.1ZM22,.89h7.5v1H23.2V7.59h5.62V8.65H23.19s0,6.23,0,6.83H22Zm88.91,10a2.42,2.42,0,0,1,.59,1.58,4.16,4.16,0,0,1-.15,1.31,2.56,2.56,0,0,1-1.51,1.65,4.5,4.5,0,0,1-2.12.32,10.9,10.9,0,0,1-2.78-.5l-.48-.17c.11-.35.2-.65.3-1l.27.1a8.06,8.06,0,0,0,3.15.56,3.69,3.69,0,0,0,.87-.15A1.72,1.72,0,0,0,110.36,13a1.91,1.91,0,0,0-.87-1.93,9.63,9.63,0,0,0-1.66-.85c-.41-.17-.83-.35-1.24-.55a5.58,5.58,0,0,1-.77-.49A2.23,2.23,0,0,1,105,7.53a4.93,4.93,0,0,1,0-.94,2.47,2.47,0,0,1,1.55-1.92,4.4,4.4,0,0,1,1.82-.34,8.07,8.07,0,0,1,2.53.45l.43.18c-.1.33-.2.63-.29.92-.45-.15-.87-.32-1.31-.42a4.31,4.31,0,0,0-2.14-.09,2.67,2.67,0,0,0-.4.13,1.74,1.74,0,0,0-1,2.16,1.58,1.58,0,0,0,.64.88,8.09,8.09,0,0,0,1.4.73c.48.2,1,.4,1.42.63A4,4,0,0,1,110.93,10.89Zm55.64-6.24h2.58v.94h-2.59v7.29a4.29,4.29,0,0,0,.08.71,1.12,1.12,0,0,0,1.17,1c.26,0,1,0,1,0v.89c-.38,0-.75.07-1.13.07a3.5,3.5,0,0,1-.72-.06A1.75,1.75,0,0,1,165.51,14a6.41,6.41,0,0,1-.1-1.16c0-2.3,0-7.11,0-7.25h-1.89V4.67h1.88V2l1.16-.27C166.57,2.69,166.55,3.66,166.57,4.65Zm-31.41,0h2.56v.93h-2.57s0,5.06,0,7.5a2.4,2.4,0,0,0,.05.46,1.13,1.13,0,0,0,1.15,1c.24,0,.48,0,.72,0l.3,0v.86a7.88,7.88,0,0,1-1.53.07l-.33-.05A1.8,1.8,0,0,1,134.07,14a4.9,4.9,0,0,1-.06-.77c0-2.41,0-7.44,0-7.58h-1.92V4.66H134V2l1.15-.27C135.17,2.7,135.13,3.66,135.16,4.66Zm45.31,0V15.08a7,7,0,0,1-.44,2.64A4.34,4.34,0,0,1,177.78,20h-.08L177,19.3l.24-.15a3.76,3.76,0,0,0,2-3,10.81,10.81,0,0,0,.07-1.27c0-3.29,0-10.23,0-10.23Zm-144-.05a3.14,3.14,0,0,1,1.12-.11c0,.35,0,.68-.07,1-.34,0-.66.08-1,.15a3.78,3.78,0,0,0-2.2,1.25,3.15,3.15,0,0,0-.22.29,1.48,1.48,0,0,0-.28.9c0,2.36,0,7.3,0,7.43H32.68s0-5.32,0-7.81A14.12,14.12,0,0,0,32.46,5a2.73,2.73,0,0,0-.06-.31l.51-.1.51-.08a7.12,7.12,0,0,1,.37,1.89c.26-.28.47-.58.74-.82A4.53,4.53,0,0,1,35.42,5,5.33,5.33,0,0,1,36.45,4.56Zm138.64,9.26v1.67h-1.38V13.82Zm5.38-11.64h-1.16V.88h1.16ZM129.21,0V15.47h-1.1V.21Z"/><path d="M234.58,11.93l.39.12.34.13a1.64,1.64,0,0,1,1.06,1.55,1.77,1.77,0,0,1-1,1.71,3.69,3.69,0,0,1-1.53.36H231V8.36h2.57a3.91,3.91,0,0,1,1.23.19,1.76,1.76,0,0,1,1.17,1.1,1.64,1.64,0,0,1-1,2.16Zm-2.74.37v2.78h1.78a2.5,2.5,0,0,0,1-.19,1.21,1.21,0,0,0,.83-1.14,1.17,1.17,0,0,0-.71-1.15,2.42,2.42,0,0,0-1-.29C233.13,12.28,231.84,12.3,231.84,12.3Zm0-.74s1.06,0,1.52,0a2.6,2.6,0,0,0,1.16-.27,1,1,0,0,0,.55-.63,1.1,1.1,0,0,0-.62-1.37,2.84,2.84,0,0,0-.86-.2c-.52,0-1.75,0-1.75,0Zm31.73,1.62h-4.1a1.88,1.88,0,0,0,1,1.84,2,2,0,0,0,1.41.09,2.24,2.24,0,0,0,1.15-.82l.53.56a2.53,2.53,0,0,1-1,.83,3.1,3.1,0,0,1-2.28.1,2.32,2.32,0,0,1-1.51-1.55,3.38,3.38,0,0,1,.11-2.54,2.5,2.5,0,0,1,2.93-1.41,2.33,2.33,0,0,1,1.66,1.64A3.44,3.44,0,0,1,263.56,13.18Zm-.92-.69a1.56,1.56,0,0,0-1.51-1.57,1.64,1.64,0,0,0-1.61,1.57Zm-40.18.62a3.27,3.27,0,0,1-.41,1.59A2.56,2.56,0,0,1,219.61,16a2.6,2.6,0,0,1-2.51-2.58,3.25,3.25,0,0,1,.24-1.6,2.67,2.67,0,0,1,5.09,1Zm-.91.16a2.56,2.56,0,0,0-.24-1.32,1.7,1.7,0,0,0-1.49-1,1.61,1.61,0,0,0-1.54.91,2.52,2.52,0,0,0,0,2.4,1.62,1.62,0,0,0,1.54,1,1.67,1.67,0,0,0,1.53-1A2,2,0,0,0,221.55,13.27Zm-9.07-.93h3.32v-.76h-3.32V9.12h3.75V8.38h-4.62v7.41h.87Zm40.86.27a.67.67,0,0,1,0-.32,2.06,2.06,0,0,1,1.45-1.23,1,1,0,0,1,1.38.9,3.68,3.68,0,0,1,.05.58v3.24h.84V12.29a2.62,2.62,0,0,0,0-.28,1.76,1.76,0,0,0-2.17-1.71,2.44,2.44,0,0,0-1.37.74l-.2.2-.06.07v-.93h-.83v5.4h.86S253.33,13.56,253.34,12.61Zm-15.49,1.23a3.68,3.68,0,0,0,.06.66,1.59,1.59,0,0,0,1.39,1.37,2.27,2.27,0,0,0,2-.65l.33-.32v.89h.8V10.38h-.83s0,2.22,0,3.17a.74.74,0,0,1-.13.47,4.06,4.06,0,0,1-.51.65,1.63,1.63,0,0,1-1.09.5,1,1,0,0,1-1.1-.77,3.18,3.18,0,0,1-.09-.69V10.38h-.86S237.84,12.76,237.85,13.84Zm10-3.06a3.54,3.54,0,0,0-1.92-.55,2.27,2.27,0,0,0-1.31.4,1.33,1.33,0,0,0,.11,2.22c.29.15.6.28.91.41s.72.27,1.08.43a1.28,1.28,0,0,1,.4.29.58.58,0,0,1,.15.64.79.79,0,0,1-.71.53,2.76,2.76,0,0,1-2.08-.5l-.23-.15-.44.64.1.09a1.4,1.4,0,0,0,.18.13,3.42,3.42,0,0,0,2,.59,3.13,3.13,0,0,0,1.25-.2,1.42,1.42,0,0,0,.93-1.21,1.35,1.35,0,0,0-.66-1.32,4.32,4.32,0,0,0-.56-.3c-.32-.14-.66-.26-1-.39a4.49,4.49,0,0,1-.71-.31.59.59,0,0,1-.06-1,1.14,1.14,0,0,1,.65-.21,2.34,2.34,0,0,1,1.42.41l.24.15.42-.65Zm22.33,4.45a3.58,3.58,0,0,0,2.92.65,1.85,1.85,0,0,0,.94-.43,1.38,1.38,0,0,0-.06-2.12,3.65,3.65,0,0,0-.69-.4c-.33-.15-.67-.27-1-.4a6,6,0,0,1-.69-.3.6.6,0,0,1,0-1.06,1.11,1.11,0,0,1,.63-.19,2.38,2.38,0,0,1,1.42.41l.23.15.43-.65-.2-.14a3.48,3.48,0,0,0-1.91-.52,2.08,2.08,0,0,0-1.36.48,1.33,1.33,0,0,0,.14,2.1c.34.18.7.33,1.06.48s.69.27,1,.42a1.24,1.24,0,0,1,.35.25.65.65,0,0,1-.16,1.06,1.28,1.28,0,0,1-.42.13,2.72,2.72,0,0,1-2-.49l-.24-.16-.45.64Zm-3,.72a2.8,2.8,0,0,0,1.13-.27,1.4,1.4,0,0,0,.16-2.44l-.36-.21-1.23-.5a5.69,5.69,0,0,1-.71-.32.59.59,0,0,1-.06-1,1.15,1.15,0,0,1,.65-.22,2.39,2.39,0,0,1,1.42.4l.24.16.43-.64a3.35,3.35,0,0,0-2.23-.66,2.05,2.05,0,0,0-1.31.54,1.33,1.33,0,0,0,.22,2,8.18,8.18,0,0,0,.95.44c.33.14.66.25,1,.38a2.92,2.92,0,0,1,.48.29.67.67,0,0,1-.14,1.1,1.27,1.27,0,0,1-.39.12,2.7,2.7,0,0,1-2-.45l-.28-.19-.17.24c-.09.13-.18.25-.28.41A3.51,3.51,0,0,0,267.2,16Zm-43.47-.15h.84V13.3a2.75,2.75,0,0,1,.57-1.68,1.19,1.19,0,0,1,1.36-.49l.19,0,.22-.65s0-.07,0-.1a1.53,1.53,0,0,0-1.71.23,3.58,3.58,0,0,0-.59.9l-.13.22s0-.93,0-1.38h-.78Zm26.84-5.41h-.84v5.4h.84Zm0-2.18h-.84v1h.84Z"/></g></svg>