<svg id="Layer_1" data-name="Layer 1" xmlns="http://www.w3.org/2000/svg" viewBox="0 0 106 106"><defs><style>.cls-1{fill:#fff;stroke:#ce002e;stroke-miterlimit:10;stroke-width:1.5px;}.cls-2{fill:#ce002e;}</style></defs><circle class="cls-1" cx="53" cy="53" r="51"/><path class="cls-2" d="M70.5,86h-35a1.25,1.25,0,0,1-1.25-1.25V71.25A11.27,11.27,0,0,1,45.5,60h1.25A1.25,1.25,0,0,0,48,58.75V55h2.5v3.75a3.75,3.75,0,0,1-3.75,3.75H45.5a8.77,8.77,0,0,0-8.75,8.75V83.5h32.5V71.25A8.78,8.78,0,0,0,60.6,62.5H59.25a3.75,3.75,0,0,1-3.75-3.75V55H58v3.75A1.25,1.25,0,0,0,59.25,60h1.38A11.29,11.29,0,0,1,71.75,71.25v13.5A1.25,1.25,0,0,1,70.5,86Z"/><path class="cls-2" d="M64.25,42.5a10.16,10.16,0,0,1-1.46-.14,8.62,8.62,0,0,1-6.48-4.57c-1.8,2.18-5.53,4.46-13.25,4.68-.42,0-.87,0-1.31,0a1.25,1.25,0,0,1-1.25-1.25V37.5a12.37,12.37,0,0,1,5.89-10.6,12.65,12.65,0,0,1,13.23,0A12.39,12.39,0,0,1,65.5,37.5v3.75A1.25,1.25,0,0,1,64.25,42.5ZM53,27.5a10,10,0,0,0-10,10V40c12.14-.36,12.49-6,12.5-6.24a1.25,1.25,0,1,1,2.5,0h0a5.71,5.71,0,0,0,5,6.11V37.5A10,10,0,0,0,53,27.5Z"/><path class="cls-2" d="M60.5,27.5H58a5,5,0,0,0-10,0H45.5a7.5,7.5,0,0,1,15,0Z"/><path class="cls-2" d="M53,67.5c-4.14,0-7.5-2.8-7.5-6.25H48C48,63.32,50.24,65,53,65s5-1.68,5-3.75h2.5C60.5,64.7,57.14,67.5,53,67.5Z"/><path class="cls-2" d="M64.25,48.75H63v-2.5h1.25a1.25,1.25,0,0,0,0-2.5H63v-2.5h1.25a3.75,3.75,0,0,1,0,7.5Z"/><path class="cls-2" d="M43,48.75H41.75a3.75,3.75,0,0,1,0-7.5H43v2.5H41.75a1.25,1.25,0,0,0,0,2.5H43Z"/><path class="cls-2" d="M53,57.5A11.27,11.27,0,0,1,41.75,46.25v-5h2.5v5a8.75,8.75,0,0,0,17.5,0v-5h2.5v5A11.27,11.27,0,0,1,53,57.5Z"/><path class="cls-2" d="M53.09,85.8c-6.2,0-7.93-11.56-8.41-18.48l-2.51,5,4.7,11.76L44.59,85,39.68,72.75a1.24,1.24,0,0,1,0-1l4.91-9.82a1.23,1.23,0,0,1,2.33.55c0,6.81,1.5,20.87,6.13,20.87,0,0,6.14-.7,6.14-20.87a1.23,1.23,0,0,1,1.23-1.22,1.21,1.21,0,0,1,1.1.68l4.91,9.81a1.27,1.27,0,0,1,0,1L61.6,85l-2.28-.91L64,72.36l-2.47-5C60.52,85.25,53.9,85.8,53.09,85.8Z"/><rect class="cls-2" x="52" y="66.25" width="2.5" height="17.13"/></svg>