<svg id="Layer_1" data-name="Layer 1" xmlns="http://www.w3.org/2000/svg" viewBox="0 0 106 106"><defs><style>.cls-1{fill:#fff;stroke:#ce002e;stroke-miterlimit:10;stroke-width:1.5px;}.cls-2{fill:#ce002e;}</style></defs><circle class="cls-1" cx="53" cy="53" r="51"/><path class="cls-2" d="M53,55.14A11.54,11.54,0,0,1,41.47,43.61V39.76c0-.71.59-1.46,1.28-1.28C51.41,40.73,59,37,59.57,32.87a1.36,1.36,0,0,1,1.28-1.29,1.28,1.28,0,0,1,1.28,1.29c0,5.37,1.12,5.52,1.29,5.62a1.27,1.27,0,0,1,1.11,1.27v3.85A11.54,11.54,0,0,1,53,55.14ZM44,41v2.59a9,9,0,0,0,17.94,0v-3c-.81-.51-1.34-1.68-1.82-4.25C58.72,40.2,51.82,42.46,44,41Zm19.22-2.54,0,0"/><path class="cls-2" d="M53,61.86a1.21,1.21,0,0,1-.75-.25l-5-3.75,1.5-2L53,59.05l4.25-3.19,1.5,2-5,3.75A1.21,1.21,0,0,1,53,61.86Z"/><path class="cls-2" d="M64.53,46.17H63.25V43.61h1.28a1.29,1.29,0,1,0,0-2.57H63.25V38.48h1.28a3.85,3.85,0,1,1,0,7.69Z"/><path class="cls-2" d="M42.75,46.17H41.47a3.85,3.85,0,1,1,0-7.69,2.32,2.32,0,0,1,1.28,0V41H41.47a1.29,1.29,0,1,0,0,2.57h1.28Z"/><path class="cls-2" d="M67.1,41H64.53V35.92a11.53,11.53,0,1,0-23.06,0V41H38.9V35.92a14.1,14.1,0,1,1,28.2,0Z"/><path class="cls-2" d="M72.08,83.7H33.92a1.27,1.27,0,0,1-1.27-1.27V69.23A11.47,11.47,0,0,1,44.1,57.78h1.27a1.27,1.27,0,0,0,1.27-1.27V52.7h2.54v3.81a3.81,3.81,0,0,1-3.81,3.82H44.1a8.92,8.92,0,0,0-8.91,8.9V81.15H70.81V69.23a8.92,8.92,0,0,0-8.91-8.9H60.63a3.81,3.81,0,0,1-3.81-3.82V52.7h2.54v3.81a1.27,1.27,0,0,0,1.27,1.27H61.9A11.47,11.47,0,0,1,73.35,69.23v13.2A1.27,1.27,0,0,1,72.08,83.7Z"/><path class="cls-2" d="M53,83.13c-6.21,0-7.93-11.56-8.41-18.48l-2.52,5,4.71,11.76-2.28.92L39.59,70.09a1.23,1.23,0,0,1,0-1l4.91-9.82a1.22,1.22,0,0,1,2.32.56c0,6.8,1.51,20.86,6.14,20.86,0,0,6.14-.7,6.14-20.86a1.22,1.22,0,0,1,2.32-.55l4.91,9.81a1.23,1.23,0,0,1,0,1L61.5,82.36l-2.28-.91,4.71-11.76-2.47-5C60.42,82.58,53.81,83.13,53,83.13Z"/><polygon class="cls-2" points="59.21 66.54 53 61.82 46.86 66.54 45.46 64.71 53 58.93 60.6 64.71 59.21 66.54"/><polygon class="cls-2" points="53 61.83 50.42 63.81 52.26 67.26 50.17 79.27 47.9 78.88 49.86 67.64 47.47 63.18 52.3 59.47 53.7 61.29 53 61.83"/><polygon class="cls-2" points="56.23 68.12 58.01 78.31 55.74 78.71 53.84 67.82 55.64 63.85 53 61.83 52.3 61.29 53.7 59.47 58.49 63.14 56.23 68.12"/><polygon class="cls-2" points="58.01 78.31 52.72 83.13 47.9 78.88 49.01 78.71 50.17 79.27 52.95 81.69 55.74 78.71 58.01 78.31"/></svg>