<svg width="14" height="14" fill="none" xmlns="http://www.w3.org/2000/svg"><path d="M6.621 7.408h3.15v-.787H4.229v.787h2.392Zm.382 5.134a5.402 5.402 0 0 1-2.162-.437 5.6 5.6 0 0 1-1.76-1.184 5.595 5.595 0 0 1-1.186-1.758 5.388 5.388 0 0 1-.437-2.16c0-.77.146-1.492.438-2.169a5.491 5.491 0 0 1 5.102-3.376c.768 0 1.491.143 2.168.429a5.496 5.496 0 0 1 1.766 1.179c.501.5.895 1.089 1.18 1.765.287.676.43 1.399.43 2.168a5.508 5.508 0 0 1-3.372 5.105 5.412 5.412 0 0 1-2.167.438ZM7 11.754c1.327 0 2.452-.46 3.373-1.381.92-.922 1.381-2.046 1.381-3.373 0-1.327-.46-2.451-1.381-3.373C9.452 2.708 8.327 2.247 7 2.247c-1.327 0-2.451.46-3.372 1.381C2.707 4.55 2.246 5.673 2.246 7c0 1.327.46 2.451 1.382 3.373.92.92 2.045 1.381 3.372 1.381Z" fill="#252828"/></svg>