<svg width="20" height="20" fill="none" xmlns="http://www.w3.org/2000/svg"><path d="M13.02 16.75a.61.61 0 0 1-.228-.041.636.636 0 0 1-.209-.146L10.521 14.5a.6.6 0 0 1-.188-.437.6.6 0 0 1 .188-.438.6.6 0 0 1 .437-.187.6.6 0 0 1 .438.187l1.625 1.625 4-4a.6.6 0 0 1 .437-.187.6.6 0 0 1 .438.187.6.6 0 0 1 .187.438.6.6 0 0 1-.187.437l-4.438 4.438a.636.636 0 0 1-.208.146.611.611 0 0 1-.23.041ZM8.334 9.96c-.916 0-1.666-.292-2.25-.875-.583-.584-.875-1.334-.875-2.25 0-.917.292-1.667.875-2.25.584-.584 1.334-.875 2.25-.875.917 0 1.667.291 2.25.874.584.584.875 1.334.875 2.25 0 .917-.291 1.667-.875 2.25-.583.584-1.333.876-2.25.876Zm-6.041 6.708a.607.607 0 0 1-.625-.625v-1.334c0-.472.118-.906.354-1.302.236-.395.59-.697 1.062-.906 1-.444 1.917-.764 2.75-.958a10.972 10.972 0 0 1 3.782-.219c.451.049.913.136 1.385.26l-1.75 1.75a1.201 1.201 0 0 0-.354.886c0 .354.118.65.354.885l1.563 1.563H2.291Z" fill="#fff"/></svg>