<svg width="48" height="53" fill="none" xmlns="http://www.w3.org/2000/svg"><path fill="#fff" d="M0 0h48v53H0z"/><path d="M48 53H0V0h48v53ZM.466 52.537h47.068V.463H.466v52.074Z" fill="#231815"/><path d="M47.767 42.027H.233v.464h47.534v-.464ZM10.202 45.568H7.444v.445h2.301v2.418h-1.9c.661.714 1.705 1.242 2.431 1.483l-.307.51c-.308-.13-1.565-.667-2.525-1.77v1.9h-.522v-1.9c-.587.75-1.565 1.38-2.525 1.78l-.316-.51c.95-.353 1.826-.844 2.44-1.493h-1.89v-2.418h2.291v-.445H4.164v-.491h2.758v-.556h.522v.556h2.758v.49Zm-5.069.89v.546h1.79v-.547h-1.79Zm0 .963v.556h1.79v-.556h-1.79Zm4.118-.964H7.444v.547h1.807v-.547Zm0 .964H7.444v.556h1.807v-.556ZM17.87 45.633v.463h-2.525v-.463h2.524Zm-.233-.89v.463H15.55v-.463h2.087Zm0 1.798v.463H15.55v-.463h2.087Zm0 .964v.463H15.55v-.463h2.087Zm0 .926v1.993H15.55V48.43h2.087Zm-.522.454H16.07v1.085h1.044v-1.085Zm1.742-2.631v3.549h.801v-4.56h-1.686v-.5h3.363v.5H20.19v1.854h1.035v.51h-1.035v2.205h1.249v.5h-3.569v-.5h.448v-3.55h.53l.01-.008ZM29.795 46.532h2.404v.546h-2.404v2.697h2.832v.538h-6.046v-.538h2.646V44.54h.568v1.992ZM39.736 48.468c-.512.315-1.276.64-1.91.844l-.075-.556a8.74 8.74 0 0 0 .792-.25V46.41h-.726v-.5h.726V44.53h.513v1.38h.596v.501h-.596v1.89c.326-.138.484-.231.643-.315l.028.482h.009Zm3.904-.398c0 .649-.056 1.807-.196 2.085-.084.176-.214.37-.596.37h-.839l-.074-.509h.82c.186 0 .232-.13.26-.24.047-.205.084-.53.121-1.29H42.7c-.364.965-1.016 1.65-1.929 2.086l-.326-.398c.941-.445 1.49-1.048 1.78-1.687h-.56c-.689 1.13-1.732 1.53-2.142 1.677l-.233-.407c.41-.14 1.164-.408 1.844-1.27h-.624c-.447.454-.838.649-1.071.77l-.242-.38c.708-.316 1.062-.622 1.453-1.243h-1.025v-.426h4.211v.426h-2.702a3.333 3.333 0 0 1-.28.445h2.777l.01-.01Zm-.233-3.336v2.085h-3.392v-2.085h3.392Zm-.494.398H40.5v.473h2.413v-.473Zm0 .834H40.5v.473h2.413v-.473ZM15.149 39.118c-.997 0-1.63-.241-2.33-.927l1.38-1.362c.26.26.484.435.95.435.643 0 1.118-.361 1.118-1.167v-5.533h2.096v5.579c0 2.02-1.611 2.984-3.214 2.984v-.01ZM24.065 36.013H22.78v3.03h-2.096v-8.488h3.382c1.891 0 2.916 1.334 2.916 2.734 0 1.399-1.015 2.733-2.916 2.733v-.009Zm-.093-3.586h-1.193v1.714h1.193c.578 0 .913-.417.913-.862s-.335-.862-.913-.862v.01ZM32.786 39.044l-1.407-2.614-1.398 2.614h-2.403l2.664-4.356-2.497-4.143h2.385l1.249 2.4 1.248-2.4h2.385l-2.496 4.143 2.664 4.356h-2.394Z" fill="#231815"/><mask id="a" style="mask-type:luminance" maskUnits="userSpaceOnUse" x="12" y="3" width="24" height="25"><path d="m16.956 27.608-4.183-2.169V7.572l4.183 2.168v17.877-.01Zm6.094-1.354-4.184-2.168V6.219l4.184 2.159v17.877Zm6.093-1.353-4.183-2.168V4.856l4.183 2.169v17.877Zm6.093-1.352-4.183-2.17V3.513l4.183 2.169v17.877-.01Z" fill="#fff"/></mask><g mask="url(#a)"><path d="M47.618-.324c0 19.619-15.988 35.53-35.711 35.53-19.724 0-35.72-15.902-35.72-35.53s15.987-35.522 35.71-35.522c19.724 0 35.712 15.903 35.712 35.522h.009Z" fill="url(#b)"/><path d="M36.652-2.428c0 13.03-10.556 23.604-23.72 23.604-13.165 0-23.73-10.565-23.73-23.604s10.621-23.595 23.73-23.595c13.108 0 23.72 10.565 23.72 23.595Z" fill="url(#c)"/></g><defs><radialGradient id="b" cx="0" cy="0" r="1" gradientUnits="userSpaceOnUse" gradientTransform="matrix(35.5493 0 0 35.3608 11.89 -.732)"><stop offset=".65" stop-color="#EB6120"/><stop offset=".75" stop-color="#E60012"/></radialGradient><radialGradient id="c" cx="0" cy="0" r="1" gradientUnits="userSpaceOnUse" gradientTransform="matrix(23.612 0 0 23.4867 12.908 -2.823)"><stop offset=".6" stop-color="#E60012"/><stop offset=".71" stop-color="#BB000B"/><stop offset=".84" stop-color="#940005"/><stop offset=".94" stop-color="#7B0001"/><stop offset="1" stop-color="#730000"/></radialGradient></defs></svg>