<svg width="215" height="33" fill="none" xmlns="http://www.w3.org/2000/svg"><path d="m0 32.99 7.21-5.534V5.538L0 0v32.99ZM34.4 0l-7.216 5.538v21.93L34.4 33V0ZM21.357 27.45 17.2 32.996l-4.163-5.544V5.538L17.2 0l4.157 5.538v21.913Z" fill="url(#a)"/><path d="M162.018 25.3c-3.471 0-5.242-3.474-5.242-7.125 0-3.25 1.66-5.995 4.763-5.995 3.667 0 5.242 3.65 5.242 7.125 0 3.474-1.785 6.002-4.763 6.002v-.006Zm-.112-14.046a7.79 7.79 0 0 0-2.971.545 7.742 7.742 0 0 0-4.245 4.13 7.617 7.617 0 0 0-.623 2.956c0 4.373 3.378 7.315 7.577 7.315a7.686 7.686 0 0 0 2.972-.558 7.824 7.824 0 0 0 2.532-1.655 7.581 7.581 0 0 0 1.699-2.502c.394-.939.604-1.944.61-2.962 0-4.235-3.254-7.263-7.544-7.263l-.007-.006ZM67.417 23.64c-.217-3.599-.538-9.18-.735-13.804-.053-1.024.518-1.432 1.607-1.747v-.427c-1.345.033-2.985 0-4.323 0L58.18 21.466h-.217L51.14 7.643c-1.45.052-3.175.059-4.631 0v.426c1.627.48 2.19 1.19 2.099 2.824-.092 1.635-.551 10.232-.643 11.854-.092 1.477-.623 2.121-2.158 2.6v.427c1.902-.04 3.857-.04 5.753 0v-.433c-1.804-.48-2.381-1.182-2.335-2.594l.446-11.585h.19l7.276 14.619h.36l6.456-15.21h.197c.17 4.38.387 8.656.65 13.036.045.979-.31 1.386-1.694 1.747v.427c1.903-.033 4.029-.033 5.931 0v-.427c-1.168-.296-1.58-.742-1.633-1.707l.013-.007ZM89.145 18.925c-.473 0-.938-.073-1.385-.224v-6.055c.348-.039.696-.059 1.044-.059 2.427 0 3.555 1.425 3.555 3.146 0 2.226-1.673 3.211-3.214 3.192Zm5.123 4.19c-.623-.953-2.23-3.757-2.23-3.757 1.804-.65 2.932-2.01 2.932-3.816 0-2.442-2.171-3.953-5.957-3.808-1.364.052-3.47.052-5.176 0v.387c1.194.315 1.43.61 1.43 1.497v10.304c0 .887-.255 1.182-1.462 1.497v.388c1.843-.04 3.877-.04 5.418 0v-.361c-1.22-.322-1.482-.611-1.482-1.504v-4.38a4.96 4.96 0 0 0 1.58.23h.388s2.394 4.084 2.9 4.951c.216.407.531.755.918.998.387.25.833.394 1.293.414.708 0 1.403-.158 2.046-.453v-.204c-.872-.15-1.719-1.024-2.604-2.377l.006-.007ZM77.71 23.922V13.618c0-.873.243-1.156 1.43-1.49v-.388c-1.692.04-3.608.04-5.294 0v.387c1.155.309 1.43.61 1.43 1.484v10.304c0 .873-.25 1.176-1.43 1.484v.388c1.706-.04 3.628-.04 5.334 0v-.388c-1.201-.302-1.463-.604-1.463-1.477h-.007ZM102.639 20.704l2.395-5.523h.197l2.388 5.523h-4.98Zm9.297 3.343-5.833-12.438h-.616l-4.993 11.486c-.557 1.3-1.095 1.904-2.073 2.318v.387c1.391-.04 2.841-.04 4.245 0v-.367c-1.457-.388-1.542-1.215-1.122-2.174l.728-1.649h5.714l1.05 2.424c.387.867.157 1.156-1.122 1.477v.29c1.791-.04 3.831-.04 5.635 0v-.29a2.35 2.35 0 0 1-.984-.525 2.337 2.337 0 0 1-.623-.926v-.013h-.006ZM210.946 17.23c-1.542-.952-2.992-1.635-2.992-2.988s1.023-2.075 2.46-2.075c1.581 0 2.637 1.228 3.471 3.001h.406c0-1.096.04-2.206.138-3.303-1.155-.23-2.526-.624-3.752-.624-2.73 0-4.803 1.616-4.803 3.901 0 1.977 1.85 3.12 3.517 4.111 1.778 1.044 3.582 1.904 3.582 3.684 0 1.78-1.319 2.358-2.611 2.358-1.66 0-2.559-1.07-3.681-3.474h-.406c-.027 1.274-.04 2.377-.125 3.585a9.445 9.445 0 0 0 3.936.795c2.605 0 4.914-1.609 4.914-4.183.02-2.273-2.231-3.671-4.054-4.788ZM189.539 11.727v.387c1.2.316 1.456.611 1.456 1.497v10.344c0 .893-.256 1.182-1.482 1.504v.387c1.738-.04 3.687-.04 5.425 0v-.387c-1.201-.316-1.456-.605-1.456-1.498V13.533c0-.887.255-1.11 1.449-1.419v-.368c-1.758.014-3.667.027-5.386-.026l-.006.007Z" fill="#252828"/><path d="M200.455 23.285c-.872-1.104-4.369-5.747-4.369-5.747s2.592-2.935 3.261-3.65a7.208 7.208 0 0 1 2.742-1.774v-.387c-1.312.039-2.808.039-4.107 0v.433c.472.125.741.322.741.604 0 .283-.314.69-.905 1.36l-3.831 4.288s4.153 5.818 4.566 6.357c.826 1.083 1.351 1.313 2.355 1.313.748 0 1.483-.177 2.152-.512v-.276c-.978-.256-1.542-.676-2.598-2.01h-.007ZM178.649 18.925c-.473 0-.939-.073-1.385-.224v-6.055c.348-.039.696-.059 1.043-.059 2.428 0 3.563 1.425 3.563 3.146 0 2.226-1.68 3.211-3.221 3.192Zm5.123 4.19c-.623-.953-2.23-3.757-2.23-3.757 1.804-.65 2.932-2.01 2.932-3.816 0-2.442-2.171-3.953-5.95-3.808a84.71 84.71 0 0 1-5.176 0v.387c1.194.315 1.43.61 1.43 1.497v10.304c0 .887-.256 1.182-1.47 1.497v.388c1.844-.04 3.858-.04 5.4 0v-.361c-1.221-.322-1.483-.611-1.483-1.504v-4.38a4.96 4.96 0 0 0 1.581.23h.387s2.388 4.084 2.9 4.951a2.68 2.68 0 0 0 2.211 1.419c.708 0 1.404-.158 2.046-.454v-.203c-.852-.151-1.692-1.025-2.578-2.377v-.014ZM120.313 23.922V13.618c0-.873.243-1.156 1.43-1.49v-.388c-1.699.04-3.608.04-5.3 0v.387c1.154.309 1.43.61 1.43 1.484v10.304c0 .873-.249 1.176-1.43 1.484v.388c1.705-.04 3.628-.04 5.333 0v-.388c-1.2-.302-1.463-.604-1.463-1.477ZM148.307 7.662v.42c1.121.31 1.607.703 1.607 1.432-.033.414-.131.821-.282 1.209l-4.068 10.947h-.203s-4.389-10.62-4.848-11.827c-.42-1.058.321-1.544 1.371-1.787V7.67c-1.699.04-3.556.04-5.229 0v.276l2.349 5.319-3.169 8.36h-.19s-4.343-10.58-4.809-11.781c-.387-.992.335-1.544 1.371-1.793v-.388c-2.007.04-4.29.04-6.278 0v.388c1.01.276 1.43.735 1.889 1.78.499 1.155 4.455 10.23 7.105 16.351h.315l4.396-11.446 4.986 11.446h.315l5.97-15.445c.636-1.61 1.305-2.28 2.611-2.68v-.413c-1.647.046-3.563.046-5.203.013l-.006.006Z" fill="#252828"/><defs><linearGradient id="a" x1="1.917" y1="1.31" x2="32.668" y2="32.26" gradientUnits="userSpaceOnUse"><stop stop-color="#BC0900"/><stop offset="1" stop-color="#530E06"/></linearGradient></defs></svg>