<svg width="245" height="36" fill="none" xmlns="http://www.w3.org/2000/svg"><g clip-path="url(#a)"><path d="M0 12.024v18.27h17.947v-18.27H0Zm16.15 16.44H1.797V13.842H16.15v14.622ZM26.903 30.305v-18.2h9.193v1.322h-7.748v7.041h6.912v1.324h-6.912v8.513h-1.445ZM45.888 16.534l-.067 1.323c-1.751 0-3.705.805-4.496 2.68v9.768h-1.423v-9.813c0-1.45-.113-2.911-.35-3.67l1.276-.219c.26.667.418 1.749.44 2.485.86-1.634 2.723-2.566 4.609-2.566l.011.012ZM54.653 29.408c1.58 0 3.072-.357 4.167-.874l.282 1.208c-.982.471-2.721.92-4.562.92-3.75 0-6.325-2.186-6.325-6.926 0-4.337 2.19-7.466 5.974-7.466 3.23 0 5.117 2.013 5.117 6.235v.829h-9.68c-.237 4.475 2.09 6.063 5.004 6.063h.023v.011Zm-.655-11.942c-2.395 0-3.999 1.967-4.326 4.763h8.312c-.068-3.198-1.321-4.763-3.953-4.763h-.033ZM69.437 29.408c1.58 0 3.072-.357 4.167-.874l.282 1.208c-.97.471-2.721.92-4.562.92-3.75 0-6.325-2.186-6.325-6.926 0-4.337 2.191-7.466 5.986-7.466 3.23 0 5.116 2.013 5.116 6.235v.829h-9.679c-.237 4.475 2.09 6.063 5.003 6.063h.023l-.011.011Zm-.656-11.942c-2.394 0-3.998 1.967-4.325 4.763h8.312c-.067-3.198-1.321-4.763-3.953-4.763h-.034ZM80.211 21.412c0-5.189 1.841-9.744 7.985-9.744 1.694 0 3.445.402 4.63.897l-.259 1.323c-1.276-.518-2.857-.874-4.326-.874-5.093 0-6.494 4.199-6.494 8.433 0 4.233 1.559 7.8 6.54 7.8 1.558 0 3.512-.426 4.562-.852l.215 1.347c-1.005.425-3.095.874-4.823.874-6.053 0-8.03-4.027-8.03-9.192V21.4v.011ZM108.458 23.506c0 3.693-1.468 7.225-6.076 7.225s-6.1-3.532-6.1-7.26c0-3.727 1.492-7.156 6.1-7.156s6.076 3.51 6.076 7.156v.035Zm-6.054 5.971c3.117 0 4.586-2.255 4.586-6.017 0-3.762-1.469-5.902-4.608-5.902-3.14 0-4.63 2.186-4.63 5.902s1.467 6.017 4.63 6.017h.022ZM114.06 16.603c.237.667.418 1.564.44 2.163 1.164-1.3 3.118-2.255 4.868-2.255 2.914 0 4.19 1.748 4.19 4.981v8.825h-1.423v-8.514c0-2.013-.485-4.05-3.094-4.05-1.604 0-3.445.875-4.495 2.129v10.434h-1.424V19.33c0-.782-.112-1.748-.35-2.508l1.277-.218h.011ZM135.474 18.41c-.859-.472-2.09-.806-3.31-.806-.993 0-2.721.449-2.721 2.324 0 1.38.858 1.921 2.857 2.75 2.168.897 3.795 1.829 3.795 4.05 0 3.013-2.123 3.91-4.168 3.91-1.378 0-3.275-.356-4.438-.85l.372-1.255c1.118.541 2.722.852 3.931.852 1.491 0 2.891-.54 2.891-2.589 0-1.495-1.141-2.209-3.332-3.106-1.954-.805-3.309-1.542-3.309-3.716 0-2.773 2.327-3.555 4.122-3.555 1.277 0 2.79.334 3.682.782l-.372 1.208ZM144.475 30.685c-2.88 0-4.167-1.783-4.167-4.982v-8.962h1.423v8.675c0 1.99.485 4.026 3.094 4.026 1.604 0 3.422-.874 4.495-2.128V16.753h1.423v10.71c0 1.025.113 2.06.396 2.911l-1.299.219c-.283-.667-.418-1.542-.441-2.105-1.231 1.3-3.139 2.209-4.913 2.209l-.011-.012ZM157.712 30.305h-1.446V11.3l1.446-.241v19.247ZM167.628 29.212v1.116l-.903.07c-2.045.16-3.23-.622-3.23-3.13v-9.261h-2.35v-1.185h2.35v-3.348l1.423-.334v3.67h3.162v1.185h-3.162v8.94c0 1.771.508 2.277 1.999 2.277h.722-.011ZM181.385 30.19l-1.209.265c-.576-.69-.926-1.852-1.028-2.704-.723 1.83-2.586 2.865-4.495 2.865-2.213 0-4.258-1.139-4.258-3.98 0-3.084 1.491-4.13 8.561-4.499v-1.404c0-1.829-.35-3.129-2.959-3.129-1.513 0-2.914.472-4.213 1.254l-.372-1.23c1.163-.714 2.981-1.255 4.721-1.255 3.399 0 4.19 1.657 4.19 4.314v5.592c0 1.656.373 3.129 1.05 3.911h.012Zm-9.657-3.624c0 2.393 2.022 2.819 3.117 2.819 2.259 0 3.682-1.519 4.123-3.198v-2.888c-5.614.31-7.24.851-7.24 3.267ZM186.659 16.603c.237.667.418 1.564.44 2.163 1.164-1.3 3.118-2.255 4.868-2.255 2.914 0 4.19 1.748 4.19 4.981v8.825h-1.423v-8.514c0-2.013-.485-4.05-3.094-4.05-1.604 0-3.445.875-4.495 2.129v10.434h-1.424V19.33c0-.782-.112-1.748-.35-2.508l1.277-.218h.011ZM205.949 29.212v1.116l-.903.07c-2.044.16-3.23-.622-3.23-3.13v-9.261h-2.35v-1.185h2.35v-3.348l1.423-.334v3.67h3.162v1.185h-3.162v8.94c0 1.771.508 2.277 1.999 2.277h.723-.012ZM213.652 30.305h-1.773V28.2h1.773v2.105ZM220.191 16.752V29.58c0 3.176-.858 5.189-3.377 6.42l-.858-.978c2.259-1.185 2.812-2.865 2.812-5.66v-12.61h1.423Zm.136-2.99h-1.694v-1.658h1.694v1.657ZM231.869 16.396c2.914 0 5.072 1.99 5.072 6.684 0 3.958-1.299 7.513-5.512 7.513-1.717 0-3.377-.829-4.28-1.922v7.087h-1.401V19.33c0-.782-.113-1.748-.35-2.508l1.276-.218c.237.587.418 1.657.441 2.462.576-.99 2.044-2.68 4.721-2.68h.022l.011.01Zm-4.766 9.273c0 .54.023 1.23.091 1.633.632.898 2.044 2.037 4.077 2.037 2.936 0 4.213-2.278 4.213-6.19 0-3.106-1.119-5.476-3.886-5.476-2.767 0-3.998 1.967-4.404 2.91-.045.38-.091 1.048-.091 1.565V25.668Z" fill="#9F1F24"/><path d="M240.538 18.541v-2.62h1.288c.104 0 .216.03.338.092a.798.798 0 0 1 .441.745.863.863 0 0 1-.462.792.753.753 0 0 1-.358.103h-.93v-.426h.758c.075 0 .157-.039.244-.117.09-.078.135-.195.135-.351 0-.162-.045-.27-.135-.327a.439.439 0 0 0-.231-.085h-.53v2.194h-.558Zm1.536-1.236.634 1.236h-.613l-.62-1.236h.599Zm-.572 2.799c-.381 0-.738-.074-1.071-.22a2.76 2.76 0 0 1-.878-.611 2.867 2.867 0 0 1-.806-2.01 2.86 2.86 0 0 1 .806-2.01 2.76 2.76 0 0 1 .878-.611c.333-.147.69-.22 1.071-.22.382 0 .739.073 1.072.22.333.147.625.35.878.61a2.849 2.849 0 0 1 .806 2.01c0 .394-.071.762-.214 1.105a2.847 2.847 0 0 1-.592.906 2.77 2.77 0 0 1-.878.61c-.333.147-.69.22-1.072.22Zm0-.682c.386 0 .738-.097 1.054-.291a2.17 2.17 0 0 0 1.041-1.868 2.17 2.17 0 0 0-1.041-1.868 1.976 1.976 0 0 0-1.054-.291 1.98 1.98 0 0 0-1.054.29 2.168 2.168 0 0 0-1.04 1.869 2.168 2.168 0 0 0 1.04 1.868 1.98 1.98 0 0 0 1.054.29Z" fill="#231815"/></g><path d="M30.163 2.107H27.45c-.488 0-.916.022-1.24.037-.097.008-.127-.044-.142-.147-.023-.148-.053-.53-.068-.744.338.036.736.051 1.443.051h2.682c.226 0 .309-.015.414-.073a.215.215 0 0 1 .112-.03c.046 0 .09.015.143.037.203.125.406.31.549.486.038.044.052.081.052.125 0 .067-.037.126-.105.185-.067.066-.105.14-.173.287-.368.87-.826 1.68-1.457 2.395-.647.722-1.376 1.333-2.134 1.753a.369.369 0 0 1-.203.067.266.266 0 0 1-.188-.081c-.173-.162-.421-.295-.7-.406 1.098-.545 1.767-1.053 2.458-1.842a6.177 6.177 0 0 0 1.27-2.1ZM34.251 3.227V1.783c0-.508-.023-.788-.083-1.076.316.037.714.081.932.155.09.022.128.066.128.118 0 .037-.015.074-.03.11-.068.14-.083.325-.083.7V3.28c0 .383.015.67.023.928 0 .11-.045.148-.166.148h-.6c-.106 0-.151-.037-.144-.126 0-.257.023-.685.023-1.002Zm3.54-1.436v1.37c0 1.09-.166 1.82-.61 2.402-.367.48-1.021.929-1.652 1.157a.482.482 0 0 1-.158.037c-.06 0-.113-.022-.18-.089a2.442 2.442 0 0 0-.64-.449c.805-.243 1.436-.59 1.834-1.076.346-.42.504-1.031.504-1.967V1.783c0-.634-.015-.87-.083-1.2.36.029.721.08.977.161.075.022.105.067.105.125a.23.23 0 0 1-.03.118c-.068.155-.068.347-.068.804ZM44.516 4.119h-2.705c-.744 0-1.03.088-1.105.088-.09 0-.15-.044-.173-.154a7.877 7.877 0 0 1-.113-.892c.489.074.865.088 1.624.088h2.42c.57 0 1.15-.014 1.728-.022.112-.007.135.015.135.104.015.22.015.471 0 .692 0 .089-.03.118-.135.11-.564-.007-1.12-.014-1.676-.014ZM51.512 1.577h-1.488c-.338 0-.714.007-1.03.03-.074 0-.097-.045-.105-.163a6.285 6.285 0 0 1-.037-.707c.458.044.684.051 1.232.051h1.353c.488 0 .887-.022 1.18-.036.067 0 .09.036.09.117.015.185.015.391 0 .575 0 .125-.023.155-.135.148-.248 0-.602-.015-1.06-.015Zm.571 1.577-2.562.007c-.376 0-.752.007-1.127.03-.068 0-.098-.045-.113-.14-.045-.185-.06-.457-.083-.745.428.045.887.06 1.383.06h2.577a.84.84 0 0 0 .399-.082c.037-.03.067-.044.097-.044.038 0 .075.022.113.052.18.14.383.324.503.456.053.052.076.104.076.155 0 .044-.023.096-.083.14-.12.096-.173.177-.255.346-.752 1.57-1.616 2.491-3.067 3.257a.366.366 0 0 1-.15.052c-.052 0-.105-.03-.165-.089-.203-.176-.443-.287-.699-.383 1.39-.633 2.615-1.65 3.156-3.072ZM55.367 1.805c.165-.199.383-.427.526-.574.03-.037.068-.06.105-.06.03 0 .06.015.098.037.383.2 1.007.649 1.435 1.047.045.044.068.073.068.103s-.015.059-.045.096c-.113.147-.36.442-.466.552-.038.037-.06.06-.09.06s-.06-.023-.098-.06a7.932 7.932 0 0 0-1.533-1.2Zm.165 3.677c.384-.103.617-.17 1.015-.368.917-.465 1.405-.774 2.164-1.37.917-.73 1.42-1.202 2.06-2.005.044.368.112.619.21.862a.356.356 0 0 1 .037.14c0 .066-.038.125-.12.221-.398.457-1.045 1.046-1.729 1.562-.623.48-1.255.892-2.269 1.444-.338.2-.436.273-.503.34-.045.044-.09.073-.136.073-.037 0-.082-.03-.127-.081a5.111 5.111 0 0 1-.602-.818ZM64.325 1.275h2.066c.27 0 .406-.008.518-.067a.127.127 0 0 1 .083-.03c.045.001.083.03.128.06.173.133.346.324.488.516.023.037.038.066.038.095 0 .045-.03.096-.098.148a1.357 1.357 0 0 0-.278.324c-.308.516-.6.928-.962 1.378.722.523 1.39 1.098 2.082 1.783.037.037.06.074.06.103 0 .03-.015.067-.053.11-.142.17-.315.347-.503.502-.03.03-.06.044-.09.044-.038 0-.068-.022-.105-.059a13.573 13.573 0 0 0-1.954-1.827c-.85.87-1.706 1.496-2.525 1.945-.068.03-.12.059-.173.059a.169.169 0 0 1-.128-.066c-.165-.2-.383-.347-.631-.48 1.172-.581 1.871-1.105 2.645-1.878a9.058 9.058 0 0 0 1.413-1.85l-1.939.008c-.39 0-.781.014-1.187.044-.06.007-.083-.044-.098-.125a4.209 4.209 0 0 1-.068-.767c.406.03.782.03 1.27.03ZM73.357 1.879h-.03c-.173 1.253-.489 2.402-.94 3.176-.323.552-.713.847-1.277.847-.661 0-1.33-.693-1.33-1.894 0-.707.308-1.385.85-1.915.63-.62 1.427-.944 2.442-.944 1.803 0 2.863 1.091 2.863 2.557 0 1.37-.79 2.233-2.315 2.682-.158.045-.225.015-.323-.132-.083-.125-.24-.295-.526-.464 1.27-.295 2.27-.811 2.27-2.204 0-.876-.677-1.71-1.684-1.71Zm-.902.044c-.526.103-.947.31-1.285.67-.36.399-.586.892-.586 1.364 0 .678.278 1.054.511 1.054.195 0 .36-.096.564-.45.33-.597.669-1.658.796-2.638ZM81.458 2.203h-2.713c-.488 0-.917.022-1.24.037-.098.007-.128-.044-.143-.147-.022-.148-.052-.53-.067-.745.338.037.736.052 1.442.052h2.683c.226 0 .308-.015.413-.074a.243.243 0 0 1 .128-.044c.045 0 .09.015.128.052.195.154.383.331.511.508.038.052.06.096.06.147 0 .045-.022.089-.075.14-.068.067-.105.14-.173.288-.368.87-.826 1.68-1.458 2.395-.646.722-1.375 1.333-2.134 1.753a.369.369 0 0 1-.203.067.266.266 0 0 1-.188-.081c-.172-.163-.42-.295-.698-.406 1.097-.545 1.766-1.053 2.457-1.842a6.177 6.177 0 0 0 1.27-2.1ZM83.126 0c.45 0 .812.346.812.788 0 .443-.361.789-.812.789a.794.794 0 0 1-.812-.789c0-.456.361-.788.812-.788Zm0 .354a.426.426 0 0 0-.443.434c0 .251.188.435.443.435a.426.426 0 0 0 .443-.435.426.426 0 0 0-.443-.434ZM88.732 5.534h-2.916v.434c0 .126-.03.14-.165.148a7.974 7.974 0 0 1-.594 0c-.128-.008-.165-.022-.158-.11.008-.384.023-.907.023-1.467V2.734c0-.398.007-.796-.015-1.223 0-.074.03-.104.082-.104.399.022.842.022 1.346.022h1.788c.488 0 1.06 0 1.413-.014.082 0 .105.037.097.147 0 .361-.007.759-.007 1.194v1.76c0 .642.022 1.003.037 1.4 0 .104-.037.126-.142.126-.226.007-.466.007-.692 0-.09 0-.097-.015-.097-.118v-.39Zm0-.781V2.21h-2.924v2.542h2.924ZM96.141 2.107h-2.713c-.488 0-.916.022-1.24.037-.097.008-.127-.044-.142-.147-.023-.148-.053-.53-.068-.744.338.036.736.051 1.443.051h2.682c.226 0 .309-.015.414-.073a.215.215 0 0 1 .112-.03c.046 0 .09.015.143.037.203.125.406.31.549.486.037.044.053.081.053.125 0 .067-.038.126-.106.185-.067.066-.105.14-.173.287-.368.87-.826 1.68-1.457 2.395-.647.722-1.376 1.333-2.135 1.753a.368.368 0 0 1-.203.067.266.266 0 0 1-.187-.081c-.173-.162-.421-.295-.7-.406 1.098-.545 1.767-1.053 2.458-1.842a6.179 6.179 0 0 0 1.27-2.1ZM102.151 3.633v1.864h.796c.383 0 .804-.008 1.21-.03.068 0 .098.045.105.14.008.155.008.317 0 .472-.007.096-.037.14-.127.133-.391 0-.835-.015-1.18-.015h-2.36c-.451 0-.789.015-1.105.03-.09 0-.127-.045-.142-.155a3.329 3.329 0 0 1-.038-.597c.436.03.804.03 1.285.03h.752V3.64h-.414c-.308 0-.578 0-.924.007-.068.008-.105-.036-.12-.147-.023-.125-.03-.324-.045-.59.323.03.721.03 1.044.03h1.668c.339 0 .684-.015 1.015-.015.09-.007.113.037.12.126.008.147.008.309 0 .456-.007.118-.037.148-.15.14-.293 0-.669-.014-.977-.014h-.413ZM106.757 2.925c.256-.14.436-.22.594-.294.082-.037.135-.03.195.051.263.324.504.7.646 1.09.015.052.03.082.03.111 0 .044-.03.066-.09.103-.18.103-.308.162-.481.229-.105.037-.15 0-.187-.103a4.333 4.333 0 0 0-.707-1.187Zm1.511-.376c.3-.14.473-.22.601-.272.082-.037.135-.03.195.059.203.258.459.722.579 1.076.037.11.022.147-.075.199a3.128 3.128 0 0 1-.519.228c-.083.03-.113-.007-.15-.11a5.005 5.005 0 0 0-.631-1.18Zm2.367-.176c.315.095.653.228.841.353.06.045.098.081.098.126 0 .044-.023.08-.083.132-.112.096-.165.243-.225.376a8.93 8.93 0 0 1-1.135 1.96c-.496.619-.909 1.01-1.548 1.422-.06.044-.12.081-.18.081a.172.172 0 0 1-.12-.051c-.188-.148-.361-.229-.639-.31.902-.582 1.352-.958 1.803-1.533a7.584 7.584 0 0 0 1.015-1.775 2.6 2.6 0 0 0 .173-.781ZM113.49 3.19c.188-.294.308-.508.398-.626.038-.051.076-.088.143-.073.564.184 1.015.42 1.443.722.053.036.083.066.083.11a.216.216 0 0 1-.03.081 3.02 3.02 0 0 1-.331.56c-.038.044-.068.074-.098.074s-.052-.015-.09-.044a6.625 6.625 0 0 0-1.518-.803Zm.909-1.731c.128-.192.271-.398.399-.59.052-.088.097-.103.188-.058.481.191.999.464 1.412.817.045.03.06.067.06.096 0 .03-.007.06-.03.096-.105.184-.255.42-.383.553a.083.083 0 0 1-.075.044c-.038 0-.075-.022-.113-.052a7.267 7.267 0 0 0-1.458-.906Zm-.315 4.2c.315-.059.579-.14 1.022-.361.714-.369 1.33-.715 2.059-1.275a13.569 13.569 0 0 0 2.164-2.056c.045.325.105.509.218.826a.348.348 0 0 1 .038.14c0 .059-.023.11-.083.17a13.884 13.884 0 0 1-1.909 1.701c-.654.487-1.352.907-2.247 1.385-.18.096-.36.177-.436.251-.045.044-.082.059-.12.059-.052 0-.105-.03-.15-.088-.158-.155-.361-.443-.556-.752ZM124.897 4.075V3.33h-1.735c-.354 0-.714.036-1.053.044-.067.007-.105-.052-.112-.17a20.036 20.036 0 0 1-.038-.604c.429.037.661.037 1.203.037h1.307c.368 0 .782 0 1.112-.015.09 0 .12.044.113.118 0 .332-.015.641-.015.965v1.702c0 .332.015.67.03 1.047 0 .11-.038.132-.165.14-.121.007-.361.014-.511.014-.121 0-.136-.022-.136-.11v-.221h-1.781c-.353 0-.691.015-1.037.037-.075 0-.097-.037-.105-.148a4.376 4.376 0 0 1-.037-.611c.405.03.774.03 1.209.03h1.751V4.76h-1.593c-.338 0-.706.015-1.029.03-.09 0-.12-.045-.128-.163a4.2 4.2 0 0 1-.03-.59c.406.03.684.038 1.172.038h1.608ZM131.833 2.395h1.007c.421 0 .917-.008 1.308-.015.105-.007.135.007.143.133.015.184.015.39 0 .574 0 .118-.03.14-.143.14-.271 0-.842-.03-1.263-.03h-1.067c-.075 1.07-.188 1.49-.511 2.012-.353.583-.954 1.12-1.6 1.452a.314.314 0 0 1-.173.052.225.225 0 0 1-.165-.074 2.1 2.1 0 0 0-.632-.405c.85-.398 1.345-.789 1.706-1.334.293-.442.421-.921.459-1.702h-1.451c-.368 0-.796.03-1.082.037-.098.007-.12-.03-.135-.14-.023-.148-.038-.457-.053-.73.489.037.91.037 1.278.037h1.48c0-.368 0-.766-.007-1.09-.008-.236-.015-.45-.091-.745.376.015.759.045 1 .104.083.022.113.051.113.103a.444.444 0 0 1-.053.162c-.03.066-.06.243-.06.45 0 .346 0 .589-.008 1.009ZM139.062 2.38v2.461c.368-.192.714-.42 1.067-.685.451-.34.894-.73 1.315-1.253.03.258.105.501.233.744.023.052.045.089.045.126 0 .051-.03.103-.112.184a9.451 9.451 0 0 1-1.113.965c-.39.295-.811.582-1.337.884-.135.089-.15.103-.218.155a.242.242 0 0 1-.15.059.325.325 0 0 1-.158-.059 2.14 2.14 0 0 1-.451-.45c-.045-.066-.068-.11-.068-.154 0-.037.008-.066.03-.11.053-.096.045-.185.045-.56V2.38c0-.641 0-.943-.075-1.282.301.037.714.088.94.155.097.022.135.066.135.125 0 .044-.023.11-.06.184-.068.14-.068.287-.068.818Zm-2.622-.818c.428.052.774.103.954.162.128.037.143.125.098.229-.083.162-.091.324-.091.5-.015.922-.157 1.622-.405 2.167-.196.45-.526.928-1.067 1.385-.076.06-.136.096-.196.096-.045 0-.09-.022-.143-.059a2.672 2.672 0 0 0-.638-.31c.586-.434.984-.884 1.247-1.466.21-.5.308-.906.316-2.085 0-.28-.015-.398-.075-.619ZM149.079 6.086a1.999 1.999 0 0 0-.421.575c-.06.125-.082.177-.135.177-.038 0-.083-.03-.173-.089-1.435-.906-2.307-2.166-2.652-3.522a5.513 5.513 0 0 1-2.721 3.53c-.082.044-.135.074-.173.074-.052 0-.082-.052-.15-.177a2.04 2.04 0 0 0-.436-.494c1.977-.899 2.938-2.741 2.923-4.804a10.246 10.246 0 0 0-.052-.958c.293.015.654.051.924.088.098.015.143.06.143.118 0 .081-.038.125-.075.184-.045.074-.06.251-.06.487-.008.088-.008.177-.008.265.323 2.159 1.27 3.588 3.066 4.546ZM154.723 5.865l-.008-1.29c-.007-.346.008-.854.023-1.414-.399.906-1.128 1.805-1.939 2.432-.083.066-.128.095-.158.095-.045 0-.075-.044-.15-.147a1.882 1.882 0 0 0-.399-.405c.925-.612 1.774-1.555 2.322-2.749h-.548c-.669 0-.902.015-.947.015-.075 0-.083-.007-.083-.081V1.74c0-.074.008-.081.083-.081.045 0 .278.015.947.015h.827v-.406c0-.471-.008-.707-.061-1.039.278.008.534.023.804.052.076.007.121.037.121.074 0 .066-.03.103-.053.154-.037.089-.045.244-.045.745v.42c.661 0 .887-.015.924-.015.083 0 .09.007.09.081v.582c0 .074-.007.081-.09.081-.037 0-.263-.015-.916-.015l.022 2.152c.008.516.023 1.098.023 1.466 0 .376-.053.568-.256.715-.195.133-.548.177-1.135.177-.24.007-.24.007-.3-.214-.068-.243-.143-.427-.248-.56.278.03.488.03.759.022.323 0 .398-.051.391-.28Zm-2.12-4.097v.546c0 .073-.007.08-.082.08-.045 0-.241-.014-.797-.014.226.479.647.958 1.06 1.334-.113.11-.248.258-.346.427-.052.088-.083.133-.113.133-.037 0-.067-.045-.135-.126a4.938 4.938 0 0 1-.571-.935c.008 2.004.053 3.53.053 3.684 0 .074-.008.08-.083.08h-.631c-.075 0-.083-.006-.083-.08 0-.155.038-1.584.053-3.39a6.541 6.541 0 0 1-.932 1.887c-.053.066-.09.11-.12.11s-.06-.037-.083-.118a2.774 2.774 0 0 0-.263-.611c.549-.641.954-1.386 1.285-2.395h-.218c-.586 0-.774.015-.819.015-.083 0-.09-.008-.09-.081v-.546c0-.08.007-.088.09-.088.045 0 .233.015.819.015h.308v-.42c0-.48-.007-.708-.06-1.047.286.008.511.023.774.052.075.007.12.037.12.074 0 .066-.03.11-.052.162-.038.088-.045.243-.045.744v.435h.052c.586 0 .782-.015.827-.015.075 0 .082.007.082.088ZM158.067 4.738h3.261a2.898 2.898 0 0 0-.045-.332c.278.008.563.015.789.052.067.007.105.044.105.08 0 .038-.015.067-.038.111a.324.324 0 0 0-.03.089h.624c.669 0 .894-.015.939-.015.076 0 .076.008.076.081v.487c0 .08 0 .088-.076.088-.045 0-.27-.015-.939-.015h-.624v.103c0 .295.008.524.008.781 0 .28-.09.45-.278.546-.158.08-.398.132-1.015.132-.225 0-.233 0-.278-.17a1.744 1.744 0 0 0-.21-.552c.271.022.534.03.684.03.218 0 .308-.067.308-.236v-.634h-3.261c-.669 0-.895.015-.94.015-.075 0-.075-.007-.075-.088v-.487c0-.073 0-.08.075-.08.045 0 .271.014.94.014Zm3.652-.45h-2.645c-.737 0-1 .015-1.045.015-.083 0-.09-.007-.09-.08 0-.052.015-.237.015-.664v-.973c0-.45-.015-.633-.015-.685 0-.074.007-.081.09-.081.045 0 .308.015 1.045.015h.886v-.383h-1.781c-.676 0-.909.014-.954.014-.075 0-.083-.007-.083-.08v-.48c0-.08.008-.088.083-.088.045 0 .278.015.954.015h1.781a4.536 4.536 0 0 0-.045-.627c.263.008.519.022.774.052.068.007.098.03.098.074 0 .059-.023.095-.038.147-.022.052-.037.14-.037.354h1.908c.684 0 .917-.015.962-.015.075 0 .083.007.083.088v.48c0 .073-.008.08-.083.08-.045 0-.278-.014-.962-.014h-1.908v.383h1.007c.736 0 .999-.015 1.052-.015.075 0 .082.007.082.081 0 .044-.015.236-.015.663v.995c0 .427.015.619.015.663 0 .074-.007.081-.082.081-.053 0-.316-.015-1.052-.015Zm.375-.53v-.442h-1.382v.442h1.382Zm0-1.385h-1.382V2.8h1.382v-.427Zm-3.404 1.385h1.27v-.442h-1.27v.442Zm0-.958h1.27v-.427h-1.27V2.8Zm-.142 2.881.503-.236c.09-.044.105-.037.165.015.248.236.504.523.699.81.045.067.03.089-.06.133l-.526.273c-.09.051-.105.059-.15-.015a4.363 4.363 0 0 0-.669-.847c-.06-.067-.045-.089.038-.133ZM170.811 1.533v2.962c0 .516.03 1.105.03 1.466 0 .354-.037.53-.218.678-.18.147-.368.199-1.149.199-.241 0-.248 0-.293-.236a2.016 2.016 0 0 0-.188-.553c.285.03.533.037.729.037.24 0 .308-.066.308-.287V3.205h-1.15c-.579 0-.766.015-.811.015-.083 0-.091-.007-.091-.081 0-.052.015-.236.015-.693V1.26c0-.457-.015-.641-.015-.693 0-.073.008-.08.091-.08.045 0 .232.014.811.014h1.045c.578 0 .774-.015.819-.015.075 0 .082.008.082.081 0 .045-.015.347-.015.966Zm-2.074 1.12h1.293v-.53h-1.293v.53Zm1.293-1.57h-1.293v.523h1.293v-.523Zm-4.389-.582h1c.473 0 .684-.015.729-.015.075 0 .082.008.082.081 0 .045-.015.273-.015.752v1.076c0 .471.015.7.015.744 0 .074-.007.081-.082.081-.045 0-.256-.015-.729-.015h-1.15v2.093c0 1.002.015 1.496.015 1.547 0 .074-.007.081-.083.081h-.653c-.076 0-.083-.007-.083-.08 0-.052.015-.546.015-1.548V2.129c0-1.002-.015-1.51-.015-1.562 0-.073.007-.08.083-.08.052 0 .33.014.871.014Zm1.052 2.152v-.53h-1.202v.53h1.202Zm0-1.57h-1.202v.523h1.202v-.523ZM175.628 1.879h-.03c-.173 1.253-.488 2.402-.939 3.176-.323.552-.714.847-1.278.847-.661 0-1.33-.693-1.33-1.894 0-.707.308-1.385.849-1.915.632-.62 1.428-.944 2.443-.944 1.803 0 2.863 1.091 2.863 2.557 0 1.37-.789 2.233-2.315 2.682-.158.045-.225.015-.323-.132-.083-.125-.24-.295-.526-.464 1.27-.295 2.269-.811 2.269-2.204 0-.876-.676-1.71-1.683-1.71Zm-.902.044c-.526.103-.946.31-1.285.67-.36.399-.586.892-.586 1.364 0 .678.278 1.054.511 1.054.196 0 .361-.096.564-.45.331-.597.669-1.658.796-2.638ZM184.683 2.542h-.42a3.237 3.237 0 0 1-.699.722c.586.155 1.179.332 1.811.545.037.015.06.03.06.052 0 .015-.015.044-.045.081l-.301.39c-.06.09-.083.09-.158.06a24.936 24.936 0 0 0-2.051-.723 4.287 4.287 0 0 1-.804.288c.24.007.451.03.684.051.075.008.112.045.112.081 0 .074-.037.133-.045.192-.015.074-.03.162-.03.287h1.946c.669 0 .902-.014.947-.014.083 0 .09.007.09.08v.48c0 .073-.007.08-.09.08-.045 0-.278-.014-.947-.014h-1.42c.646.45 1.413.73 2.63.995-.12.132-.233.302-.315.493-.091.214-.106.207-.331.148-1.082-.324-1.886-.737-2.525-1.356.008.744.03 1.275.03 1.422 0 .074-.007.081-.082.081h-.617c-.075 0-.082-.007-.082-.08 0-.148.03-.65.037-1.408-.684.611-1.525 1.06-2.45 1.348-.082.022-.135.037-.172.037-.068 0-.098-.044-.166-.17a1.813 1.813 0 0 0-.315-.449c1.082-.287 1.893-.59 2.532-1.061h-1.292c-.669 0-.902.015-.947.015-.083 0-.09-.008-.09-.081v-.48c0-.073.007-.08.09-.08.045 0 .278.014.947.014h1.848a4.82 4.82 0 0 0-.052-.589c-.594.147-1.278.236-2.074.287-.188.015-.211.008-.271-.154a1.464 1.464 0 0 0-.248-.435c1.105-.037 1.886-.125 2.48-.273a17.208 17.208 0 0 0-.706-.147 2.316 2.316 0 0 1-.151.132c-.052.052-.067.052-.188.015l-.428-.132c-.105-.03-.098-.081-.045-.126.128-.11.27-.258.398-.383l.203-.22h-.654c-.683 0-.916.014-.962.014-.082 0-.09-.008-.09-.074v-.45c0-.073.008-.08.09-.08.046 0 .279.014.962.014h1.105l.038-.059c.105-.154.195-.324.27-.5.271.036.504.08.729.132.053.015.09.044.09.096 0 .037-.045.073-.098.103-.045.022-.12.096-.21.228h2.442c.684 0 .917-.014.962-.014.075 0 .083.007.083.08v.45c0 .066-.008.074-.083.074-.045 0-.278-.015-.962-.015Zm-1.247 0h-1.616c-.082.11-.165.214-.248.302.406.067.804.148 1.195.229.263-.148.474-.325.669-.53Zm-3.261-1.223v.383c0 .066-.008.074-.083.074h-.601c-.083 0-.09-.008-.09-.074 0-.051.015-.103.015-.56v-.118c0-.118-.015-.184-.015-.228 0-.074.007-.081.09-.081.045 0 .3.014 1.014.014h1.526a2.42 2.42 0 0 0-.053-.53c.271 0 .541.015.804.037.068.007.113.037.113.073 0 .052-.023.096-.045.148-.023.051-.03.14-.03.272h1.63c.707 0 .962-.014 1.015-.014.075 0 .083.007.083.08 0 .045-.016.111-.016.207v.14c0 .457.016.516.016.56 0 .066-.008.074-.083.074h-.609c-.075 0-.082-.008-.082-.074V1.32h-4.599ZM190.552 1.857v-.48c0-.522-.015-.802-.06-1.112.286.008.556.022.819.044.068.008.12.045.12.082 0 .051-.03.095-.045.147-.037.103-.052.28-.052.818v.5h.638c.684 0 .917-.014.962-.014.083 0 .091.007.091.081v.56c0 .074-.008.081-.091.081-.045 0-.278-.015-.962-.015h-.638v1.275h.856c.737 0 .985-.015 1.03-.015.075 0 .083.008.083.082v.574c0 .081-.008.089-.083.089-.045 0-.293-.015-1.03-.015h-.856v1.068c0 .826.015 1.246.015 1.282 0 .074-.008.082-.083.082h-.646c-.075 0-.083-.008-.083-.082 0-.044.015-.449.015-1.274V4.539h-1.007c-.736 0-.984.015-1.029.015-.075 0-.083-.008-.083-.089v-.574c0-.074.008-.082.083-.082.045 0 .293.015 1.029.015h1.007V2.55h-1.119a6.547 6.547 0 0 1-.421.774c-.06.096-.098.148-.136.148-.037 0-.082-.045-.165-.118a1.722 1.722 0 0 0-.466-.302 6.087 6.087 0 0 0 .94-1.968 1.84 1.84 0 0 0 .082-.494c.256.06.474.118.684.192.09.03.128.066.128.11a.15.15 0 0 1-.045.104c-.045.044-.083.11-.136.294a9.07 9.07 0 0 1-.18.568h.834Zm-3.314 3.905V4.075c0-.266.008-.582.015-.9-.157.214-.315.42-.488.612-.06.06-.098.096-.128.096-.037 0-.068-.044-.09-.132-.068-.244-.165-.494-.256-.634a6.674 6.674 0 0 0 1.421-2.373c.067-.199.105-.36.127-.552.271.08.496.147.722.243.083.037.12.066.12.103 0 .051-.015.08-.075.133-.045.044-.09.11-.158.294-.128.332-.27.663-.436.98v3.817c0 .73.015 1.09.015 1.127 0 .074-.007.082-.082.082h-.639c-.075 0-.083-.008-.083-.082 0-.044.015-.397.015-1.127ZM197.721 6.948h-.563c-.076 0-.083-.007-.083-.088 0-.037.015-.243.015-1.348v-.664c0-.67-.015-.891-.015-.928 0-.081.007-.088.083-.088.052 0 .263.014.886.014h1.255c.616 0 .834-.014.879-.014.083 0 .091.007.091.088 0 .037-.015.258-.015.81v.76c0 1.09.015 1.296.015 1.34 0 .067-.008.074-.091.074h-.578c-.075 0-.083-.007-.083-.073v-.28h-1.706v.309c0 .081-.007.088-.09.088Zm.09-2.424v1.349h1.706V4.524h-1.706Zm-1.923-1.79.315-.118c.098-.037.12-.022.158.051.218.442.376.855.503 1.327.023.08 0 .103-.097.132l-.383.11c-.091.03-.113.023-.128-.058l-.083-.324-.473.044v2.019c0 .678.015.928.015.965 0 .074-.008.081-.083.081h-.571c-.075 0-.083-.007-.083-.08 0-.045.015-.288.015-.966V3.964l-.661.044a.657.657 0 0 0-.27.06c-.031.014-.076.036-.121.036-.052 0-.075-.051-.09-.125a7.805 7.805 0 0 1-.105-.619c.225.015.428.022.624.015.142-.177.285-.369.428-.56a11.29 11.29 0 0 0-.999-1.069c-.068-.051-.046-.073.007-.154l.256-.384c.03-.044.052-.066.075-.066.015 0 .037.015.067.044l.203.207c.158-.25.286-.48.414-.76a2.22 2.22 0 0 0 .172-.456c.203.074.451.17.639.265.068.037.098.074.098.118 0 .037-.03.066-.068.096a.456.456 0 0 0-.143.177c-.24.405-.428.7-.661 1.024.113.125.226.25.331.376.18-.273.345-.546.511-.826.09-.162.165-.339.225-.5.226.102.459.213.631.316.068.037.091.066.091.11 0 .052-.023.082-.083.111-.075.044-.135.125-.248.302-.383.59-.789 1.157-1.142 1.6.27-.015.548-.038.819-.06a5.063 5.063 0 0 0-.181-.42c-.03-.073-.03-.095.076-.132Zm3.794-1.533h-1.074c-.075 1.017-.489 1.724-1.315 2.247-.09.06-.135.096-.173.096-.053 0-.083-.051-.158-.162a1.27 1.27 0 0 0-.391-.383c.804-.383 1.225-.892 1.3-1.798h-.067c-.669 0-.894.015-.947.015-.075 0-.083-.008-.083-.089V.62c0-.081.008-.088.083-.088.053 0 .278.014.947.014h1.593c.676 0 .902-.014.947-.014.075 0 .082.014.082.095 0 .185 0 .361-.007.509-.023.84-.09 1.518-.226 1.812-.15.332-.465.472-.879.472-.173 0-.285 0-.428-.007-.21-.008-.21-.015-.248-.244a1.73 1.73 0 0 0-.158-.493c.263.037.511.059.691.059.188 0 .286-.06.354-.162.082-.133.15-.723.157-1.371Zm-5.951 5.003c.158-.479.263-.928.3-1.407.016-.14.023-.25.008-.413.188.022.421.067.579.103.09.022.127.052.127.089a.197.197 0 0 1-.037.103c-.023.037-.03.125-.045.243a9.291 9.291 0 0 1-.263 1.37c-.038.119-.068.163-.113.163-.03 0-.075-.022-.135-.06a2.555 2.555 0 0 0-.421-.19Zm2.307-1.71.361-.088c.09-.022.097-.014.127.067.128.368.248.906.308 1.333.008.081 0 .103-.097.133l-.361.118c-.113.037-.128.03-.135-.044a10.5 10.5 0 0 0-.286-1.4c-.022-.081 0-.096.083-.118ZM205.018.508l-.053.045c.804 1.075 1.684 1.746 3.171 2.32a2.176 2.176 0 0 0-.323.583c-.052.132-.075.191-.135.191-.038 0-.09-.03-.173-.066-1.337-.619-2.239-1.37-2.946-2.41-.691 1.062-1.593 1.791-2.81 2.425-.09.051-.143.08-.18.08-.045 0-.076-.058-.136-.183a1.739 1.739 0 0 0-.345-.524c1.315-.56 2.194-1.282 2.833-2.298a2.02 2.02 0 0 0 .263-.538c.293.044.556.08.781.154.068.015.128.06.128.11 0 .038-.023.067-.075.111Zm-3.667 5.829c.699-.221 1.187-.553 1.42-.943.218-.361.286-.81.286-1.6 0-.316-.008-.589-.053-.861.263 0 .586.014.834.036.083.008.128.037.128.089 0 .059-.015.096-.038.162-.022.066-.045.206-.045.597 0 1.031-.128 1.591-.421 2.063-.27.42-.721.781-1.337 1.046-.09.045-.143.074-.181.074-.045 0-.082-.044-.15-.162a2.093 2.093 0 0 0-.443-.501Zm3.915-.435V4.045c0-.412 0-.796-.053-1.127.293.007.579.03.827.059.075.007.113.037.113.08 0 .06-.023.126-.038.185-.023.103-.038.369-.038.796v1.864c0 .604.015.906.015.95 0 .067-.007.074-.09.074h-.669c-.075 0-.082-.007-.082-.073 0-.052.015-.347.015-.95ZM213.637 2.233h.263c.368 0 .789-.008 1.135-.022.09-.008.098.036.105.117a3.77 3.77 0 0 1 0 .583c-.007.095-.023.125-.128.117-.255 0-.714-.007-1.082-.007h-.308c-.045 1.054-.21 1.673-.579 2.27-.375.611-.984 1.053-1.773 1.37a.637.637 0 0 1-.21.066c-.045 0-.083-.022-.143-.08-.226-.23-.368-.332-.624-.443 1.067-.324 1.646-.7 2.029-1.304.293-.472.413-.98.443-1.879h-1.6v.265c0 .435 0 .833.022 1.223.008.082-.045.096-.127.104a4.738 4.738 0 0 1-.647 0c-.097-.008-.142-.022-.135-.104.023-.383.038-.744.038-1.208v-.28h-.226c-.406 0-1.007.022-1.24.037-.06 0-.082-.044-.09-.14-.03-.155-.037-.413-.052-.715.315.022.804.037 1.382.037h.226v-.538a4.97 4.97 0 0 0-.091-1.083c.391.037.759.074.917.118.083.015.113.051.113.103 0 .044-.023.096-.045.155-.053.132-.053.206-.053.707v.538h1.616l.007-.722a4.819 4.819 0 0 0-.067-1.01c.285.03.699.074.879.126.105.022.135.059.135.118 0 .03-.007.073-.03.132-.052.14-.06.332-.06.649v.7ZM220.43 4.119h-2.705c-.744 0-1.029.088-1.105.088-.09 0-.15-.044-.172-.154a7.724 7.724 0 0 1-.113-.892c.488.074.864.088 1.623.088h2.42c.571 0 1.149-.014 1.728-.022.113-.007.135.015.135.104.015.22.015.471 0 .692 0 .089-.03.118-.135.11-.564-.007-1.12-.014-1.676-.014ZM225.443 2.019v1.024a14.281 14.281 0 0 0 1.833-.715c.406-.191.594-.31.804-.53.263.214.511.516.624.663.037.044.06.088.06.133 0 .059-.038.11-.128.132-.21.052-.421.155-.623.243-.744.332-1.586.627-2.578.914v.98c0 .346.053.464.248.523.195.052.488.081.947.081.706 0 1.337-.051 2.119-.17.113-.014.128.016.135.104.023.206.045.486.045.641 0 .096-.045.125-.157.133-.85.103-1.285.132-2.232.132-.669 0-1.112-.066-1.428-.199-.376-.154-.534-.5-.534-1.105V2.284c0-.7-.015-.98-.075-1.348.353.037.707.08.947.147.09.022.12.066.12.118a.317.317 0 0 1-.052.155c-.06.118-.075.317-.075.663Zm2.742-.833.399-.272c.037-.03.067-.022.112.014.233.177.504.472.714.789.03.044.03.08-.022.118l-.316.228c-.053.037-.09.03-.128-.022a3.67 3.67 0 0 0-.759-.855Zm.692-.486.375-.265c.046-.03.068-.022.113.014.278.207.549.502.714.76.03.044.038.088-.022.132l-.301.228c-.06.045-.098.023-.128-.022a3.51 3.51 0 0 0-.751-.847ZM232.875 1.275h2.066c.271 0 .406-.008.519-.067a.125.125 0 0 1 .082-.03c.045.001.083.03.128.06.173.133.346.324.488.516.023.037.038.066.038.095 0 .045-.03.096-.098.148a1.38 1.38 0 0 0-.278.324c-.308.516-.601.928-.962 1.378a17.499 17.499 0 0 1 2.082 1.783c.037.037.06.074.06.103 0 .03-.015.067-.053.11-.142.17-.315.347-.503.502-.03.03-.06.044-.09.044-.038 0-.068-.022-.105-.059a13.626 13.626 0 0 0-1.954-1.827A10.784 10.784 0 0 1 231.77 6.3c-.068.03-.12.059-.173.059a.17.17 0 0 1-.128-.066c-.165-.2-.383-.347-.631-.48 1.172-.581 1.871-1.105 2.645-1.878a9.044 9.044 0 0 0 1.413-1.85l-1.939.008c-.391 0-.781.014-1.187.044-.06.007-.083-.044-.098-.125a4.27 4.27 0 0 1-.067-.767c.405.03.781.03 1.27.03Z" fill="#A12125"/><defs><clipPath id="a"><path fill="#fff" transform="translate(0 11)" d="M0 0h244.919v25H0z"/></clipPath></defs></svg>