<svg width="250" height="38" fill="none" xmlns="http://www.w3.org/2000/svg"><path d="m0 37.987 8.384-6.37V6.376L0 0v37.987ZM40 0l-8.39 6.377V31.63L40 38V0ZM24.834 31.61 20 37.994l-4.84-6.384V6.377L20 0l4.834 6.377V31.61Z" fill="url(#a)"/><path d="M188.393 29.134c-4.036 0-6.095-4-6.095-8.204 0-3.744 1.93-6.905 5.538-6.905 4.264 0 6.095 4.205 6.095 8.205s-2.075 6.912-5.538 6.912v-.008Zm-.13-16.175a9.138 9.138 0 0 0-3.455.628 8.947 8.947 0 0 0-4.936 4.756 8.72 8.72 0 0 0-.725 3.403c0 5.037 3.929 8.425 8.811 8.425a9.017 9.017 0 0 0 3.456-.643 9.108 9.108 0 0 0 2.944-1.906 8.878 8.878 0 0 0 2.685-6.292c0-4.877-3.783-8.363-8.772-8.363l-.008-.008ZM78.391 27.221c-.251-4.144-.625-10.572-.854-15.896-.06-1.18.603-1.648 1.869-2.011v-.492c-1.564.038-3.47 0-5.027 0L67.65 24.718h-.252L59.465 8.8c-1.685.06-3.692.068-5.385 0v.491c1.892.552 2.548 1.37 2.44 3.252-.106 1.883-.64 11.782-.747 13.65-.107 1.701-.724 2.442-2.51 2.994v.492c2.213-.046 4.486-.046 6.69 0v-.5c-2.097-.551-2.769-1.36-2.715-2.986l.519-13.34h.22l8.46 16.833h.42l7.507-17.514h.228c.199 5.044.45 9.967.756 15.011.053 1.127-.359 1.596-1.968 2.012v.491c2.212-.038 4.683-.038 6.896 0v-.491c-1.358-.34-1.839-.855-1.9-1.966l.015-.008ZM103.657 21.791a5.05 5.05 0 0 1-1.61-.257v-6.972c.404-.045.809-.068 1.213-.068 2.822 0 4.135 1.64 4.135 3.622 0 2.564-1.946 3.698-3.738 3.675Zm5.957 4.825c-.724-1.097-2.593-4.326-2.593-4.326 2.098-.748 3.41-2.314 3.41-4.393 0-2.813-2.525-4.553-6.927-4.386-1.587.06-4.035.06-6.019 0v.446c1.389.363 1.663.703 1.663 1.724v11.865c0 1.02-.297 1.361-1.7 1.724v.446c2.143-.045 4.508-.045 6.3 0V29.3c-1.419-.37-1.724-.703-1.724-1.731v-5.044a5.822 5.822 0 0 0 1.839.264h.45s2.784 4.704 3.371 5.702c.252.469.618.87 1.068 1.15.45.287.969.453 1.503.476.824 0 1.633-.181 2.38-.522v-.234c-1.014-.174-1.998-1.18-3.028-2.738l.007-.007ZM90.36 27.546V15.68c0-1.006.283-1.331 1.663-1.717v-.446c-1.968.045-4.195.045-6.156 0v.446c1.343.356 1.663.704 1.663 1.71v11.864c0 1.006-.29 1.354-1.663 1.71v.445a141.22 141.22 0 0 1 6.202 0v-.446c-1.396-.348-1.7-.696-1.7-1.701h-.008ZM119.348 23.842l2.785-6.36h.229l2.776 6.36h-5.79Zm10.81 3.849-6.782-14.323h-.717l-5.805 13.226c-.649 1.497-1.274 2.193-2.411 2.67v.446a89.459 89.459 0 0 1 4.936 0v-.424c-1.694-.446-1.793-1.399-1.305-2.503l.847-1.898h6.644l1.221 2.79c.45.999.183 1.331-1.304 1.702v.333a157.61 157.61 0 0 1 6.552 0v-.333a2.739 2.739 0 0 1-1.144-.605 2.697 2.697 0 0 1-.725-1.066v-.015h-.007ZM245.285 19.84c-1.792-1.096-3.478-1.882-3.478-3.44s1.19-2.39 2.861-2.39c1.838 0 3.066 1.414 4.035 3.456h.473c0-1.263.046-2.54.16-3.804-1.342-.264-2.937-.718-4.363-.718-3.174 0-5.584 1.86-5.584 4.492 0 2.276 2.151 3.592 4.089 4.734 2.067 1.202 4.165 2.193 4.165 4.242 0 2.05-1.534 2.715-3.036 2.715-1.93 0-2.976-1.233-4.28-4h-.473c-.03 1.467-.046 2.737-.145 4.129a11.08 11.08 0 0 0 4.577.915c3.029 0 5.714-1.853 5.714-4.818.023-2.616-2.594-4.227-4.715-5.512ZM220.394 13.503v.447c1.396.363 1.693.703 1.693 1.724v11.91c0 1.028-.297 1.361-1.724 1.732v.446c2.022-.046 4.288-.046 6.309 0v-.446c-1.396-.363-1.693-.696-1.693-1.724V15.582c0-1.02.297-1.278 1.686-1.633v-.424c-2.045.015-4.265.03-6.263-.03l-.008.007Z" fill="#fff"/><path d="M233.088 26.812c-1.015-1.27-5.081-6.616-5.081-6.616s3.013-3.38 3.791-4.205a8.41 8.41 0 0 1 3.189-2.042v-.446a83.904 83.904 0 0 1-4.775 0v.5c.549.143.862.37.862.695 0 .325-.366.794-1.053 1.565l-4.455 4.938s4.829 6.7 5.309 7.32c.962 1.248 1.572 1.513 2.739 1.513a5.63 5.63 0 0 0 2.502-.59v-.318c-1.137-.295-1.793-.779-3.021-2.314h-.007ZM207.731 21.791a5.055 5.055 0 0 1-1.61-.257v-6.972a10.9 10.9 0 0 1 1.213-.068c2.823 0 4.142 1.64 4.142 3.622 0 2.564-1.952 3.698-3.745 3.675Zm5.958 4.825c-.725-1.097-2.594-4.326-2.594-4.326 2.098-.748 3.41-2.314 3.41-4.393 0-2.813-2.525-4.553-6.919-4.386-1.594.06-4.035.06-6.019 0v.446c1.388.363 1.663.703 1.663 1.724v11.865c0 1.02-.297 1.361-1.709 1.724v.446c2.144-.045 4.486-.045 6.279 0V29.3c-1.419-.37-1.725-.703-1.725-1.731v-5.044a5.826 5.826 0 0 0 1.839.264h.45s2.777 4.704 3.372 5.702a3.125 3.125 0 0 0 2.571 1.633c.823 0 1.632-.18 2.38-.521v-.235c-.992-.174-1.969-1.18-2.998-2.737v-.015ZM139.899 27.546V15.68c0-1.006.282-1.331 1.663-1.717v-.446c-1.976.045-4.195.045-6.164 0v.446c1.343.356 1.663.704 1.663 1.71v11.864c0 1.006-.289 1.354-1.663 1.71v.445c1.984-.045 4.219-.045 6.202 0v-.446c-1.396-.348-1.701-.696-1.701-1.701ZM172.45 8.822v.484c1.304.356 1.869.81 1.869 1.649a4.916 4.916 0 0 1-.328 1.391l-4.73 12.606h-.237s-5.103-12.228-5.637-13.619c-.488-1.217.374-1.777 1.594-2.057V8.83c-1.975.045-4.134.045-6.079 0v.318l2.731 6.125-3.685 9.626h-.221s-5.05-12.182-5.592-13.566c-.45-1.142.389-1.777 1.595-2.064v-.447a195.83 195.83 0 0 1-7.301 0v.447c1.175.317 1.663.847 2.197 2.049.58 1.33 5.18 11.782 8.262 18.83h.366l5.111-13.181 5.797 13.18h.367l6.941-17.785c.74-1.853 1.518-2.624 3.037-3.086V8.8c-1.915.053-4.143.053-6.05.015l-.007.007Z" fill="#fff"/><defs><linearGradient id="a" x1="2.229" y1="1.508" x2="37.635" y2="37.493" gradientUnits="userSpaceOnUse"><stop stop-color="#BC0900"/><stop offset="1" stop-color="#530E06"/></linearGradient></defs></svg>