<svg width="14" height="14" viewBox="0 0 14 14" fill="none" xmlns="http://www.w3.org/2000/svg">
<path d="M6.621 7.40831H7.4085H9.771V6.62081H7.4085H6.621H4.22933V7.40831H6.621ZM7.0027 12.5416C6.23645 12.5416 5.51598 12.3962 4.84128 12.1054C4.16656 11.8146 3.57966 11.42 3.08057 10.9215C2.58147 10.4229 2.18635 9.8367 1.89521 9.16278C1.60407 8.48885 1.4585 7.76876 1.4585 7.00252C1.4585 6.23378 1.60418 5.51096 1.89556 4.83406C2.18694 4.15717 2.58238 3.56837 3.08188 3.06764C3.58139 2.56693 4.16761 2.17353 4.84055 1.88744C5.51348 1.60136 6.23251 1.45831 6.99762 1.45831C7.76626 1.45831 8.48899 1.60119 9.16582 1.88693C9.84263 2.17269 10.4315 2.5657 10.9323 3.06597C11.4331 3.56624 11.8266 4.15452 12.1127 4.83081C12.3988 5.50711 12.5418 6.22972 12.5418 6.99865C12.5418 7.76759 12.399 8.48776 12.1132 9.15916C11.8275 9.83057 11.4345 10.4163 10.9344 10.9164C10.4342 11.4165 9.84609 11.8124 9.16997 12.1041C8.49386 12.3958 7.77144 12.5416 7.0027 12.5416ZM7.00016 11.7541C8.32737 11.7541 9.45153 11.2936 10.3726 10.3725C11.2938 9.45135 11.7543 8.32719 11.7543 6.99998C11.7543 5.67277 11.2938 4.54861 10.3726 3.6275C9.45153 2.70637 8.32737 2.24581 7.00016 2.24581C5.67295 2.24581 4.54879 2.70637 3.62768 3.6275C2.70656 4.54861 2.246 5.67277 2.246 6.99998C2.246 8.32719 2.70656 9.45135 3.62768 10.3725C4.54879 11.2936 5.67295 11.7541 7.00016 11.7541Z" fill="#252828"/>
</svg>
