<svg width="14" height="14" viewBox="0 0 14 14" fill="none" xmlns="http://www.w3.org/2000/svg">
<path d="M6.621 9.77084H7.4085V7.40834H9.771V6.62084H7.4085V4.22918H6.621V6.62084H4.22933V7.40834H6.621V9.77084ZM7.0027 12.5417C6.23645 12.5417 5.51598 12.3963 4.84128 12.1055C4.16656 11.8147 3.57966 11.42 3.08057 10.9215C2.58147 10.423 2.18635 9.83673 1.89521 9.16281C1.60407 8.48888 1.4585 7.76879 1.4585 7.00255C1.4585 6.23381 1.60418 5.51099 1.89556 4.83409C2.18694 4.1572 2.58238 3.5684 3.08188 3.06767C3.58139 2.56696 4.16761 2.17356 4.84055 1.88747C5.51348 1.60139 6.23251 1.45834 6.99762 1.45834C7.76626 1.45834 8.48899 1.60122 9.16582 1.88696C9.84263 2.17272 10.4315 2.56573 10.9323 3.066C11.4331 3.56627 11.8266 4.15455 12.1127 4.83084C12.3988 5.50714 12.5418 6.22975 12.5418 6.99868C12.5418 7.76762 12.399 8.48779 12.1132 9.15919C11.8275 9.8306 11.4345 10.4163 10.9344 10.9164C10.4342 11.4165 9.84609 11.8124 9.16997 12.1041C8.49386 12.3958 7.77144 12.5417 7.0027 12.5417ZM7.00016 11.7542C8.32737 11.7542 9.45153 11.2936 10.3726 10.3725C11.2938 9.45138 11.7543 8.32722 11.7543 7.00001C11.7543 5.6728 11.2938 4.54864 10.3726 3.62753C9.45153 2.7064 8.32737 2.24584 7.00016 2.24584C5.67295 2.24584 4.54879 2.7064 3.62768 3.62753C2.70656 4.54864 2.246 5.6728 2.246 7.00001C2.246 8.32722 2.70656 9.45138 3.62768 10.3725C4.54879 11.2936 5.67295 11.7542 7.00016 11.7542Z" fill="#252828"/>
</svg>
