<svg width="20" height="20" viewBox="0 0 20 20" fill="none" xmlns="http://www.w3.org/2000/svg">
<path d="M13.0208 16.7502C12.9375 16.7502 12.8611 16.7363 12.7917 16.7085C12.7222 16.6807 12.6528 16.6321 12.5833 16.5627L10.5208 14.5002C10.3958 14.3752 10.3333 14.2293 10.3333 14.0627C10.3333 13.896 10.3958 13.7502 10.5208 13.6252C10.6458 13.5002 10.7917 13.4377 10.9583 13.4377C11.125 13.4377 11.2708 13.5002 11.3958 13.6252L13.0208 15.2502L17.0208 11.2502C17.1458 11.1252 17.2917 11.0627 17.4583 11.0627C17.625 11.0627 17.7708 11.1252 17.8958 11.2502C18.0208 11.3752 18.0833 11.521 18.0833 11.6877C18.0833 11.8543 18.0208 12.0002 17.8958 12.1252L13.4583 16.5627C13.3889 16.6321 13.3194 16.6807 13.25 16.7085C13.1805 16.7363 13.1042 16.7502 13.0208 16.7502ZM8.33332 9.9585C7.41666 9.9585 6.66666 9.66683 6.08332 9.0835C5.49999 8.50016 5.20832 7.75016 5.20832 6.8335C5.20832 5.91683 5.49999 5.16683 6.08332 4.5835C6.66666 4.00016 7.41666 3.7085 8.33332 3.7085C9.24999 3.7085 9.99999 4.00016 10.5833 4.5835C11.1667 5.16683 11.4583 5.91683 11.4583 6.8335C11.4583 7.75016 11.1667 8.50016 10.5833 9.0835C9.99999 9.66683 9.24999 9.9585 8.33332 9.9585ZM2.29166 16.6668C2.1111 16.6668 1.9618 16.6078 1.84374 16.4897C1.72568 16.3717 1.66666 16.2224 1.66666 16.0418V14.7085C1.66666 14.2363 1.78471 13.8022 2.02082 13.4064C2.25693 13.0106 2.6111 12.7085 3.08332 12.5002C4.08332 12.0557 4.99999 11.7363 5.83332 11.5418C6.66666 11.3474 7.49999 11.2502 8.33332 11.2502C8.7361 11.2502 9.16319 11.2745 9.61457 11.3231C10.066 11.3717 10.5278 11.4585 11 11.5835L9.24999 13.3335C9.01388 13.5696 8.89582 13.8647 8.89582 14.2189C8.89582 14.5731 9.01388 14.8682 9.24999 15.1043L10.8125 16.6668H2.29166Z" fill="white"/>
</svg>
