<svg width="48" height="53" viewBox="0 0 48 53" fill="none" xmlns="http://www.w3.org/2000/svg">
<rect width="48" height="53" fill="white"/>
<path d="M48 53H0V0H48V53ZM0.465838 52.5366H47.5342V0.463368H0.465838V52.5366Z" fill="#231815"/>
<path d="M47.7671 42.0273H0.23291V42.4907H47.7671V42.0273Z" fill="#231815"/>
<path d="M10.2017 45.5677H7.44398V46.0126H9.74522V48.4313H7.8446C8.50609 49.1449 9.54957 49.6732 10.2763 49.9141L9.96882 50.4238C9.66137 50.2941 8.40361 49.7566 7.44398 48.6537V50.5536H6.92224V48.6537C6.33529 49.4044 5.35702 50.0346 4.3974 50.4331L4.08063 49.9234C5.03094 49.5712 5.90671 49.08 6.52162 48.4313H4.63032V46.0126H6.92224V45.5677H4.16448V45.0765H6.92224V44.5205H7.44398V45.0765H10.2017V45.5677ZM5.13342 46.4574V47.0042H6.92224V46.4574H5.13342ZM5.13342 47.4212V47.9772H6.92224V47.4212H5.13342ZM9.25144 46.4574H7.44398V47.0042H9.25144V46.4574ZM9.25144 47.4212H7.44398V47.9772H9.25144V47.4212Z" fill="#231815"/>
<path d="M17.8695 45.6326V46.096H15.3446V45.6326H17.8695ZM17.6365 44.7429V45.2063H15.5496V44.7429H17.6365ZM17.6365 46.5408V47.0042H15.5496V46.5408H17.6365ZM17.6365 47.5046V47.968H15.5496V47.5046H17.6365ZM17.6365 48.4313V50.4238H15.5496V48.4313H17.6365ZM17.1148 48.8854H16.0713V49.9697H17.1148V48.8854ZM18.857 46.2535V49.8029H19.6583V45.2434H17.9719V44.7429H21.3353V45.2434H20.1893V47.0968H21.2235V47.6065H20.1893V49.8122H21.4378V50.3126H17.8695V49.8122H18.3167V46.2628H18.8477L18.857 46.2535Z" fill="#231815"/>
<path d="M29.7949 46.5315H32.1986V47.0783H29.7949V49.7751H32.6272V50.3126H26.5806V49.7751H29.2266V44.5391H29.7949V46.5315Z" fill="#231815"/>
<path d="M39.7359 48.4684C39.2235 48.7835 38.4595 49.1079 37.826 49.3117L37.7514 48.7557C37.9564 48.7001 38.1893 48.6352 38.5434 48.5055V46.4111H37.8167V45.9106H38.5434V44.5298H39.0558V45.9106H39.6521V46.4111H39.0558V48.3016C39.3819 48.1626 39.5403 48.0699 39.6986 47.9865L39.7266 48.4684H39.7359ZM43.6396 48.0699C43.6396 48.7186 43.5837 49.877 43.444 50.1551C43.3601 50.3311 43.2297 50.5258 42.8477 50.5258H42.0092L41.9347 50.0161H42.7545C42.9409 50.0161 42.9875 49.8863 43.0154 49.7751C43.062 49.5712 43.0993 49.2469 43.1365 48.4869H42.6986C42.3353 49.4507 41.6831 50.1365 40.7701 50.5721L40.444 50.1736C41.385 49.7288 41.9347 49.1264 42.2235 48.4869H41.6645C40.975 49.6176 39.9316 50.0161 39.5216 50.1643L39.2887 49.7566C39.6986 49.6176 40.4533 49.3488 41.1334 48.4869H40.5092C40.062 48.941 39.6707 49.1357 39.4378 49.2561L39.1955 48.8762C39.9036 48.5611 40.2576 48.2553 40.649 47.6343H39.6241V47.2081H43.8353V47.6343H41.1334C41.0309 47.8197 40.9657 47.9309 40.8539 48.0792H43.6303L43.6396 48.0699ZM43.4067 44.7337V46.8188H40.0154V44.7337H43.4067ZM42.9129 45.1322H40.4999V45.6048H42.9129V45.1322ZM42.9129 45.9662H40.4999V46.4389H42.9129V45.9662Z" fill="#231815"/>
<path d="M15.149 39.1177C14.1521 39.1177 13.5186 38.8768 12.8198 38.191L14.1987 36.8287C14.4596 37.0882 14.6832 37.2643 15.149 37.2643C15.7919 37.2643 16.267 36.9028 16.267 36.0966V30.564H18.3633V36.1429C18.3633 38.1632 16.7515 39.127 15.149 39.127V39.1177Z" fill="#231815"/>
<path d="M24.0652 36.0132H22.7794V39.0436H20.6832V30.5547H24.0652C25.9565 30.5547 26.9813 31.8892 26.9813 33.2886C26.9813 34.6879 25.9658 36.0224 24.0652 36.0224V36.0132ZM23.972 32.4267H22.7794V34.1411H23.972C24.5496 34.1411 24.885 33.7241 24.885 33.2793C24.885 32.8345 24.5496 32.4174 23.972 32.4174V32.4267Z" fill="#231815"/>
<path d="M32.7856 39.0436L31.3788 36.4302L29.9813 39.0436H27.5776L30.2422 34.6879L27.7453 30.5454H30.1304L31.3788 32.9457L32.6273 30.5454H35.0124L32.5155 34.6879L35.1801 39.0436H32.7856Z" fill="#231815"/>
<mask id="mask0_317_133" style="mask-type:luminance" maskUnits="userSpaceOnUse" x="12" y="3" width="24" height="25">
<path d="M16.9565 27.6076L12.7733 25.439V7.57155L16.9565 9.74011V27.6168V27.6076ZM23.0496 26.2545L18.8664 24.086V6.21852L23.0496 8.37781V26.2545ZM29.1428 24.9015L24.9596 22.7329V4.85621L29.1428 7.02478V24.9015ZM35.236 23.5485L31.0528 21.3799V3.51245L35.236 5.68101V23.5577V23.5485Z" fill="white"/>
</mask>
<g mask="url(#mask0_317_133)">
<path d="M47.618 -0.324178C47.618 19.2948 31.6304 35.2069 11.9068 35.2069C-7.8168 35.2069 -23.8137 19.3041 -23.8137 -0.324178C-23.8137 -19.9524 -7.82611 -35.8459 11.8975 -35.8459C31.6211 -35.8459 47.6087 -19.9432 47.6087 -0.324178H47.618Z" fill="url(#paint0_radial_317_133)"/>
<path d="M36.6521 -2.42778C36.6521 10.6021 26.0962 21.1762 12.9317 21.1762C-0.232943 21.1762 -10.7982 10.6114 -10.7982 -2.42778C-10.7982 -15.4669 -0.177042 -26.0225 12.9317 -26.0225C26.0403 -26.0225 36.6521 -15.4577 36.6521 -2.42778Z" fill="url(#paint1_radial_317_133)"/>
</g>
<defs>
<radialGradient id="paint0_radial_317_133" cx="0" cy="0" r="1" gradientUnits="userSpaceOnUse" gradientTransform="translate(11.8908 -0.732129) scale(35.5493 35.3608)">
<stop offset="0.65" stop-color="#EB6120"/>
<stop offset="0.75" stop-color="#E60012"/>
</radialGradient>
<radialGradient id="paint1_radial_317_133" cx="0" cy="0" r="1" gradientUnits="userSpaceOnUse" gradientTransform="translate(12.9082 -2.82349) scale(23.612 23.4867)">
<stop offset="0.6" stop-color="#E60012"/>
<stop offset="0.71" stop-color="#BB000B"/>
<stop offset="0.84" stop-color="#940005"/>
<stop offset="0.94" stop-color="#7B0001"/>
<stop offset="1" stop-color="#730000"/>
</radialGradient>
</defs>
</svg>
