<svg width="215" height="33" viewBox="0 0 215 33" fill="none" xmlns="http://www.w3.org/2000/svg">
<path d="M0 32.9891L7.2106 27.4564V5.53819L0 0V32.9891ZM34.4 0L27.1839 5.53819V27.4673L34.4 33V0ZM21.3572 27.4509L17.2 32.9945L13.0373 27.4509V5.53819L17.2 0L21.3572 5.53819V27.4509Z" fill="url(#paint0_linear_92_25)"/>
<path d="M162.018 25.3005C158.547 25.3005 156.776 21.8265 156.776 18.1753C156.776 14.9246 158.436 12.1795 161.539 12.1795C165.206 12.1795 166.781 15.8308 166.781 19.3048C166.781 22.7788 164.996 25.3071 162.018 25.3071V25.3005ZM161.906 11.2536C160.89 11.2405 159.879 11.4243 158.935 11.7987C157.99 12.173 157.13 12.7312 156.402 13.4404C155.674 14.1497 155.09 14.9968 154.69 15.9293C154.29 16.8618 154.073 17.8666 154.067 18.8845C154.067 23.2582 157.445 26.2002 161.644 26.2002C162.661 26.2133 163.671 26.0229 164.616 25.642C165.561 25.2611 166.42 24.6963 167.148 23.9871C167.876 23.2779 168.454 22.4241 168.847 21.4851C169.241 20.546 169.451 19.5412 169.457 18.5233C169.457 14.2876 166.203 11.2602 161.913 11.2602L161.906 11.2536Z" fill="#252828"/>
<path d="M67.4167 23.6399C67.2002 20.0412 66.8788 14.4592 66.682 9.83597C66.6295 8.81151 67.2002 8.40436 68.2893 8.08914V7.66228C66.9444 7.69511 65.3043 7.66228 63.9659 7.66228L58.1797 21.4662H57.9632L51.1403 7.64258C49.6905 7.69511 47.9651 7.70168 46.5087 7.64258V8.06944C48.1356 8.54883 48.6998 9.25807 48.608 10.8933C48.5162 12.5285 48.0569 21.1247 47.9651 22.7468C47.8732 24.2244 47.3418 24.868 45.8067 25.3474V25.7742C47.7092 25.7348 49.6642 25.7348 51.5602 25.7742V25.3408C49.7561 24.8614 49.1788 24.1587 49.2247 22.7468L49.6708 11.1625H49.861L57.1365 25.7808H57.4974L63.9528 10.5715H64.1496C64.3202 14.9517 64.5367 19.2269 64.7991 23.6071C64.845 24.5856 64.4908 24.9927 63.1065 25.3539V25.7808C65.009 25.7479 67.1346 25.7479 69.0371 25.7808V25.3539C67.8694 25.0584 67.4561 24.6118 67.4036 23.6465L67.4167 23.6399Z" fill="#252828"/>
<path d="M89.1448 18.9246C88.6724 18.9246 88.2066 18.8523 87.7605 18.7013V12.6465C88.1082 12.6071 88.4559 12.5874 88.8036 12.5874C91.231 12.5874 92.3594 14.0124 92.3594 15.733C92.3594 17.9592 90.6864 18.9443 89.1448 18.9246ZM94.2684 23.1143C93.6452 22.1621 92.0379 19.358 92.0379 19.358C93.842 18.7079 94.9704 17.3485 94.9704 15.5425C94.9704 13.0996 92.7989 11.5892 89.0135 11.7336C87.649 11.7862 85.5431 11.7862 83.8374 11.7336V12.1211C85.0314 12.4363 85.2675 12.7318 85.2675 13.6184V23.9221C85.2675 24.8086 85.0117 25.1042 83.8046 25.4194V25.8068C85.648 25.7674 87.6818 25.7674 89.2235 25.8068V25.4456C88.0032 25.1239 87.7408 24.8349 87.7408 23.9418V19.5616C88.2525 19.7257 88.7839 19.798 89.3219 19.7914H89.7089C89.7089 19.7914 92.1035 23.8761 92.6087 24.743C92.8251 25.1501 93.14 25.4982 93.5271 25.7412C93.9142 25.9907 94.3603 26.1352 94.8195 26.1549C95.528 26.1549 96.2234 25.9973 96.8664 25.7018V25.4982C95.9938 25.3471 95.1475 24.4737 94.2619 23.1209L94.2684 23.1143Z" fill="#252828"/>
<path d="M77.71 23.9216V13.6179C77.71 12.7445 77.9528 12.4621 79.1402 12.1272V11.7397C77.4476 11.7791 75.532 11.7791 73.8459 11.7397V12.1272C75.0006 12.4359 75.2761 12.7379 75.2761 13.6114V23.9151C75.2761 24.7885 75.0268 25.0906 73.8459 25.3992V25.7867C75.5517 25.7473 77.4739 25.7473 79.1796 25.7867V25.3992C77.979 25.0971 77.7166 24.795 77.7166 23.9216H77.71Z" fill="#252828"/>
<path d="M102.639 20.7043L105.034 15.1814H105.231L107.619 20.7043H102.639ZM111.936 24.0469L106.103 11.6089H105.487L100.494 23.0947C99.9366 24.3949 99.3986 24.9991 98.4211 25.4128V25.8003C99.812 25.7609 101.262 25.7609 102.666 25.8003V25.4325C101.209 25.0451 101.124 24.2176 101.544 23.2588L102.272 21.6105H107.986L109.036 24.0338C109.423 24.9006 109.193 25.1896 107.914 25.5113V25.8003C109.705 25.7609 111.745 25.7609 113.549 25.8003V25.5113C113.182 25.4194 112.847 25.2355 112.565 24.986C112.283 24.7299 112.073 24.4146 111.942 24.06V24.0469H111.936Z" fill="#252828"/>
<path d="M210.946 17.2304C209.404 16.2781 207.954 15.5952 207.954 14.2424C207.954 12.8895 208.977 12.1672 210.414 12.1672C211.995 12.1672 213.051 13.3952 213.885 15.1683H214.291C214.291 14.0716 214.331 12.9618 214.429 11.8651C213.274 11.6352 211.903 11.2412 210.677 11.2412C207.947 11.2412 205.874 12.8567 205.874 15.142C205.874 17.1187 207.724 18.2614 209.391 19.253C211.169 20.2972 212.973 21.1575 212.973 22.9371C212.973 24.7168 211.654 25.2947 210.362 25.2947C208.702 25.2947 207.803 24.2243 206.681 21.8207H206.275C206.248 23.0947 206.235 24.198 206.15 25.4063C207.39 25.9514 208.735 26.2207 210.086 26.201C212.691 26.201 215 24.592 215 22.0177C215.02 19.7455 212.769 18.3468 210.946 17.2304Z" fill="#252828"/>
<path d="M189.539 11.7268V12.1142C190.739 12.4295 190.995 12.725 190.995 13.6115V23.9546C190.995 24.8478 190.739 25.1367 189.513 25.4585V25.8459C191.251 25.8065 193.2 25.8065 194.938 25.8459V25.4585C193.737 25.1433 193.482 24.8543 193.482 23.9612V13.5327C193.482 12.6462 193.737 12.4229 194.931 12.1142V11.7465C193.173 11.7596 191.264 11.7728 189.545 11.7202L189.539 11.7268Z" fill="#252828"/>
<path d="M200.455 23.2846C199.583 22.1813 196.086 17.5384 196.086 17.5384C196.086 17.5384 198.678 14.6029 199.347 13.8871C200.114 13.0925 201.052 12.4883 202.089 12.114V11.7266C200.777 11.766 199.281 11.766 197.982 11.7266V12.16C198.454 12.2848 198.723 12.4818 198.723 12.7642C198.723 13.0465 198.409 13.4537 197.818 14.1235L193.987 18.4118C193.987 18.4118 198.14 24.2302 198.553 24.7687C199.379 25.8523 199.904 26.0821 200.908 26.0821C201.656 26.0821 202.391 25.9048 203.06 25.5699V25.2941C202.082 25.038 201.518 24.6177 200.462 23.2846H200.455Z" fill="#252828"/>
<path d="M178.649 18.9246C178.176 18.9246 177.71 18.8523 177.264 18.7013V12.6465C177.612 12.6071 177.96 12.5874 178.307 12.5874C180.735 12.5874 181.87 14.0124 181.87 15.733C181.87 17.9592 180.19 18.9443 178.649 18.9246ZM183.772 23.1143C183.149 22.1621 181.542 19.358 181.542 19.358C183.346 18.7079 184.474 17.3485 184.474 15.5425C184.474 13.0996 182.303 11.5892 178.524 11.7336C177.153 11.7862 175.053 11.7862 173.348 11.7336V12.1211C174.542 12.4363 174.778 12.7318 174.778 13.6184V23.9221C174.778 24.8086 174.522 25.1042 173.308 25.4194V25.8068C175.152 25.7674 177.166 25.7674 178.708 25.8068V25.4456C177.487 25.1239 177.225 24.8349 177.225 23.9418V19.5616C177.737 19.7257 178.268 19.798 178.806 19.7914H179.193C179.193 19.7914 181.581 23.8761 182.093 24.743C182.309 25.1501 182.624 25.4916 183.011 25.7412C183.398 25.9907 183.844 26.1352 184.304 26.1615C185.012 26.1615 185.708 26.0038 186.35 25.7083V25.5047C185.498 25.3537 184.658 24.4803 183.772 23.1275V23.1143Z" fill="#252828"/>
<path d="M120.313 23.9216V13.6179C120.313 12.7445 120.556 12.4621 121.743 12.1272V11.7397C120.044 11.7791 118.135 11.7791 116.443 11.7397V12.1272C117.597 12.4359 117.873 12.7379 117.873 13.6114V23.9151C117.873 24.7885 117.624 25.0906 116.443 25.3992V25.7867C118.148 25.7473 120.071 25.7473 121.776 25.7867V25.3992C120.576 25.0971 120.313 24.795 120.313 23.9216Z" fill="#252828"/>
<path d="M148.307 7.66228V8.08257C149.428 8.39122 149.914 8.78525 149.914 9.51419C149.881 9.92791 149.783 10.3351 149.632 10.7225L145.564 21.6698H145.361C145.361 21.6698 140.972 11.0509 140.513 9.84254C140.093 8.78525 140.834 8.29928 141.884 8.0563V7.66885C140.185 7.70825 138.328 7.70825 136.655 7.66885V7.94466L139.004 13.264L135.835 21.6238H135.645C135.645 21.6238 131.302 11.0443 130.836 9.84254C130.449 8.85092 131.171 8.29928 132.207 8.04974V7.66228C130.2 7.70168 127.917 7.70168 125.929 7.66228V8.04974C126.939 8.32555 127.359 8.78525 127.818 9.82941C128.317 10.9852 132.273 20.0609 134.923 26.1814H135.238L139.634 14.735L144.62 26.1814H144.935L150.905 10.7357C151.541 9.12673 152.21 8.45689 153.516 8.0563V7.64258C151.869 7.68855 149.953 7.68855 148.313 7.65571L148.307 7.66228Z" fill="#252828"/>
<defs>
<linearGradient id="paint0_linear_92_25" x1="1.9166" y1="1.30952" x2="32.6679" y2="32.2601" gradientUnits="userSpaceOnUse">
<stop stop-color="#BC0900"/>
<stop offset="1" stop-color="#530E06"/>
</linearGradient>
</defs>
</svg>
