<svg width="245" height="36" viewBox="0 0 245 36" fill="none" xmlns="http://www.w3.org/2000/svg">
<g clip-path="url(#clip0_317_69)">
<path d="M0 12.0239V30.2936H17.9465V12.0239H0ZM16.1507 28.4643H1.79577V13.8417H16.1507V28.4528V28.4643Z" fill="#9F1F24"/>
<path d="M26.9027 30.3051V12.1045H36.0962V13.4275H28.3484V20.4685H35.2604V21.7916H28.3484V30.3051H26.9027Z" fill="#9F1F24"/>
<path d="M45.8882 16.534L45.8205 17.857C44.0699 17.857 42.116 18.6624 41.3254 20.5376V30.3053H39.9023V20.4916C39.9023 19.042 39.7894 17.5809 39.5522 16.8216L40.8284 16.603C41.0882 17.2703 41.2463 18.3517 41.2689 19.088C42.1273 17.4544 43.9908 16.5225 45.8769 16.5225L45.8882 16.534Z" fill="#9F1F24"/>
<path d="M54.6525 29.4081C56.2337 29.4081 57.7245 29.0514 58.8201 28.5337L59.1024 29.7417C58.1198 30.2134 56.3805 30.6621 54.5396 30.6621C50.7899 30.6621 48.2148 28.4762 48.2148 23.7362C48.2148 19.3988 50.4059 16.2695 54.1895 16.2695C57.4196 16.2695 59.3057 18.2829 59.3057 22.5052V23.3335H49.6266C49.3894 27.8089 51.716 29.3965 54.6299 29.3965H54.6525V29.4081ZM53.9975 17.466C51.6031 17.466 49.9993 19.4334 49.6718 22.229H57.9843C57.9165 19.0307 56.6629 17.466 54.0313 17.466H54.0088H53.9975Z" fill="#9F1F24"/>
<path d="M69.4366 29.4081C71.0178 29.4081 72.5086 29.0514 73.6041 28.5337L73.8865 29.7417C72.9152 30.2134 71.1646 30.6621 69.3236 30.6621C65.574 30.6621 62.9989 28.4762 62.9989 23.7362C62.9989 19.3988 65.19 16.2695 68.9848 16.2695C72.215 16.2695 74.1011 18.2829 74.1011 22.5052V23.3335H64.422C64.1848 27.8089 66.5114 29.3965 69.4253 29.3965H69.4479L69.4366 29.4081ZM68.7815 17.466C66.3872 17.466 64.7834 19.4334 64.4559 22.229H72.7684C72.7006 19.0307 71.447 17.466 68.8154 17.466H68.7928H68.7815Z" fill="#9F1F24"/>
<path d="M80.2112 21.4121C80.2112 16.2234 82.0522 11.6675 88.1962 11.6675C89.8904 11.6675 91.641 12.0701 92.8268 12.5649L92.5671 13.8879C91.2908 13.3702 89.7096 13.0135 88.2414 13.0135C83.1477 13.0135 81.7473 17.2128 81.7473 21.4466C81.7473 25.6804 83.3058 29.2469 88.2866 29.2469C89.8452 29.2469 91.7991 28.8212 92.8494 28.3955L93.064 29.7416C92.0588 30.1673 89.9694 30.6159 88.2414 30.6159C82.1877 30.6159 80.2112 26.5892 80.2112 21.4236V21.4006V21.4121Z" fill="#9F1F24"/>
<path d="M108.458 23.506C108.458 27.199 106.99 30.731 102.382 30.731C97.7737 30.731 96.2828 27.199 96.2828 23.4714C96.2828 19.7439 97.7737 16.3154 102.382 16.3154C106.99 16.3154 108.458 19.8244 108.458 23.4714V23.4944V23.506ZM102.404 29.477C105.521 29.477 106.99 27.222 106.99 23.4599C106.99 19.6979 105.521 17.558 102.382 17.558C99.2419 17.558 97.7511 19.7439 97.7511 23.4599C97.7511 27.176 99.2193 29.477 102.382 29.477H102.404Z" fill="#9F1F24"/>
<path d="M114.06 16.6028C114.297 17.2701 114.478 18.1674 114.5 18.7657C115.664 17.4656 117.618 16.5107 119.368 16.5107C122.282 16.5107 123.558 18.2595 123.558 21.4923V30.3165H122.135V21.803C122.135 19.7896 121.65 17.7533 119.041 17.7533C117.437 17.7533 115.596 18.6276 114.546 19.8817V30.3165H113.122V19.3294C113.122 18.5471 113.01 17.5807 112.772 16.8214L114.049 16.6028H114.06Z" fill="#9F1F24"/>
<path d="M135.474 18.4093C134.615 17.9376 133.384 17.6039 132.164 17.6039C131.171 17.6039 129.443 18.0526 129.443 19.9279C129.443 21.3085 130.301 21.8492 132.3 22.6776C134.468 23.575 136.095 24.5068 136.095 26.7273C136.095 29.7415 133.972 30.6389 131.927 30.6389C130.549 30.6389 128.652 30.2823 127.489 29.7876L127.861 28.5335C128.979 29.0743 130.583 29.3849 131.792 29.3849C133.283 29.3849 134.683 28.8442 134.683 26.7963C134.683 25.3007 133.542 24.5874 131.351 23.69C129.397 22.8847 128.042 22.1484 128.042 19.9739C128.042 17.2013 130.369 16.4189 132.164 16.4189C133.441 16.4189 134.954 16.7526 135.846 17.2013L135.474 18.4093Z" fill="#9F1F24"/>
<path d="M144.475 30.6851C141.595 30.6851 140.308 28.9018 140.308 25.7035V16.7412H141.731V25.4159C141.731 27.4062 142.216 29.4425 144.825 29.4425C146.429 29.4425 148.247 28.5682 149.32 27.3142V16.7527H150.743V27.4637C150.743 28.4876 150.856 29.5231 151.139 30.3744L149.84 30.593C149.557 29.9258 149.422 29.0514 149.399 28.4876C148.168 29.7877 146.26 30.6966 144.486 30.6966L144.475 30.6851Z" fill="#9F1F24"/>
<path d="M157.712 30.3052H156.266V11.2992L157.712 11.0576V30.3052Z" fill="#9F1F24"/>
<path d="M167.628 29.2124V30.3284L166.725 30.3974C164.68 30.5585 163.495 29.7761 163.495 27.2681V18.0067H161.145V16.8217H163.495V13.4738L164.918 13.1401V16.8102H168.08V17.9952H164.918V26.9344C164.918 28.7062 165.426 29.2124 166.917 29.2124H167.639H167.628Z" fill="#9F1F24"/>
<path d="M181.385 30.1904L180.176 30.455C179.6 29.7647 179.25 28.6027 179.148 27.7513C178.425 29.5806 176.562 30.616 174.653 30.616C172.44 30.616 170.395 29.4771 170.395 26.6354C170.395 23.5521 171.886 22.5051 178.956 22.137V20.7334C178.956 18.9041 178.606 17.6041 175.997 17.6041C174.484 17.6041 173.083 18.0758 171.784 18.8581L171.412 17.6271C172.575 16.9138 174.393 16.373 176.133 16.373C179.532 16.373 180.323 18.0297 180.323 20.6874V26.2787C180.323 27.9354 180.696 29.408 181.373 30.1904H181.385ZM171.728 26.5663C171.728 28.9593 173.75 29.385 174.845 29.385C177.104 29.385 178.527 27.8664 178.968 26.1867V23.299C173.354 23.6096 171.728 24.1503 171.728 26.5663Z" fill="#9F1F24"/>
<path d="M186.659 16.6028C186.896 17.2701 187.077 18.1674 187.099 18.7657C188.263 17.4656 190.217 16.5107 191.967 16.5107C194.881 16.5107 196.157 18.2595 196.157 21.4923V30.3165H194.734V21.803C194.734 19.7896 194.249 17.7533 191.64 17.7533C190.036 17.7533 188.195 18.6276 187.145 19.8817V30.3165H185.721V19.3294C185.721 18.5471 185.609 17.5807 185.371 16.8214L186.648 16.6028H186.659Z" fill="#9F1F24"/>
<path d="M205.949 29.2124V30.3284L205.046 30.3974C203.002 30.5585 201.816 29.7761 201.816 27.2681V18.0067H199.466V16.8217H201.816V13.4738L203.239 13.1401V16.8102H206.401V17.9952H203.239V26.9344C203.239 28.7062 203.747 29.2124 205.238 29.2124H205.961H205.949Z" fill="#9F1F24"/>
<path d="M213.652 30.3051H211.879V28.1997H213.652V30.3051Z" fill="#9F1F24"/>
<path d="M220.191 16.7524V29.5803C220.191 32.7557 219.333 34.769 216.814 36L215.956 35.0221C218.215 33.8371 218.768 32.1574 218.768 29.3617V16.7524H220.191ZM220.327 13.7612H218.633V12.1045H220.327V13.7612Z" fill="#9F1F24"/>
<path d="M231.869 16.3958C234.783 16.3958 236.941 18.3861 236.941 23.0801C236.941 27.0378 235.642 30.5927 231.429 30.5927C229.712 30.5927 228.052 29.7644 227.149 28.6714V35.7584H225.748V19.3295C225.748 18.5472 225.635 17.5808 225.398 16.8215L226.674 16.6029C226.911 17.1896 227.092 18.2596 227.115 19.0649C227.691 18.0755 229.159 16.3843 231.836 16.3843H231.858L231.869 16.3958ZM227.103 25.6687C227.103 26.2094 227.126 26.8997 227.194 27.3024C227.826 28.1997 229.238 29.3387 231.271 29.3387C234.207 29.3387 235.484 27.0608 235.484 23.1491C235.484 20.0428 234.365 17.6728 231.598 17.6728C228.831 17.6728 227.6 19.6401 227.194 20.5835C227.149 20.9632 227.103 21.6305 227.103 22.1482V25.6572V25.6687Z" fill="#9F1F24"/>
<path d="M240.538 18.5412V15.9205H241.826C241.93 15.9205 242.042 15.9512 242.164 16.0128C242.285 16.072 242.389 16.1643 242.474 16.2898C242.561 16.4129 242.605 16.5691 242.605 16.7585C242.605 16.9503 242.56 17.1136 242.47 17.2486C242.381 17.3812 242.272 17.4818 242.143 17.5504C242.017 17.6191 241.897 17.6534 241.785 17.6534H240.855V17.2273H241.613C241.688 17.2273 241.77 17.1882 241.857 17.1101C241.947 17.032 241.992 16.9148 241.992 16.7585C241.992 16.5975 241.947 16.4886 241.857 16.4318C241.77 16.375 241.693 16.3466 241.626 16.3466H241.096V18.5412H240.538ZM242.074 17.3054L242.708 18.5412H242.095L241.475 17.3054H242.074ZM241.502 20.1037C241.121 20.1037 240.764 20.0303 240.431 19.8835C240.098 19.7367 239.805 19.5331 239.553 19.2727C239.3 19.0123 239.103 18.7105 238.96 18.3672C238.818 18.0239 238.747 17.6558 238.747 17.2628C238.747 16.8698 238.818 16.5017 238.96 16.1584C239.103 15.8151 239.3 15.5133 239.553 15.2528C239.805 14.9924 240.098 14.7888 240.431 14.642C240.764 14.4953 241.121 14.4219 241.502 14.4219C241.884 14.4219 242.241 14.4953 242.574 14.642C242.907 14.7888 243.199 14.9924 243.452 15.2528C243.705 15.5133 243.902 15.8151 244.044 16.1584C244.187 16.5017 244.258 16.8698 244.258 17.2628C244.258 17.6558 244.187 18.0239 244.044 18.3672C243.902 18.7105 243.705 19.0123 243.452 19.2727C243.199 19.5331 242.907 19.7367 242.574 19.8835C242.241 20.0303 241.884 20.1037 241.502 20.1037ZM241.502 19.4219C241.888 19.4219 242.24 19.3248 242.556 19.1307C242.873 18.9366 243.126 18.6761 243.314 18.3494C243.502 18.0227 243.597 17.6605 243.597 17.2628C243.597 16.8651 243.502 16.5028 243.314 16.1761C243.126 15.8494 242.873 15.589 242.556 15.3949C242.24 15.2008 241.888 15.1037 241.502 15.1037C241.117 15.1037 240.765 15.2008 240.448 15.3949C240.131 15.589 239.879 15.8494 239.691 16.1761C239.502 16.5028 239.408 16.8651 239.408 17.2628C239.408 17.6605 239.502 18.0227 239.691 18.3494C239.879 18.6761 240.131 18.9366 240.448 19.1307C240.765 19.3248 241.117 19.4219 241.502 19.4219Z" fill="#231815"/>
</g>
<path d="M30.1631 2.10737H27.4503C26.9619 2.10737 26.5335 2.12947 26.2104 2.14421C26.1127 2.15158 26.0827 2.1 26.0676 1.99684C26.0451 1.84947 26.015 1.46632 26 1.25263C26.3382 1.28947 26.7364 1.30421 27.4428 1.30421H30.1255C30.351 1.30421 30.4336 1.28947 30.5388 1.23053C30.5764 1.20842 30.614 1.20105 30.6515 1.20105C30.6966 1.20105 30.7417 1.21579 30.7943 1.23789C30.9972 1.36316 31.2001 1.54737 31.3429 1.72421C31.3805 1.76842 31.3955 1.80526 31.3955 1.84947C31.3955 1.91579 31.3579 1.97474 31.2903 2.03368C31.2227 2.1 31.1851 2.17368 31.1174 2.32105C30.7492 3.19053 30.2908 4.00105 29.6596 4.71579C29.0134 5.43789 28.2844 6.04947 27.5255 6.46947C27.4578 6.51368 27.3902 6.53579 27.3226 6.53579C27.2625 6.53579 27.1948 6.51368 27.1347 6.45474C26.9619 6.29263 26.7139 6.16 26.4358 6.04947C27.533 5.50421 28.2018 4.99579 28.8931 4.20737C29.4793 3.55158 29.8625 2.92526 30.1631 2.10737Z" fill="#A12125"/>
<path d="M34.251 3.22737V1.78316C34.251 1.27474 34.2285 0.994737 34.1684 0.707368C34.484 0.744211 34.8823 0.788421 35.1002 0.862105C35.1904 0.884211 35.2279 0.928421 35.2279 0.98C35.2279 1.01684 35.2129 1.05368 35.1979 1.09053C35.1302 1.23053 35.1152 1.41474 35.1152 1.79053V3.27895C35.1152 3.66211 35.1302 3.94947 35.1378 4.20737C35.1378 4.3179 35.0927 4.35474 34.9724 4.35474H34.3713C34.2661 4.35474 34.221 4.3179 34.2285 4.22947C34.2285 3.97158 34.251 3.54421 34.251 3.22737ZM37.7904 1.79053V3.16105C37.7904 4.25158 37.6251 4.98105 37.1817 5.56316C36.8135 6.04211 36.1597 6.49158 35.5285 6.72C35.4684 6.74211 35.4158 6.75684 35.3707 6.75684C35.3106 6.75684 35.258 6.73474 35.1904 6.66842C35.01 6.49158 34.8146 6.35158 34.5516 6.21895C35.3557 5.97579 35.9869 5.62947 36.3852 5.14316C36.7309 4.72316 36.8887 4.11158 36.8887 3.17579V1.78316C36.8887 1.14947 36.8736 0.913684 36.806 0.582105C37.1667 0.611579 37.5274 0.663158 37.7829 0.744211C37.8581 0.766316 37.8881 0.810526 37.8881 0.869473C37.8881 0.906316 37.8806 0.950526 37.8581 0.987369C37.7904 1.14211 37.7904 1.33368 37.7904 1.79053Z" fill="#A12125"/>
<path d="M44.516 4.11895H41.8107C41.0668 4.11895 40.7812 4.20737 40.7061 4.20737C40.6159 4.20737 40.5558 4.16316 40.5332 4.05263C40.4957 3.88316 40.4506 3.53684 40.4205 3.16105C40.909 3.23474 41.2847 3.24947 42.0437 3.24947H44.4634C45.0345 3.24947 45.6131 3.23474 46.1917 3.22737C46.3045 3.22 46.327 3.24211 46.327 3.33053C46.342 3.55158 46.342 3.80211 46.327 4.02316C46.327 4.11158 46.297 4.14105 46.1917 4.13368C45.6282 4.12632 45.0721 4.11895 44.516 4.11895Z" fill="#A12125"/>
<path d="M51.5121 1.57684H50.0242C49.686 1.57684 49.3103 1.58421 48.9947 1.60632C48.9196 1.60632 48.897 1.56211 48.8895 1.44421C48.8669 1.28947 48.8519 0.965263 48.8519 0.736842C49.3103 0.781053 49.5358 0.788421 50.0843 0.788421H51.4369C51.9254 0.788421 52.3237 0.766315 52.6167 0.751579C52.6844 0.751579 52.7069 0.788421 52.7069 0.869473C52.7219 1.05368 52.7219 1.26 52.7069 1.44421C52.7069 1.56947 52.6844 1.59895 52.5717 1.59158C52.3237 1.59158 51.9705 1.57684 51.5121 1.57684ZM52.0832 3.15368L49.5207 3.16105C49.145 3.16105 48.7693 3.16842 48.3935 3.19053C48.3259 3.19053 48.2958 3.14632 48.2808 3.05053C48.2357 2.86632 48.2207 2.59368 48.1982 2.30632C48.6265 2.35053 49.0849 2.36526 49.5808 2.36526H52.1583C52.2861 2.36526 52.4364 2.35053 52.5566 2.28421C52.5942 2.25474 52.6243 2.24 52.6543 2.24C52.6919 2.24 52.7295 2.26211 52.767 2.29158C52.9474 2.43158 53.1503 2.61579 53.2705 2.74842C53.3231 2.8 53.3457 2.85158 53.3457 2.90316C53.3457 2.94737 53.3231 2.99895 53.263 3.04316C53.1428 3.13895 53.0902 3.22 53.0075 3.38947C52.256 4.95895 51.3919 5.88 49.9415 6.64632C49.8814 6.67579 49.8363 6.69789 49.7912 6.69789C49.7386 6.69789 49.686 6.66842 49.6259 6.60947C49.423 6.43263 49.1826 6.32211 48.9271 6.22632C50.3173 5.59263 51.5421 4.57579 52.0832 3.15368Z" fill="#A12125"/>
<path d="M55.3671 1.80526C55.5324 1.60632 55.7503 1.37789 55.8931 1.23053C55.9232 1.19368 55.9607 1.17158 55.9983 1.17158C56.0284 1.17158 56.0584 1.18632 56.096 1.20842C56.4792 1.40737 57.103 1.85684 57.5313 2.25474C57.5764 2.29895 57.5989 2.32842 57.5989 2.35789C57.5989 2.38737 57.5839 2.41684 57.5538 2.45368C57.4411 2.60105 57.1931 2.89579 57.0879 3.00632C57.0504 3.04316 57.0278 3.06526 56.9978 3.06526C56.9677 3.06526 56.9376 3.04316 56.9001 3.00632C56.4492 2.54947 55.9081 2.12947 55.3671 1.80526ZM55.5324 5.48211C55.9157 5.37895 56.1486 5.31263 56.5469 5.11368C57.4637 4.64947 57.9521 4.34 58.7111 3.74316C59.6279 3.01368 60.1313 2.54211 60.7701 1.73895C60.8152 2.10737 60.8828 2.35789 60.9805 2.60105C61.003 2.65263 61.0181 2.69684 61.0181 2.74105C61.0181 2.80737 60.9805 2.86632 60.8978 2.96211C60.4996 3.41895 59.8533 4.00842 59.1695 4.52421C58.5458 5.00316 57.9145 5.41579 56.9001 5.96842C56.5619 6.16737 56.4642 6.24105 56.3966 6.30737C56.3515 6.35158 56.3064 6.38105 56.2613 6.38105C56.2238 6.38105 56.1787 6.35158 56.1336 6.3C55.9457 6.09368 55.7128 5.79158 55.5324 5.48211Z" fill="#A12125"/>
<path d="M64.3245 1.27474H66.391C66.6615 1.27474 66.7968 1.26737 66.9095 1.20842C66.9396 1.18632 66.9621 1.17895 66.9922 1.17895C67.0373 1.17895 67.0748 1.20842 67.1199 1.23789C67.2928 1.37053 67.4656 1.56211 67.6084 1.75368C67.6309 1.79053 67.646 1.82 67.646 1.84947C67.646 1.89368 67.6159 1.94526 67.5483 1.99684C67.4506 2.07789 67.3529 2.18842 67.2702 2.32105C66.9621 2.83684 66.6691 3.24947 66.3084 3.69895C67.0298 4.22211 67.6986 4.79684 68.3899 5.48211C68.4275 5.51895 68.45 5.55579 68.45 5.58526C68.45 5.61474 68.435 5.65158 68.3974 5.69579C68.2546 5.86526 68.0818 6.04211 67.8939 6.19684C67.8639 6.22632 67.8338 6.24105 67.8038 6.24105C67.7662 6.24105 67.7361 6.21895 67.6986 6.18211C67.0673 5.46 66.4211 4.8779 65.7448 4.35474C64.8956 5.22421 64.0389 5.85053 63.2198 6.3C63.1522 6.32947 63.0996 6.35895 63.047 6.35895C63.0019 6.35895 62.9568 6.33684 62.9193 6.29263C62.7539 6.09368 62.536 5.94632 62.288 5.81368C63.4603 5.23158 64.1592 4.70842 64.9332 3.93474C65.4742 3.38211 65.8875 2.85895 66.3459 2.08526L64.4072 2.09263C64.0164 2.09263 63.6256 2.10737 63.2198 2.13684C63.1597 2.14421 63.1372 2.09263 63.1222 2.01158C63.0846 1.85684 63.0545 1.50316 63.0545 1.24526C63.4603 1.27474 63.836 1.27474 64.3245 1.27474Z" fill="#A12125"/>
<path d="M73.3571 1.87895H73.327C73.1542 3.13158 72.8385 4.28105 72.3877 5.05474C72.0645 5.60737 71.6738 5.90211 71.1102 5.90211C70.4489 5.90211 69.7801 5.20947 69.7801 4.00842C69.7801 3.30105 70.0882 2.62316 70.6292 2.09263C71.2605 1.47368 72.057 1.14947 73.0715 1.14947C74.875 1.14947 75.9346 2.24 75.9346 3.70632C75.9346 5.07684 75.1455 5.93895 73.6201 6.38842C73.4623 6.43263 73.3946 6.40316 73.2969 6.25579C73.2143 6.13053 73.0565 5.96105 72.7709 5.79158C74.0409 5.49684 75.0403 4.98105 75.0403 3.58842C75.0403 2.71158 74.364 1.87895 73.3571 1.87895ZM72.4553 1.92316C71.9293 2.02632 71.5085 2.23263 71.1703 2.59368C70.8096 2.99158 70.5842 3.48526 70.5842 3.95684C70.5842 4.63474 70.8622 5.01053 71.0952 5.01053C71.2905 5.01053 71.4559 4.91474 71.6587 4.56105C71.9894 3.96421 72.3276 2.90316 72.4553 1.92316Z" fill="#A12125"/>
<path d="M81.4578 2.20316H78.745C78.2566 2.20316 77.8282 2.22526 77.5051 2.24C77.4074 2.24737 77.3774 2.19579 77.3623 2.09263C77.3398 1.94526 77.3097 1.56211 77.2947 1.34842C77.6329 1.38526 78.0311 1.4 78.7375 1.4H81.4202C81.6457 1.4 81.7283 1.38526 81.8335 1.32632C81.8786 1.29684 81.9237 1.28211 81.9613 1.28211C82.0064 1.28211 82.0515 1.29684 82.089 1.33368C82.2844 1.48842 82.4723 1.66526 82.6 1.84211C82.6376 1.89368 82.6601 1.93789 82.6601 1.98947C82.6601 2.03368 82.6376 2.07789 82.585 2.12947C82.5174 2.19579 82.4798 2.26947 82.4122 2.41684C82.0439 3.28632 81.5856 4.09684 80.9543 4.81158C80.3081 5.53368 79.5791 6.14526 78.8202 6.56526C78.7525 6.60947 78.6849 6.63158 78.6173 6.63158C78.5572 6.63158 78.4895 6.60947 78.4294 6.55053C78.2566 6.38842 78.0086 6.25579 77.7306 6.14526C78.8277 5.6 79.4965 5.09158 80.1878 4.30316C80.774 3.64737 81.1572 3.02105 81.4578 2.20316ZM83.126 0C83.5769 0 83.9376 0.346316 83.9376 0.788421C83.9376 1.23053 83.5769 1.57684 83.126 1.57684C82.6752 1.57684 82.3145 1.23053 82.3145 0.788421C82.3145 0.331579 82.6752 0 83.126 0ZM83.126 0.353684C82.8705 0.353684 82.6827 0.537895 82.6827 0.788421C82.6827 1.03895 82.8705 1.22316 83.126 1.22316C83.3815 1.22316 83.5694 1.03895 83.5694 0.788421C83.5694 0.537895 83.3815 0.353684 83.126 0.353684Z" fill="#A12125"/>
<path d="M88.7316 5.53368H85.816V5.96842C85.816 6.09368 85.7859 6.10842 85.6507 6.11579C85.4628 6.12316 85.2449 6.12316 85.057 6.11579C84.9293 6.10842 84.8917 6.09368 84.8992 6.00526C84.9067 5.62211 84.9217 5.09895 84.9217 4.53895V2.73368C84.9217 2.33579 84.9293 1.93789 84.9067 1.51053C84.9067 1.43684 84.9368 1.40737 84.9894 1.40737C85.3876 1.42947 85.831 1.42947 86.3345 1.42947H88.123C88.6114 1.42947 89.1825 1.42947 89.5357 1.41474C89.6184 1.41474 89.6409 1.45158 89.6334 1.56211C89.6334 1.92316 89.6259 2.32105 89.6259 2.75579V4.51684C89.6259 5.15789 89.6484 5.51895 89.6635 5.91684C89.6635 6.02 89.6259 6.04211 89.5207 6.04211C89.2952 6.04947 89.0548 6.04947 88.8293 6.04211C88.7392 6.04211 88.7316 6.02737 88.7316 5.92421V5.53368ZM88.7316 4.75263V2.21053H85.8085V4.75263H88.7316Z" fill="#A12125"/>
<path d="M96.1411 2.10737H93.4283C92.9398 2.10737 92.5115 2.12947 92.1884 2.14421C92.0907 2.15158 92.0606 2.1 92.0456 1.99684C92.023 1.84947 91.993 1.46632 91.978 1.25263C92.3161 1.28947 92.7144 1.30421 93.4208 1.30421H96.1035C96.3289 1.30421 96.4116 1.28947 96.5168 1.23053C96.5544 1.20842 96.5919 1.20105 96.6295 1.20105C96.6746 1.20105 96.7197 1.21579 96.7723 1.23789C96.9752 1.36316 97.1781 1.54737 97.3208 1.72421C97.3584 1.76842 97.3735 1.80526 97.3735 1.84947C97.3735 1.91579 97.3359 1.97474 97.2682 2.03368C97.2006 2.1 97.163 2.17368 97.0954 2.32105C96.7272 3.19053 96.2688 4.00105 95.6376 4.71579C94.9913 5.43789 94.2624 6.04947 93.5034 6.46947C93.4358 6.51368 93.3682 6.53579 93.3005 6.53579C93.2404 6.53579 93.1728 6.51368 93.1127 6.45474C92.9398 6.29263 92.6918 6.16 92.4138 6.04947C93.5109 5.50421 94.1797 4.99579 94.8711 4.20737C95.4572 3.55158 95.8405 2.92526 96.1411 2.10737Z" fill="#A12125"/>
<path d="M102.151 3.63263V5.49684H102.947C103.33 5.49684 103.751 5.48947 104.157 5.46737C104.225 5.46737 104.255 5.51158 104.262 5.60737C104.27 5.76211 104.27 5.92421 104.262 6.07895C104.255 6.17474 104.225 6.21895 104.135 6.21158C103.744 6.21158 103.3 6.19684 102.955 6.19684H100.595C100.144 6.19684 99.8061 6.21158 99.4905 6.22632C99.4003 6.22632 99.3628 6.18211 99.3477 6.07158C99.3252 5.95368 99.3102 5.77684 99.3102 5.47474C99.746 5.50421 100.114 5.50421 100.595 5.50421H101.347V3.64H100.933C100.625 3.64 100.355 3.64 100.009 3.64737C99.9414 3.65474 99.9038 3.61053 99.8888 3.5C99.8662 3.37474 99.8587 3.17579 99.8437 2.91053C100.167 2.94 100.565 2.94 100.888 2.94H102.556C102.895 2.94 103.24 2.92526 103.571 2.92526C103.661 2.91789 103.684 2.96211 103.691 3.05053C103.699 3.19789 103.699 3.36 103.691 3.50737C103.684 3.62526 103.654 3.65474 103.541 3.64737C103.248 3.64737 102.872 3.63263 102.564 3.63263H102.151Z" fill="#A12125"/>
<path d="M106.757 2.92526C107.013 2.78526 107.193 2.70421 107.351 2.63053C107.433 2.59368 107.486 2.60105 107.546 2.68211C107.809 3.00632 108.05 3.38211 108.192 3.77263C108.207 3.82421 108.222 3.85368 108.222 3.88316C108.222 3.92737 108.192 3.94947 108.132 3.98632C107.952 4.08947 107.824 4.14842 107.651 4.21474C107.546 4.25158 107.501 4.21474 107.464 4.11158C107.291 3.68421 107.058 3.27895 106.757 2.92526ZM108.268 2.54947C108.568 2.40947 108.741 2.32842 108.869 2.27684C108.951 2.24 109.004 2.24737 109.064 2.33579C109.267 2.59368 109.523 3.05789 109.643 3.41158C109.68 3.52211 109.665 3.55895 109.568 3.61053C109.425 3.69158 109.26 3.76526 109.049 3.83895C108.966 3.86842 108.936 3.83158 108.899 3.72842C108.726 3.29368 108.553 2.94 108.268 2.54947ZM110.635 2.37263C110.95 2.46842 111.288 2.60105 111.476 2.72632C111.536 2.77053 111.574 2.80737 111.574 2.85158C111.574 2.89579 111.551 2.93263 111.491 2.98421C111.379 3.08 111.326 3.22737 111.266 3.36C110.943 4.11158 110.552 4.78211 110.131 5.32C109.635 5.93895 109.222 6.32947 108.583 6.74211C108.523 6.78632 108.463 6.82316 108.403 6.82316C108.365 6.82316 108.32 6.80842 108.283 6.77158C108.095 6.62421 107.922 6.54316 107.644 6.46211C108.546 5.88 108.996 5.50421 109.447 4.92947C109.823 4.45053 110.244 3.72842 110.462 3.15368C110.56 2.88105 110.605 2.71895 110.635 2.37263Z" fill="#A12125"/>
<path d="M113.49 3.19053C113.678 2.89579 113.798 2.68211 113.888 2.56421C113.926 2.51263 113.964 2.47579 114.031 2.49053C114.595 2.67474 115.046 2.91053 115.474 3.21263C115.527 3.24947 115.557 3.27895 115.557 3.32316C115.557 3.34526 115.542 3.37474 115.527 3.40421C115.444 3.60316 115.316 3.79474 115.196 3.96421C115.158 4.00842 115.128 4.03789 115.098 4.03789C115.068 4.03789 115.046 4.02316 115.008 3.99368C114.527 3.64737 114.039 3.40421 113.49 3.19053ZM114.399 1.45895C114.527 1.26737 114.67 1.06105 114.798 0.869473C114.85 0.781053 114.895 0.766316 114.986 0.810526C115.467 1.00211 115.985 1.27474 116.398 1.62842C116.443 1.65789 116.458 1.69474 116.458 1.72421C116.458 1.75368 116.451 1.78316 116.428 1.82C116.323 2.00421 116.173 2.24 116.045 2.37263C116.023 2.40947 115.993 2.41684 115.97 2.41684C115.932 2.41684 115.895 2.39474 115.857 2.36526C115.467 2.04842 114.88 1.67263 114.399 1.45895ZM114.084 5.65895C114.399 5.6 114.663 5.51895 115.106 5.2979C115.82 4.92947 116.436 4.58316 117.165 4.02316C117.766 3.57368 118.57 2.86632 119.329 1.96737C119.374 2.29158 119.434 2.47579 119.547 2.79263C119.57 2.84421 119.585 2.88842 119.585 2.93263C119.585 2.99158 119.562 3.04316 119.502 3.10211C118.803 3.83895 118.33 4.24421 117.593 4.80421C116.939 5.29053 116.241 5.71053 115.346 6.18947C115.166 6.28526 114.986 6.36632 114.91 6.44C114.865 6.48421 114.828 6.49895 114.79 6.49895C114.738 6.49895 114.685 6.46947 114.64 6.41053C114.482 6.25579 114.279 5.96842 114.084 5.65895Z" fill="#A12125"/>
<path d="M124.897 4.07474V3.33053H123.162C122.808 3.33053 122.448 3.36737 122.109 3.37474C122.042 3.38211 122.004 3.32316 121.997 3.20526C121.982 3.02105 121.974 2.88105 121.959 2.60105C122.388 2.63789 122.62 2.63789 123.162 2.63789H124.469C124.837 2.63789 125.251 2.63789 125.581 2.62316C125.671 2.62316 125.701 2.66737 125.694 2.74105C125.694 3.07263 125.679 3.38211 125.679 3.70632V5.40842C125.679 5.74 125.694 6.07895 125.709 6.45474C125.709 6.56526 125.671 6.58737 125.544 6.59474C125.423 6.60211 125.183 6.60947 125.033 6.60947C124.912 6.60947 124.897 6.58737 124.897 6.49895V6.2779H123.116C122.763 6.2779 122.425 6.29263 122.079 6.31474C122.004 6.31474 121.982 6.27789 121.974 6.16737C121.952 6.02 121.937 5.80632 121.937 5.55579C122.342 5.58526 122.711 5.58526 123.146 5.58526H124.897V4.76H123.304C122.966 4.76 122.598 4.77474 122.275 4.78947C122.185 4.78947 122.155 4.74526 122.147 4.62737C122.125 4.48 122.117 4.28842 122.117 4.03789C122.523 4.06737 122.801 4.07474 123.289 4.07474H124.897Z" fill="#A12125"/>
<path d="M131.833 2.39474H132.84C133.261 2.39474 133.757 2.38737 134.148 2.38C134.253 2.37263 134.283 2.38737 134.291 2.51263C134.306 2.69684 134.306 2.90316 134.291 3.08737C134.291 3.20526 134.261 3.22737 134.148 3.22737C133.877 3.22737 133.306 3.19789 132.885 3.19789H131.818C131.743 4.26632 131.63 4.68632 131.307 5.20947C130.954 5.79158 130.353 6.32947 129.707 6.66105C129.647 6.6979 129.594 6.71263 129.534 6.71263C129.474 6.71263 129.421 6.69053 129.369 6.63895C129.181 6.46947 129 6.34421 128.737 6.23368C129.587 5.83579 130.082 5.44526 130.443 4.9C130.736 4.45789 130.864 3.97895 130.902 3.19789H129.451C129.083 3.19789 128.655 3.22737 128.369 3.23474C128.271 3.24211 128.249 3.20526 128.234 3.09474C128.211 2.94737 128.196 2.63789 128.181 2.36526C128.67 2.40211 129.091 2.4021 129.459 2.4021H130.939C130.939 2.03368 130.939 1.63579 130.932 1.31158C130.924 1.07579 130.917 0.862105 130.841 0.567369C131.217 0.582105 131.6 0.611579 131.841 0.670526C131.924 0.692631 131.954 0.722105 131.954 0.773684C131.954 0.817895 131.931 0.869474 131.901 0.935789C131.871 1.00211 131.841 1.17895 131.841 1.38526C131.841 1.73158 131.841 1.97474 131.833 2.39474Z" fill="#A12125"/>
<path d="M139.062 2.38V4.84105C139.43 4.64947 139.776 4.42105 140.129 4.15579C140.58 3.81684 141.023 3.42632 141.444 2.90316C141.474 3.16105 141.549 3.40421 141.677 3.64737C141.7 3.69895 141.722 3.73579 141.722 3.77263C141.722 3.82421 141.692 3.87579 141.61 3.95684C141.234 4.33263 140.888 4.63474 140.497 4.92211C140.107 5.21684 139.686 5.50421 139.16 5.80632C139.025 5.89474 139.01 5.90947 138.942 5.96105C138.897 5.99789 138.844 6.02 138.792 6.02C138.747 6.02 138.694 5.99789 138.634 5.96105C138.468 5.85053 138.296 5.65895 138.183 5.51158C138.138 5.44526 138.115 5.40105 138.115 5.35684C138.115 5.32 138.123 5.29053 138.145 5.24632C138.198 5.15053 138.19 5.06211 138.19 4.68632V2.38C138.19 1.73895 138.19 1.43684 138.115 1.09789C138.416 1.13474 138.829 1.18632 139.055 1.25263C139.152 1.27474 139.19 1.31895 139.19 1.37789C139.19 1.42211 139.167 1.48842 139.13 1.56211C139.062 1.70211 139.062 1.84947 139.062 2.38ZM136.44 1.56211C136.868 1.61368 137.214 1.66526 137.394 1.72421C137.522 1.76105 137.537 1.84947 137.492 1.95263C137.409 2.11474 137.401 2.27684 137.401 2.45368C137.386 3.37474 137.244 4.07474 136.996 4.62C136.8 5.06947 136.47 5.54842 135.929 6.00526C135.853 6.06421 135.793 6.10105 135.733 6.10105C135.688 6.10105 135.643 6.07895 135.59 6.04211C135.403 5.91684 135.222 5.82842 134.952 5.73263C135.538 5.29789 135.936 4.84842 136.199 4.26632C136.409 3.76526 136.507 3.36 136.515 2.18105C136.515 1.90105 136.5 1.78316 136.44 1.56211Z" fill="#A12125"/>
<path d="M149.079 6.08632C148.906 6.24842 148.763 6.44737 148.658 6.66105C148.598 6.78632 148.576 6.83789 148.523 6.83789C148.485 6.83789 148.44 6.80842 148.35 6.74947C146.915 5.84316 146.043 4.58316 145.698 3.22737C145.299 4.78211 144.352 5.99053 142.977 6.75684C142.895 6.80105 142.842 6.83053 142.804 6.83053C142.752 6.83053 142.722 6.77895 142.654 6.65368C142.526 6.44737 142.376 6.29263 142.218 6.16C144.195 5.26105 145.156 3.41895 145.141 1.35579C145.134 1.03158 145.126 0.722105 145.089 0.397895C145.382 0.412632 145.743 0.449474 146.013 0.486316C146.111 0.501053 146.156 0.545263 146.156 0.604211C146.156 0.685263 146.118 0.729474 146.081 0.788421C146.036 0.862105 146.021 1.03895 146.021 1.27474C146.013 1.36316 146.013 1.45158 146.013 1.54C146.336 3.69895 147.283 5.12842 149.079 6.08632Z" fill="#A12125"/>
<path d="M154.723 5.86526L154.715 4.57579C154.708 4.22947 154.723 3.72105 154.738 3.16105C154.339 4.06737 153.61 4.96632 152.799 5.59263C152.716 5.65895 152.671 5.68842 152.641 5.68842C152.596 5.68842 152.566 5.64421 152.491 5.54105C152.363 5.37158 152.228 5.23158 152.092 5.13579C153.017 4.52421 153.866 3.58105 154.414 2.38737H153.866C153.197 2.38737 152.964 2.4021 152.919 2.4021C152.844 2.4021 152.836 2.39474 152.836 2.32105V1.73895C152.836 1.66526 152.844 1.65789 152.919 1.65789C152.964 1.65789 153.197 1.67263 153.866 1.67263H154.693V1.26737C154.693 0.795789 154.685 0.56 154.632 0.228421C154.91 0.235789 155.166 0.250526 155.436 0.28C155.512 0.287368 155.557 0.316842 155.557 0.353684C155.557 0.42 155.527 0.456842 155.504 0.508421C155.467 0.596842 155.459 0.751579 155.459 1.25263V1.67263C156.12 1.67263 156.346 1.65789 156.383 1.65789C156.466 1.65789 156.473 1.66526 156.473 1.73895V2.32105C156.473 2.39474 156.466 2.4021 156.383 2.4021C156.346 2.4021 156.12 2.38737 155.467 2.38737L155.489 4.53895C155.497 5.05474 155.512 5.63684 155.512 6.00526C155.512 6.38105 155.459 6.57263 155.256 6.72C155.061 6.85263 154.708 6.89684 154.121 6.89684C153.881 6.90421 153.881 6.90421 153.821 6.68316C153.753 6.44 153.678 6.25579 153.573 6.12316C153.851 6.15263 154.061 6.15263 154.332 6.14526C154.655 6.14526 154.73 6.09368 154.723 5.86526ZM152.603 1.76842V2.31368C152.603 2.38737 152.596 2.39474 152.521 2.39474C152.476 2.39474 152.28 2.38 151.724 2.38C151.95 2.85895 152.371 3.33789 152.784 3.71368C152.671 3.82421 152.536 3.97158 152.438 4.14105C152.386 4.22947 152.355 4.27368 152.325 4.27368C152.288 4.27368 152.258 4.22947 152.19 4.14842C151.942 3.82421 151.754 3.50737 151.619 3.21263C151.627 5.21684 151.672 6.74211 151.672 6.89684C151.672 6.97053 151.664 6.97789 151.589 6.97789H150.958C150.883 6.97789 150.875 6.97053 150.875 6.89684C150.875 6.74211 150.913 5.31263 150.928 3.50737C150.717 4.2 150.402 4.81895 149.996 5.39368C149.943 5.46 149.906 5.50421 149.876 5.50421C149.846 5.50421 149.816 5.46737 149.793 5.38632C149.718 5.15053 149.628 4.92947 149.53 4.77474C150.079 4.13368 150.484 3.38947 150.815 2.38H150.597C150.011 2.38 149.823 2.39474 149.778 2.39474C149.695 2.39474 149.688 2.38737 149.688 2.31368V1.76842C149.688 1.68737 149.695 1.68 149.778 1.68C149.823 1.68 150.011 1.69474 150.597 1.69474H150.905V1.27474C150.905 0.795789 150.898 0.567369 150.845 0.228421C151.131 0.235789 151.356 0.250526 151.619 0.28C151.694 0.287368 151.739 0.316842 151.739 0.353684C151.739 0.42 151.709 0.46421 151.687 0.515789C151.649 0.604211 151.642 0.758947 151.642 1.26V1.69474H151.694C152.28 1.69474 152.476 1.68 152.521 1.68C152.596 1.68 152.603 1.68737 152.603 1.76842Z" fill="#A12125"/>
<path d="M158.067 4.73789H161.328C161.32 4.62 161.305 4.53158 161.283 4.40632C161.561 4.41368 161.846 4.42105 162.072 4.4579C162.139 4.46526 162.177 4.50211 162.177 4.53895C162.177 4.57579 162.162 4.60526 162.139 4.64947C162.124 4.67895 162.117 4.70105 162.109 4.73789H162.733C163.402 4.73789 163.627 4.72316 163.672 4.72316C163.748 4.72316 163.748 4.73053 163.748 4.80421V5.29053C163.748 5.37158 163.748 5.37895 163.672 5.37895C163.627 5.37895 163.402 5.36421 162.733 5.36421H162.109V5.46737C162.109 5.76211 162.117 5.99053 162.117 6.24842C162.117 6.52842 162.027 6.69789 161.839 6.79368C161.681 6.87474 161.441 6.92632 160.824 6.92632C160.599 6.92632 160.591 6.92632 160.546 6.75684C160.494 6.52105 160.411 6.31474 160.336 6.20421C160.607 6.22632 160.87 6.23368 161.02 6.23368C161.238 6.23368 161.328 6.16737 161.328 5.99789V5.36421H158.067C157.398 5.36421 157.172 5.37895 157.127 5.37895C157.052 5.37895 157.052 5.37158 157.052 5.29053V4.80421C157.052 4.73053 157.052 4.72316 157.127 4.72316C157.172 4.72316 157.398 4.73789 158.067 4.73789ZM161.719 4.28842H159.074C158.337 4.28842 158.074 4.30316 158.029 4.30316C157.946 4.30316 157.939 4.29579 157.939 4.22211C157.939 4.17053 157.954 3.98632 157.954 3.55895V2.58632C157.954 2.13684 157.939 1.95263 157.939 1.90105C157.939 1.82737 157.946 1.82 158.029 1.82C158.074 1.82 158.337 1.83474 159.074 1.83474H159.96V1.45158H158.179C157.503 1.45158 157.27 1.46632 157.225 1.46632C157.15 1.46632 157.142 1.45895 157.142 1.38526V0.906315C157.142 0.825263 157.15 0.817895 157.225 0.817895C157.27 0.817895 157.503 0.832631 158.179 0.832631H159.96C159.953 0.567369 159.945 0.390526 159.915 0.206316C160.178 0.213684 160.434 0.228421 160.689 0.257895C160.757 0.265263 160.787 0.287368 160.787 0.331579C160.787 0.390526 160.764 0.427368 160.749 0.478947C160.727 0.530526 160.712 0.618947 160.712 0.832631H162.62C163.304 0.832631 163.537 0.817895 163.582 0.817895C163.657 0.817895 163.665 0.825263 163.665 0.906315V1.38526C163.665 1.45895 163.657 1.46632 163.582 1.46632C163.537 1.46632 163.304 1.45158 162.62 1.45158H160.712V1.83474H161.719C162.455 1.83474 162.718 1.82 162.771 1.82C162.846 1.82 162.853 1.82737 162.853 1.90105C162.853 1.94526 162.838 2.13684 162.838 2.56421V3.55895C162.838 3.98632 162.853 4.17789 162.853 4.22211C162.853 4.29579 162.846 4.30316 162.771 4.30316C162.718 4.30316 162.455 4.28842 161.719 4.28842ZM162.094 3.7579V3.31579H160.712V3.7579H162.094ZM162.094 2.37263H160.712V2.8H162.094V2.37263ZM158.69 3.7579H159.96V3.31579H158.69V3.7579ZM158.69 2.8H159.96V2.37263H158.69V2.8ZM158.548 5.68105L159.051 5.44526C159.141 5.40105 159.156 5.40842 159.216 5.46C159.464 5.69579 159.72 5.98316 159.915 6.27053C159.96 6.33684 159.945 6.35895 159.855 6.40316L159.329 6.67579C159.239 6.72737 159.224 6.73474 159.179 6.66105C158.983 6.33684 158.75 6.04947 158.51 5.81368C158.45 5.74737 158.465 5.72526 158.548 5.68105Z" fill="#A12125"/>
<path d="M170.811 1.53263V4.49474C170.811 5.01053 170.841 5.6 170.841 5.96105C170.841 6.31474 170.804 6.49158 170.623 6.63895C170.443 6.78632 170.255 6.83789 169.474 6.83789C169.233 6.83789 169.226 6.8379 169.181 6.60211C169.136 6.38842 169.075 6.19684 168.993 6.04947C169.278 6.07895 169.526 6.08632 169.722 6.08632C169.962 6.08632 170.03 6.02 170.03 5.79895V3.20526H168.88C168.301 3.20526 168.114 3.22 168.069 3.22C167.986 3.22 167.978 3.21263 167.978 3.13895C167.978 3.08737 167.993 2.90316 167.993 2.44632V1.26C167.993 0.803158 167.978 0.618947 167.978 0.567369C167.978 0.493684 167.986 0.486316 168.069 0.486316C168.114 0.486316 168.301 0.501053 168.88 0.501053H169.925C170.503 0.501053 170.699 0.486316 170.744 0.486316C170.819 0.486316 170.826 0.493684 170.826 0.567369C170.826 0.611579 170.811 0.913684 170.811 1.53263ZM168.737 2.65263H170.03V2.12211H168.737V2.65263ZM170.03 1.08316H168.737V1.60632H170.03V1.08316ZM165.641 0.501053H166.641C167.114 0.501053 167.325 0.486316 167.37 0.486316C167.445 0.486316 167.452 0.493684 167.452 0.567369C167.452 0.611579 167.437 0.84 167.437 1.31895V2.39474C167.437 2.86632 167.452 3.09474 167.452 3.13895C167.452 3.21263 167.445 3.22 167.37 3.22C167.325 3.22 167.114 3.20526 166.641 3.20526H165.491V5.2979C165.491 6.3 165.506 6.79368 165.506 6.84526C165.506 6.91895 165.499 6.92632 165.423 6.92632H164.77C164.694 6.92632 164.687 6.91895 164.687 6.84526C164.687 6.79368 164.702 6.3 164.702 5.2979V2.12947C164.702 1.12737 164.687 0.618947 164.687 0.567369C164.687 0.493684 164.694 0.486316 164.77 0.486316C164.822 0.486316 165.1 0.501053 165.641 0.501053ZM166.693 2.65263V2.12211H165.491V2.65263H166.693ZM166.693 1.08316H165.491V1.60632H166.693V1.08316Z" fill="#A12125"/>
<path d="M175.628 1.87895H175.598C175.425 3.13158 175.11 4.28105 174.659 5.05474C174.336 5.60737 173.945 5.90211 173.381 5.90211C172.72 5.90211 172.051 5.20947 172.051 4.00842C172.051 3.30105 172.359 2.62316 172.9 2.09263C173.532 1.47368 174.328 1.14947 175.343 1.14947C177.146 1.14947 178.206 2.24 178.206 3.70632C178.206 5.07684 177.417 5.93895 175.891 6.38842C175.733 6.43263 175.666 6.40316 175.568 6.25579C175.485 6.13053 175.328 5.96105 175.042 5.79158C176.312 5.49684 177.311 4.98105 177.311 3.58842C177.311 2.71158 176.635 1.87895 175.628 1.87895ZM174.726 1.92316C174.2 2.02632 173.78 2.23263 173.441 2.59368C173.081 2.99158 172.855 3.48526 172.855 3.95684C172.855 4.63474 173.133 5.01053 173.366 5.01053C173.562 5.01053 173.727 4.91474 173.93 4.56105C174.261 3.96421 174.599 2.90316 174.726 1.92316Z" fill="#A12125"/>
<path d="M184.683 2.54211H184.263C184.06 2.82947 183.827 3.06526 183.564 3.26421C184.15 3.41895 184.743 3.59579 185.375 3.80947C185.412 3.82421 185.435 3.83895 185.435 3.86105C185.435 3.87579 185.42 3.90526 185.39 3.94211L185.089 4.33263C185.029 4.42105 185.006 4.42105 184.931 4.39158C184.255 4.12632 183.579 3.87579 182.88 3.66947C182.632 3.78737 182.369 3.88316 182.076 3.95684C182.316 3.96421 182.527 3.98632 182.76 4.00842C182.835 4.01579 182.872 4.05263 182.872 4.08947C182.872 4.16316 182.835 4.22211 182.827 4.28105C182.812 4.35474 182.797 4.44316 182.797 4.56842H184.743C185.412 4.56842 185.645 4.55368 185.69 4.55368C185.773 4.55368 185.78 4.56105 185.78 4.63474V5.11368C185.78 5.18737 185.773 5.19474 185.69 5.19474C185.645 5.19474 185.412 5.18 184.743 5.18H183.323C183.969 5.62947 184.736 5.90947 185.953 6.17474C185.833 6.30737 185.72 6.47684 185.638 6.66842C185.547 6.88211 185.532 6.87474 185.307 6.81579C184.225 6.49158 183.421 6.07895 182.782 5.46C182.79 6.20421 182.812 6.73474 182.812 6.88211C182.812 6.95579 182.805 6.96316 182.73 6.96316H182.113C182.038 6.96316 182.031 6.95579 182.031 6.88211C182.031 6.73474 182.061 6.23368 182.068 5.47474C181.384 6.08632 180.543 6.53579 179.618 6.82316C179.536 6.84526 179.483 6.86 179.446 6.86C179.378 6.86 179.348 6.81579 179.28 6.69053C179.19 6.52105 179.092 6.36632 178.965 6.24105C180.047 5.95368 180.858 5.65158 181.497 5.18H180.205C179.536 5.18 179.303 5.19474 179.258 5.19474C179.175 5.19474 179.168 5.18737 179.168 5.11368V4.63474C179.168 4.56105 179.175 4.55368 179.258 4.55368C179.303 4.55368 179.536 4.56842 180.205 4.56842H182.053C182.046 4.39895 182.038 4.21474 182.001 3.97895C181.407 4.12632 180.723 4.21474 179.927 4.26632C179.739 4.28105 179.716 4.27368 179.656 4.11158C179.581 3.91263 179.498 3.78737 179.408 3.67684C180.513 3.64 181.294 3.55158 181.888 3.40421C181.662 3.35263 181.422 3.30105 181.182 3.25684C181.129 3.30842 181.076 3.35263 181.031 3.38947C180.979 3.44105 180.964 3.44105 180.843 3.40421L180.415 3.27158C180.31 3.24211 180.317 3.19053 180.37 3.14632C180.498 3.03579 180.64 2.88842 180.768 2.76316L180.971 2.54211H180.317C179.634 2.54211 179.401 2.55684 179.355 2.55684C179.273 2.55684 179.265 2.54947 179.265 2.48316V2.03368C179.265 1.96 179.273 1.95263 179.355 1.95263C179.401 1.95263 179.634 1.96737 180.317 1.96737H181.422L181.46 1.90842C181.565 1.75368 181.655 1.58421 181.73 1.40737C182.001 1.44421 182.234 1.48842 182.459 1.54C182.512 1.55474 182.549 1.58421 182.549 1.63579C182.549 1.67263 182.504 1.70947 182.451 1.73895C182.406 1.76105 182.331 1.83474 182.241 1.96737H184.683C185.367 1.96737 185.6 1.95263 185.645 1.95263C185.72 1.95263 185.728 1.96 185.728 2.03368V2.48316C185.728 2.54947 185.72 2.55684 185.645 2.55684C185.6 2.55684 185.367 2.54211 184.683 2.54211ZM183.436 2.54211H181.82C181.738 2.65263 181.655 2.75579 181.572 2.84421C181.978 2.91053 182.376 2.99158 182.767 3.07263C183.03 2.92526 183.241 2.74842 183.436 2.54211ZM180.175 1.31895V1.70211C180.175 1.76842 180.167 1.77579 180.092 1.77579H179.491C179.408 1.77579 179.401 1.76842 179.401 1.70211C179.401 1.65053 179.416 1.59895 179.416 1.14211V1.02421C179.416 0.906316 179.401 0.84 179.401 0.795789C179.401 0.722105 179.408 0.714737 179.491 0.714737C179.536 0.714737 179.791 0.729474 180.505 0.729474H182.031C182.031 0.545263 182.016 0.368421 181.978 0.198947C182.249 0.198947 182.519 0.213684 182.782 0.235789C182.85 0.243158 182.895 0.272632 182.895 0.309474C182.895 0.361052 182.872 0.405263 182.85 0.456842C182.827 0.508421 182.82 0.596842 182.82 0.729474H184.45C185.157 0.729474 185.412 0.714737 185.465 0.714737C185.54 0.714737 185.548 0.722105 185.548 0.795789C185.548 0.84 185.532 0.906315 185.532 1.00211V1.14211C185.532 1.59895 185.548 1.65789 185.548 1.70211C185.548 1.76842 185.54 1.77579 185.465 1.77579H184.856C184.781 1.77579 184.774 1.76842 184.774 1.70211V1.31895H180.175Z" fill="#A12125"/>
<path d="M190.552 1.85684V1.37789C190.552 0.854737 190.537 0.574737 190.492 0.265263C190.778 0.272632 191.048 0.287368 191.311 0.309474C191.379 0.316842 191.431 0.353684 191.431 0.390526C191.431 0.442105 191.401 0.486316 191.386 0.537895C191.349 0.641053 191.334 0.817895 191.334 1.35579V1.85684H191.972C192.656 1.85684 192.889 1.84211 192.934 1.84211C193.017 1.84211 193.025 1.84947 193.025 1.92316V2.48316C193.025 2.55684 193.017 2.56421 192.934 2.56421C192.889 2.56421 192.656 2.54947 191.972 2.54947H191.334V3.82421H192.19C192.927 3.82421 193.175 3.80947 193.22 3.80947C193.295 3.80947 193.303 3.81684 193.303 3.89053V4.46526C193.303 4.54632 193.295 4.55368 193.22 4.55368C193.175 4.55368 192.927 4.53895 192.19 4.53895H191.334V5.60737C191.334 6.43263 191.349 6.85263 191.349 6.88947C191.349 6.96316 191.341 6.97053 191.266 6.97053H190.62C190.545 6.97053 190.537 6.96316 190.537 6.88947C190.537 6.84526 190.552 6.44 190.552 5.61474V4.53895H189.545C188.809 4.53895 188.561 4.55368 188.516 4.55368C188.441 4.55368 188.433 4.54632 188.433 4.46526V3.89053C188.433 3.81684 188.441 3.80947 188.516 3.80947C188.561 3.80947 188.809 3.82421 189.545 3.82421H190.552V2.54947H189.433C189.312 2.81474 189.17 3.07263 189.012 3.32316C188.952 3.41895 188.914 3.47053 188.876 3.47053C188.839 3.47053 188.794 3.42632 188.711 3.35263C188.561 3.21263 188.403 3.12421 188.245 3.05053C188.756 2.34316 189.019 1.67263 189.185 1.08316C189.237 0.921053 189.26 0.758947 189.267 0.589474C189.523 0.648421 189.741 0.707369 189.951 0.781053C190.041 0.810526 190.079 0.847369 190.079 0.891579C190.079 0.935789 190.056 0.972631 190.034 0.994737C189.989 1.03895 189.951 1.10526 189.898 1.28947C189.846 1.47368 189.786 1.66526 189.718 1.85684H190.552ZM187.238 5.76211V4.07474C187.238 3.80947 187.246 3.49263 187.253 3.17579C187.096 3.38947 186.938 3.59579 186.765 3.78737C186.705 3.84632 186.667 3.88316 186.637 3.88316C186.6 3.88316 186.569 3.83895 186.547 3.75053C186.479 3.50737 186.382 3.25684 186.291 3.11684C186.93 2.42421 187.426 1.59895 187.712 0.744211C187.779 0.545263 187.817 0.383158 187.839 0.191579C188.11 0.272632 188.335 0.338947 188.561 0.434737C188.644 0.471579 188.681 0.501053 188.681 0.537895C188.681 0.589474 188.666 0.618947 188.606 0.670526C188.561 0.714737 188.516 0.781053 188.448 0.965263C188.32 1.29684 188.178 1.62842 188.012 1.94526V5.76211C188.012 6.49158 188.027 6.85263 188.027 6.88947C188.027 6.96316 188.02 6.97053 187.945 6.97053H187.306C187.231 6.97053 187.223 6.96316 187.223 6.88947C187.223 6.84526 187.238 6.49158 187.238 5.76211Z" fill="#A12125"/>
<path d="M197.721 6.94842H197.158C197.082 6.94842 197.075 6.94105 197.075 6.86C197.075 6.82316 197.09 6.61684 197.09 5.51158V4.84842C197.09 4.17789 197.075 3.95684 197.075 3.92C197.075 3.83895 197.082 3.83158 197.158 3.83158C197.21 3.83158 197.421 3.84632 198.044 3.84632H199.299C199.915 3.84632 200.133 3.83158 200.178 3.83158C200.261 3.83158 200.269 3.83895 200.269 3.92C200.269 3.95684 200.254 4.17789 200.254 4.73053V5.48947C200.254 6.58 200.269 6.78632 200.269 6.83053C200.269 6.89684 200.261 6.90421 200.178 6.90421H199.6C199.525 6.90421 199.517 6.89684 199.517 6.83053V6.55053H197.811V6.86C197.811 6.94105 197.804 6.94842 197.721 6.94842ZM197.811 4.52421V5.87263H199.517V4.52421H197.811ZM195.888 2.73368L196.203 2.61579C196.301 2.57895 196.323 2.59368 196.361 2.66737C196.579 3.10947 196.737 3.52211 196.864 3.99368C196.887 4.07474 196.864 4.09684 196.767 4.12632L196.384 4.23684C196.293 4.26632 196.271 4.25895 196.256 4.17789L196.173 3.85368L195.7 3.89789V5.91684C195.7 6.59474 195.715 6.84526 195.715 6.88211C195.715 6.95579 195.707 6.96316 195.632 6.96316H195.061C194.986 6.96316 194.978 6.95579 194.978 6.88211C194.978 6.83789 194.993 6.59474 194.993 5.91684V3.96421L194.332 4.00842C194.204 4.01579 194.114 4.0379 194.062 4.06737C194.031 4.08211 193.986 4.10421 193.941 4.10421C193.889 4.10421 193.866 4.05263 193.851 3.97895C193.814 3.80211 193.776 3.59579 193.746 3.36C193.971 3.37474 194.174 3.38211 194.37 3.37474C194.512 3.19789 194.655 3.00632 194.798 2.81474C194.497 2.44632 194.159 2.08526 193.799 1.74632C193.731 1.69474 193.753 1.67263 193.806 1.59158L194.062 1.20842C194.092 1.16421 194.114 1.14211 194.137 1.14211C194.152 1.14211 194.174 1.15684 194.204 1.18632L194.407 1.39263C194.565 1.14211 194.693 0.913684 194.821 0.633684C194.918 0.434737 194.956 0.316842 194.993 0.176842C195.196 0.250526 195.444 0.346316 195.632 0.442105C195.7 0.478947 195.73 0.515789 195.73 0.56C195.73 0.596842 195.7 0.626316 195.662 0.655789C195.602 0.7 195.572 0.736842 195.519 0.832631C195.279 1.23789 195.091 1.53263 194.858 1.85684C194.971 1.98211 195.084 2.10737 195.189 2.23263C195.369 1.96 195.534 1.68737 195.7 1.40737C195.79 1.24526 195.865 1.06842 195.925 0.906315C196.151 1.00947 196.384 1.12 196.556 1.22316C196.624 1.26 196.647 1.28947 196.647 1.33368C196.647 1.38526 196.624 1.41474 196.564 1.44421C196.489 1.48842 196.429 1.56947 196.316 1.74632C195.933 2.33579 195.527 2.90316 195.174 3.34526C195.444 3.33053 195.722 3.30842 195.993 3.28632C195.94 3.14632 195.88 3.00632 195.812 2.86632C195.782 2.79263 195.782 2.77053 195.888 2.73368ZM199.682 1.20105H198.608C198.533 2.21789 198.119 2.92526 197.293 3.44842C197.203 3.50737 197.158 3.54421 197.12 3.54421C197.067 3.54421 197.037 3.49263 196.962 3.38211C196.849 3.22 196.707 3.07263 196.571 2.99895C197.375 2.61579 197.796 2.10737 197.871 1.20105H197.804C197.135 1.20105 196.91 1.21579 196.857 1.21579C196.782 1.21579 196.774 1.20842 196.774 1.12737V0.618947C196.774 0.537895 196.782 0.530526 196.857 0.530526C196.91 0.530526 197.135 0.545263 197.804 0.545263H199.397C200.073 0.545263 200.299 0.530526 200.344 0.530526C200.419 0.530526 200.426 0.545263 200.426 0.626316C200.426 0.810526 200.426 0.987369 200.419 1.13474C200.396 1.97474 200.329 2.65263 200.193 2.94737C200.043 3.27895 199.728 3.41895 199.314 3.41895C199.141 3.41895 199.029 3.41895 198.886 3.41158C198.676 3.40421 198.676 3.39684 198.638 3.16842C198.608 2.99158 198.548 2.8 198.48 2.67474C198.743 2.71158 198.991 2.73368 199.171 2.73368C199.359 2.73368 199.457 2.67474 199.525 2.57158C199.607 2.43895 199.675 1.84947 199.682 1.20105ZM193.731 6.20421C193.889 5.72526 193.994 5.27579 194.031 4.79684C194.047 4.65684 194.054 4.54632 194.039 4.38421C194.227 4.40632 194.46 4.45053 194.618 4.48737C194.708 4.50947 194.745 4.53895 194.745 4.57579C194.745 4.61263 194.73 4.64211 194.708 4.67895C194.685 4.71579 194.678 4.80421 194.663 4.92211C194.61 5.35684 194.52 5.88 194.4 6.29263C194.362 6.41053 194.332 6.45474 194.287 6.45474C194.257 6.45474 194.212 6.43263 194.152 6.39579C194.009 6.31474 193.844 6.24105 193.731 6.20421ZM196.038 4.49474L196.399 4.40632C196.489 4.38421 196.496 4.39158 196.526 4.47263C196.654 4.84105 196.774 5.37895 196.834 5.80632C196.842 5.88737 196.834 5.90947 196.737 5.93895L196.376 6.05684C196.263 6.09368 196.248 6.08632 196.241 6.01263C196.181 5.53368 196.06 4.98842 195.955 4.61263C195.933 4.53158 195.955 4.51684 196.038 4.49474Z" fill="#A12125"/>
<path d="M205.018 0.508421L204.965 0.552632C205.769 1.62842 206.649 2.29895 208.136 2.87368C208.009 3.02842 207.903 3.22737 207.813 3.45579C207.761 3.58842 207.738 3.64737 207.678 3.64737C207.64 3.64737 207.588 3.61789 207.505 3.58105C206.168 2.96211 205.266 2.21053 204.559 1.17158C203.868 2.23263 202.966 2.96211 201.749 3.59579C201.659 3.64737 201.606 3.67684 201.569 3.67684C201.524 3.67684 201.493 3.61789 201.433 3.49263C201.343 3.28632 201.23 3.11684 201.088 2.96947C202.403 2.40947 203.282 1.68737 203.921 0.670526C204.048 0.478947 204.116 0.338947 204.184 0.132632C204.477 0.176842 204.74 0.213684 204.965 0.287368C205.033 0.302105 205.093 0.346316 205.093 0.397895C205.093 0.434737 205.07 0.46421 205.018 0.508421ZM201.351 6.33684C202.05 6.11579 202.538 5.78421 202.771 5.39368C202.989 5.03263 203.057 4.58316 203.057 3.79474C203.057 3.47789 203.049 3.20526 203.004 2.93263C203.267 2.93263 203.59 2.94737 203.838 2.96947C203.921 2.97684 203.966 3.00632 203.966 3.05789C203.966 3.11684 203.951 3.15368 203.928 3.22C203.906 3.28632 203.883 3.42632 203.883 3.81684C203.883 4.84842 203.755 5.40842 203.462 5.88C203.192 6.3 202.741 6.66105 202.125 6.92632C202.035 6.97053 201.982 7 201.944 7C201.899 7 201.862 6.95579 201.794 6.83789C201.681 6.66105 201.501 6.44737 201.351 6.33684ZM205.266 5.90211V4.04526C205.266 3.63263 205.266 3.24947 205.213 2.91789C205.506 2.92526 205.792 2.94737 206.04 2.97684C206.115 2.98421 206.153 3.01368 206.153 3.05789C206.153 3.11684 206.13 3.18316 206.115 3.24211C206.092 3.34526 206.077 3.61053 206.077 4.03789V5.90211C206.077 6.50632 206.092 6.80842 206.092 6.85263C206.092 6.91895 206.085 6.92632 206.002 6.92632H205.333C205.258 6.92632 205.251 6.91895 205.251 6.85263C205.251 6.80105 205.266 6.50632 205.266 5.90211Z" fill="#A12125"/>
<path d="M213.637 2.23263H213.9C214.268 2.23263 214.689 2.22526 215.035 2.21053C215.125 2.20316 215.133 2.24737 215.14 2.32842C215.155 2.51263 215.155 2.72632 215.14 2.91053C215.133 3.00632 215.117 3.03579 215.012 3.02842C214.757 3.02842 214.298 3.02105 213.93 3.02105H213.622C213.577 4.07474 213.412 4.69368 213.043 5.29053C212.668 5.90211 212.059 6.34421 211.27 6.66105C211.165 6.70526 211.105 6.72737 211.06 6.72737C211.015 6.72737 210.977 6.70526 210.917 6.64632C210.691 6.4179 210.549 6.31474 210.293 6.20421C211.36 5.88 211.939 5.50421 212.322 4.9C212.615 4.42842 212.735 3.92 212.765 3.02105H211.165V3.28632C211.165 3.72105 211.165 4.11895 211.187 4.50947C211.195 4.59053 211.142 4.60526 211.06 4.61263C210.864 4.62737 210.616 4.62737 210.413 4.61263C210.316 4.60526 210.271 4.59053 210.278 4.50947C210.301 4.12632 210.316 3.76526 210.316 3.30105V3.02105H210.09C209.684 3.02105 209.083 3.04316 208.85 3.05789C208.79 3.05789 208.768 3.01368 208.76 2.91789C208.73 2.76316 208.723 2.50526 208.708 2.20316C209.023 2.22526 209.512 2.24 210.09 2.24H210.316V1.70211C210.316 1.23053 210.301 1.04632 210.225 0.618947C210.616 0.655789 210.984 0.692632 211.142 0.736842C211.225 0.751579 211.255 0.788421 211.255 0.84C211.255 0.884211 211.232 0.935789 211.21 0.994737C211.157 1.12737 211.157 1.20105 211.157 1.70211V2.24H212.773L212.78 1.51789C212.788 1.10526 212.765 0.766315 212.713 0.508421C212.998 0.537895 213.412 0.582105 213.592 0.633684C213.697 0.655789 213.727 0.692631 213.727 0.751579C213.727 0.781053 213.72 0.825263 213.697 0.884211C213.645 1.02421 213.637 1.21579 213.637 1.53263V2.23263Z" fill="#A12125"/>
<path d="M220.43 4.11895H217.725C216.981 4.11895 216.696 4.20737 216.62 4.20737C216.53 4.20737 216.47 4.16316 216.448 4.05263C216.41 3.88316 216.365 3.53684 216.335 3.16105C216.823 3.23474 217.199 3.24947 217.958 3.24947H220.378C220.949 3.24947 221.527 3.23474 222.106 3.22737C222.219 3.22 222.241 3.24211 222.241 3.33053C222.256 3.55158 222.256 3.80211 222.241 4.02316C222.241 4.11158 222.211 4.14105 222.106 4.13368C221.542 4.12632 220.986 4.11895 220.43 4.11895Z" fill="#A12125"/>
<path d="M225.443 2.01895V3.04316C226.104 2.82947 226.675 2.61579 227.276 2.32842C227.682 2.13684 227.87 2.01895 228.08 1.79789C228.343 2.01158 228.591 2.31368 228.704 2.46105C228.741 2.50526 228.764 2.54947 228.764 2.59368C228.764 2.65263 228.726 2.70421 228.636 2.72632C228.426 2.77789 228.215 2.88105 228.013 2.96947C227.269 3.30105 226.427 3.59579 225.435 3.88316V4.86316C225.435 5.20947 225.488 5.32737 225.683 5.38632C225.878 5.43789 226.171 5.46737 226.63 5.46737C227.336 5.46737 227.967 5.41579 228.749 5.2979C228.862 5.28316 228.877 5.31263 228.884 5.40105C228.907 5.60737 228.929 5.88737 228.929 6.04211C228.929 6.13789 228.884 6.16737 228.772 6.17474C227.922 6.2779 227.487 6.30737 226.54 6.30737C225.871 6.30737 225.428 6.24105 225.112 6.10842C224.736 5.95368 224.578 5.60737 224.578 5.00316V2.28421C224.578 1.58421 224.563 1.30421 224.503 0.935789C224.856 0.972631 225.21 1.01684 225.45 1.08316C225.54 1.10526 225.57 1.14947 225.57 1.20105C225.57 1.25263 225.548 1.30421 225.518 1.35579C225.458 1.47368 225.443 1.67263 225.443 2.01895ZM228.185 1.18632L228.584 0.913684C228.621 0.884211 228.651 0.891579 228.696 0.928421C228.929 1.10526 229.2 1.4 229.41 1.71684C229.44 1.76105 229.44 1.79789 229.388 1.83474L229.072 2.06316C229.019 2.1 228.982 2.09263 228.944 2.04105C228.719 1.70211 228.478 1.42211 228.185 1.18632ZM228.877 0.7L229.252 0.434737C229.298 0.405263 229.32 0.412632 229.365 0.449474C229.643 0.655789 229.914 0.950526 230.079 1.20842C230.109 1.25263 230.117 1.29684 230.057 1.34105L229.756 1.56947C229.696 1.61368 229.658 1.59158 229.628 1.54737C229.425 1.23053 229.185 0.950526 228.877 0.7Z" fill="#A12125"/>
<path d="M232.875 1.27474H234.941C235.212 1.27474 235.347 1.26737 235.46 1.20842C235.49 1.18632 235.512 1.17895 235.542 1.17895C235.587 1.17895 235.625 1.20842 235.67 1.23789C235.843 1.37053 236.016 1.56211 236.158 1.75368C236.181 1.79053 236.196 1.82 236.196 1.84947C236.196 1.89368 236.166 1.94526 236.098 1.99684C236.001 2.07789 235.903 2.18842 235.82 2.32105C235.512 2.83684 235.219 3.24947 234.858 3.69895C235.58 4.22211 236.249 4.79684 236.94 5.48211C236.977 5.51895 237 5.55579 237 5.58526C237 5.61474 236.985 5.65158 236.947 5.69579C236.805 5.86526 236.632 6.04211 236.444 6.19684C236.414 6.22632 236.384 6.24105 236.354 6.24105C236.316 6.24105 236.286 6.21895 236.249 6.18211C235.617 5.46 234.971 4.8779 234.295 4.35474C233.446 5.22421 232.589 5.85053 231.77 6.3C231.702 6.32947 231.65 6.35895 231.597 6.35895C231.552 6.35895 231.507 6.33684 231.469 6.29263C231.304 6.09368 231.086 5.94632 230.838 5.81368C232.01 5.23158 232.709 4.70842 233.483 3.93474C234.024 3.38211 234.438 2.85895 234.896 2.08526L232.957 2.09263C232.566 2.09263 232.176 2.10737 231.77 2.13684C231.71 2.14421 231.687 2.09263 231.672 2.01158C231.635 1.85684 231.605 1.50316 231.605 1.24526C232.01 1.27474 232.386 1.27474 232.875 1.27474Z" fill="#A12125"/>
<defs>
<clipPath id="clip0_317_69">
<rect width="244.919" height="25" fill="white" transform="translate(0 11)"/>
</clipPath>
</defs>
</svg>
