<svg width="250" height="38" viewBox="0 0 250 38" fill="none" xmlns="http://www.w3.org/2000/svg">
<path d="M0 37.9874L8.38442 31.6164V6.37731L0 0V37.9874ZM40 0L31.6092 6.37731V31.629L40 38V0ZM24.834 31.6101L20 37.9937L15.1596 31.6101V6.37731L20 0L24.834 6.37731V31.6101Z" fill="url(#paint0_linear_71_2440)"/>
<path d="M188.393 29.1345C184.357 29.1345 182.298 25.1342 182.298 20.9297C182.298 17.1864 184.228 14.0255 187.836 14.0255C192.1 14.0255 193.931 18.23 193.931 22.2303C193.931 26.2307 191.856 29.1421 188.393 29.1421V29.1345ZM188.263 12.9593C187.081 12.9441 185.906 13.1559 184.808 13.5869C183.709 14.0179 182.71 14.6607 181.863 15.4774C181.016 16.2941 180.337 17.2696 179.872 18.3434C179.407 19.4173 179.155 20.5742 179.147 21.7464C179.147 26.7827 183.076 30.1705 187.958 30.1705C189.14 30.1856 190.315 29.9663 191.414 29.5277C192.512 29.0891 193.512 28.4388 194.358 27.6221C195.205 26.8054 195.876 25.8223 196.334 24.7409C196.792 23.6596 197.036 22.5026 197.043 21.3305C197.043 16.4529 193.26 12.9668 188.271 12.9668L188.263 12.9593Z" fill="white"/>
<path d="M78.3915 27.221C78.1397 23.077 77.7659 16.6492 77.5371 11.3255C77.4761 10.1459 78.1397 9.677 79.406 9.31403V8.82249C77.8422 8.8603 75.9351 8.82249 74.3789 8.82249L67.6507 24.7179H67.399L59.4654 8.7998C57.7796 8.8603 55.7733 8.86786 54.0798 8.7998V9.29134C55.9716 9.84337 56.6277 10.6601 56.5209 12.543C56.4141 14.426 55.8801 24.3247 55.7733 26.1925C55.6665 27.894 55.0486 28.6351 53.2635 29.1871V29.6787C55.4758 29.6333 57.749 29.6333 59.9536 29.6787V29.1796C57.8558 28.6275 57.1845 27.8184 57.2379 26.1925L57.7567 12.8531H57.9779L66.4378 29.6862H66.8573L74.3637 12.1725H74.5925C74.7909 17.2164 75.0426 22.1393 75.3477 27.1832C75.4011 28.3099 74.9892 28.7788 73.3796 29.1947V29.6862C75.5919 29.6484 78.0634 29.6484 80.2757 29.6862V29.1947C78.9178 28.8544 78.4372 28.3402 78.3762 27.2285L78.3915 27.221Z" fill="white"/>
<path d="M103.657 21.7912C103.107 21.7912 102.566 21.708 102.047 21.5341V14.5618C102.451 14.5165 102.856 14.4938 103.26 14.4938C106.082 14.4938 107.395 16.1348 107.395 18.116C107.395 20.6796 105.449 21.8139 103.657 21.7912ZM109.614 26.6158C108.89 25.5193 107.021 22.2903 107.021 22.2903C109.119 21.5416 110.431 19.9763 110.431 17.8967C110.431 15.0836 107.906 13.3444 103.504 13.5107C101.917 13.5712 99.4687 13.5712 97.4853 13.5107V13.9569C98.8736 14.3199 99.1483 14.6602 99.1483 15.681V27.5459C99.1483 28.5668 98.8508 28.9071 97.4471 29.2701V29.7162C99.5907 29.6708 101.956 29.6708 103.748 29.7162V29.3003C102.329 28.9298 102.024 28.597 102.024 27.5686V22.5247C102.619 22.7137 103.237 22.7969 103.863 22.7894H104.313C104.313 22.7894 107.097 27.493 107.684 28.4912C107.936 28.96 108.302 29.3608 108.752 29.6406C109.202 29.9279 109.721 30.0943 110.255 30.117C111.079 30.117 111.888 29.9355 112.635 29.5952V29.3608C111.621 29.1869 110.637 28.1811 109.607 26.6233L109.614 26.6158Z" fill="white"/>
<path d="M90.3605 27.5457V15.6808C90.3605 14.6751 90.6427 14.3499 92.0235 13.9642V13.5181C90.0554 13.5634 87.8279 13.5634 85.8674 13.5181V13.9642C87.21 14.3196 87.5304 14.6675 87.5304 15.6733V27.5381C87.5304 28.5439 87.2405 28.8917 85.8674 29.2472V29.6933C87.8508 29.6479 90.0859 29.6479 92.0693 29.6933V29.2472C90.6733 28.8993 90.3681 28.5514 90.3681 27.5457H90.3605Z" fill="white"/>
<path d="M119.348 23.8416L122.133 17.4819H122.362L125.138 23.8416H119.348ZM130.158 27.6907L123.376 13.3682H122.659L116.854 26.5942C116.205 28.0915 115.58 28.7872 114.443 29.2636V29.7098C116.06 29.6644 117.746 29.6644 119.379 29.7098V29.2863C117.685 28.8401 117.586 27.8873 118.074 26.7833L118.921 24.8852H125.565L126.786 27.6756C127.236 28.6738 126.969 29.0065 125.482 29.377V29.7098C127.564 29.6644 129.936 29.6644 132.034 29.7098V29.377C131.607 29.2712 131.218 29.0594 130.89 28.7721C130.562 28.4772 130.318 28.1142 130.165 27.7058V27.6907H130.158Z" fill="white"/>
<path d="M245.285 19.8407C243.493 18.7442 241.807 17.9577 241.807 16.4C241.807 14.8422 242.997 14.0103 244.668 14.0103C246.506 14.0103 247.734 15.4244 248.703 17.4662H249.176C249.176 16.2033 249.222 14.9254 249.336 13.6625C247.994 13.3978 246.399 12.9441 244.973 12.9441C241.799 12.9441 239.389 14.8044 239.389 17.436C239.389 19.7121 241.54 21.0279 243.478 22.1698C245.545 23.3722 247.643 24.3628 247.643 26.4121C247.643 28.4614 246.109 29.1269 244.607 29.1269C242.677 29.1269 241.631 27.8943 240.327 25.1266H239.854C239.824 26.5936 239.808 27.864 239.709 29.2555C241.151 29.8831 242.715 30.1931 244.286 30.1705C247.315 30.1705 250 28.3178 250 25.3534C250.023 22.737 247.406 21.1262 245.285 19.8407Z" fill="white"/>
<path d="M220.394 13.5034V13.9496C221.79 14.3126 222.087 14.6528 222.087 15.6737V27.584C222.087 28.6124 221.79 28.9451 220.363 29.3157V29.7618C222.385 29.7165 224.651 29.7165 226.672 29.7618V29.3157C225.276 28.9527 224.979 28.62 224.979 27.5915V15.583C224.979 14.5621 225.276 14.305 226.665 13.9496V13.5261C224.62 13.5412 222.4 13.5563 220.402 13.4958L220.394 13.5034Z" fill="white"/>
<path d="M233.088 26.8124C232.073 25.542 228.007 20.1956 228.007 20.1956C228.007 20.1956 231.02 16.8154 231.798 15.9911C232.691 15.0761 233.782 14.3804 234.987 13.9493V13.5032C233.461 13.5485 231.722 13.5485 230.212 13.5032V14.0023C230.761 14.1459 231.074 14.3728 231.074 14.698C231.074 15.0231 230.708 15.492 230.021 16.2633L225.566 21.2014C225.566 21.2014 230.395 27.9013 230.875 28.5214C231.837 29.7692 232.447 30.0338 233.614 30.0338C234.484 30.0338 235.338 29.8297 236.116 29.444V29.1264C234.979 28.8315 234.323 28.3475 233.095 26.8124H233.088Z" fill="white"/>
<path d="M207.731 21.7912C207.182 21.7912 206.64 21.708 206.121 21.5341V14.5618C206.526 14.5165 206.93 14.4938 207.334 14.4938C210.157 14.4938 211.476 16.1348 211.476 18.116C211.476 20.6796 209.524 21.8139 207.731 21.7912ZM213.689 26.6158C212.964 25.5193 211.095 22.2903 211.095 22.2903C213.193 21.5416 214.505 19.9763 214.505 17.8967C214.505 15.0836 211.98 13.3444 207.586 13.5107C205.992 13.5712 203.551 13.5712 201.567 13.5107V13.9569C202.955 14.3199 203.23 14.6602 203.23 15.681V27.5459C203.23 28.5668 202.933 28.9071 201.521 29.2701V29.7162C203.665 29.6708 206.007 29.6708 207.8 29.7162V29.3003C206.381 28.9298 206.075 28.597 206.075 27.5686V22.5247C206.671 22.7137 207.288 22.7969 207.914 22.7894H208.364C208.364 22.7894 211.141 27.493 211.736 28.4912C211.988 28.96 212.354 29.3532 212.804 29.6406C213.254 29.9279 213.773 30.0943 214.307 30.1246C215.13 30.1246 215.939 29.9431 216.687 29.6028V29.3684C215.695 29.1944 214.718 28.1887 213.689 26.6309V26.6158Z" fill="white"/>
<path d="M139.899 27.5457V15.6808C139.899 14.6751 140.181 14.3499 141.562 13.9642V13.5181C139.586 13.5634 137.367 13.5634 135.398 13.5181V13.9642C136.741 14.3196 137.061 14.6675 137.061 15.6733V27.5381C137.061 28.5439 136.772 28.8917 135.398 29.2472V29.6933C137.382 29.6479 139.617 29.6479 141.6 29.6933V29.2472C140.204 28.8993 139.899 28.5514 139.899 27.5457Z" fill="white"/>
<path d="M172.45 8.82249V9.30646C173.754 9.66188 174.319 10.1156 174.319 10.955C174.28 11.4314 174.166 11.9002 173.991 12.3464L169.261 24.9524H169.024C169.024 24.9524 163.921 12.7245 163.387 11.3331C162.899 10.1156 163.761 9.55601 164.981 9.27621V8.83005C163.006 8.87543 160.847 8.87543 158.902 8.83005V9.14766L161.633 15.2729L157.948 24.8994H157.727C157.727 24.8994 152.677 12.717 152.135 11.3331C151.685 10.1912 152.524 9.55601 153.73 9.26865V8.82249C151.395 8.86786 148.741 8.86786 146.429 8.82249V9.26865C147.604 9.58626 148.092 10.1156 148.626 11.318C149.206 12.6489 153.806 23.0997 156.888 30.1475H157.254L162.365 16.9668L168.162 30.1475H168.529L175.47 12.3615C176.21 10.5088 176.988 9.7375 178.507 9.27621V8.7998C176.592 8.85274 174.364 8.85274 172.457 8.81493L172.45 8.82249Z" fill="white"/>
<defs>
<linearGradient id="paint0_linear_71_2440" x1="2.22861" y1="1.50794" x2="37.6353" y2="37.493" gradientUnits="userSpaceOnUse">
<stop stop-color="#BC0900"/>
<stop offset="1" stop-color="#530E06"/>
</linearGradient>
</defs>
</svg>
