<svg xmlns="http://www.w3.org/2000/svg" viewBox="0 0 105.46 100"><defs><style>.cls-1{fill:#505050;}.cls-2{fill:#ce002e;}</style></defs><title>icon_service_flow02</title><g id="Layer_2" data-name="Layer 2"><g id="service_pc"><path class="cls-1" d="M105.44,16.78l-2.11-9.64a2.11,2.11,0,0,0-3.81-.87L93.41,14a2.21,2.21,0,0,0-.33.73L85.87,46.18,84,54.4a2.12,2.12,0,0,0,1.58,2.53l8.22,1.89a2.12,2.12,0,0,0,2.53-1.59L98.2,49l7.22-31.42A3.16,3.16,0,0,0,105.44,16.78Zm-8.73.95,4.11.95L94.55,46l-4.11-1Zm4.08-3.39-2.14-.49,1.69-2.44ZM92.66,54.21l-4.11-.94.94-4.11,4.11.94Z"/><path class="cls-1" d="M71.68,20.91,51.31.54a1.75,1.75,0,0,0-.6-.4A1.87,1.87,0,0,0,50,0H1.85A1.85,1.85,0,0,0,0,1.85v96.3A1.85,1.85,0,0,0,1.85,100H70.37a1.85,1.85,0,0,0,1.85-1.85V22.22a1.73,1.73,0,0,0-.14-.71A2.1,2.1,0,0,0,71.68,20.91ZM51.85,6.33l14.05,14H51.85ZM3.7,96.3V3.7H48.15V22.22A1.85,1.85,0,0,0,50,24.07H68.52V96.3Z"/><path class="cls-2" d="M60.81,49l-4.25,4.25-2.39-2.4a1.86,1.86,0,0,0-2.62,2.63l3.7,3.7a1.86,1.86,0,0,0,1.31.54,1.88,1.88,0,0,0,1.32-.54l5.55-5.55A1.86,1.86,0,1,0,60.81,49Z"/><path class="cls-1" d="M44.44,51.11H9.26a1.86,1.86,0,0,0,0,3.71H44.44a1.86,1.86,0,1,0,0-3.71Z"/><path class="cls-2" d="M60.81,59.74,56.56,64l-2.39-2.4a1.86,1.86,0,0,0-2.62,2.63l3.7,3.7a1.86,1.86,0,0,0,1.31.54,1.88,1.88,0,0,0,1.32-.54l5.55-5.55a1.86,1.86,0,1,0-2.62-2.63Z"/><path class="cls-1" d="M44.44,61.85H9.26a1.86,1.86,0,0,0,0,3.71H44.44a1.86,1.86,0,1,0,0-3.71Z"/><path class="cls-2" d="M60.81,70.48l-4.25,4.25-2.39-2.39A1.85,1.85,0,0,0,51.55,75l3.7,3.7a1.86,1.86,0,0,0,1.31.54,1.88,1.88,0,0,0,1.32-.54l5.55-5.55a1.86,1.86,0,1,0-2.62-2.63Z"/><path class="cls-1" d="M44.44,72.59H9.26a1.86,1.86,0,0,0,0,3.71H44.44a1.86,1.86,0,1,0,0-3.71Z"/><path class="cls-2" d="M60.81,81.22l-4.25,4.25-2.39-2.39a1.85,1.85,0,0,0-2.62,2.62l3.7,3.7a1.86,1.86,0,0,0,1.31.54,1.88,1.88,0,0,0,1.32-.54l5.55-5.55a1.86,1.86,0,1,0-2.62-2.63Z"/><path class="cls-1" d="M44.44,83.33H9.26a1.86,1.86,0,0,0,0,3.71H44.44a1.86,1.86,0,1,0,0-3.71Z"/><path class="cls-1" d="M12.47,45.55a1.73,1.73,0,0,1-1.73-1.73V14.17a1.72,1.72,0,0,1,1.73-1.72H40.55a1.72,1.72,0,0,1,1.73,1.72V43.82a1.73,1.73,0,0,1-1.73,1.73Zm26.35-3.46V15.9H14.2V42.09Z"/><path class="cls-1" d="M19.14,45.22a1.36,1.36,0,0,1-1.35-1.36V36.5a7.72,7.72,0,0,1,4.15-6.81,6.61,6.61,0,1,1,9.14,0,7.72,7.72,0,0,1,4.15,6.81v7.36a1.36,1.36,0,0,1-1.35,1.36Zm13.39-2.71v-6a4.94,4.94,0,0,0-3.25-4.64l.66,3.32a1.32,1.32,0,0,1-.12.87l-2.1,4.21a1.35,1.35,0,0,1-2.42,0l-2.1-4.21a1.32,1.32,0,0,1-.12-.87l.66-3.32a4.94,4.94,0,0,0-3.25,4.64v6Zm-6-5.87.71-1.42-.71-3.42-.7,3.5ZM22.6,24.92a3.91,3.91,0,1,0,7.82,0,.76.76,0,0,0,0-.15,17.12,17.12,0,0,1-7.8,0A.76.76,0,0,0,22.6,24.92Zm1.09-2.69a14.34,14.34,0,0,0,5.64,0,3.87,3.87,0,0,0-5.64,0Z"/></g></g></svg>