<svg xmlns="http://www.w3.org/2000/svg" viewBox="0 0 110.63 111.24"><defs><style>.cls-1{fill:#505050;}.cls-2{fill:#ce002e;}</style></defs><title>icon_service_flow01</title><g id="Layer_2" data-name="Layer 2"><g id="service_pc"><path class="cls-1" d="M22.19,84.26a11.25,11.25,0,1,0-14.39,0,13.12,13.12,0,0,0-7.8,12v13.13a1.87,1.87,0,0,0,1.87,1.87H28.12A1.88,1.88,0,0,0,30,109.37V96.24A13.13,13.13,0,0,0,22.19,84.26ZM16.78,94.1,15,97.67l-1.79-3.56,1.45-7.24h.68ZM15,68.12a7.47,7.47,0,0,1,6,3,26.48,26.48,0,0,1-12,0A7.48,7.48,0,0,1,15,68.12ZM7.59,74.69a29.95,29.95,0,0,0,14.81,0,7,7,0,0,1,.1.93,7.5,7.5,0,0,1-15,0A9.16,9.16,0,0,1,7.59,74.69Zm18.66,32.8H3.75V96.24a9.37,9.37,0,0,1,7-9L9.41,94a2,2,0,0,0,.16,1.21l3.75,7.5a1.88,1.88,0,0,0,3.36,0l3.74-7.49A1.88,1.88,0,0,0,20.59,94l-1.36-6.8a9.38,9.38,0,0,1,7,9Z"/><path class="cls-1" d="M102.83,84.26a11.25,11.25,0,1,0-14.4,0,13.14,13.14,0,0,0-7.8,12v13.13a1.88,1.88,0,0,0,1.88,1.87h26.24a1.88,1.88,0,0,0,1.88-1.87V96.24A13.14,13.14,0,0,0,102.83,84.26ZM97.41,94.1l-1.78,3.57-1.78-3.56,1.44-7.24H96Zm-1.78-26a7.47,7.47,0,0,1,6,3,26.43,26.43,0,0,1-12,0A7.47,7.47,0,0,1,95.63,68.12Zm-7.41,6.57a29.95,29.95,0,0,0,14.81,0,7,7,0,0,1,.1.93,7.5,7.5,0,0,1-15,0A9.16,9.16,0,0,1,88.22,74.69Zm18.66,32.8H84.38V96.24a9.38,9.38,0,0,1,7-9L90,94a2,2,0,0,0,.16,1.21L94,102.7a1.88,1.88,0,0,0,3.36,0l3.75-7.49a2,2,0,0,0,.16-1.21l-1.36-6.8a9.38,9.38,0,0,1,7,9Z"/><path class="cls-1" d="M48.74,7.5H16.87A1.87,1.87,0,0,0,15,9.37V48.74a1.88,1.88,0,0,0,1.87,1.88H48.74a1.88,1.88,0,0,0,1.88-1.88V9.37A1.88,1.88,0,0,0,48.74,7.5ZM46.87,46.87H18.75V11.25H46.87Z"/><path class="cls-2" d="M99.36,48.74V9.37A1.88,1.88,0,0,0,97.48,7.5H60a1.87,1.87,0,0,0-1.87,1.87V48.74A1.88,1.88,0,0,0,60,50.62H97.48A1.88,1.88,0,0,0,99.36,48.74Zm-3.75-1.87H61.86V11.25H95.61Z"/><rect class="cls-2" x="82.49" y="33.74" width="3.75" height="9.37"/><rect class="cls-2" x="88.11" y="26.25" width="3.75" height="16.87"/><path class="cls-1" d="M106.86,48.74V9.37A9.38,9.38,0,0,0,97.48,0H15A9.38,9.38,0,0,0,5.62,9.37V48.74A9.39,9.39,0,0,0,15,58.12H39L36,68.46a1.89,1.89,0,0,0,.57,2.27,1.86,1.86,0,0,0,1.14.38,1.9,1.9,0,0,0,1.21-.44l18.7-12.55h39.9A9.39,9.39,0,0,0,106.86,48.74Zm-50,5.63a1.86,1.86,0,0,0-1.21.44L41.23,64.72,43.6,57a1.87,1.87,0,0,0-1.7-2.65H15a5.64,5.64,0,0,1-5.63-5.63V9.37A5.63,5.63,0,0,1,15,3.75H97.48a5.63,5.63,0,0,1,5.63,5.62V48.74a5.64,5.64,0,0,1-5.63,5.63Z"/><rect class="cls-2" x="76.86" y="37.49" width="3.75" height="5.62"/><rect class="cls-1" x="22.5" y="22.5" width="3.75" height="3.75" rx="1.06"/><rect class="cls-1" x="30" y="22.5" width="13.12" height="3.75" rx="1.06"/><rect class="cls-1" x="22.5" y="30" width="3.75" height="3.75" rx="1.06"/><rect class="cls-1" x="30" y="30" width="13.12" height="3.75" rx="1.06"/><rect class="cls-1" x="22.5" y="37.49" width="3.75" height="3.75" rx="1.06"/><rect class="cls-1" x="30" y="37.49" width="13.12" height="3.75" rx="1.06"/><rect class="cls-1" x="28.12" y="15" width="9.37" height="3.75" rx="1.06"/><path class="cls-2" d="M78,16.82l-.38-.3a1.05,1.05,0,0,0-1.49.16l-3.55,4.44L69,16.68a1.05,1.05,0,0,0-1.49-.16l-.38.3a1.07,1.07,0,0,0-.17,1.5l3.91,4.89H68.42a1.06,1.06,0,0,0-1.06,1.06v.49a1.06,1.06,0,0,0,1.06,1.07h2.86v1.3H68.42a1.06,1.06,0,0,0-1.06,1.07v.49a1.06,1.06,0,0,0,1.06,1.06h2.86v2.86a1.07,1.07,0,0,0,1.06,1.07h.49a1.07,1.07,0,0,0,1.07-1.07V29.75h2.86a1.06,1.06,0,0,0,1.06-1.06V28.2a1.06,1.06,0,0,0-1.06-1.07H73.9v-1.3h2.86a1.06,1.06,0,0,0,1.06-1.07v-.49a1.06,1.06,0,0,0-1.06-1.06h-2.5l3.92-4.89A1.07,1.07,0,0,0,78,16.82Z"/><path class="cls-1" d="M36.35,111.13a3.06,3.06,0,0,1-3.05-3V96.85a3.06,3.06,0,0,1,3.05-3h4v-.71a3.05,3.05,0,0,1,3-3h4.82a3.06,3.06,0,0,1,3.05,3v.71h4a3,3,0,0,1,3,3v11.23a3,3,0,0,1-3,3Zm-.16-3a.16.16,0,0,0,.16.16h19a.16.16,0,0,0,.16-.16v-7.22h0c-1.42,1.29-2.88,2.63-4.45,2.63H48.9v.16a1.45,1.45,0,0,1-1.45,1.45h-3.2a1.44,1.44,0,0,1-1.44-1.45v-.16H40.64c-1.58,0-3-1.34-4.45-2.63h0Zm10.31-5.37v-1.15H45.1v1.15Zm4.57-2.09c.69,0,2.22-1.47,3.46-2.66l1-.94v-.17a.17.17,0,0,0-.16-.17h-19a.17.17,0,0,0-.16.17V97l1,.94c1.24,1.19,2.77,2.66,3.46,2.66h2.17v-.16A1.44,1.44,0,0,1,44.25,99h3.2a1.45,1.45,0,0,1,1.45,1.44v.16ZM48.42,93.8v-.71a.16.16,0,0,0-.16-.16H43.44a.16.16,0,0,0-.16.16v.71Z"/></g></g></svg>