<svg xmlns="http://www.w3.org/2000/svg" viewBox="0 0 320 225"><defs><style>.cls-1{fill:#fff;}.cls-2{fill:none;stroke:#999898;stroke-miterlimit:10;}.cls-3{fill:#999898;}</style></defs><title>img_related_services02</title><g id="Layer_2" data-name="Layer 2"><g id="service_pc"><rect class="cls-1" width="320" height="225"/><rect class="cls-2" x="38.8" y="101.13" width="22.61" height="22.61"/><path class="cls-3" d="M73.69,103.09a23.12,23.12,0,0,1,4.23-.38c6,0,6.51,4,6.51,5.54,0,4.55-3.5,6.18-6.8,6.18a7.52,7.52,0,0,1-1.91-.18v8h-2Zm2,9.41a7.34,7.34,0,0,0,2,.2c2.93,0,4.72-1.53,4.72-4.3s-1.91-4-4.45-4a9.8,9.8,0,0,0-2.23.21Z"/><path class="cls-3" d="M93.65,110.13a7.19,7.19,0,0,0-.74,0c-2.2,0-3.32,2.26-3.32,4.6v7.53h-2V112.5c0-1.48,0-2.83-.1-4.15h1.79l.09,2.67h.08a4,4,0,0,1,3.62-3c.22,0,.39,0,.61.07Z"/><path class="cls-3" d="M107.34,115.16c0,5.17-3.27,7.35-6.23,7.35-3.43,0-6.07-2.67-6.07-7.14,0-4.73,2.84-7.35,6.24-7.35C104.92,108,107.34,110.92,107.34,115.16Zm-6.13-5.49c-2.89,0-4.09,3-4.09,5.62,0,3.08,1.64,5.57,4,5.57s4.11-2.49,4.11-5.62C105.27,112.78,104.12,109.67,101.21,109.67Z"/><path class="cls-3" d="M110.65,108.35c0-1.73,0-4,1.46-5.54a4.31,4.31,0,0,1,3.09-1.25,4.85,4.85,0,0,1,2,.41l-.35,1.65a3.72,3.72,0,0,0-1.54-.33c-2.1,0-2.61,2-2.61,4.27v.79h3.22V110h-3.22v12.21h-2V110h-1.84v-1.65Z"/><path class="cls-3" d="M127.45,121.62a9.36,9.36,0,0,1-4.18.87c-3.89,0-6.22-2.85-6.22-7,0-4.35,2.35-7.48,6-7.48,4.11,0,5.16,3.92,5.16,6.33,0,.48,0,.84,0,1.17H119c0,3.84,2.12,5.29,4.52,5.29a8.26,8.26,0,0,0,3.5-.71Zm-1.3-7.68c0-1.88-.73-4.32-3.35-4.32-2.44,0-3.52,2.42-3.72,4.32Z"/><path class="cls-3" d="M137.43,110.46a4.68,4.68,0,0,0-2.6-.81,2,2,0,0,0-2.25,2.06c0,1.19.76,1.75,2.47,2.51,2.16.92,3.4,2.09,3.4,4.17,0,2.47-1.81,4.1-4.72,4.1a6.8,6.8,0,0,1-3.49-.94l.56-1.63a6.19,6.19,0,0,0,3,.94c1.78,0,2.66-1,2.66-2.24s-.71-2-2.47-2.74c-2.25-.94-3.4-2.24-3.4-3.92,0-2.16,1.67-3.94,4.36-3.94a5.69,5.69,0,0,1,3,.84Z"/><path class="cls-3" d="M147.8,110.46a4.68,4.68,0,0,0-2.6-.81,2,2,0,0,0-2.25,2.06c0,1.19.76,1.75,2.47,2.51,2.16.92,3.4,2.09,3.4,4.17,0,2.47-1.81,4.1-4.72,4.1a6.8,6.8,0,0,1-3.49-.94l.56-1.63a6.19,6.19,0,0,0,3,.94c1.78,0,2.66-1,2.66-2.24s-.71-2-2.47-2.74c-2.25-.94-3.4-2.24-3.4-3.92,0-2.16,1.67-3.94,4.36-3.94a5.69,5.69,0,0,1,3,.84Z"/><path class="cls-3" d="M152.93,105.91a1.44,1.44,0,0,1,0-2.87,1.44,1.44,0,0,1,0,2.87Zm1,16.3h-2V108.35h2Z"/><path class="cls-3" d="M169.32,115.16c0,5.17-3.28,7.35-6.24,7.35-3.42,0-6.06-2.67-6.06-7.14,0-4.73,2.83-7.35,6.23-7.35C166.9,108,169.32,110.92,169.32,115.16Zm-6.14-5.49c-2.89,0-4.08,3-4.08,5.62,0,3.08,1.63,5.57,4,5.57s4.11-2.49,4.11-5.62C167.24,112.78,166.09,109.67,163.18,109.67Z"/><path class="cls-3" d="M183.06,122.21h-2V114c0-2.26-.78-4.24-3.1-4.24a3.71,3.71,0,0,0-3.5,3.94v8.49h-2v-10.3c0-1.42-.05-2.46-.1-3.58h1.81l.12,2.26h.05a4.73,4.73,0,0,1,4.28-2.57c1.67,0,4.5,1,4.5,5.75Z"/><path class="cls-3" d="M195.73,118.9a20.31,20.31,0,0,0,.2,3.31h-1.86l-.2-1.78h-.07a4.58,4.58,0,0,1-3.94,2.08,3.77,3.77,0,0,1-3.89-3.94c0-3.33,2.79-5.13,7.73-5.11,0-1.17,0-3.81-3-3.81a5.6,5.6,0,0,0-3.25,1l-.49-1.45A7.34,7.34,0,0,1,191,108c3.76,0,4.74,2.77,4.74,5.52Zm-2-3.89c-2.52,0-5.68.38-5.68,3.31a2.26,2.26,0,0,0,2.3,2.56,3.32,3.32,0,0,0,3.38-3.25Z"/><path class="cls-3" d="M201.68,122.21h-2V101.87h2Z"/><path class="cls-3" d="M204.54,113.64h6.67v1.63h-6.67Z"/><path class="cls-3" d="M226.35,121.62a11.05,11.05,0,0,1-4.64.87c-4.8,0-8.66-3.23-8.66-9.79,0-6.25,3.74-10.14,9.19-10.14a9.09,9.09,0,0,1,4.11.78l-.54,1.78a7.84,7.84,0,0,0-3.52-.78c-4.23,0-7.11,2.94-7.11,8.28,0,5.09,2.64,8.09,7,8.09a8.89,8.89,0,0,0,3.74-.79Z"/><path class="cls-3" d="M238,118.9a20.36,20.36,0,0,0,.19,3.31h-1.85l-.2-1.78H236a4.61,4.61,0,0,1-3.94,2.08,3.77,3.77,0,0,1-3.89-3.94c0-3.33,2.79-5.13,7.73-5.11,0-1.17,0-3.81-3-3.81a5.65,5.65,0,0,0-3.26,1l-.49-1.45a7.36,7.36,0,0,1,4.06-1.17c3.77,0,4.75,2.77,4.75,5.52ZM236,115c-2.52,0-5.67.38-5.67,3.31a2.26,2.26,0,0,0,2.3,2.56,3.31,3.31,0,0,0,3.37-3.25Z"/><path class="cls-3" d="M248,110.13a7.18,7.18,0,0,0-.73,0c-2.2,0-3.33,2.26-3.33,4.6v7.53h-2V112.5c0-1.48,0-2.83-.1-4.15h1.79l.1,2.67h.07a4,4,0,0,1,3.62-3c.22,0,.39,0,.61.07Z"/><path class="cls-3" d="M259.79,121.62a9.41,9.41,0,0,1-4.19.87c-3.89,0-6.21-2.85-6.21-7,0-4.35,2.35-7.48,5.94-7.48,4.11,0,5.16,3.92,5.16,6.33,0,.48,0,.84,0,1.17h-9.08c0,3.84,2.13,5.29,4.53,5.29a8.21,8.21,0,0,0,3.49-.71Zm-1.3-7.68c0-1.88-.73-4.32-3.35-4.32-2.45,0-3.52,2.42-3.72,4.32Z"/><path class="cls-3" d="M273,121.62a9.36,9.36,0,0,1-4.18.87c-3.89,0-6.22-2.85-6.22-7,0-4.35,2.35-7.48,5.95-7.48,4.1,0,5.16,3.92,5.16,6.33,0,.48,0,.84-.05,1.17h-9.08c0,3.84,2.13,5.29,4.53,5.29a8.3,8.3,0,0,0,3.5-.71Zm-1.3-7.68c0-1.88-.73-4.32-3.35-4.32-2.45,0-3.52,2.42-3.72,4.32Z"/><path class="cls-3" d="M282.8,110.13a7.18,7.18,0,0,0-.73,0c-2.21,0-3.33,2.26-3.33,4.6v7.53h-2V112.5c0-1.48,0-2.83-.1-4.15h1.79l.09,2.67h.08a4,4,0,0,1,3.62-3c.22,0,.39,0,.61.07Z"/></g></g></svg>