<svg xmlns="http://www.w3.org/2000/svg" viewBox="0 0 320 225"><defs><style>.cls-1{fill:#fff;}.cls-2{fill:#1d2c6c;}.cls-3{fill:#040000;}</style></defs><title>img_related_services01</title><g id="Layer_2" data-name="Layer 2"><g id="service_pc"><rect class="cls-1" width="320" height="225"/><path class="cls-2" d="M51.07,109.25a23.47,23.47,0,0,0,.8,2.41,24.55,24.55,0,0,0,2.64,4.48,22.4,22.4,0,0,0,9.88,6.77,10.91,10.91,0,0,0-2.19,1.61,7.73,7.73,0,0,0-1.37,2A24.57,24.57,0,0,1,53.37,119a22.42,22.42,0,0,1-2.76-8,20,20,0,0,1-2.87,8.27,18.4,18.4,0,0,1-7,6.08,19.57,19.57,0,0,1-3.21,1.38c-.62.07-.69-.12-.23-.58a23.57,23.57,0,0,0,6-4.93A18.69,18.69,0,0,0,46,116.37a26.09,26.09,0,0,0,1.49-7.12H37.75l-.45-.8H47.51a73.86,73.86,0,0,0,0-8.15l4.25.46c.61.23.65.69.11,1.37l-.69.46c-.07,2-.15,4-.22,5.86h7.23l2-2.76,2.75,2.53c.46.53.39.88-.23,1Z"/><path class="cls-2" d="M80.23,110.28a23.86,23.86,0,0,1-.69,4,14.4,14.4,0,0,1-2.64,5.86,17.35,17.35,0,0,1-5.74,4.36,19.51,19.51,0,0,1-3.9,1.49,2.07,2.07,0,0,0-.58.11c-.69.08-.8-.11-.34-.57a18.46,18.46,0,0,0,5.28-3.44,14.22,14.22,0,0,0,3.79-5.86,22.7,22.7,0,0,0,1.26-6.42c.23-3.37.3-6.43.23-9.19l4.24.46c1.08.16,1.27.65.58,1.49l-1,.69a28.84,28.84,0,0,0,.68,6.77,18.22,18.22,0,0,0,5,8.27,26.92,26.92,0,0,0,7.7,4.59,6.35,6.35,0,0,0-3.33,3.33,29.63,29.63,0,0,1-3.56-2.64A20.93,20.93,0,0,1,82.64,118,22.74,22.74,0,0,1,80.23,110.28Z"/><path class="cls-2" d="M108.69,104.66a4.63,4.63,0,0,1,2.41,2,.64.64,0,0,1-.11.8,9.67,9.67,0,0,0-.92,1.61,1.76,1.76,0,0,0-.11.58,16.33,16.33,0,0,1-1.27,3.55,30.2,30.2,0,0,1-4,6.78,9.36,9.36,0,0,1-2.76,2.52q-1.61.69-3.79-1.83-2.64-3.11-1-7.81,3.56-10.22,12.86-9.18a18.58,18.58,0,0,1,7.92,2.41,8.19,8.19,0,0,1,4,5.74A8.74,8.74,0,0,1,119,120a15.29,15.29,0,0,1-7.69,3.56c-1.91.38-2.94.5-3.1.34s.08-.3.69-.46a17.73,17.73,0,0,0,4.14-1.6,10.39,10.39,0,0,0,3.55-3q2.64-3.44,1.38-8.61a6.87,6.87,0,0,0-4.48-4.93A10.34,10.34,0,0,0,108.69,104.66Zm-2.18.46q-3.67,1-6,6.08a13.77,13.77,0,0,0-1.14,5.51,5.15,5.15,0,0,0,.23,1.84c.23.69.61,1,1.14.92,1.23-.15,2.41-1.3,3.56-3.45a26.65,26.65,0,0,0,2-4.82l.92-3a4.37,4.37,0,0,0,.23-2.3A1.1,1.1,0,0,0,106.51,105.12Z"/><path class="cls-2" d="M138.19,112.47a44.91,44.91,0,0,1-5.85,3.32,37.55,37.55,0,0,1-5,1.84c-1.15.31-1,0,.57-.92a36,36,0,0,0,3.33-2.06,51,51,0,0,0,10.45-9.42c.3-.38.69-.84,1.15-1.37a2,2,0,0,0,.57-1c0-.38-.5-.8-1.49-1.26A1.65,1.65,0,0,1,143,101a2.79,2.79,0,0,1,2.06.69l1,.8a8.79,8.79,0,0,1,1.38,1.49c.69.69.46,1.26-.69,1.72a2.4,2.4,0,0,0-1.37.69c-1.46,1.3-2.91,2.57-4.37,3.79l.69.34c.54.46.5.92-.11,1.38l-.35.12q0,2.05.12,7.34v2.18c.07.77.11,1.34.11,1.73a4.86,4.86,0,0,1-.23,1.6,1.45,1.45,0,0,1-1.72,1c-.69-.08-1.22-.62-1.61-1.61a3,3,0,0,1-.11-1.49c.08-.31.15-.73.23-1.27a36.49,36.49,0,0,0,.23-5.16Q138.31,115.11,138.19,112.47Z"/><path class="cls-2" d="M164.71,111.2c-1.15.16-2-.69-2.64-2.52a8.2,8.2,0,0,0-2.87-3.79,11.91,11.91,0,0,0-1.49-.92c-.23-.15-.19-.27.11-.34a11.69,11.69,0,0,1,3.22.46q4.59,1,5.16,4.13C166.51,110.05,166,111.05,164.71,111.2Zm-6.08,8.38c.3.54.57,1,.8,1.38s.57.23,1.26,0a31.79,31.79,0,0,0,5.4-2.3,46.71,46.71,0,0,0,5.16-3,54.79,54.79,0,0,0,8.61-6.77l.46-.46c.92-.61,1.11-.46.58.46a49.31,49.31,0,0,1-7.7,8.61,48,48,0,0,1-10.1,6.88c-.38.77-.69,1.19-.91,1.27-.54.15-1.5-.5-2.87-2a6.33,6.33,0,0,1-1.15-1.37C157.71,121.11,157.86,120.2,158.63,119.58Z"/><path class="cls-2" d="M204.54,103.4a18.59,18.59,0,0,1,3.1,2.75c.54.77.46,1.23-.23,1.38l-.8.23a57.1,57.1,0,0,1-4.94,8.15,25.38,25.38,0,0,1-6.54,6.31,39.32,39.32,0,0,1-4.59,2.41c-1.38.61-2.26,1-2.64,1.15s-.42.08-.35-.23a15.1,15.1,0,0,1,1.5-1,31.41,31.41,0,0,0,4.47-3.56,39.11,39.11,0,0,0,3.79-4,2,2,0,0,1-1.49-1.15,10.84,10.84,0,0,0-3.22-4,23.61,23.61,0,0,1-6,4.93c-.84.46-.91.35-.22-.34a26.11,26.11,0,0,0,6.42-10.1c.31-.92.61-1.8.92-2.64.54-1.15.42-1.84-.34-2.07l-.69-.46a1.67,1.67,0,0,1,1.72-.8,7.08,7.08,0,0,1,2.07.92,4.36,4.36,0,0,1,1.83,1.49.78.78,0,0,1-.11.92,5,5,0,0,1-.8.57q-.24.47-.69,1.26c3.9-.53,6.2-.88,6.88-1Zm-11.13,7.69a9.23,9.23,0,0,1,3.44.92c1.38.84,2,1.83,2,3a44.59,44.59,0,0,0,4.36-8.38,32.54,32.54,0,0,0-5.73.92,1.36,1.36,0,0,1-1.73-.12c-.38.62-.73,1.19-1,1.73S193.87,110.4,193.41,111.09Z"/><path class="cls-2" d="M235.19,111.66a2.49,2.49,0,0,1,2.76-.34,5,5,0,0,1,1.14.92,4.18,4.18,0,0,0,.58.45,1.85,1.85,0,0,1,.46.69q.45,1.38-.81,1.5a31.21,31.21,0,0,0-4.36-.23c-2.29,0-4,0-5.16.11q-5.87.24-8,.46l-2.07.23a4,4,0,0,0-1.49.34c-.53.62-1.19.43-1.95-.57-.31-.38-.57-.73-.8-1a2.66,2.66,0,0,1-.69-2.64q.35-.81.69-.81a3.51,3.51,0,0,0,1,1.5,2.41,2.41,0,0,0,1.61.23c1-.08,3.33-.19,7-.35Q231.29,111.9,235.19,111.66Z"/><path class="cls-2" d="M252.87,111.2c-1.15.16-2-.69-2.64-2.52a8.2,8.2,0,0,0-2.87-3.79,11.91,11.91,0,0,0-1.49-.92c-.23-.15-.2-.27.11-.34a11.64,11.64,0,0,1,3.21.46c3.06.68,4.79,2.06,5.17,4.13C254.66,110.05,254.17,111.05,252.87,111.2Zm-6.09,8.38q.47.81.81,1.38.22.35,1.26,0a31.79,31.79,0,0,0,5.4-2.3,47.65,47.65,0,0,0,5.16-3,55.25,55.25,0,0,0,8.61-6.77l.46-.46c.92-.61,1.11-.46.57.46a48.83,48.83,0,0,1-7.69,8.61,48.21,48.21,0,0,1-10.1,6.88c-.38.77-.69,1.19-.92,1.27-.53.15-1.49-.5-2.87-2a6.51,6.51,0,0,1-1.14-1.37C245.87,121.11,246,120.2,246.78,119.58Z"/><path class="cls-3" d="M281.39,102a5.7,5.7,0,1,1-4.1-1.61A5.34,5.34,0,0,1,281.39,102Zm-7.36.18a5.1,5.1,0,1,0,8.52,3.79,4.75,4.75,0,0,0-1.34-3.39,5,5,0,0,0-3.79-1.74A4.75,4.75,0,0,0,274,102.17Zm3.7.22a12.6,12.6,0,0,1,1.39,0,1.76,1.76,0,0,1,1.69,1.39,1.32,1.32,0,0,1,.05.31,1.48,1.48,0,0,1-.36.94,2.23,2.23,0,0,1-1.65.85l1.25,2.76a1,1,0,0,0,.94.49v.32H278.8l-1.47-3.57h-1v2.45a.76.76,0,0,0,.22.63,1.05,1.05,0,0,0,.67.17.19.19,0,0,0,.18,0v.32h-3.53v-.32a1.24,1.24,0,0,0,.76-.17c.18-.06.27-.32.27-.76v-4.73a.76.76,0,0,0-.31-.72,2.09,2.09,0,0,0-.72-.09v-.31Zm-1.11.54a.93.93,0,0,0-.27.71v1.92h1.11a3.28,3.28,0,0,0,1-.14,1.12,1.12,0,0,0,.72-1.07v-.22a1.1,1.1,0,0,0-.23-.8,1.78,1.78,0,0,0-1.56-.58A1.71,1.71,0,0,0,276.62,102.93Z"/></g></g></svg>