<?xml version="1.0" encoding="utf-8"?>
<!-- Generator: Adobe Illustrator 24.0.1, SVG Export Plug-In . SVG Version: 6.00 Build 0)  -->
<svg version="1.1" xmlns="http://www.w3.org/2000/svg" xmlns:xlink="http://www.w3.org/1999/xlink" x="0px" y="0px"
	 viewBox="0 0 210 38" style="enable-background:new 0 0 210 38;" xml:space="preserve">
<style type="text/css">
	.st0{fill:#F7F7F7;}
	.st1{fill:none;stroke:#A0A0A0;stroke-width:4;stroke-miterlimit:10;}
	.st2{fill:none;stroke:#505050;stroke-width:2;stroke-linecap:round;stroke-linejoin:round;stroke-miterlimit:10;}
	.st3{fill:#FFFFFF;}
	.st4{fill:#CE002E;}
	.st5{fill:#505050;}
	.st6{fill:none;}
	.st7{fill:#FDFDFD;}
	.st8{fill:none;stroke:#F1F1F1;stroke-width:2;stroke-miterlimit:10;}
	.st9{fill:#A0A0A0;}
	.st10{fill:none;stroke:#505050;stroke-linecap:round;stroke-linejoin:round;stroke-miterlimit:10;}
	.st11{fill:none;stroke:#A0A0A0;stroke-width:2;stroke-miterlimit:10;}
	.st12{fill:#FAFAFA;}
	.st13{fill:none;stroke:#EEEEEE;stroke-width:0.9995;stroke-miterlimit:10;}
	.st14{fill:none;stroke:#505050;stroke-width:2.4;stroke-linecap:round;stroke-linejoin:round;stroke-miterlimit:10;}
	.st15{clip-path:url(#SVGID_132_);}
	.st16{fill:none;stroke:#FFFFFF;stroke-linecap:round;stroke-linejoin:round;stroke-miterlimit:10;}
	.st17{fill:#EEEEEE;}
	.st18{clip-path:url(#SVGID_138_);}
	.st19{clip-path:url(#SVGID_140_);}
	.st20{clip-path:url(#SVGID_142_);}
	.st21{fill:none;stroke:#FFFFFF;stroke-width:2;stroke-miterlimit:10;}
	.st22{fill:none;stroke:#CE002E;stroke-linecap:round;stroke-linejoin:round;stroke-miterlimit:10;}
	.st23{clip-path:url(#SVGID_144_);}
	.st24{clip-path:url(#SVGID_146_);}
	.st25{clip-path:url(#SVGID_148_);}
	.st26{clip-path:url(#SVGID_150_);}
	.st27{clip-path:url(#SVGID_152_);}
	.st28{fill:none;stroke:#CE002E;stroke-width:2.2901;stroke-miterlimit:10;}
	.st29{clip-path:url(#SVGID_154_);}
	.st30{clip-path:url(#SVGID_156_);}
	.st31{fill:#1D2C6C;}
	.st32{fill:#040000;}
	.st33{fill:none;stroke:#999898;stroke-miterlimit:10;}
	.st34{fill:#999898;}
	.st35{fill:url(#SVGID_227_);}
	.st36{fill:url(#SVGID_228_);}
	.st37{fill:none;stroke:#FFFFFF;stroke-width:2.94;stroke-miterlimit:10;}
	.st38{fill:none;stroke:#CE002E;stroke-width:1.47;stroke-linecap:round;stroke-linejoin:round;stroke-miterlimit:10;}
	.st39{clip-path:url(#SVGID_242_);}
	.st40{clip-path:url(#SVGID_246_);}
	.st41{clip-path:url(#SVGID_248_);}
	.st42{fill:none;stroke:#FFFFFF;stroke-width:2;stroke-linecap:round;stroke-linejoin:round;stroke-miterlimit:10;}
	.st43{fill:none;stroke:#999898;stroke-width:2.036;stroke-miterlimit:10;}
	.st44{fill:none;stroke:#CE002E;stroke-width:4;stroke-miterlimit:10;}
</style>
<g id="service_x5F_flow_x5F_sp">
</g>
<g id="service_x5F_flow_x5F_pc">
</g>
<g id="service_x5F_pc">
	<g>
		<g id="log-white_1_">
			<path d="M151.3,31.3c-2.2,0-4.7-0.7-6.7-2.3c-0.9-0.7-0.9-0.8-0.3-1.8c0.3-0.5,0.6-1,0.9-1.6c0.3-0.6,0.8-0.7,1.4-0.3
				c1.1,0.7,2.2,1.4,3.5,1.7c0.9,0.3,1.8,0.4,2.8,0.1c1.1-0.3,1.9-1,2-2.2c0.1-0.9-0.2-1.6-0.8-2.3c-0.8-0.9-1.9-1.4-3-1.8
				c-1.3-0.5-2.6-1.1-3.8-1.9c-1.4-0.9-2.5-2-3-3.6c-1.2-3.4,0.6-6.9,4-8.1c2.5-0.9,4.9-0.7,7.3,0.2c1.1,0.4,2,0.9,3,1.5
				c0.5,0.3,0.5,0.8,0.2,1.2c-0.4,0.6-0.8,1.2-1.2,1.9c-0.4,0.6-0.8,0.7-1.5,0.3c-1.2-0.8-2.5-1.4-3.9-1.7c-1.2-0.2-2.3,0-3.1,0.9
				c-0.9,1-0.8,2.4,0.3,3.4c0.8,0.8,1.8,1.2,2.8,1.6c1.5,0.6,3,1.2,4.3,2.1c1.4,1,2.6,2.2,3.1,3.9c0.8,2.8-0.5,5.8-3.1,7.3
				C155.1,30.9,153.6,31.3,151.3,31.3z"/>
			<path d="M86.3,31.2c-2.1,0-4.5-0.7-6.6-2.3c-0.9-0.7-0.9-0.8-0.3-1.7c0.3-0.5,0.6-1.1,0.9-1.6c0.3-0.6,0.8-0.7,1.3-0.3
				c1.2,0.8,2.4,1.5,3.8,1.9c0.8,0.2,1.6,0.3,2.5,0c2.2-0.7,2.8-3,1.1-4.6c-0.9-0.8-1.9-1.3-3-1.8c-1.4-0.6-2.9-1.2-4.1-2.2
				c-1.3-1-2.2-2.2-2.6-3.7c-0.8-3.2,0.9-6.3,4-7.5c2.4-0.9,4.9-0.8,7.3,0c1.1,0.4,2.2,0.9,3.1,1.6c0.5,0.3,0.6,0.8,0.2,1.2
				c-0.4,0.6-0.8,1.2-1.2,1.9c-0.4,0.6-0.8,0.6-1.4,0.3c-1.2-0.8-2.5-1.4-4-1.7c-0.8-0.2-1.7-0.1-2.4,0.4c-1.4,0.8-1.7,2.4-0.7,3.6
				c0.7,0.8,1.6,1.3,2.5,1.7c1.3,0.6,2.6,1.2,4,1.8c1.2,0.6,2.2,1.4,3,2.4c2.3,3,1.5,7.2-1.7,9.3C90.4,30.9,88.7,31.3,86.3,31.2z"/>
			<path d="M166.8,18.1c0.9-0.6,1.9-0.9,2.9-1.1c3.2-0.3,5.9,1.2,6.7,4.6c0.2,0.6,0.2,1.3,0.2,1.9c0,2.2,0,4.4,0,6.6
				c0,0.6-0.2,0.8-0.8,0.8c-0.8,0-1.7,0-2.5,0c-0.6,0-0.8-0.2-0.8-0.8c0-2.2,0-4.3,0-6.5c0-0.8-0.2-1.6-0.8-2.2
				c-1.1-1.2-3.3-1.1-4.4,0.3c-0.4,0.5-0.6,1.1-0.6,1.9c0,2.2,0,4.4,0,6.5c0,0.6-0.2,0.8-0.8,0.8c-0.9,0-1.8,0-2.7,0
				c-0.5,0-0.8-0.2-0.8-0.8c0-7.4,0-14.9,0-22.3c0-0.5,0.2-0.8,0.8-0.8c0.9,0,1.8,0,2.7,0c0.6,0,0.8,0.3,0.8,0.8c0,3.3,0,6.5,0,9.8
				C166.8,17.8,166.8,17.9,166.8,18.1z"/>
			<path d="M102,24.5c0,0.2,0,0.3,0,0.5c0,1.7,0,3.4,0,5.1c0,0.6-0.2,0.8-0.8,0.8c-0.9,0-1.8,0-2.7,0c-0.5,0-0.8-0.2-0.8-0.8
				c0-7.4,0-14.8,0-22.3C97.7,7.3,98,7,98.5,7c0.9,0,1.8,0,2.7,0c0.5,0,0.8,0.3,0.8,0.8c0,4.7,0,9.4,0,14.2c0,0.1,0,0.3,0,0.4
				c0,0,3.2-3.1,4.6-4.6c0.4-0.4,0.5-0.5,1.1-0.5c0.9,0,2.2,0,3.1,0c0.3,0,0.6,0,0.7,0.4c0.1,0.3-0.1,0.5-0.3,0.7
				c-1.6,1.6-4.9,5-5.1,5.1c0.6,0.6,1.1,1.2,1.7,1.8c1.5,1.6,3,3.1,4.4,4.6c0.1,0.1,0.1,0.1,0.2,0.2c0.3,0.4,0.1,0.9-0.4,0.9
				c-0.4,0-0.8,0-1.2,0c-0.8,0-1.6,0-2.4,0c-0.4,0-0.6-0.1-0.9-0.4c-1.7-1.9-3.4-3.8-5.1-5.8C102.1,24.7,102.1,24.6,102,24.5z"/>
			<path d="M193.4,17.3c1.1,0,2.2,0,3.2,0c0.8,0,0.9,0.2,0.9,0.9c0,0.6,0,1.2,0,1.9c0,0.5-0.2,0.8-0.8,0.8c-1,0-2,0-3,0
				c-0.1,0-0.2,0-0.4,0c0,0.2,0,0.3,0,0.4c0,2.9,0,5.8,0,8.7c0,0.7-0.2,0.9-0.9,0.9c-0.9,0-1.7,0-2.6,0c-0.6,0-0.9-0.2-0.9-0.9
				c0-2.9,0-5.8,0-8.7c0-0.1,0-0.3,0-0.4c-0.4,0-0.8,0-1.1,0c-0.5,0-0.7-0.3-0.7-0.7c0-0.7,0-1.4,0-2.2c0-0.5,0.3-0.7,0.7-0.7
				c0.3,0,0.7,0,1.1,0c0-0.2,0-0.3,0-0.4c0-1.4,0-2.8,0.1-4.2c0.2-2.7,1.6-4.8,4.2-5.6c2.1-0.6,4-0.4,5.9,0.7
				c0.7,0.4,0.7,0.7,0.3,1.4c-0.3,0.6-0.6,1.1-0.9,1.7c-0.2,0.5-0.5,0.5-1,0.3c-0.3-0.2-0.7-0.4-1.1-0.5c-1.6-0.5-2.9,0.3-3.1,1.9
				c-0.1,0.5-0.1,0.9-0.1,1.4C193.4,15.1,193.4,16.1,193.4,17.3z"/>
			<path d="M201.6,20.9c-0.4,0-0.8,0-1.1,0c-0.4,0-0.7-0.3-0.7-0.7c0-0.7,0-1.5,0-2.2c0-0.5,0.2-0.7,0.7-0.7c0.3,0,0.7,0,1,0
				c0,0,0,0,0.1,0c0-0.1,0-0.2,0-0.3c0-1.1,0-2.2,0-3.3c0-0.5,0.2-0.8,0.8-0.8c0.8,0,1.7,0,2.5,0c0.6,0,0.8,0.2,0.8,0.8
				c0,1.1,0,2.2,0,3.3c0,0.1,0,0.2,0,0.4c0.2,0,0.3,0,0.4,0c0.9,0,1.7,0,2.6,0c0.5,0,0.7,0.2,0.7,0.7c0,0.7,0,1.4,0,2.1
				c0,0.5-0.3,0.8-0.8,0.8c-1,0-1.9,0-3,0c0,0.1,0,0.3,0,0.4c0,1.7,0,3.4,0,5c0,0.8,0.3,1.2,1.1,1.1c0.5,0,1-0.2,1.5-0.3
				c0.6-0.2,0.8-0.1,1,0.5c0.2,0.6,0.4,1.3,0.6,1.9c0.1,0.4,0,0.7-0.3,0.8c-1.7,0.7-3.5,1.2-5.4,0.8c-1.5-0.3-2.4-1.4-2.6-3
				c0-0.4-0.1-0.8-0.1-1.1c0-1.9,0-3.8,0-5.6C201.6,21.2,201.6,21.1,201.6,20.9z"/>
			<path d="M131.5,19c0-3.7,0-7.4,0-11.1c0-0.6,0.2-0.9,0.9-0.9c0.9,0,1.7,0,2.6,0c0.6,0,0.8,0.3,0.8,0.8c0,7.4,0,14.8,0,22.3
				c0,0.6-0.2,0.8-0.8,0.8c-0.9,0-1.8,0-2.7,0c-0.6,0-0.8-0.2-0.8-0.8C131.5,26.4,131.5,22.7,131.5,19z"/>
			<path d="M123.1,19c0-3.7,0-7.4,0-11.1c0-0.6,0.2-0.8,0.8-0.8c0.9,0,1.7,0,2.6,0c0.6,0,0.8,0.2,0.8,0.8c0,7.4,0,14.8,0,22.3
				c0,0.6-0.2,0.8-0.8,0.8c-0.9,0-1.8,0-2.6,0c-0.6,0-0.8-0.2-0.8-0.8C123.1,26.4,123.1,22.7,123.1,19z"/>
			<path d="M179.9,24.1c0-2,0-3.9,0-5.9c0-0.6,0.2-0.9,0.8-0.9c0.9,0,1.7,0,2.6,0c0.6,0,0.8,0.2,0.8,0.8c0,2.1,0,4.3,0,6.4
				c0,1.8,0,3.6,0,5.5c0,0.7-0.2,0.9-0.9,0.9c-0.8,0-1.7,0-2.5,0c-0.6,0-0.8-0.2-0.8-0.8C179.9,28.1,179.9,26.1,179.9,24.1z"/>
			<path d="M118.9,24.1c0,2,0,4,0,6c0,0.5-0.2,0.8-0.8,0.8c-0.9,0-1.7,0-2.6,0c-0.6,0-0.8-0.2-0.8-0.8c0-4,0-8,0-12
				c0-0.6,0.2-0.8,0.8-0.8c0.9,0,1.7,0,2.6,0c0.5,0,0.8,0.2,0.8,0.8C118.9,20.1,118.9,22.1,118.9,24.1z"/>
			<path d="M181.9,7.7c1.4,0,2.4,1.1,2.4,2.4c0,1.3-1.1,2.3-2.5,2.3c-1.4,0-2.3-1.1-2.3-2.5C179.6,8.8,180.7,7.7,181.9,7.7z"/>
			<path d="M119.1,10.1c0,1.3-1,2.4-2.4,2.4c-1.3,0-2.4-1-2.4-2.3c0-1.3,1-2.3,2.3-2.4C118,7.7,119.1,8.8,119.1,10.1z"/>
		</g>
		<linearGradient id="SVGID_2_" gradientUnits="userSpaceOnUse" x1="-9.094947e-13" y1="19.0228" x2="69.5514" y2="19.0228">
			<stop  offset="0" style="stop-color:#F9C000"/>
			<stop  offset="1" style="stop-color:#FAD41C"/>
		</linearGradient>
		<path style="fill:url(#SVGID_2_);" d="M61.4,3.5c0,0-7.5-5.9-17.6-2.3c0,0-8.1,3-11.2,11.2L21,0.9c0,0-0.9-1.2-3.9-0.8
			c0,0-10.4,0.7-15.6,11.4c0,0-2.9,6.5-0.6,13.5c0,0,2.6,8.6,11.6,11.8c0,0,9.2,4,18-2.7c0,0,3.7-2.4,6.4-8.5l11.6,11.5
			c0,0,0.6,1.2,3.9,0.8c0,0,14.2-0.6,17.1-16.5C69.4,21.4,71.3,10.5,61.4,3.5z M31.4,20.9c-0.1,0.7-1.1,5.6-5,8.2
			c0,0-6,4.7-13.1,1.2c0,0-8.4-3.9-6.9-13.7c0,0,1.3-7.4,8.6-9.8L17,6.4c0,0,0.5-0.2,0.9,0.1l13.4,13.4
			C31.3,19.9,31.6,20.2,31.4,20.9z M62.9,21.3c-1.7,8.6-10.2,10.1-10.2,10.1c-0.9,0.2-1.2-0.1-1.2-0.1L38.1,17.8
			c-0.1-0.5,0-1.1,0-1.1c0.2-2.2,2-5,2-5c4.4-5.5,9.2-5.3,9.2-5.3c5.6-0.4,8.8,2.4,8.8,2.4C64.8,14.4,62.9,21.3,62.9,21.3z"/>
	</g>
</g>
<g id="service_x5F_sp">
</g>
</svg>
