<?xml version="1.0" encoding="utf-8"?>
<!-- Generator: Adobe Illustrator 24.0.1, SVG Export Plug-In . SVG Version: 6.00 Build 0)  -->
<svg version="1.1" id="Layer_1" xmlns="http://www.w3.org/2000/svg" xmlns:xlink="http://www.w3.org/1999/xlink" x="0px" y="0px"
	 viewBox="0 0 752.8 207.4" style="enable-background:new 0 0 752.8 207.4;" xml:space="preserve">
<style type="text/css">
	.st0{fill:#0C131B;}
	.st1{fill:#003B7D;}
</style>
<g>
	<path class="st0" d="M457.2,140.8c4.5,0,8.3,0,12.4,0c0,7,0,13.3,0,20.6c-7.1,0-21.6,0-21.6,0s-4.8-4.1-7.6-6.7
		c-16.5,8.4-33.8,9.7-51.4,2.3c-12.9-5.5-22.5-14.7-28.8-27.2c-12.5-24.7-5.3-55.4,16.9-72.1c22.4-16.9,53.8-15.3,74.3,3.5
		C470.8,79,478.4,111.7,457.2,140.8z M442.8,124c10.5-15,7.5-36.3-6.2-47.9c-15.6-13.2-36.4-12.5-50.5,1.6c-14,14-14.8,34.8-2,50.2
		c11.8,14.2,33.3,15.8,42.3,9.2c-4-4.8-7.9-9.7-12.1-14.7c5.6-4.6,10.7-8.9,16-13.3C434.6,114.3,438.5,119,442.8,124z"/>
	<path class="st0" d="M655.5,161.1c0-7.3,0-13.7,0-20.5l7.3,0c0-24.5,0-49.5,0-74.2h-7.3c0-6.7,0.1-14.5,0.1-21.2
		c0,0,31-0.3,45.8,0.8c28.3,2.1,50.4,26.5,51.4,55.6c1,28-19.3,53.5-46.6,58.4c-3.4,0.6-6.9,1-10.4,1.1
		C682.4,161.2,669.1,161.1,655.5,161.1z M684.1,140.6c18.3,2.1,33.6-2.8,42.9-19.3c7.9-14,6.6-28-3.1-40.7
		c-10-13.1-23.7-15.6-39.7-14.5C684.1,90.7,684.1,116,684.1,140.6z"/>
	<path class="st0" d="M574.9,66.4c0,16.7,0.1,33.8,0,50.2c0,3.6-0.3,7.3-0.9,10.9c-3.3,20-21.5,34.6-42.4,34.2
		c-20.6-0.4-38.3-15.5-40.5-35.6c-1.2-10.4-0.7-20.9-0.9-31.4c-0.1-9.1,0-18.9,0-28.3l-7,0c0-6.7,0-13.3,0-20.3
		c11.7,0,23.6,0,35.6,0l0,20.3h-7.7c0,0-0.1,36-0.1,51.5c0,13.4,9.2,23,21.7,22.9c12.3-0.1,21.2-9.7,21.2-22.8
		c0-15.3-0.1-51.6-0.1-51.6h-7.2c0-6.8,0-13.4,0-20.4c11.8,0,23.4,0,35.3,0c0,6.8,0,13.4,0,20.4H574.9z"/>
	<path class="st0" d="M202.1,161.4c0-6.9,0-14,0-20.8h6.7c0-24.5,0-49.4,0-74.2h-6.6c0-6.7,0-13.3,0-20.3c11.5,0,23.1,0,35.1,0
		c0,6.5,0,13.2,0,20.2l-7,0c0,24.6,0,49.5,0,74.2c12.3,0,24.4,0,37,0c0-3.4,0-6.7,0-10.3c7,0,13.6,0,20.4,0c0,10.3,0,20.6,0,31.1
		C259.4,161.4,231,161.4,202.1,161.4z"/>
	<path class="st0" d="M334.3,140.6h6.9c0,6.7,0,13.8,0,20.8c-11.7,0-23.4,0-35.5,0c0-6.6,0-13.8,0-20.8h7c0-24.4,0-48.8,0-73.6
		c-2.2-0.2-4.4-0.3-7-0.5c0-6.8,0-13.5,0-20.4c11.9,0,23.6,0,35.6,0c0,6.8,0,13.5,0,20.4c-2.3,0.1-4.4,0.3-6.9,0.4
		C334.3,91.4,334.3,115.9,334.3,140.6z"/>
	<path class="st0" d="M601.3,141c2.5-0.2,4.4-0.3,6.7-0.4c0-24.5,0-49.5,0-74.2h-6.6c0-6.8,0-13.4,0-20.4c11.8,0,23.4,0,35.3,0v20.4
		h-7.1c0,24.4,0,49.4,0,74.1c2.3,0.2,4.5,0.4,7,0.6c0,6.7,0,13.3,0,20.2c-11.7,0-23.4,0-35.3,0C601.3,154.6,601.3,148.1,601.3,141z"
		/>
</g>
<path class="st1" d="M0.1,103.6c0-24.4,0-48.7,0-73.1c0-2.7,0.8-4.3,3.2-5.6C17.1,17,30.9,9,44.6,0.9c2.1-1.2,3.6-1.1,5.6,0
	c13.9,8.2,27.9,16.3,42,24.3c2,1.2,2.5,2.6,2.5,4.8c-0.1,14.4,0,28.8-0.1,43.3c0,2.3,0.7,3.5,2.7,4.6c12.4,7,24.6,14.3,37,21.3
	c2.5,1.4,3.3,3,3.3,5.8c-0.1,15.8-0.1,31.6,0,47.4c0,2.5-0.8,4.1-3.1,5.4c-27.8,16-55.6,32.1-83.4,48.3c-2.7,1.6-4.8,1.6-7.4,0
	c-13.4-7.9-26.9-15.7-40.4-23.4c-2.5-1.4-3.3-3.1-3.2-5.9C0.1,152.3,0.1,127.9,0.1,103.6z M12.7,123.6c23.4,0,46.1,0,69.4,0
	c-11.6-20.2-23-40-34.7-60.3C35.7,83.6,24.4,103.4,12.7,123.6z M13.9,29.3c0.8,0.6,1.2,0.8,1.6,1.1c9.9,5.8,19.9,11.5,29.8,17.3
	c1.5,0.9,2.7,0.9,4.2,0c9.8-5.8,19.7-11.4,29.5-17.2c0.5-0.3,1-0.8,1.7-1.3c-10.9-6.3-21.5-12.5-32.1-18.5c-0.6-0.3-1.8-0.3-2.4,0
	C35.6,16.7,25,22.9,13.9,29.3z M84.9,110.1c0.2-0.1,0.3-0.1,0.5-0.2c0-24,0-48,0-72.5c-10.8,6.3-21.2,12.3-31.7,18.4
	C64.2,74.1,74.6,92.1,84.9,110.1z M9.2,170c21.4-12.4,42.1-24.4,63.5-36.8c-1.2-0.2-1.5-0.3-1.9-0.3c-19.8,0-39.5,0-59.3,0
	c-2.1,0-2.4,0.9-2.4,2.6c0.1,9.2,0,18.5,0,27.7C9.2,165.3,9.2,167.3,9.2,170z M41.2,55.8C30.5,49.6,20.1,43.6,9.4,37.4
	c0,24.5,0,48.5,0,72.5c0.2,0.1,0.4,0.1,0.6,0.2C20.3,92.1,30.6,74.1,41.2,55.8z M45.7,196.4c10.5-18.3,20.9-36.3,31.3-54.4
	c-0.2-0.2-0.3-0.3-0.5-0.5c-20.8,12-41.5,24.1-62.8,36.4C24.8,184.3,35.1,190.3,45.7,196.4z M123.8,153.2
	c-10.9-6.3-21.2-12.3-31.9-18.5c-10.5,18.3-20.9,36.4-31.4,54.5c0.2,0.1,0.3,0.2,0.5,0.4C81.8,177.5,102.6,165.5,123.8,153.2z
	 M95,87c0,11.3,0,22.1,0,33.4c9.7-5.6,19.1-11.1,28.8-16.7C113.9,97.9,104.6,92.5,95,87z M99.3,128.4c9.8,5.7,19.2,11.1,28.9,16.7
	c0-11.4,0-22.2,0-33.4C118.5,117.3,109.1,122.8,99.3,128.4z"/>
</svg>
