<?xml version="1.0" encoding="utf-8"?>
<!-- Generator: Adobe Illustrator 24.0.1, SVG Export Plug-In . SVG Version: 6.00 Build 0)  -->
<svg version="1.1" id="Layer_1" xmlns="http://www.w3.org/2000/svg" xmlns:xlink="http://www.w3.org/1999/xlink" x="0px" y="0px"
	 viewBox="0 0 1532 580" style="enable-background:new 0 0 1532 580;" xml:space="preserve">
<style type="text/css">
	.st0{fill:#FFFFFF;}
	.st1{fill:#1C957A;}
</style>
<image style="display:none;overflow:visible;" width="1532" height="580" xlink:href="松井証券ロゴ.jpg" >
</image>
<path class="st0" d="M1532,580c-510.6,0-1021.3,0-1532,0C0,386.7,0,193.4,0,0c510.6,0,1021.3,0,1532,0
	C1532,193.2,1532,386.6,1532,580z M1296.2,312.6c-0.4,8.8-0.6,16.8-1.1,24.7c-0.9,15.9-3.1,17.9-18.9,17.9c-6.6,0-13.1,0-19.7,0
	c-0.2,0.5-0.3,1-0.5,1.5c3.3,2.7,6.2,6.3,9.9,7.8c6.4,2.5,8.7,4.2,9.3,11.2c0.5,5.9,0.8,11.9,1.2,19.1c9.2-0.8,18.2-1,26.9-2.4
	c11.6-1.9,19.3-9.2,23.4-20.2c1.3-3.6,2.7-7.3,3.2-11c1.5-11.3,2.7-22.7,4-34.3c4.6,1.9,9.6,3.9,14.6,6.1c4.2,1.9,5.6,0.1,6.3-3.8
	c1-5,2.1-10.1,4-14.9c1.1-2.8,3.2-6.1,5.6-7.2c4.8-2,6.3-5.9,8.8-9.7c-20.4-5.4-40.1-11.5-57-24.5c1.6,0,3.2,0,4.9,0
	c14,0,28,0,42-0.1c1.4,0,3.1-0.9,4.1-1.9c0.4-0.4-0.2-2.7-1-3.4c-9.5-8.2-19.1-16.4-28.9-24.7c-1.3,2.2-2.3,3.8-3.2,5.3
	c-2.9,4.9-4.7,11.6-9,14c-4.5,2.5-11.3,0.9-17.1,1c-1.8,0-4.3,0.1-5.1-0.9c-5.3-6.2-10.3-12.8-16.3-20.4c3.6,0,5.4,0,7.2,0
	c21.7,0,43.3,0.2,65,0c3,0,6-1.4,9-2.1c-1.8-2.4-3.3-5.1-5.5-7.1c-7.1-6.2-14.4-12.1-22-18.4c-3.1,4.2-5.9,8-8.7,11.7
	c-5,6.8-12.1,8.7-20.2,5.7c6.6-6.2,13.2-12.5,19.9-18.7c2-1.8,4.6-3.1,6.8-4.7c1.5-1.1,2.7-2.5,4-3.7c-1.4-0.9-2.7-2.3-4.2-2.8
	c-10.5-3.1-21.1-6-31.7-9c-1.8-0.5-3.7-0.9-5.7-1.3c-0.6,2.1-1,3.7-1.4,5.3c-3.1,10.4-6.1,20.7-9.4,31c-0.5,1.6-2.3,3.7-3.6,3.9
	c-4.9,0.5-9.8,0.2-15.4,0.2c1.9-5.2,3.6-9.7,5.1-14.2c2.3-6.5,2.9-13.7,10.7-17.1c3.8-1.7,3-5.4-1.1-6.8c-3.6-1.2-7.4-1.8-11.2-2.3
	c-10.7-1.5-21.4-2.8-32.3-4.2c-0.4,1.6-0.7,2.7-1,3.8c-2.6,12.2-5.1,24.4-7.8,36.6c-0.4,1.6-2,3.7-3.3,4c-2.9,0.6-6.1,0.2-10.1,0.2
	c4.9-5.2,8.4-9.7,6.5-16.3c-2.4-8.2-7-14-15.6-15.7c-10-2-20-3.8-30-5.7c5.9,12.9,13.2,24,17.1,37.5c-7,0-13.3,0-19.6,0
	c-8.5,0-8.7,0.1-9.8,9.9c19.9,0,39.7,0,60.7,0c-3.5,6.7-6.5,12.2-9.3,17.8c-1.3,2.6-3.1,3.4-6,3.4c-13.8-0.1-27.7-0.1-41.5-0.1
	c-8.6,0-8.7,0.1-9.7,9.4c16.3,0,32.5,0,49.4,0c-6,10.8-13.7,19.3-22.1,27c-8.5,7.8-17.5,15-27,23c13-1,25.2-2.4,36.3-7.6
	c10.2-4.8,20.4-1.5,32.2-2.9c-3,8.9-4.8,16.7-8.2,23.8c-3.5,7.3-7.8,14.4-13,20.6c-5.1,6-11.3,11.4-17.7,16
	c-6.4,4.6-13.8,7.9-20.7,11.7c11.2-1.6,22.4-3.3,33.3-6.1c14.4-3.6,28.4-8.4,39.3-19.5c11.5-11.8,18.5-25.9,22.6-41.6
	c0.4-1.5,2.1-3.7,3.3-3.7C1278.7,312.5,1287,312.6,1296.2,312.6z M690.8,249.6c0,17.6,0,34.4,0,51.4c-11.1,0-21.7,0-32.3,0
	c-7.8,0-9.1,1.4-9.4,10.3c13.4,0,26.8,0,40.5,0c-3.5,27.7-10.3,53.1-34,70.8c12.2-3.6,23.7-7.7,34.9-12.5
	c19.4-8.3,30.6-23.4,35.4-43.6c1.2-4.9,2.1-9.9,3.1-14.8c13.1,0,25.7,0,38.4,0c0.2,0.9,0.4,1.5,0.4,2.1c-0.2,13.8-0.4,27.6-0.5,41.5
	c-0.1,9.5-0.1,19,0,28.5c0,4.7,2.1,7.7,7.1,7.8c7,0.1,14,0.6,20.9,0c7.9-0.6,10.6-4.2,10.6-12.2c0-20.5,0-41,0-61.5
	c0-1.8,0.1-3.5,0.2-5.6c2.4,0,4.2,0,6,0c15.2,0,30.3,0,45.5-0.2c1.7,0,4.3-1,4.9-2.3c0.5-1.3-0.5-4.1-1.7-5.1
	c-10.2-8.7-20.7-17.2-31.6-26.2c-3.5,6.2-6.7,12-9.9,17.8c-3.8,6.8-3.8,6.8-12.4,5.3c0-17,0-34,0-51.4c15,0,29.7,0.1,44.3-0.1
	c1.9,0,3.7-1.3,5.5-2c-0.9-2-1.3-4.6-2.8-5.9c-7.5-6.3-15.4-12.3-23.1-18.3c-1.6-1.3-3.3-2.5-5.1-3.9c-3.8,6.1-7.4,11.6-10.4,17.3
	c-2,3.6-4.4,4.6-8.5,3.1c0-11.1,0.3-22.3-0.1-33.4c-0.2-5.5,0.9-9.2,6.8-10.9c1.7-0.5,2.9-2.8,4.3-4.2c-1.9-1.4-3.6-3.6-5.6-3.9
	c-8.2-1.2-16.5-1.9-24.8-2.7c-6-0.6-12.1-1.3-18.8-2c0,19.4,0,38.2,0,57.1c-12.5,0-24.5,0-36.9,0c0-10.9,0.2-21.6-0.1-32.2
	c-0.1-4.2,1.1-6.8,4.9-8.7c1.9-1,3-3.5,4.5-5.4c-2.2-1.2-4.2-3.1-6.5-3.5c-8.6-1.3-17.2-2.1-25.8-3c-5.5-0.6-11.1-1.1-17.2-1.6
	c0,18.6,0,36.3,0,54.4c-11.7,0-22.8,0-34.2,0c-1,3.1-1.9,6.1-3,9.7C666.8,249.6,678.7,249.6,690.8,249.6z M986.4,385.3
	c1.5,0.4,2,0.6,2.5,0.6c42.5,0,85,0.1,127.5,0c1.2,0,3.3-0.7,3.4-1.2c0-1.5-0.3-3.3-1.2-4.4c-3.7-4.5-7.6-8.8-11.5-13.2
	c-4.2-4.8-8.4-9.7-13.1-15.1c-3.4,7.4-6.2,13.9-9.4,20.3c-0.8,1.5-2.5,2.5-3.8,3.8c-0.5-1.6-1.4-3.2-1.5-4.7
	c-0.1-25.2-0.1-50.3-0.1-75.5c0-1.6,0.2-3.2,0.3-5.3c2.4,0,4.4,0,6.4,0c9.2,0.1,18.3,0.3,27.5,0.2c4.6,0,5.9-1.8,3.7-4.8
	c-7-9.5-14.3-18.7-21.9-28.7c-2.5,4.7-4.6,8.9-7,12.8c-2.3,3.6-2.9,8.6-7.9,11.2c0-21.7,0-42.4,0-63.7c2.1,0,3.9,0,5.7,0
	c9.5,0,19,0.1,28.5-0.1c1.3,0,3.3-0.6,3.8-1.5c0.4-0.8-0.4-2.8-1.3-3.8c-7.1-8-14.3-15.8-21.4-23.8c-1.2-1.3-1.8-3.2-3-5.4
	c-5.8,8.5-10.3,14.9-14.5,21.5c-1.8,2.9-4,3.8-7.3,3.8c-22.3-0.1-44.7-0.1-67-0.1c-7.8,0-8.9,1-9.6,10c15.8,0,31.5,0,47.4,0
	c0,52.8,0,105.1,0,157.6c-4.6,0-8.8,0-13.6,0c0-2.2,0-4.2,0-6.1c0-34.3,0.1-68.7-0.1-103c0-4.8,0.4-8.5,5.7-10.1
	c1.1-0.3,2.6-2.1,2.5-3.2c0-1-1.7-2.6-2.9-2.8c-10.1-1.4-20.3-2.6-31.1-3.9c0,43.5,0,86.1,0,129.3c-4,0-8.1-1.2-10.7,0.3
	C989,377.8,988.1,382.1,986.4,385.3z M415.7,299.4c0.4,0.2,0.8,0.4,1.1,0.5c0,1.5,0,2.9,0,4.4c0,24.3-0.1,48.7-0.1,73
	c0,7.2,2.3,9.6,9.5,9.7c5,0,10,0,15,0c11,0,14.4-3.4,14.4-14.2c0-29.5,0-59,0-88.5c0-1.7,0-3.4,0-5.1c0.4,0,0.8-0.1,1.2-0.1
	c3.5,9.4,7,18.9,10.4,28.2c11.5-0.8,18.9-6.3,21.2-15.5c2-8.1-1.7-15.3-11.6-21c-5.6-3.2-11.6-5.8-17.3-8.8
	c-1.2-0.6-3.1-1.7-3.1-2.6c-0.3-7.4-0.1-14.8-0.1-22.8c10.1,0,19.5,0,30.7,0c-7-10-13.1-18.7-19.6-27.8c-3.6,6.5-6.8,12.5-10.1,18.4
	c-1.1-6.4-0.7-12.4-1.2-18.3c-0.5-5.9,0.4-10.4,6.8-12.3c1.1-0.3,2-1.2,2.8-2c2.8-2.5,2-4.8-0.9-6.3c-1.6-0.8-3.5-1.2-5.3-1.3
	c-8.8-0.8-17.6-1.4-26.4-2.1c-4.9-0.4-9.8-0.7-15.4-1.1c0,14.9,0,29.1,0,43.2c-1.1,0.3-1.5,0.6-2,0.6c-5,0.1-10,0.1-15,0.1
	c-8,0-8,0-9.5,9.1c7.5,0,14.8,0,22.6,0c-2.4,34.4-11.4,66-29.8,94.6C397.4,323.4,407.4,312.2,415.7,299.4z M480.4,338.3
	c1.3,6.8,2.3,12.8,3.5,18.8c1.6,8.2,3,16.4,5.1,24.4c0.5,2.1,3.2,5,4.9,5c1.9,0,3.9-2.8,5.8-4.5c0.6-0.5,0.9-1.5,0.9-2.3
	c0.2-3.4,2.3-4.7,5.2-5.8c15.1-5.8,30.1-11.7,45.1-17.6c5.5-2.1,11-4.2,16.8-6.3c2,11.6,3.8,22.6,5.8,34.5c6.2-1.6,12.2-2.9,18-4.7
	c14.4-4.6,17.5-16.5,14.6-27.7c-2.1-8.2-5.9-16.5-11.1-23.1c-8.8-11.2-19-21.4-29-31.6c-6-6.1-7-5.7-13.1,0.2
	c3.7,12.4,7.5,24.6,11.3,37.4c-14.4,0.8-27.7,1.5-41.9,2.3c1-1.9,1.4-3,2-4c9.1-15.7,18.1-31.5,27.4-47.1c1.4-2.3,4.4-3.6,6.6-5.4
	c1.8-1.5,3.7-3,5.5-4.5c-2-1.4-3.8-3.6-6-4.1c-9.2-2.2-18.6-3.8-27.9-5.6c-4.7-0.9-9.3-1.8-14.3-2.8c-1,6.6-1.7,12.5-2.8,18.4
	c-3.4,17.3-7.1,34.5-10.6,51.8c-0.7,3.3-2.3,4.7-5.8,4.5C491.5,338,486.5,338.3,480.4,338.3z M214.8,408.8
	c61.6,1.4,121.4-48.5,121.4-121c0-68.6-53.8-120.8-120.4-121.3C148.1,166,93.5,219.3,93.6,288C93.7,360.2,153.5,410.2,214.8,408.8z
	 M949.7,376.9c0.1,2.1-0.2,3.9,0.5,5.3c0.8,1.8,2.5,4.4,3.8,4.4c7,0.2,14,0,20.9-0.7c4.7-0.5,6.6-3.7,6.5-8.5
	c-0.2-9.8,0.1-19.7-0.1-29.5c-0.1-3.8,0.3-6.7,4.2-8.6c2.8-1.4,4.3-4.3,1.2-6.8c-8.7-7.1-17.7-13.8-26.8-20.8c-1.9,3-3.5,5.3-5,7.7
	c-3.1,4.8-10.9,6.9-16.3,5.3c-10.2-3-20.6-5.5-30.8-8.2c-0.5,1.3-0.7,1.6-0.7,1.9c0,22.3-0.1,44.7-0.1,67c0,3.2,1.5,4.5,4.6,4.4
	c4.5-0.1,9,0,13.5,0c9.5-0.2,11.5-2,12.3-11.3c0-0.5,0.3-0.9,0.6-1.7C941.6,376.9,945.4,376.9,949.7,376.9z M990.8,213.2
	c0.3-0.6,0.6-1.2,0.9-1.9c-8.9-8.9-18.8-16.5-28.7-25.2c-2.9,4.9-5.6,9.1-7.8,13.5c-1.8,3.7-4.3,4.8-8.2,4.7
	c-9.5-0.3-19-0.1-28.5-0.1c-8.1,0-8.5,0.4-9.1,9.5c19.4,0,38.7,0,58.9,0c-2.8,5.1-5.4,9.3-7.5,13.8c-1.4,2.8-3.3,3.6-6.3,3.5
	c-14.7-0.2-29.3-0.1-44-0.1c-7.4,0-8.2,0.7-9,9.1c11.9,0,23.7-0.1,35.5,0c17,0.1,33.9,0.4,50.9,0.4c1.6,0,3.2-1.1,4.8-1.6
	c-0.8-1.7-1.3-3.6-2.4-5c-1.6-1.9-3.7-3.4-5.5-5.1c-5.2-4.7-10.4-9.5-15.6-14.2c0.2-0.5,0.3-0.9,0.5-1.4
	C976.8,213.2,983.8,213.2,990.8,213.2z M612.6,234.9c-22.2-12.7-42.3-26-57.7-45.8c0.3,9.7,1.2,19.3,2.1,28.8
	c2,21.8,14.1,38.4,28,53.9c4.7,5.3,7.7,4.1,9.2-2.7c1.6-7.3,2.9-14.7,5-21.9c0.7-2.7,2.7-5.3,4.8-7.2
	C606.2,238,609.3,236.8,612.6,234.9z M481.6,265.1c2.3-0.9,3.6-1.4,4.9-2c19.1-7.9,33.2-21.3,42.3-39.8c3.2-6.4,6.1-13,13.9-15.4
	c1.2-0.4,2.6-2.6,2.5-3.8c-0.1-1.2-1.9-2.5-3.3-3.2c-2.2-1.1-4.6-1.8-7-2.5c-10.1-3-20.3-6-30.8-9.2
	C498.8,215.4,493,240.6,481.6,265.1z M960.4,274.8c-3.2,5.5-5.8,10.5-8.9,15.2c-1.1,1.6-3.5,3-5.4,3.1c-9.3,0.3-18.7,0.1-28,0.1
	c-7.2,0-8.5,1.4-8.7,9.3c24.8,0,49.6,0,74.4-0.1c1,0,3-1.3,2.9-1.9c-0.1-1.3-0.9-2.8-1.8-3.7C977,289.6,968.9,282.4,960.4,274.8z
	 M909.1,272c25.1,0,49.7,0,74.4-0.1c1.1,0,3.3-1,3.2-1.4c-0.2-1.5-0.6-3.3-1.6-4.2c-5.7-5.3-11.6-10.5-17.5-15.7
	c-2.3-2-4.6-4-7.2-6.2c-3.1,5.4-5.9,10-8.5,14.9c-1.4,2.7-3.1,3.8-6.3,3.7c-9-0.2-18-0.1-27-0.1C910.6,262.9,910.6,262.9,909.1,272z
	"/>
<path d="M1296.2,312.7C1296.2,312.6,1296.2,312.6,1296.2,312.7c-9.2,0-17.5-0.2-25.8,0.2c-1.2,0-2.9,2.2-3.3,3.7
	c-4.1,15.8-11.1,29.9-22.6,41.6c-10.9,11.1-24.9,15.8-39.3,19.5c-10.9,2.8-22.1,4.5-33.3,6.1c6.9-3.9,14.3-7.1,20.7-11.7
	c6.4-4.6,12.7-9.9,17.7-16c5.2-6.2,9.5-13.3,13-20.6c3.4-7.1,5.2-14.9,8.2-23.8c0,0,0,0,0,0c-11.7,1.4-22-1.9-32.2,2.9
	c-11.1,5.2-23.2,6.7-36.3,7.6c0,0,0,0,0,0c9.5-8,18.5-15.2,27-23c8.5-7.7,16.1-16.3,22.1-27h-49.4c1-9.3,1.1-9.4,9.7-9.4
	c13.8,0,27.7-0.1,41.5,0.1c2.8,0,4.7-0.7,6-3.4c2.8-5.6,5.8-11.2,9.3-17.8l-60.7,0c1.1-9.7,1.2-9.9,9.8-9.9c6.3,0,12.6,0,19.6,0
	c0,0,0,0,0,0c-3.9-13.5-11.2-24.6-17.1-37.5c10,1.9,20,3.7,30,5.7c8.6,1.7,13.2,7.5,15.6,15.7c1.9,6.7-1.6,11.1-6.5,16.3
	c0,0,0,0,0,0c4.1,0,7.2,0.4,10.1-0.2c1.4-0.3,3-2.4,3.3-4c2.8-12.2,5.2-24.4,7.8-36.6c0.2-1.1,0.5-2.2,1-3.8c0,0,0,0,0,0
	c10.9,1.4,21.6,2.7,32.3,4.2c3.8,0.5,7.6,1,11.2,2.3c4.2,1.4,4.9,5.2,1.1,6.8c-7.9,3.4-8.5,10.6-10.7,17.1c-1.6,4.5-3.3,9-5.1,14.2
	c0,0,0,0,0,0c5.5,0,10.5,0.3,15.4-0.2c1.4-0.1,3.1-2.3,3.6-3.9c3.3-10.3,6.3-20.7,9.4-31c0.5-1.6,0.9-3.2,1.4-5.3c0,0,0,0,0,0
	c2,0.4,3.9,0.8,5.7,1.3c10.6,3,21.2,5.9,31.7,9c1.5,0.5,2.8,1.8,4.2,2.8c-1.3,1.3-2.6,2.6-4,3.7c-2.7-0.1-5.9,2.7-6.8,4.3
	c-0.1,0.1-18.6,17.4-21.6,20.1l17.2-0.1c0,0,10.2-14.1,13.4-18.3c7.5,6.3,14.9,12.1,22,18.4c2.2,1.9,3.7,4.7,5.5,7.1
	c-3,0.7-6,2.1-9,2.1c-21.7,0.1-43.3,0-65,0c-1.8,0-3.5,0-7.1,0c0,0,0,0,0,0c6,7.6,11.5,15.3,16.9,21.5c0,0,20.6,0.3,20.6,0.3
	c1.7-0.6,6.1-9,8.6-13.4c2.3-4,4.2-6.6,4.7-7.4c9.8,8.4,19.4,16.5,28.9,24.7c0.8,0.7,1.4,3,1,3.4c-1,1-2.7,1.9-4.1,1.9
	c-14,0.1-28,0.1-42,0.1l-4.9,0c13.4,12.4,35.7,18.9,57,24.5c0,0,0,0,0,0c-2.5,3.9-4,7.8-8.8,9.7c-2.5,1-4.6,4.4-5.6,7.2
	c-1.8,4.8-3,9.8-4,14.9c-0.8,3.9-2.2,5.7-6.3,3.8c-4.9-2.2-10-4.2-14.6-6.1c-1.3,11.5-2.4,22.9-4,34.3c-0.5,3.7-1.8,7.4-3.2,11
	c-4.1,10.9-11.8,18.3-23.4,20.2c-8.8,1.4-17.7,1.6-26.9,2.4c0,0,0,0,0,0c-0.5-7.2-0.7-13.1-1.2-19.1c-0.6-7-2.9-8.7-9.3-11.2
	c-3.7-1.5-6.6-5.1-9.9-7.8c0.3-0.7,0.3-0.7,0.5-1.5c6.6,0,13.1,0,19.7,0c15.8,0,18-2,18.9-17.9
	C1295.5,329.4,1295.8,321.5,1296.2,312.7z M1302.3,299.6c-5.4-8.4-17.7-27.1-17.7-27.1l-36.1,0c-7.4,9.2-30.2,30.4-30.2,30.4
	c26.5,0,52.9,0.1,78.5-0.2C1298.7,302.7,1300.7,300.6,1302.3,299.6z M1280.5,262.6c-2.3-6.6-5.2-15.4-7.5-21.6c0,0-6.1,0-6.1,0
	s-7.4,14.8-11,21.6C1255.8,262.6,1280.5,262.6,1280.5,262.6z"/>
<path d="M690.8,249.6h-36.7l3-9.7h34.2l0-54.4c6.1,0.6,11.7,1,17.2,1.6c8.6,0.9,17.2,1.7,25.8,3c2.3,0.3,4.3,2.3,6.5,3.5
	c-1.5,1.8-2.6,4.3-4.5,5.4c-3.8,2-5,4.6-4.9,8.7c0.3,10.6,0.1,21.2,0.1,32.2l36.9,0l0-57.1c0,0,0,0,0,0c6.7,0.7,12.8,1.3,18.8,2
	c8.3,0.9,16.6,1.5,24.8,2.7c2,0.3,3.8,2.5,5.6,3.9c-1.4,1.5-2.6,3.7-4.3,4.2c-5.9,1.6-7,5.3-6.8,10.9c0.4,11.1,0.1,22.3,0.1,33.4
	c4.1,1.5,6.5,0.6,8.5-3.1c3.1-5.7,6.7-11.1,10.4-17.3c1.8,1.4,3.5,2.6,5.1,3.9c7.7,6.1,15.6,12,23.1,18.3c1.5,1.3,1.9,3.9,2.8,5.9
	c-1.8,0.7-3.7,2-5.5,2c-14.6,0.2-29.3,0.1-44.3,0.1l0,51.4c8.6,1.5,8.6,1.5,12.4-5.3c3.2-5.8,6.4-11.6,9.9-17.8c0,0,0,0,0,0
	c10.9,9,21.3,17.5,31.6,26.2c1.2,1.1,2.2,3.8,1.7,5.1c-0.5,1.3-3.1,2.3-4.9,2.3c-15.2,0.2-30.3,0.1-45.5,0.2c-1.8,0-3.6,0-6,0
	c0,0,0,0,0,0c-0.1,2.1-0.2,3.8-0.2,5.6c0,20.5,0,41,0,61.5c0,8-2.7,11.6-10.6,12.2c-6.9,0.5-14,0.1-20.9,0c-5-0.1-7.1-3.2-7.1-7.8
	c0-9.5,0-19,0-28.5c0.1-13.8,0.4-27.6,0.5-41.5l0-2.1h-38.8c-1,4.8-1.9,9.8-3.1,14.8c-4.8,20.2-16.1,35.3-35.4,43.6
	c-11.3,4.8-22.8,8.9-34.9,12.5c0,0,0,0,0,0c23.7-17.8,30.5-43.1,34-70.8l-40.5,0c0.3-8.9,1.6-10.3,9.4-10.3c10.6,0,21.3,0,32.3,0
	V249.6z M768.2,301v-50.8l-36.6,0c0,0,0,0,0,0c-0.8,17-1.6,33.8-2.4,50.8c0,0,0,0,0,0H768.2z"/>
<path d="M986.4,385.3c1.7-3.3,2.6-7.5,5.2-9c2.6-1.5,6.7-0.3,10.7-0.3c0-43.2,0-85.8,0-129.3c10.8,1.3,21,2.5,31.1,3.9
	c1.1,0.2,2.9,1.8,2.9,2.8c0,1.1-1.4,2.8-2.5,3.2c-5.3,1.6-5.7,5.3-5.7,10.1c0.2,34.3,0.1,68.7,0.1,103c0,2,0,3.9,0,6.1
	c4.8,0,9,0,13.6,0c0-52.5,0-104.7,0-157.6c-15.8,0-31.6,0-47.4,0c0.8-8.9,1.8-10,9.6-10c22.3,0,44.7-0.1,67,0.1
	c3.3,0,5.5-0.9,7.3-3.8c4.1-6.6,8.2-12.3,14-20.8c1.2,2.2,17.8,20.5,24.8,28.5c0.9,1,1.7,3,1.3,3.8c-0.5,0.9-2.5,1.5-3.8,1.5
	c-9.5,0.1-19,0.1-28.5,0.1c-1.8,0-3.6,0-5.7,0c0,21.3,0,42,0,63.7c4.9-2.7,5.6-7.6,7.9-11.2c2.4-3.9,4.5-8.1,7-12.8
	c7.6,9.9,14.9,19.2,21.9,28.7c2.3,3.1,1,4.8-3.7,4.8c-9.2,0.1-18.3-0.1-27.5-0.2c-2,0-4.3,0-6.8,0c-0.1,2,0,55.6,0.1,80.8
	c0,1.6,0,4.7,0,4.7l0,0c0.8,0.1,2.2,0,3-0.3c1.1-0.6,1.8-1.9,2.3-3.4c3.1-6.4,6-12.9,9.4-20.3c4.7,5.4,8.9,10.3,13.1,15.1
	c3.8,4.4,7.8,8.7,11.5,13.2c0.9,1.1,1.2,3,1.2,4.4c0,0.4-2.2,1.2-3.4,1.2c-42.5,0-85,0-127.5,0C988.3,386,987.9,385.7,986.4,385.3z"
	/>
<path d="M415.7,299.4c-8.3,12.8-18.3,24-31.7,31.9c18.5-28.7,27.4-60.2,29.8-94.6c-7.7,0-15.1,0-22.6,0c1.5-9.1,1.5-9,9.5-9.1
	c5,0,15.9,0.1,16.9-0.2c0-14.1,0.1-28.8,0.1-43.7c5.6,0.4,10.5,0.7,15.4,1.1c8.8,0.7,17.6,1.3,26.4,2.1c1.8,0.2,3.7,0.5,5.3,1.3
	c3,1.6,3.5,3.3,1.2,6.1c-0.7,0.9-3.1,2.2-3.1,2.2c-6.5,1.8-7.1,4-7,6.6l0,26.1c3.3-6,7.8-14.1,11.4-20.6
	c6.4,9.2,12.6,17.9,19.6,27.8c-11.2,0-20.6,0-30.7,0c0,8-0.1,15.4,0.1,22.8c0,0.9,1.9,2,3.1,2.6c5.8,3,11.7,5.6,17.3,8.8
	c9.8,5.7,13.6,12.9,11.6,21c-2.3,9.2-9.7,14.7-21.2,15.5c-3.4-9.3-6.9-18.7-10.4-28.2c-0.4,0-0.8,0.1-1.2,0.1c0,1.7,0,3.4,0,5.1
	c0,29.5,0,59,0,88.5c0,10.9-3.4,14.2-14.4,14.2c-5,0-10,0-15,0c-7.2-0.1-9.5-2.5-9.5-9.7c0-24.3,0.1-48.7,0.1-73c0-1.5,0-2.9,0-4.4
	C416.5,299.8,416.1,299.6,415.7,299.4z"/>
<path d="M480.8,340.4c-0.2-1,0.6-1.9,1.6-2l14-0.1c3.5,0.2,5.2-1.2,5.8-4.5c3.5-17.3,7.2-34.5,10.6-51.8c1.1-5.3,1.7-10.8,2.6-16.6
	c0.1-0.9,1-1.6,2-1.4c4.3,0.8,8.4,1.6,12.6,2.5c9.3,1.8,18.6,3.5,27.9,5.6c1.2,0.3,2.2,1,3.3,1.9c1.4,1.2,1.4,3.4,0,4.6
	c-0.7,0.6-1.4,1.2-2.1,1.7c-0.3,0.3-0.7,0.4-1.1,0.4c-1-0.1-2.8,0-3.5,1.3c-9.3,15.6-31.5,53.2-32.5,55.2
	c14.2-0.8,28.2-1.5,42.5-2.3c-3.8-12.4-7.4-24.4-11-36.5c-0.2-0.6,0-1.2,0.4-1.7c5.5-5.2,6.6-5.3,12.3,0.5
	c10,10.2,20.2,20.4,29,31.6c5.2,6.6,8.9,15,11.1,23.1c2.9,11.3-0.3,23.2-14.6,27.7c-5.2,1.7-10.6,2.9-16.2,4.3
	c-0.9,0.2-1.9-0.4-2-1.3c-1.8-10.5-5.5-32.7-5.5-32.7c-5.1,1.9-11.9,4.4-16.8,6.3c-15,5.9-31,12-46,17.7c-2.9,1.1-4.5,1.2-4.7,4.5
	c-0.1,0.8-1,3.2-1,3.2c-1.1,1.9-2.5,4.3-5.1,4.3c-1.7,0-4.6-2.5-5.1-4.6c-2.1-8-3.5-16.2-5.1-24.4
	C482.9,351.7,481.9,346.4,480.8,340.4z"/>
<path class="st1" d="M214.8,408.8C153.5,410.2,93.7,360.2,93.6,288c-0.1-68.7,54.4-122,122.2-121.5c66.6,0.5,120.4,52.7,120.4,121.3
	C336.2,360.3,276.3,410.3,214.8,408.8z M214.7,400.7c63.8,0.1,117.1-53.6,112.5-121.3c-4-58.6-54.1-108.1-119-104.7
	c-60.4,3.1-110.7,54.4-106.6,120.7C105.3,354.9,155.5,401.1,214.7,400.7z"/>
<path d="M950,376c-4.3,0-9.3,0-13,0c0,0.7,0.1,2.5,0.1,2.5c0.1,8.4-2.5,11.2-12,11.3c-4.5,0.1-9,0-13.5,0c-3.1,0.1-4.6-1.2-4.6-4.4
	c0.1-22.3,0.1-44.7,0.1-67c0-0.3,0.2-0.6,0.7-1.9c10.2,2.7,20.6,5.2,30.8,8.2c6.9,1.7,14.9-0.5,16.7-5c1.5-2.4,2.7-5,4.6-8
	c9,7,18,13.8,26.8,20.8c3.1,2.5,1.6,5.4-1.2,6.8c-3.9,1.9-4.3,4.8-4.2,8.6c0.2,9.8-0.1,19.7,0.1,29.5c0.1,4.8-1.8,8-6.5,8.5
	c-6.9,0.7-13.9,0.9-20.9,0.7c-1.3,0-2.9-2.7-3.8-4.4C949.5,379.3,949.9,376,950,376z M950,367c0-11.1,0-22.2,0-33.1
	c-13,0.1-13,0.1-13,0.1l0,33H950z"/>
<path d="M612.6,234.9c-3.3,1.9-6.4,3.1-8.7,5.2c-2.1,1.9-4.1,4.5-4.8,7.2c-2,7.2-3.3,14.6-5,21.9c-1.5,6.8-4.5,8-9.2,2.7
	c-13.8-15.6-26-32.2-28-53.9c-0.9-9.5-1.8-19-2.1-28.8C570.3,208.9,590.4,222.2,612.6,234.9z"/>
<path d="M481.6,265.1c11.5-24.5,17.2-49.7,22.5-75.8c10.6,3.1,20.7,6.1,30.8,9.2c2.4,0.7,4.8,1.4,7,2.5c1.4,0.7,3.2,2,3.3,3.2
	c0.1,1.2-1.3,3.4-2.5,3.8c-7.8,2.4-10.7,8.9-13.9,15.4c-9.2,18.5-23.2,31.9-42.3,39.8C485.2,263.7,483.9,264.2,481.6,265.1z"/>
<path d="M960.4,274.8c8.5,7.6,16.6,14.8,24.6,22.1c1,0.9,1.8,2.5,1.8,3.7c0,0.6-1.9,1.9-2.9,1.9c-24.8,0.1-49.6,0.1-74.4,0.1
	c0.1-7.9,1.5-9.3,8.7-9.3c9.3,0,18.7,0.2,28-0.1c1.9-0.1,4.3-1.5,5.4-3.1C954.7,285.4,957.3,280.3,960.4,274.8z"/>
<path d="M909.1,272c1.5-9.1,1.5-9.1,9.5-9.1c9,0,18-0.1,27,0.1c3.1,0.1,4.8-1,6.3-3.7c2.5-4.9,5.4-9.5,8.5-14.9
	c2.6,2.2,4.9,4.2,7.2,6.2c5.9,5.2,11.8,10.3,17.5,15.7c1,1,1.5,2.8,1.6,4.2c0,0.4-2.1,1.4-3.2,1.4C958.8,272,934.2,272,909.1,272z"
	/>
<path class="st0" d="M214.7,400.7c-59.2,0.4-109.4-45.8-113.1-105.3c-4.1-66.3,46.2-117.6,106.6-120.7c64.9-3.3,115,46.1,119,104.7
	C331.8,347.1,278.5,400.8,214.7,400.7z M177.4,286.5c-16.9,17.5-35,36.3-53,55c8.6,8.3,18.1,17.5,28,27
	c17.9-17.2,36.6-35.3,55.9-53.9C198,305.2,188.1,296.2,177.4,286.5z M303.5,341.4c-18.2-18.5-36.5-37-54.3-55
	c-9.6,9.4-19.2,18.7-28.7,28.1c18.5,18.3,37,36.6,55.2,54.6C284.9,359.9,294.4,350.4,303.5,341.4z"/>
<path class="st1" d="M123.2,277.6V237l71.2,0l0-48.7h41.2l0,48.7c0,0,50.6,0.3,70.1,0l0,40.6C276.8,277.5,151.6,277.4,123.2,277.6z"
	/>
<path class="st1" d="M177.4,286.5c10.7,9.7,20.6,18.7,31,28.1c-19.3,18.6-38.1,36.7-55.9,53.9c-9.9-9.5-19.4-18.7-28-27
	C142.5,322.8,160.5,304.1,177.4,286.5z"/>
<path class="st1" d="M303.5,341.4c-9.1,9-18.6,18.5-27.9,27.7c-18.2-18-36.7-36.3-55.2-54.6c9.6-9.4,19.1-18.7,28.7-28.1
	C266.9,304.4,285.2,322.9,303.5,341.4z"/>
<path d="M990.3,233.9c-1.6-1.9-3.7-3.4-5.5-5.1c-5.2-4.7-16.6-14.9-16.6-14.9c-2.8,5-5.3,9.2-7.4,13.6c-1.4,2.8-3.3,3.6-6.3,3.5
	c-14.7-0.2-29.3-0.1-44-0.1c-7.4,0-8.2,0.7-9,9.1c11.9,0,23.7-0.1,35.5,0c17,0.1,33.9,0.4,50.9,0.4c1.6,0,3.2-1.1,4.8-1.6
	C992,237.2,991.5,235.3,990.3,233.9z"/>
<path d="M990.9,213c0.5-0.5,0.8-0.8,0.8-1.6c-8.9-8.9-18.8-16.5-28.7-25.2c-2.9,4.9-5.6,9.1-7.8,13.5c-1.8,3.7-4.3,4.8-8.2,4.7
	c-9.5-0.3-19-0.1-28.5-0.1c-8.1,0-8.5-0.3-9.1,8.8C928.8,213,990.9,213,990.9,213z"/>
</svg>
