<?xml version="1.0" encoding="utf-8"?>
<!-- Generator: Adobe Illustrator 24.0.1, SVG Export Plug-In . SVG Version: 6.00 Build 0)  -->
<svg version="1.1" id="data" xmlns="http://www.w3.org/2000/svg" xmlns:xlink="http://www.w3.org/1999/xlink" x="0px" y="0px"
	 viewBox="0 0 525.9 348" style="enable-background:new 0 0 525.9 348;" xml:space="preserve">
<style type="text/css">
	.st0{fill:#FFFFFF;}
	.st1{fill:url(#SVGID_1_);}
</style>
<g>
	<g>
		<path d="M104.2,259.3c-9.8,0-17.7,8.3-17.7,18.4c0,10.2,7.9,18.4,17.7,18.4c9.8,0,17.7-8.2,17.7-18.4
			C121.9,267.5,114,259.3,104.2,259.3z M104.2,290.8c-4.2,0-10.7-3.1-10.7-13c0-10,6.5-13.1,10.7-13.1c4.2,0,10.7,3.2,10.7,13.1
			C114.9,287.7,108.4,290.8,104.2,290.8z"/>
		<path d="M377,259.3c-9.8,0-17.7,8.3-17.7,18.4c0,10.2,7.9,18.4,17.7,18.4c9.8,0,17.7-8.2,17.7-18.4
			C394.7,267.5,386.7,259.3,377,259.3z M377,290.8c-4.2,0-10.7-3.1-10.7-13c0-10,6.5-13.1,10.7-13.1c4.2,0,10.7,3.2,10.7,13.1
			C387.7,287.7,381.1,290.8,377,290.8z"/>
		<rect x="52.8" y="260.1" width="6.7" height="35.1"/>
		<rect x="167.1" y="260.1" width="6.7" height="35.1"/>
		<path d="M202.7,265h2.8l0.3-4.7c-1.4-0.1-2.4-0.2-3.9-0.2c-13.6,0-22.3,7.2-22.3,17.6c0,10.4,8.8,17.6,22.3,17.6
			c1.4,0,2.5-0.1,3.9-0.2l-0.3-4.7h-2.8c-9.3,0-15.7-4.5-15.7-12.7C187,269.5,193.3,265,202.7,265z"/>
		<path d="M152.9,281.1C152.9,281.2,152.8,281.2,152.9,281.1c-4.7-8.6-14.7-17.6-20.8-21h-4.6v35.2h6.3c0,0-0.3-27.1-0.3-27.2
			c0-0.1,0-0.1,0.1-0.1c7.6,5.2,15.5,15.3,19.9,27.2h5.6v-35.1h-6.4C152.6,260.1,152.9,281.1,152.9,281.1z"/>
		<path d="M347.6,281.1C347.6,281.2,347.5,281.2,347.6,281.1c-4.7-8.6-14.7-17.6-20.8-21h-4.6v35.2h6.3c0,0-0.2-27.1-0.2-27.2
			c0-0.1,0-0.1,0.1-0.1c7.6,5.2,15.5,15.3,19.9,27.2h5.6v-35.1h-6.4C347.3,260.1,347.6,281.1,347.6,281.1z"/>
		<rect x="307.4" y="260.1" width="6.7" height="35.1"/>
		<path d="M207.8,295.3h6.3c0,0,9.5-22.3,9.8-23.1c0.4,0.8,11.7,23.1,11.7,23.1h7.5L224,259.2L207.8,295.3z"/>
		<path d="M454.3,259.2L438,295.3h6.3c0,0,9.5-22.3,9.8-23.1c0.4,0.8,11.7,23.1,11.7,23.1h7.5L454.3,259.2z"/>
		<path d="M70.9,274.4c3.7-3.8,13.7-14.3,13.7-14.3h-8L62,275.5c7,4.6,12.9,10.9,16.5,19.8h7C82.7,287,77.4,279.4,70.9,274.4z"/>
		<polygon points="406.9,260.1 400.2,260.1 400.2,295.3 420.6,295.3 420.6,290.3 406.9,290.3 		"/>
		<polygon points="442.1,260.1 417.5,260.1 417.5,265.2 426.5,265.2 426.5,295.3 433.1,295.3 433.1,265.2 442.1,265.2 		"/>
		<path d="M281.4,276.6c-0.6,1.2-1.5,4-2.1,5.7c0,0-0.1,0-0.1,0c-0.6-1.6-1.5-4.4-2.1-5.6c-3-6.4-8.2-14.6-11.1-17.6
			c-1.7,3.1-8.4,30.4-9.8,36.3h6.7c0,0,5-23.3,5.1-23.4c0-0.1,0.1-0.1,0.1,0c2.2,3.4,6.5,12.4,9.1,20.3h4.2
			c2.4-7.4,6.9-16.8,9.1-20.2c0-0.1,0.1,0,0.1,0c0,0.1,5.1,23.2,5.1,23.2h6.7c-1.4-5.9-8.1-33.2-9.8-36.3
			C289.5,262.1,284.5,270.3,281.4,276.6z"/>
	</g>
	<g>
		<g>
			<path class="st0" d="M358.1,163.7c-0.2,0.3-0.4,0.4-0.7,0.3c-0.4,0-97.2-5.8-97.2-5.8s-96.8,5.7-97.2,5.8c-0.3,0-0.6-0.1-0.7-0.3
				c0.3,1.1,0.7,2.2,1.1,3.2c-0.1-0.5,0.2-0.8,0.9-0.8h191.8c0.7,0,1,0.3,0.9,0.8C357.4,165.9,357.7,164.8,358.1,163.7z"/>
			<path class="st0" d="M360.8,139.7c-3.6,0.3-69.2-3-100.6-3c-31.4,0-97,3.2-100.6,3c-0.4,0-0.8-0.2-0.8-0.5c0,0.5,0,1,0,1.5
				s0,1,0,1.5c0.1-0.3,0.4-0.5,0.8-0.5c3.6-0.3,69.2,3,100.6,3c31.4,0,97-3.2,100.6-3c0.4,0,0.8,0.2,0.8,0.5c0-0.5,0-1,0-1.5
				s0-1,0-1.5C361.5,139.4,361.2,139.6,360.8,139.7z"/>
			<path class="st0" d="M359.8,151.7c-3-0.1-67.5-4.7-99.7-4.6c-32.1-0.1-96.7,4.4-99.7,4.6c-0.5,0-0.9-0.2-1.1-0.7
				c0.2,1.1,0.3,2.2,0.5,3.3c0-0.5,0.4-0.7,1-0.7c0.8,0,78,2.1,99.3,2.1c21.2,0,98.5-2.1,99.2-2.1c0.6,0,1,0.2,1,0.7
				c0.2-1.1,0.4-2.2,0.5-3.3C360.8,151.6,360.4,151.8,359.8,151.7z"/>
			<path class="st0" d="M162.3,117.6c0.2-0.3,0.4-0.4,0.7-0.3c0.4,0,97.2,5.8,97.2,5.8s96.8-5.7,97.2-5.8c0.3,0,0.6,0.1,0.7,0.3
				c-0.3-1.1-0.7-2.2-1.1-3.2c0.1,0.5-0.2,0.8-0.9,0.8H164.3c-0.7,0-1-0.3-0.9-0.8C163,115.4,162.6,116.5,162.3,117.6z"/>
			<path class="st0" d="M160.5,129.6c3,0.1,67.6,4.7,99.7,4.6c32.1,0.1,96.7-4.4,99.7-4.6c0.5,0,0.9,0.2,1.1,0.6
				c-0.2-1.1-0.3-2.2-0.5-3.3c0,0.5-0.4,0.7-1,0.7c-0.8,0-78-2.1-99.3-2.1c-21.2,0-98.5,2.1-99.3,2.1c-0.6,0-1-0.2-1-0.7
				c-0.2,1.1-0.4,2.2-0.5,3.3C159.6,129.7,160,129.6,160.5,129.6z"/>
		</g>
		
			<radialGradient id="SVGID_1_" cx="260.0327" cy="68.7872" r="119.5757" gradientTransform="matrix(1 0 0 -0.9259 0.1401 181.8322)" gradientUnits="userSpaceOnUse">
			<stop  offset="0" style="stop-color:#9BC4F0"/>
			<stop  offset="0.5933" style="stop-color:#0075D2"/>
			<stop  offset="1" style="stop-color:#014880"/>
		</radialGradient>
		<path class="st1" d="M164.3,115.2h191.8c0.8,0,1.1-0.4,0.9-1.1c-13-35.5-51.4-61.3-96.8-61.3c-45.4,0-83.8,25.8-96.8,61.3
			C163.2,114.8,163.5,115.2,164.3,115.2z M159.6,139.7c3.6,0.3,69.2-3,100.6-3c31.4,0,97,3.2,100.6,3c0.5,0,0.9-0.3,0.9-0.7
			c-0.1-2.7-0.3-5.6-0.7-8.6c-0.1-0.7-0.5-0.9-1.1-0.9c-3,0.1-67.5,4.7-99.7,4.6c-32.1,0.1-96.7-4.4-99.7-4.6
			c-0.6,0-1.1,0.2-1.1,0.9c-0.4,2.9-0.6,5.9-0.7,8.6C158.7,139.4,159.1,139.6,159.6,139.7z M160.9,127.6c0.8,0,78-2.1,99.3-2.1
			c21.2,0,98.5,2.1,99.3,2.1c0.6,0,1.1-0.3,1-0.9c-0.5-2.9-1.3-6-2.2-9c-0.1-0.4-0.5-0.5-0.8-0.5c-0.4,0-97.2,5.8-97.2,5.8
			s-96.8-5.7-97.2-5.8c-0.3,0-0.7,0.1-0.8,0.5c-0.9,3-1.7,6.1-2.2,9C159.9,127.3,160.3,127.6,160.9,127.6z M163.4,167.2
			c13,35.5,51.4,61.3,96.8,61.3c45.4,0,83.8-25.8,96.8-61.3c0.2-0.7-0.1-1.1-0.9-1.1H164.3C163.5,166.1,163.2,166.5,163.4,167.2z
			 M158.7,142.3c0.1,2.7,0.3,5.6,0.7,8.6c0.1,0.7,0.5,0.9,1.1,0.9c3-0.1,67.6-4.7,99.7-4.6c32.1-0.1,96.7,4.4,99.7,4.6
			c0.6,0,1.1-0.2,1.1-0.9c0.4-2.9,0.6-5.9,0.7-8.6c0-0.4-0.4-0.6-0.9-0.7c-3.6-0.3-69.2,3-100.6,3c-31.4,0-97-3.2-100.6-3
			C159.1,141.7,158.7,141.9,158.7,142.3z M160,154.6c0.5,2.9,1.3,6,2.2,9c0.1,0.4,0.5,0.5,0.8,0.5c0.4,0,97.2-5.8,97.2-5.8
			s96.8,5.7,97.2,5.8c0.3,0,0.7-0.1,0.8-0.5c0.9-3,1.7-6.1,2.2-9c0.1-0.6-0.3-0.9-1-0.9c-0.8,0-78,2.1-99.3,2.1
			c-21.2,0-98.5-2.1-99.3-2.1C160.3,153.7,159.9,154,160,154.6z"/>
	</g>
</g>
</svg>
