<?xml version="1.0" encoding="utf-8"?>
<!-- Generator: Adobe Illustrator 24.0.1, SVG Export Plug-In . SVG Version: 6.00 Build 0)  -->
<svg version="1.1" id="Layer_1" xmlns="http://www.w3.org/2000/svg" xmlns:xlink="http://www.w3.org/1999/xlink" x="0px" y="0px"
	 viewBox="0 0 572 294.5" style="enable-background:new 0 0 572 294.5;" xml:space="preserve">
<style type="text/css">
	.st0{fill:#D6000F;}
	.st1{fill:#FFFFFF;}
</style>
<g>
	<path class="st0" d="M413.9,99.4c-40.8,25.2-81.7,50.4-122.4,75.7c-3.2,2-5.7,2.2-9.1,0.2c-41.2-25.6-82.4-51-123.7-76.5
		c-0.8-0.5-1.6-1.1-3.1-2.2c17.7-10.9,34.6-21.4,51.6-31.9c24.2-15,48.5-29.8,72.6-45c4.9-3.1,8.5-3.3,13.5-0.2
		c40.1,25.1,80.4,49.8,120.7,74.7c1.1,0.7,2.1,1.5,3.6,2.5C416.2,97.7,415.1,98.6,413.9,99.4z M566.9,90.9c-0.3,0-0.7,0-1,0
		c-0.2,0-0.3,0-0.5,0c-42.2,0-92.8-0.2-134.9,0c0,0-93.5-58-136.9-85.1c-5-3.1-8.6-3-13.5,0c-43.7,27.2-87.5,54.2-131.2,81.4
		c-3.3,2-5.5,2.1-8.8,0C140,87.3,1.8,1,0,0l0.1,14.2c40.4,25,131.2,81.2,133,82.5c-1.7,1.1-133,82.3-133,82.3v13.6
		c2.1-1.2,95.5-58.9,139.8-86.4c3.5-2.2,5.9-2,9.2,0.1c43.9,27.2,87.9,54.3,131.7,81.6c4.5,2.8,7.7,2.7,12.1,0
		c44.4-27.6,137.8-85.2,137.8-85.2c42.2-0.2,89.8-0.1,131.9-0.1c1.2,0,2.4,0,3.6,0c3.2,0,5.8-2.6,5.8-5.8v-0.1
		C571.9,93.7,569.7,91.3,566.9,90.9z"/>
	<path d="M306.9,249.4c0,2.8,0,5.1,0,8.1c-5.5,0-10.9,0-16.5,0c-0.2,1.6-0.3,2.6-0.3,3.5c0,7.3,0,14.6,0,22.6c6.7,0,13.1,0,19.8,0
		c0,3,0,5.4,0,8.1c-16,0-31.7,0-47.8,0c0-2.5,0-4.7,0-7.7c6,0,12,0,18.4,0c0-9.1,0-17.5,0-26.4c-5.2,0-10.1,0-15.3,0
		c0-3,0-5.4,0-8.2C278.9,249.4,292.7,249.4,306.9,249.4z"/>
	<path d="M161,294.5c0-2.8,0.1-5.7,0.1-8.1c1.4,0,6.7,0.1,14.2-6.6c5.6-5,5.7-11.6,5.7-14.6c0,0-19.7,0-23.8,0c0-3,0-5.4,0-8.3
		c7.7,0,15.3,0,23.3,0c0-3.7,0-7,0-10.7h9.4v10.4h16.3v8.4h-16.2C189,282.6,178,293.5,161,294.5z"/>
	<path d="M464.2,292.4c-14.2,0-27.9,0-41.9,0c0-2.5,0-4.8,0-7.6c5.2,0,10.2,0,15.7,0c0-7.5,0-14.3,0-21.9c-4.3,0-8.5,0-12.9,0
		c0-2.9,0-5.1,0-7.7c12.2,0,24.1,0,36.5,0c0,2.3,0,4.7,0,7.6c-4.6,0-9.1,0-14,0c0,7.4,0,14.3,0,21.8c5.7,0,11.1,0,16.8,0
		C464.2,287.4,464.2,289.7,464.2,292.4z"/>
	<path d="M148.6,267.7v9.2l-31.1-6.7c0,8.4,0,16.1,0,24.2c-3.3,0-6.1,0-9.2,0c0-15.9,0-31.9,0-48.4c2.7,0,5.4,0,8.8,0
		c0.1,15.1,0.1,15.1,0.1,15.1L148.6,267.7z"/>
	<path d="M538.3,246.1l0,15c0,0,22.5,4.7,31.5,6.6v9.2c-10.4-2.2-20.6-4.4-31.4-6.8c0,8.6,0,16.4,0,24.4H529c0,0,0-32.9,0-48.4
		C532,246.1,534.7,246.1,538.3,246.1z"/>
	<path d="M369.3,293.5c0-2.8,0-5.2,0-8.5c19.7-0.2,34.5-7,35.8-29.8c3.3,0,6.2,0,9.1,0C415.1,278.9,395.5,295.6,369.3,293.5z"/>
	<path d="M518.9,256c-1.1,22.4-14.2,37.5-43.7,37.4c0-2.6,0-5.2,0-8.4c18-1.3,32.9-7.2,34.2-28.9C512.7,256,515.6,256,518.9,256z"/>
	<path d="M0.1,293.8l0-9.7c0,0,2.1-1.9,3.8-4c5.2-6.6,6.1-15,6.3-23.2c0.1-3.1,0-6.3,0-9.7c3.4,0,7.1,0,9.8,0
		C21.8,264.5,14.8,291.7,0.1,293.8z"/>
	<path d="M49.2,293.8l0-9.7c0,0-2.1-1.9-3.8-4c-5.2-6.6-6.1-15-6.3-23.2c-0.1-3.1,0-6.3,0-9.7c-3.4,0-7.1,0-9.8,0
		C27.4,264.5,34.4,291.7,49.2,293.8z"/>
	<path d="M215.6,263.7c13.3,0,26.2,0,39.5,0c0,2.6,0,5.1,0,7.8c-13.1,0-26.1,0-39.5,0C215.6,269.1,215.6,266.8,215.6,263.7z"/>
	<path d="M97,263.9c0,2.6,0,4.9,0,7.6c-13.1,0-26.1,0-39.5,0c0-2.3,0-4.7,0-7.6C70.4,263.9,83.4,263.9,97,263.9z"/>
	<path d="M356.8,263.8c0,2.8,0,5.1,0,7.8c-13.2,0-26.2,0-39.6,0c0-2.5,0-5,0-7.8C330.4,263.8,343.4,263.8,356.8,263.8z"/>
	<path d="M474.3,256.4c0-2.9,0-5.5,0-8.8c8,1,15.7,1.9,23.5,2.9c0,3.2,0,6,0,9.1C490,258.5,482.3,257.5,474.3,256.4z"/>
	<polygon points="368.1,246.9 392.8,248.9 392.8,257.2 368.1,255.2 	"/>
	<path d="M392.8,273c-8.4-0.7-16.8-1.3-24.7-2c0-2.7,0-5.1,0-8.3c8.1,0.7,16.6,1.3,24.7,2C392.8,267.6,392.8,270,392.8,273z"/>
	<path d="M401.5,245.3h4.8v7.5h-4.8C401.5,250.3,401.5,248.2,401.5,245.3z"/>
	<path d="M409.1,245.3h4.8v7.5h-4.8C409.1,250.3,409.1,248.2,409.1,245.3z"/>
	<path class="st1" d="M155.7,96.5c17.7-10.9,34.6-21.4,51.6-31.9c24.2-15,48.5-29.8,72.6-45c4.9-3.1,8.5-3.3,13.5-0.2
		c40.1,25.1,80.4,49.8,120.7,74.7c1.1,0.7,2.1,1.5,3.6,2.5c-1.5,1.1-2.6,2-3.8,2.7c-40.8,25.2-81.6,50.4-122.4,75.7
		c-3.2,2-5.7,2.2-9.1,0.2c-41.2-25.6-82.4-51-123.7-76.5C157.9,98.2,157.1,97.6,155.7,96.5z"/>
</g>
<g>
	<path d="M46.1,247.9c1,0,1.9,0.8,1.9,1.9s-0.8,1.9-1.9,1.9c-1,0-1.9-0.8-1.9-1.9S45,247.9,46.1,247.9 M46.1,243.9
		c-3.2,0-5.9,2.6-5.9,5.9s2.6,5.9,5.9,5.9s5.9-2.6,5.9-5.9S49.3,243.9,46.1,243.9L46.1,243.9z"/>
</g>
</svg>
