<?xml version="1.0" encoding="utf-8"?>
<!-- Generator: Adobe Illustrator 24.0.1, SVG Export Plug-In . SVG Version: 6.00 Build 0)  -->
<svg version="1.1" xmlns="http://www.w3.org/2000/svg" xmlns:xlink="http://www.w3.org/1999/xlink" x="0px" y="0px"
	 viewBox="0 0 759 117.6" style="enable-background:new 0 0 759 117.6;" xml:space="preserve">
<style type="text/css">
	.st0{fill:#595857;}
	.st1{fill:#E6002D;}
</style>
<g id="レイヤー_1">
</g>
<g id="レイヤ_xFF0D__1">
	<g>
		<g>
			<path class="st0" d="M485.9,93.7v-6.9v-1.1c0-1.3,0-2.4,0.1-3.3c0-0.9,0.1-1.5,0.1-2c0.1-0.5,0.1-0.9,0.2-1.2
				c-3.8,0-6.6,0.6-8.6,1.7c-2,1.2-3.2,3.1-3.2,5.8v0.2v6v10.8v6.2v1h0.1c0.3,2.2,1.4,3.8,3.1,4.8c2,1.1,4.8,1.7,8.6,1.7
				c-0.1-0.3-0.1-0.7-0.2-1.2c-0.1-0.5-0.1-1.2-0.1-2c0-0.9-0.1-2-0.1-3.3v-8V93.7z"/>
			<path class="st0" d="M464.7,112.1c-0.3-0.3-0.7-0.8-1.2-1.4l-7.7-8.6c3.1,0,5.8-1.1,8-3.2c2.2-2.2,3.4-4.8,3.4-7.8v-0.6
				c0-2.9-1.1-5.5-3.3-7.7c-2.2-2.2-4.8-3.3-7.8-3.3h-26.9v23.9v4.1v0l0,0c0,3.6,1,6.1,2.9,7.6c2,1.5,5.2,2.3,8.8,2.3
				c-0.1-0.4-0.1-0.9-0.2-1.6c-0.1-0.6-0.1-1.5-0.1-2.7c0-1.1-0.1-2.6-0.1-4.4v-1.2v-5.2h3.8l3,3.3c1.4,1.7,2.7,3.1,3.9,4.3l0.4,0.5
				c0.2,0.3,0.5,0.6,0.7,0.8c0.1,0.1,0.1,0.1,0.1,0.2l0.8,0.8h0c0.9,1,1.8,1.9,2.6,2.6c1.1,0.9,2.2,1.6,3.2,2c1,0.4,2.1,0.7,3.3,0.8
				c1,0.1,1.5,0.1,2.3,0c0.7-0.1,1.3-0.3,1.8-0.5c0.5-0.2,2-0.6,2.4-1c-0.7-0.5-1.4-1.3-2.1-1.9
				C466.2,113.6,465.3,112.8,464.7,112.1z M440.6,96.4v-0.7V85h11.5c1,0,1.9,0.4,2.6,1.1c0.7,0.7,1.1,3.5,1.1,4.5
				c0,1-0.4,3.9-1.1,4.7c-0.7,0.8-1.6,1.2-2.6,1.2H440.6z"/>
			<path class="st0" d="M258.8,86c0.7-0.7,1.6-1.1,2.6-1.1h9.9v0h0.3c2.1,0,3.7-0.9,4.8-2.2c1.1-1.3,0.9-1.4,1.7-3.4h-16.8v0h-3.9
				c-2.9,0-5.5,1.1-7.7,3.3c-2.2,2.2-3.3,4.8-3.3,7.7V106c0,3,1.1,5.5,3.3,7.7c2.2,2.2,4.8,3.3,7.8,3.3h3.8h10h0.3
				c2.1,0,3.7-0.9,4.8-2.2c1.1-1.4,0.9-1.4,1.7-3.4h-6.8h-9.9c-1,0-1.8-0.4-2.6-1.1c-0.8-0.8-1.1-1.6-1.1-2.6V101h3.5h10h0.3
				c2.1,0,3.7-0.9,4.8-2.2c1.1-1.3,0.9-1.4,1.7-3.4h-6.8h-10h-3.5v-6.8C257.7,87.6,258,86.7,258.8,86z"/>
			<path class="st0" d="M329.9,86c0.7-0.7,1.6-1.1,2.6-1.1h9.9v0h0.3c2.1,0,3.7-0.9,4.8-2.2c1.1-1.3,0.9-1.4,1.7-3.4h-16.8v0h-3.9
				c-2.9,0-5.5,1.1-7.7,3.3c-2.2,2.2-3.3,4.8-3.3,7.7V106c0,3,1.1,5.5,3.3,7.7c2.2,2.2,4.8,3.3,7.7,3.3h3.8h10h0.3
				c2.1,0,3.7-0.9,4.8-2.2c1.1-1.4,0.9-1.4,1.7-3.4h-6.8h-9.9c-1,0-1.8-0.4-2.6-1.1c-0.8-0.8-1.1-1.6-1.1-2.6V101h3.5h10h0.3
				c2.1,0,3.7-0.9,4.8-2.2c1.1-1.3,0.9-1.4,1.7-3.4h-6.8h-10h-3.5v-6.8C328.8,87.6,329.1,86.7,329.9,86z"/>
			<path class="st0" d="M299.2,111.4c-1,0-1.9-0.4-2.6-1.1c-0.7-0.7-1.1-1.6-1.1-2.6v-14l0,0v-8c0-1.3,0.1-2.4,0.1-3.3
				c0-0.9,0.1-1.5,0.1-2c0.1-0.5,0.1-0.9,0.2-1.2c-3.8,0-6.7,0.6-8.6,1.7c-2,1.1-3.2,3.1-3.2,5.8v1.2v4.9v13.2
				c0,2.9,1.1,5.5,3.3,7.7c2.2,2.2,4.8,3.3,7.7,3.3h2.4h9h1.3c2.1,0,3.7-0.9,4.8-2.2c1.1-1.4,0.8-1.5,1.7-3.4h-7.8H299.2z"/>
			<path class="st0" d="M367.7,86c0.7-0.7,1.6-1.1,2.6-1.1h8.2v0h0.5c2.1,0,3.7-0.9,4.8-2.2c1.1-1.3,0.9-1.4,1.7-3.4h-16.8v0h-2.4
				c-2.9,0-5.5,1.1-7.7,3.3c-2.2,2.2-3.3,4.8-3.3,7.7V106c0,3,1.1,5.5,3.3,7.7c2.2,2.2,4.8,3.3,7.8,3.3h11.8v0h0.9
				c2.1,0,3.7-0.9,4.8-2.2c1.1-1.3,0.9-1.4,1.7-3.4h-15.7c-0.8-0.1-1.5-0.5-2.1-1.1c-0.8-0.7-1.1-1.6-1.1-2.6V88.6
				C366.6,87.6,366.9,86.7,367.7,86z"/>
			<path class="st0" d="M505.4,86c0.7-0.7,1.6-1.1,2.6-1.1h8.2v0h0.5c2.1,0,3.7-0.9,4.8-2.2c1.1-1.3,0.9-1.4,1.7-3.4h-16.8v0h-2.4
				c-2.9,0-5.5,1.1-7.7,3.3c-2.2,2.2-3.3,4.8-3.3,7.7V106c0,3,1.1,5.5,3.3,7.7c2.2,2.2,4.8,3.3,7.8,3.3h11.8v0h0.9
				c2.1,0,3.7-0.9,4.8-2.2c1.1-1.3,0.9-1.4,1.7-3.4h-15.7c-0.8-0.1-1.5-0.5-2.1-1.1c-0.7-0.7-1.1-1.6-1.1-2.6V88.6
				C504.3,87.6,504.6,86.7,505.4,86z"/>
			<path class="st0" d="M406.9,79.3h-0.3h-10.1h-0.3c-2.1,0-3.7,0.9-4.8,2.2c-1.1,1.3-1,1.4-1.7,3.4h6.8h4.6V103v4.1v2.2h0.2
				c0.3,2.4,1.3,4.3,2.8,5.5c2,1.5,5.2,2.3,8.8,2.3c-0.1-0.4-0.1-0.9-0.2-1.6c-0.1-0.7-0.1-1.6-0.1-2.7c0-1.1-0.1-2.6-0.1-4.4V101
				V84.9h3.9v0h0.8c2.1,0,3.7-0.9,4.8-2.2c1.1-1.3,0.9-1.4,1.7-3.4L406.9,79.3L406.9,79.3z"/>
			<path class="st0" d="M659.2,79.3h-15.7c-3,0-5.6,1.1-7.8,3.3c-2.2,2.2-3.3,4.8-3.3,7.7v15.7c0,2.9,1.1,5.5,3.3,7.7
				c2.2,2.2,4.8,3.3,7.7,3.3h15.7c2.9,0,5.5-1.1,7.7-3.3c2.2-2.2,3.3-4.8,3.3-7.7V90.3c0-2.9-1.1-5.5-3.3-7.7
				C664.7,80.4,662.1,79.3,659.2,79.3z M658.9,107.7c0,1-0.4,1.8-1.1,2.6c-0.7,0.7-1.6,1.1-2.6,1.1h-7.7c-1,0-1.8-0.4-2.6-1.1
				c-0.7-0.7-1.1-1.6-1.1-2.6V88.6c0-1,0.4-1.9,1.1-2.6c0.7-0.7,1.6-1.1,2.6-1.1h7.7c1,0,1.8,0.4,2.6,1.1c0.7,0.7,1.1,1.6,1.1,2.6
				V107.7z"/>
			<path class="st0" d="M755.6,82.6c-2.2-2.2-4.8-3.3-7.7-3.3h-26.7v23.9v4.1v0.8h0.1c0.1,3.1,1,5.4,2.8,6.8c2,1.5,5.2,2.3,8.8,2.3
				c-0.1-0.4-0.1-0.9-0.2-1.6c-0.1-0.6-0.1-1.5-0.1-2.7c0-1.1-0.1-2.6-0.1-4.4v-0.4v-1.1h15.5c2.9,0,5.5-1.1,7.7-3.3
				c2.2-2.2,3.3-4.8,3.3-7.6v-5.8C758.9,87.4,757.7,84.8,755.6,82.6z M747.5,97.8c0,1-0.4,1.8-1.1,2.6c-0.7,0.7-1.6,1.1-2.6,1.1
				h-11.4V84.9h11.4c1,0,1.8,0.4,2.6,1.1c0.7,0.7,1.1,2.1,1.1,3V97.8z"/>
			<path class="st0" d="M625.2,112.1c-0.3-0.3-0.7-0.8-1.2-1.3l-7.7-8.7c3.1,0,5.8-1.1,8-3.2c2.3-2.2,3.4-4.8,3.4-7.8v-0.6
				c0-2.9-1.1-5.5-3.3-7.7c-2.2-2.2-4.8-3.3-7.8-3.3h-26.9v23.9v4.1v0l0,0c0,3.6,1,6.1,2.9,7.6c2,1.5,5.2,2.3,8.8,2.3
				c-0.1-0.4-0.1-0.9-0.2-1.6c-0.1-0.6-0.1-1.5-0.1-2.7c0-1.1-0.1-2.6-0.1-4.4v-1.2v-5.2h3.8l3,3.3h0c2,2.3,3.7,4.1,5,5.6
				c0.1,0.1,0.2,0.2,0.2,0.3l0.7,0.8h0c0.9,1,1.8,1.9,2.7,2.6c1.1,0.9,2.1,1.6,3.2,2c1,0.4,2.1,0.7,3.3,0.8c1,0.1,1.6,0.1,2.3,0
				c0.7-0.1,1.3-0.3,1.8-0.5c0.5-0.2,2-0.6,2.4-1c-0.7-0.5-1.5-1.3-2.1-1.9C626.7,113.6,625.8,112.8,625.2,112.1z M601,96.4v-0.7V85
				h11.5c1,0,1.8,0.4,2.6,1.1c0.7,0.7,1.1,3.5,1.1,4.5c0,1-0.4,3.9-1.1,4.7c-0.7,0.8-1.6,1.2-2.6,1.2H601z"/>
			<path class="st0" d="M702.2,86.6v1.5v4.6v18.6h-11.5c-1,0-1.9-0.4-2.6-1.1c-0.7-0.7-1.1-1.6-1.1-2.6v-14v-5.5v-2.5
				c0-1.3,0.1-2.4,0.1-3.3c0-0.9,0.1-1.5,0.1-2c0.1-0.5,0.1-0.9,0.2-1.2c-3.8,0-6.6,0.6-8.6,1.7c-1.9,1.1-3.2,3.1-3.2,5.8v1.5v4.6
				v13.2c0,2.9,1.1,5.5,3.3,7.7c2.2,2.2,4.8,3.3,7.7,3.3h23.9c0,0,1.5-0.1,2.2-0.9c0.8-0.9,0.8-2,0.8-2V93.7v-5.5v-2.5
				c0-1.3,0.1-2.4,0.1-3.3c0-0.9,0.1-1.5,0.1-2c0.1-0.5,0.1-0.9,0.2-1.2c-3.8,0-6.7,0.6-8.6,1.7C703.5,82,702.2,83.9,702.2,86.6z"/>
			<path class="st0" d="M577.1,85c2.1,0,3.7-0.9,4.8-2.2c1.1-1.3,0.9-1.4,1.7-3.4h-8h-8.9h-9.9c-2.9,0-5.5,1.1-7.7,3.3
				c-2.2,2.2-3.3,4.7-3.3,7.7V106c0,2.9,1.1,5.5,3.3,7.7c2.2,2.2,4.8,3.3,7.7,3.3h15.7c3,0,5.6-1.1,7.7-3.3c2.2-2.2,3.3-4.8,3.3-7.7
				V95.4H580h-10.4c-2.1,0-3.7,0.9-4.8,2.2c-1.1,1.3-0.9,1.4-1.7,3.4h9v6.7c0,1-0.4,1.8-1.1,2.6c-0.7,0.7-1.6,1.1-2.6,1.1h-7.7
				c-1,0-1.8-0.4-2.6-1.1c-0.7-0.7-1.1-1.6-1.1-2.6V88.6c0-1,0.4-1.8,1.1-2.6c0.7-0.7,1.6-1.1,2.6-1.1h5.9v0H577.1z"/>
		</g>
		<g>
			<path class="st0" d="M266.1,25.2h-13.6v-0.3v-5.4c0-1.5,0.5-6.3,1.6-7.3c1.1-1.1,2.3-2.3,3.8-2.3h8.1h10.4h1.9c3,0,5.4-1.3,7-3.2
				c1.6-2,1-2.1,2.5-5h-11.4h-10.4H252c-4.3,0-8,1.6-11.3,4.8c-3.2,3.2-4.9,7-4.9,11.2v18.8v5.3v0.7c0,5.2,1.4,8.9,4.3,11.2
				c2.9,2.2,7.5,3.3,12.8,3.3c-0.1-0.5-0.2-1.3-0.3-2.3c-0.1-1-0.1-2.3-0.2-3.9c0-1.7-0.1-3.8-0.1-9.2v-8.1h13.6h9.6h2.7
				c3,0,5.4-1.2,7-3.2c1.6-2,1-1.9,2.5-5.1h-12.2H266.1z"/>
			<g>
				<path class="st0" d="M414,49.5c-0.4-0.5-1-1.2-1.8-2L401,34.9c4.5,0,8.4-1.6,11.7-4.7c3.3-3.1,4.9-6.9,4.9-11.4v-0.9
					c0-4.3-1.6-8.1-4.8-11.3c-3.2-3.3-7-4.9-11.3-4.9h-39.2v34.9v6v0l0,0c0,5.2,1.4,8.9,4.3,11.2c2.9,2.2,7.6,3.3,12.9,3.3
					c-0.1-0.5-0.2-1.3-0.3-2.3c-0.1-1-0.1-2.3-0.2-3.9c0-1.7-0.1-3.8-0.1-6.4v-1.8v-7.6h5.5l4.4,4.9h0c2.9,3.4,5.5,6,7.3,8.2
					c1.9,2.2,3.6,3.9,5.2,5.3c1.6,1.3,3.1,2.3,4.6,2.9c1.5,0.6,3.1,1,4.8,1.2c1.5,0.2,2.3,0.2,3.3,0c1-0.2,1.9-0.4,2.6-0.7
					c0.7-0.3,3-0.9,3.5-1.5c-1-0.7-2.1-1.9-3.1-2.8C416.2,51.7,414.9,50.5,414,49.5z M378.8,26.6V9.9h16.8c1.4,0,2.7,0.5,3.8,1.6
					c1.1,1.1,1.6,5.1,1.6,6.6c0,1.5-0.5,5.7-1.6,6.8c-1,1.2-2.3,1.7-3.8,1.7H378.8z"/>
				<path class="st0" d="M546.8,49.8c-0.2-0.2-0.5-0.5-0.8-0.8l-19-22.3l1.5-1.9l20.2-21.5c0,0-9-3.7-17.6,1.5
					c-3.5,2.1-3.1,2.1-6.5,5.8c-3.7,4-8.4,8.9-12.7,13.2h-2.5v-0.9v-9.2v-2.5c0-2,0.1-3.6,0.1-4.8c0-1.2,0.1-2.2,0.2-3
					c0.1-0.8,0.2-1.4,0.3-1.8c-5.5,0-9.7,0.8-12.6,2.5c-2.9,1.7-4.7,4.5-4.7,8.4v1.1v7.9v14.9v6v0.9h0c0.2,4.7,1.6,8.1,4.3,10.2
					c2.9,2.2,7.5,3.3,12.9,3.3c-0.1-0.5-0.2-1.3-0.3-2.3c-0.1-1-0.1-2.3-0.2-3.9c0-1.7-0.1-3.8-0.1-6.4l0-0.9h0v-8.6h7.3L530.3,50
					c0,0,1.2,1.4,2.9,3.1c1.5,1.5,3.1,2.3,4.6,2.9c1.5,0.6,3.1,1,4.9,1.2c1.5,0.2,2.8,0.2,3.9,0c1.1-0.2,2-0.4,2.7-0.7
					c0.7-0.3,2.6-0.9,3.2-1.4c-1-0.7-2-1.5-2.9-2.4C548.6,51.9,547.8,50.9,546.8,49.8z"/>
				<path class="st0" d="M334.6,12.6v2.3v6.8v27.2h-16.7c-1.4,0-2.7-0.5-3.8-1.6c-1.1-1.1-1.6-2.4-1.6-3.8V22.9v-8v-3.6
					c0-2,0.1-3.6,0.1-4.8c0-1.2,0.1-2.2,0.2-3c0.1-0.8,0.2-1.4,0.3-1.8c-5.5,0-9.7,0.8-12.6,2.5c-2.8,1.7-4.7,4.5-4.7,8.4v2.3v6.8
					V41c0,4.3,1.6,8,4.9,11.3c3.2,3.2,7,4.9,11.3,4.9h34.9c0,0,2.1-0.1,3.2-1.3c1.2-1.3,1.2-2.9,1.2-2.9V22.9v-8v-3.6
					c0-2,0.1-3.6,0.1-4.8c0-1.2,0.1-2.2,0.2-3c0.1-0.8,0.2-1.4,0.3-1.8c-5.5,0-9.7,0.8-12.6,2.5C336.4,5.8,334.6,8.6,334.6,12.6z"/>
				<path class="st0" d="M464.4,12.6v2.3v6.8v27.2h-16.7c-1.4,0-2.7-0.5-3.8-1.6c-1.1-1.1-1.6-2.4-1.6-3.8V22.9v-8v-3.6
					c0-2,0.1-3.6,0.1-4.8c0-1.2,0.1-2.2,0.2-3c0.1-0.8,0.2-1.4,0.3-1.8c-5.5,0-9.7,0.8-12.6,2.5c-2.9,1.7-4.7,4.5-4.7,8.4v2.3v6.8
					V41c0,4.3,1.6,8,4.9,11.3c3.2,3.2,7,4.9,11.3,4.9h34.9c0,0,2.1-0.1,3.2-1.3c1.2-1.3,1.2-2.9,1.2-2.9V22.9v-8v-3.6
					c0-2,0.1-3.6,0.1-4.8c0-1.2,0.1-2.2,0.2-3c0.1-0.8,0.2-1.4,0.3-1.8c-5.5,0-9.7,0.8-12.6,2.5C466.2,5.8,464.4,8.6,464.4,12.6z"/>
				<path class="st0" d="M680.7,11.6v1.1v7.9v22.8c0,1.4-0.5,2.7-1.5,3.8c-1,1.1-2.1,1.6-3.5,1.6h-10.3V10.6V9c0,0,0-4.5-3.1-4.5
					c-0.3,0-8.7,0-8.7,0c-3.5,0-3.5,4.8-3.5,4.8v1.4v38.2H640c-1.3,0-2.5-0.5-3.5-1.6c-1-1.1-1.5-2.4-1.5-3.8V20.6v-7.9v-1.1
					c0-3.9-1.6-6.7-4.2-8.4c-2.6-1.7-6.5-2.5-11.5-2.5c0.1,0.4,0.2,1,0.2,1.8c0.1,0.7,0.1,1.7,0.2,3c0,1.2,0.1,2.9,0.1,4.8v2.5v9.2
					V41c0,4.3,1.5,8,4.4,11.3c3,3.2,6.4,4.9,10.3,4.9h46.6c3.9,0,7.4-1.6,10.3-4.9c2.9-3.2,4.4-7,4.4-11.3V21.9v-9.2v-2.5
					c0-2,0-3.6,0.1-4.8c0-1.2,0.1-2.2,0.2-3c0.1-0.8,0.2-1.4,0.2-1.8c-5.1,0-8.9,0.8-11.5,2.5C682.3,4.8,680.7,7.6,680.7,11.6z"/>
				<path class="st0" d="M611.5,51.2c0-1.7,0-4.8,0-7.4v-26c0-4.3-1.6-8.1-4.9-11.3c-3.2-3.2-7-4.8-11.3-4.8h-23
					c-4.4,0-8.2,1.6-11.4,4.8c-3.2,3.2-4.9,7-4.9,11.3v26.7h0c0,2.5,0,5.2,0,6.7c0,1.7,0,3-0.1,3.9c-0.1,1-0.2,1.8-0.3,2.3
					c5.3,0,9.8-1.1,12.7-3.3c2.6-2,4-5.2,4.3-9.7h0.1V43v-2.1h22.2V43v0.9h0c0.2,4.8,1.6,8.2,4.3,10.3c2.9,2.2,7.4,3.3,12.7,3.3
					c-0.1-0.5-0.2-1.3-0.3-2.3C611.5,54.2,611.5,52.9,611.5,51.2z M572.7,32.6V15.3c0-1.5,0.5-2.7,1.6-3.8c1.1-1.1,2.3-1.6,3.8-1.6
					h11.4c1.4,0,2.7,0.5,3.8,1.6c1.1,1.1,1.6,2.3,1.6,3.8v17.3H572.7z"/>
				<path class="st0" d="M758.7,55.2c-0.1-1,0-2.3-0.1-3.9c0-1.7,0-4.8,0-7.4v-26c0-4.3-1.6-8.1-4.8-11.3c-3.2-3.2-7-4.8-11.3-4.8
					h-23c-4.4,0-8.2,1.6-11.4,4.8c-3.2,3.2-4.9,7-4.9,11.3v26.7l0,0c0,2.5,0,5.2,0,6.7c0,1.7,0,3-0.1,3.9c-0.1,1-0.2,1.8-0.3,2.3
					c5.3,0,9.8-1.1,12.7-3.3c2.6-2,4-5.2,4.3-9.7h0.1V43v-2.1h22.2V43v0.9h0c0.2,4.8,1.6,8.2,4.3,10.3c2.9,2.2,7.3,3.3,12.6,3.3
					C758.9,57,758.8,56.2,758.7,55.2z M719.9,32.6V15.3c0-1.5,0.5-2.7,1.6-3.8c1.1-1.1,2.3-1.6,3.8-1.6h11.4c1.4,0,2.7,0.5,3.8,1.6
					c1.1,1.1,1.6,2.3,1.6,3.8v17.3H719.9z"/>
			</g>
		</g>
		<g>
			<polygon class="st1" points="111.2,0 0,87.4 45,87.4 111.2,22.3 177.4,87.4 222.4,87.4 			"/>
			<path class="st1" d="M168.7,88.1l-8.4-7.9l-13.4,7.2H75.6l-13.4-7.2l-8.4,7.9c-3.1,3.1-1.1,8.7,0.2,11.5c1.3,2.9,2.7,7,5.3,12.7
				c2.6,5.8,8.2,5.5,12.3,3.4c12.7-4.3,28-7.2,39.7-7.2c11.7,0,27,2.9,39.7,7.2c4.1,2.2,9.6,2.4,12.3-3.4c2.6-5.8,4-9.8,5.3-12.7
				C169.8,96.8,171.8,91.3,168.7,88.1z"/>
		</g>
	</g>
</g>
</svg>
