<?xml version="1.0" encoding="utf-8"?>
<!-- Generator: Adobe Illustrator 24.0.1, SVG Export Plug-In . SVG Version: 6.00 Build 0)  -->
<svg version="1.1" id="Layer_1" xmlns="http://www.w3.org/2000/svg" xmlns:xlink="http://www.w3.org/1999/xlink" x="0px" y="0px"
	 viewBox="0 0 1208 210" style="enable-background:new 0 0 1208 210;" xml:space="preserve">
<style type="text/css">
	.st0{fill:#23589C;}
	.st1{fill:#E7372E;}
</style>
<g>
	<path class="st0" d="M1126.8,58c4,1.9,7.8,3.7,11.9,5.7c-1.2,1.7-2.3,3.3-3.8,5.3c5.4,0,10.3,0,15.6,0l-2.8,11.9c0,0-24.3,0-25.6,0
		l1.6,6.2c0,0,25.2,0.1,26.4,0.1l-2.8,11.7l-15.3-0.1c4.1,5,9.1,8,14.5,10.8c-3.5,4.2-6.8,8.2-10.3,12.4c-2.8-1.9-5.5-3.8-8.5-5.9
		c-0.8,2.4-1.4,4.7-2.3,6.8c-2,4.8-3.9,9.7-6.4,14.3c-2.5,4.7-6.6,7-12.1,6.7l-15.1,0c0-4.3,0-8.4,0-12.8c3.5,0,6.9,0,10.4,0
		c4.8,0,5.7-0.6,7.5-5c0.9-2.2,1.6-4.4,2.4-6.6c0.2-0.5,0.2-1.1,0.4-2.2l-14.8,0c0,0-1.8,3-2.4,4.1c-5.2,10.7-14.5,16.5-25.5,19.8
		c-5.9,1.8-12.1,2.7-18.5,4c-1-4.4-1.9-8.3-2.8-12.6c3.9-0.5,7.6-1,11.4-1.6c6.4-1.1,12.6-2.7,17.6-7.1c1.9-1.6,3.6-4.4,5.1-6.4
		c0,0-8.2,0-12.1,0c0-1,0-1.6,0-2.6c-4.6,2.3-9.1,4.6-13.9,7c-1.7-3.9-3.4-7.7-5.2-11.7c7.1-2.9,14.6-6.5,20.6-11.1
		c0,0-11.7,0-17.3,0c0,0,1.7-8.1,2.6-12.1h28c0,0,2.4-2,4.7-6c-9.3,0-18.2,0-27.5,0c0.9-3.9,1.8-8.3,2.7-11.8l10.4-0.1
		c-0.5-2-0.9-3.6-1.3-5.4c4.7-1.9,9.4-3.7,14.4-5.7c0.8,2.8,3.4,11.1,3.4,11.1l5.4-0.1l4.7-11.4c4.5,0.1,15,0.5,15,0.5
		c-1.7,3.7-3.2,7.7-4.8,11l6.4,0C1118.8,69,1124.7,60.9,1126.8,58z M1083.7,105.5c11.6,0,22.5,0,33.9,0l-4.2-6.4l-22.7,0.1
		C1088.6,100.9,1086.1,103.2,1083.7,105.5z M1108.7,87l-1.3-5.9l-2,0c-1.3,1.6-3,3.9-4.3,5.9C1103.8,87,1106.1,87,1108.7,87z"/>
	<path class="st0" d="M245.9,143.6c0.8-3.8,1.5-7.1,2.3-10.4c5.4-23.8,10.7-47.5,16-71.3c0.5-2,1.2-2.8,3.4-2.8
		c12.2,0.1,24.5,0,36.7,0.1c2.7,0,5.5,0.3,8.1,1c9.2,2.3,13.4,9.4,11.7,18.7c-1.5,8.2-5.6,14.5-12.9,18.8c0.3,0.4,0.5,0.8,0.8,1
		c6.4,3.8,7.9,9.9,7.1,16.6c-2.1,16-12,25.6-28.1,27.6c-2.6,0.3-5.3,0.5-8,0.5c-11.3,0.1-22.7,0-34,0
		C248.2,143.6,247.3,143.6,245.9,143.6z M265.5,129.3c1.1,0,1.9,0,2.7,0c6.5,0,13,0,19.5,0c8.3,0,13.3-4.1,15.1-12.3
		c1.5-6.9-1.5-10.5-8.6-10.5c-6.3,0-23.4,0-23.4,0S266.9,122.9,265.5,129.3z M273.6,93.3c7.4,0,14.3,0,21.2,0
		c7.9,0,13-6.6,12.6-14.8c-0.4-2.8-2.7-4.5-6.4-4.9c-0.3,0-0.6,0-1,0L278,73.7C278,73.7,274.8,88,273.6,93.3z"/>
	<path class="st0" d="M587.4,106.8c-9.1,0-17.8,0-27,0l3.1-13.7l27.3,0.1l3.3-15.5c-6.6,0-12.9,0-19.7,0c1-4.6,2-9.5,3.1-13.5
		l69.1,0l-3.2,13.4l-31.9,0.1c0,0-2.7,11.2-3.6,15.5c14.3,0,28.2,0,42.7,0l-3.2,13.7l-42.4,0c0,0-3,12.1-3.9,16.4
		c-0.9,4.1,0.7,6,4.9,6.1c0.1,0,31.5,0.1,31.5,0.1c-0.5,2.4-3.1,14.3-3.1,14.3c-10.9-0.1-24,0-34.9-0.1c-2.4,0-4.8-0.5-7.1-1.1
		c-7.5-2.1-10.7-7.8-9-16.2C584.4,120.6,587.2,108,587.4,106.8z"/>
	<path class="st0" d="M485.2,143.3c0,0,2.1-10.1,2.9-14.2c0,0,8.9,0,12.4,0c2.5,0,4.1-1.3,4.7-3.7c2.2-9.3,6.6-28.5,6.6-29.1
		c-12.9,12.8-27.1,24.4-43.3,32.4c-3.2-3.6-6.3-6.9-9.5-10.5c16.2-8.9,32.3-19.6,46.3-31.7l-34.1,0l3-13.3l42.9-0.1l3.7-17l16.4,0.1
		c-1.3,5.7-2.5,11.2-3.7,17c9.5,0,18.7,0,28.2,0c-0.9,4.3-2.9,13.4-2.9,13.4c-7.8,0.1-28.4-0.1-28.4-0.1s-7.3,32.6-10.7,47.7
		c-1.2,5.3-4.8,8.9-10.2,9.1C501.3,143.6,493.4,143.3,485.2,143.3z"/>
	<path class="st0" d="M231.7,85.9c0-2.5,0.1-4.6,0-6.8c-0.1-2.6-1.5-4.4-3.6-5.7c-5.7-3.6-16.7-2.3-21.5,2.5
		c-2.1,2.1-2.9,4.6-3.1,7.4c-0.2,2.7,1.8,5.1,5.2,6.2c6.5,2.1,13,4.1,19.5,6c11.6,3.3,16.9,12.2,13.8,23.9
		c-3.7,14.2-13.7,21.7-27.4,24.9c-7.3,1.7-14.7,1.6-22-0.3c-12.8-3.4-17.7-13.6-16.4-25.2c0.2-1.6,0.6-3.3,0.9-5.1c2.7,0,5.4,0,8,0
		c2.6,0,6.1,0,8.4,0c-0.5,2.5-1,5.4-0.8,7.9c0.2,3.8,2.3,6.5,5.7,7.8c7.6,2.9,15,2.6,22-1.9c3.6-2.3,5.3-5.9,5.6-10.1
		c0.2-3.1-0.8-5-3.7-6c-6.7-2.3-13.6-4.3-20.3-6.5c-2.8-0.9-5.7-1.9-8.2-3.5c-6.5-4.1-8.7-11.1-6.4-19.6c3.5-13.4,13-20.4,25.9-23.5
		c7.2-1.7,14.4-1.6,21.4,0.9c11.2,4,15.8,13.7,13.2,25.4c-0.1,0.5-0.3,1.3-0.3,1.3C242.8,85.9,236.7,85.9,231.7,85.9z"/>
	<path class="st0" d="M358.6,118.1c21.9-7.1,42.8-16,61.1-29.9c-0.1-0.2-0.1-0.4-0.2-0.7c-14.2,0-28.4,0-43.1,0
		c0,0,2.2-10.6,2.8-13.3l39-0.1c-6.3-2.9-12.9-7-20.2-9.2c2.2-3.1,5.6-7.7,8-10.9c1.8-1.3,27.6,11.6,26.5,12.4
		c-1.2,2-3.6,5.3-5.3,7.7l15.1,0l8.6,7.1L416.9,109c-2.1,10-7.9,34.4-7.9,34.4l-16.5,0c2.1-9.1,4-17.8,6.1-27.1
		c-11.3,4.9-22.2,9.5-33,14.2C363.3,126.3,361,122.4,358.6,118.1z"/>
	<path class="st0" d="M1025.3,130.6c5,0,9.7,0,14.6,0l-3,12.8h-51.2l3-12.9l2.9,0c3.3-14.6,7.8-33.4,11-48l13.1-0.1
		c-3.6,16.1-7.2,31.9-10.8,48.1c2.1,0,6.9-0.1,6.9-0.1s13-58.2,12.9-58l-21.7,0l3-13.4c0,0,47.1,0,48.3,0c-1,4.6-2,8.9-3,13.4
		c-12.6,0-12.6,0-12.6,0s-3.1,13.5-4.6,20c3.7,0,7.1,0,10.9,0l-2.9,12.8l-10.7,0C1029.4,113,1027.1,122.5,1025.3,130.6z"/>
	<path class="st0" d="M917.9,58.7c-4.8,21.6-9.2,43.4-13.9,64.6c0.5,0.5,25-18.6,33-32.2c4.2,2.4,8.4,4.8,12.9,7.4
		c-2.8,3.6-5.4,7-8.2,10.3c-10.5,12.5-22.2,23.7-36.7,31.6c-3.1,1.7-6.6,2.8-9.8,4.2l-1.8,0.8c0,0-6.7-8.8-8.9-11.9l0.4-1.5
		c4.9-22.5,11.2-50.8,16.2-73.3L917.9,58.7z"/>
	<path class="st0" d="M798.7,101.3c-11.5,5.8-22.9,11-34.5,15.8c-2.7-4.6-5.1-8.7-7.6-13c29.5-11.5,58-25,82.7-45.3
		c3.3,2.8,10.8,9.1,11.5,9.6c-4.4,3.3-8.7,6.7-13.1,9.7c-5.6,3.9-19.2,13.2-19.2,13.2c-3.4,15.8-11.6,52.1-11.6,52.1l-17.3,0
		C792.6,129.3,795.6,115.4,798.7,101.3z"/>
	<polygon class="st0" points="357.3,59.1 338.3,143.3 322,143.3 341,59.1 	"/>
	<path class="st0" d="M703,70.1c-8.4,26.3-19,51.9-36.9,73.3c-5-2.9-15.1-9.1-15.1-9.1l0.3-0.3c16.4-18.9,27.7-43.8,35-67.5
		L703,70.1z"/>
	<path class="st0" d="M885.9,68.7c-4.5,27.5-13.5,52.5-33.2,72.7c-4.8-3-9.6-5.9-14.4-8.8c3.7-4.5,7.6-8.9,11.2-13.6
		c10.3-13.7,17.3-33.2,19.8-50.3H885.9z"/>
	<path class="st0" d="M732.3,67.4c1.9,7.9,4,15.6,5.5,23.4c3.1,13.4,7.9,45.8,7.2,45.9c-4,1.4-13.1,4.6-17.3,6
		c0.2-7.1-5.8-54.6-11.4-69.8C716.3,73,731.1,67.8,732.3,67.4z"/>
	<path class="st0" d="M982.8,143.3c-10.5,0-20.8,0-31.5,0c1-4.3,5.1-23.2,6.3-27.6l31.4,0.1C987,124.9,984.8,134.1,982.8,143.3z
		 M966.3,132.7l7.2,0.2l1.4-6.9l-7.2,0C967.1,128,966.7,130.7,966.3,132.7z"/>
	<path class="st1" d="M141.7,88.5c0.3-3.5,0.9-6.5,0.6-9.3c-0.5-4.2-3.5-6.9-7.1-8.8c-4.5-2.4-9.4-3.4-14.4-3.4
		C93,66.9,68.5,76,47.4,94.2c-0.1,0.1-0.3,0.2-1.1,0.7c0.9-1.4,1.5-2.2,2-3c0.6-0.9,1.3-1.7,2-2.5c8.5-9.5,19.2-15.9,30.7-20.9
		c14.6-6.4,29.8-10.6,45.9-9.7c4.6,0.3,9.3,1.3,13.5,3c7.6,3,10.1,9.7,6.8,17.1C146,82.2,143.7,85.1,141.7,88.5z"/>
	<path class="st0" d="M96.3,83.1c6,0,11.8-0.1,17.5,0c3.1,0.1,6.2,0.6,7.5,3.9c1.4,3.5,0,6.5-2.4,9.1c-0.8,0.8-1.7,1.5-2.8,2.4
		c3.9,2.4,4,5.9,2.8,9.8c-1.4,4.5-4.5,8.2-9.1,8.7c-7,0.8-21.3,0.7-21.3,0.7C91.2,105.9,93.7,94.6,96.3,83.1z M98.6,110.6
		c1.5,0,2.5,0.1,3.5,0c2.2-0.2,4.5-0.2,6.6-0.9c2-0.6,3-3.2,2.5-5.2c-0.6-2-2.3-2.2-4-2.2c-1.7,0-3.5,0-5.2,0.1
		c-0.6,0-1.5,0.2-1.5,0.2L98.6,110.6z M101.7,96.7c1.7,0,4.5,0,4.5,0s3.2-0.2,4.7-0.9c1.1-0.5,2.6-2.7,1.7-4.2
		c-0.5-0.9-1.9-1.4-3.1-1.6c-1.5-0.3-3.2-0.2-4.7,0c-0.6,0.1-1.6,0.1-1.6,0.1S102.2,94.5,101.7,96.7z"/>
	<path class="st0" d="M59.5,106.1l8.5,0c-0.2,6.1,5.9,6.2,8.8,4.9c0,0,2.4-0.9,2.5-3.6c0-1.8-1.6-2.3-2.7-2.9c-2-1-4.2-1.4-6.4-2.1
		c-8.7-2.7-7.6-9.6-4.2-14.3c4-5.4,14.5-7.5,20.5-4.4c5.1,2.4,3.9,9.8,3.9,9.8h-8.8c-0.4-4.1-2.6-4.9-6.3-4.2
		c-1.4,0.3-2.8,1.1-2.8,3c0,2,1.1,2.1,2.1,2.6c1.7,0.8,3.6,1.1,5.4,1.7c3.5,1.1,7.3,2.1,8.1,6.5c0.8,4.3-0.9,8-4,10.8
		c-5.8,5-12.6,5.7-19.7,3.3C60.6,115.8,58.9,111.5,59.5,106.1z"/>
	<path class="st0" d="M419.5,112.4c3.3-2.6,12-8.9,12-8.9c0.3-0.2,16.7,10.2,22.4,15.8c-4.4,3.8-8.3,7-11.9,10
		C435.6,123.3,428.2,117.6,419.5,112.4z"/>
	<path class="st0" d="M1001.4,72.7c-0.8,3.5-1.7,7.7-2.4,10.7l-37-0.1l2.5-10.7C964.5,72.7,989.2,72.7,1001.4,72.7z"/>
	<path class="st0" d="M995.4,87.3c-0.7,3.1-1.5,6.6-2.2,9.9h-31.5l2.3-10.1L995.4,87.3z"/>
	<path class="st0" d="M958.4,111.8c0.7-2.9,1.5-7.2,2.2-10.2c0,0,21.2,0,31.5,0l-2.5,10.2C980,111.9,958.4,111.8,958.4,111.8z"/>
	<path class="st0" d="M968.1,68.8c0.7-3,1.4-6.4,2.1-9.6c10.5,0,20.9,0,31.5,0l-2.4,9.6C989.6,68.9,968.1,68.8,968.1,68.8z"/>
	<path class="st0" d="M136,83.1c-2.3,10.3-7.5,34.5-7.5,34.5l-8.7,0c0.8-3.5,1.5-6.8,2.3-10c1.7-7.4,3.8-17,5.4-24.4L136,83.1z"/>
	<path class="st0" d="M756.6,71.5c-2.7-4.8-5.2-9.4-7.9-14.2l8.2-4.2c2.6,4.1,6,9.4,8.7,13.8C762.3,68.7,759.5,70.1,756.6,71.5z"/>
	<path class="st0" d="M741.3,74.5c-2.5-5-4.9-9.8-7.3-14.7c2.5-1.3,5-2.7,8-4.3c2.4,4.4,7.9,14.5,7.9,14.5L741.3,74.5z"/>
	<path d="M86.8,143.6c0,0-3-6.1-3.9-7l-3.8,0l-1.1,7l-2.5-0.1c1-5,2-10.3,3-15.5H86c1.9,0,3.5,0.6,4.2,2.6c0.7,2.1-0.6,3.7-2.3,4.8
		c-0.7,0.5-1.8,0.9-2.5,1c1.1,2.2,2.5,4.9,3.5,7L86.8,143.6z M79.4,135.1c0,0,5.9,0.1,6.3-0.1c1.2-0.2,2.5-1,2.4-2.9
		c0-0.5,0-2-2.7-2.2c-1.2-0.1-5.3-0.1-5.3-0.1L79.4,135.1z"/>
	<path d="M74,135.6c-0.2,6.1-2.6,9.4-9.7,8c-0.2,0-0.5-0.1-0.7-0.2c-3-1.3-4-3.3-4-5.2c-0.4-6.5,5.5-11.6,11-10.2
		c1.3,0.3,3.2,1.7,3.7,3.1c0.2,0.5,0.2,1.4,0.2,1.4l-2,0.5c-0.3-4.9-6.7-4.7-9.7,0.1c-0.9,1.4-1.1,3.1-1.2,4.8
		c-0.1,1.8,2.2,4.2,4.8,4.3c3.5,0,5-1.3,5-4.5c-1.2,0-3.3,0-4.4,0l0.7-2H74z"/>
	<path d="M106.4,134c0,4.9-3,9.1-7.8,9.7c-3.1,0.4-7-1.4-7.4-5.1c-0.4-4.1,2.6-10.9,9.4-10.6C104.2,128.1,106.4,130.3,106.4,134z
		 M104.5,134.4c0.1-3.9-3.1-6-6.7-4.5c-3.2,1.3-5.8,6.7-4.3,9.8c0.6,1.1,2.3,2.2,3.5,2.4C101,142.8,104.4,139.2,104.5,134.4z"/>
	<path d="M124.8,128.1c2.2,0,4.2,0,6.2,0c2.3-0.1,3.7,0.8,4.4,2.3c0.3,0.6,0.4,1.2,0.3,1.8c-0.2,2.1-1.9,4.1-4,4.6
		c-1,0.3-1.7,0.4-2.8,0.4c-1.1,0.1-2.7,0.2-4,0.2c-0.4,1.6-1.2,6-1.2,6l-2,0C122.6,139.1,123.9,132.8,124.8,128.1z M125.5,135.6
		c0,0,4.1,0.3,6-0.2c1.7-0.4,2.4-2.3,2.2-3.9c-0.1-0.6-0.5-1.4-2.3-1.5h-4.8L125.5,135.6z"/>
	<path d="M111.8,141.9c2.7,0.7,4.6-0.3,5.7-2.2c1.6-2.7,2.5-11.7,2.5-11.7h1.9c-0.6,6.7-1.9,10.8-2.9,12.9c-1.6,2.8-6.9,3.9-9.4,2
		c-0.8-0.6-1.6-2.1-1.5-3.1c0.3-3.5,1.2-8.2,1.8-11.7h2c0,0-1.2,6.3-1.7,9.4C110,139.3,109.8,141.1,111.8,141.9"/>
</g>
</svg>
