<?xml version="1.0" encoding="utf-8"?>
<!-- Generator: Adobe Illustrator 24.0.1, SVG Export Plug-In . SVG Version: 6.00 Build 0)  -->
<svg version="1.1" xmlns="http://www.w3.org/2000/svg" xmlns:xlink="http://www.w3.org/1999/xlink" x="0px" y="0px"
	 viewBox="0 0 8268 2362" style="enable-background:new 0 0 8268 2362;" xml:space="preserve">
<style type="text/css">
	.st0{fill:#231815;}
	.st1{fill:#FFFFFF;}
	.st2{fill:#269B3E;}
	.st3{fill:#105130;}
	.st4{display:none;}
</style>
<g id="Layer_1">
	<g>
		<path class="st0" d="M3585.3,1347.3c0,0-191.6-0.4-203.3-0.5V949.1l330.9,0l0.1-57l-399,0v-96.7c0,0,391.4-0.1,399-0.1V731h101.9
			l0,63.9l394.2,0.4v96.7l-392.6-0.1v57l317.5,0.1v398c0,0-209.8-0.4-216.8-0.1c11.1,17.1,47.7,51.2,88.5,85.4
			c31.5,24.8,65,46.6,100.3,65.4c35.3,18.8,74.4,34,113.6,46.8c0,0-15.8,29.9-22.8,44.6c-7.2,14.9-14.9,29.6-22.7,45.3
			c-4.6-0.9-8.4-1.5-12.1-2.5c-49-14.1-94.3-36.5-137.7-62.9c-71.2-43.2-133.6-96.9-190.1-157.9c-4.9-5.3-12.3-16.7-19-20.3
			l-0.2,264l-101.9-0.2c0,0-0.2-160.2-0.3-228.8c0-6.4,0-24.8,0-24.8c-3,4-13.1,13.1-17.6,17.7c-37.4,38.2-77.1,73.6-120,105.5
			c-54.7,40.8-112.8,75.7-176.5,100.6c-9.9,3.9-20.1,7-30.2,10.2c-2.4,0.8-5.1,0.8-7.2,1.2c-10.5-12.6-43.6-66.6-52.9-86.5
			c5-2.7,10-5.6,15.2-8.1c67.9-33.1,132.5-71.5,191.9-118.3c20.4-16.1,40-33.3,56.1-53.9C3576.2,1363.6,3582.6,1356.5,3585.3,1347.3
			z M3708,1195.8h-222.1l0,47.2l222,0C3708,1243.1,3708,1211.1,3708,1195.8z M4040,1195.8l-223.6,0.1l0.1,47.2H4040V1195.8z
			 M4039.9,1043.1l-223.5,0l0,46l223.5-0.1L4039.9,1043.1z M3486,1089.1h222v-45.9c0,0-154.1-0.1-222,0L3486,1089.1z"/>
		<path class="st0" d="M5577,967c37.8,0,73.6,0.2,109.3,0.2c9.3-18.7,19-39.1,27.7-56.7l101.8-0.2c0,0-28,51.2-30,56.6l160,0.1
			v314.8c0,0-117.7-0.1-123.9,0.1l0.1,45.9l392.9,0.2v90.9l-284.9-0.3c1,9.1,110.1,75.2,165.4,92.4c35.5,13.6,71.8,24.4,109,32.4
			c3.1,0.7,6.2,1.8,8.3,2.5c1.1,1.7,1.6,2.2,1.8,2.8c0.1,0.6,0,1.4-0.3,1.9c-18.1,31.1-36.2,62.1-54.4,93.1
			c-1.3,2.2-3.2,4.1-5.1,6.3c-15-1-29.1-5.1-43-9.3c-41-12.4-79.4-30.7-116.4-52.2c-55-31.9-105.4-70-152.9-112
			c-5.3-4.7-14.2-12.6-20.5-18l-0.1,197.5H5709l0-185.2c-1.2,0.9-12.4,10.1-16.6,13.9c-40.7,36.7-84.4,69.3-132.3,96.1
			c-40.9,22.8-83.6,41.2-129.4,51.7c-14.8,3.4-29.7,7.8-44.9,6c-15.7-16.8-58-73.5-64.8-87c5.2-1.6,10.1-3.4,15.2-4.8
			c61.6-17.6,121.9-38.5,178.9-67.9c26.7-13.7,52.4-29.1,76.1-47.6c3.1-2.4,13.8-10.2,13.8-12.3l-290,0l0-90.9l394,0
			c0,0,0.5-31-0.1-45.9L5577,1282V967z M5852,1206.9l0.3-52h-182.1v52C5670.1,1206.9,5793.9,1206.9,5852,1206.9z M5670.1,1079.9
			c0,0,130.1,0,181.8-0.1V1042c-54.4,0-181.8,0.3-181.8,0.3L5670.1,1079.9z"/>
		<path class="st0" d="M4610,1654h-103c0,0,0.3-308.9,0.3-322.3c0-13.1,0-29.8-0.4-46.1c0,0-6.3,8.8-7.6,10.7
			c-24.7,38.1-53.7,73-81.7,108.5c-2.5,3.1-4.9,6.3-7.7,9.1c-19.7,19.8-39.5,39.6-59.4,59.3c-0.8,0.8-2.4,0.9-3.6,1.3
			c-11.1-11.9-46.3-71.4-55.7-94.5c3.3-4.3,6.7-9.3,10.6-13.7c24.9-27.7,50.1-55.3,75-83c8.9-9.9,18-19.7,25.8-30.4
			c34.7-43.8,101.3-157,99.3-157.8c0,0-186.7-0.1-196.9-0.1l0-97.9L4507,997l0.1-123.9c-48.8,4.6-99.8,15.9-148.4,19.3
			c-7.8-13.6-20.4-60.9-26.5-98.5c3.8-4.8,9.4-4.2,14.6-4.6c27.9-1.8,55.8-3.8,83.8-5.1c50.7-2.4,100.7-9.5,150.6-18.5
			c43.3-7.8,86.3-16.3,128.3-29.8c2.5-0.8,5.2-0.8,7.4-1.1c9.7,11,32.3,51.4,46.3,83c-4,1.7-7.9,4-12,5.1
			c-44.5,11.4-141.1,35.8-141.1,35.8l-0.1,138.2l158,0.1l0,97.9c0,0-75.8-0.8-105.1-1c-6.6,0-24.6,0-24.6,0s4.8,8,6.4,10.4
			c29.9,44.9,60.8,89.2,96.6,129.8c11.9,13.4,27.5,27.7,41.8,38.6c-6.4,9.9-42,65.4-61.8,92.7c-3.2-3-6.7-8.2-9.6-11.4
			c-27.5-30.8-54.8-61.8-82.4-92.6c-4.7-5.2-19.3-18.5-19.3-18.5C4609.8,1250.9,4610,1654,4610,1654z"/>
		<path class="st0" d="M5190.1,1609l-94.1,0v-49.4l-182.2,0l-0.8,51.3c0,0-96.3,0.1-108,0.1V795.1l385.1,0.2V1609z M4913.8,1450.1
			l182.2,0c0,0.3-0.1-549.1-0.1-549.1h-182.2L4913.8,1450.1z"/>
		<path class="st0" d="M7104.7,752c0,0,0.4,334.4,0,340h-683.1l-0.6-340C6646.6,752,6877.8,752,7104.7,752z M6532,983.9l460,0.1
			c0,0,0.2-100.1,0-142c0,0-456.5-0.6-459.9-0.1L6532,983.9z"/>
		<path class="st0" d="M6796.6,1191.7h400.9l0.1,452.2h-104.4l-0.3-50.8l-193.8,0.1l0,50.7h-102.4c0,0,0-247.4,0-359.2
			C6796.6,1259.4,6796.6,1191.7,6796.6,1191.7z M6899,1506h193.9l0-222H6899V1506z"/>
		<path class="st0" d="M6421.5,1593.2l0.1,50.8l-102,0.1l0-452.4h400.1c0,0,0,305.5,0,452.3h-103.9v-50.7L6421.5,1593.2z M6615,1284
			l-193-0.1V1506h193.1C6615.1,1506,6615,1355.4,6615,1284z"/>
		<path class="st0" d="M6215,877h-213l-0.1,61.8l-107,0.4l0-62.3c0.1,0.4-121.6,0.2-171.6,0.2c-21.3,0-82.4,0-82.4,0l-0.1,62.1
			l-107-0.3l0-62l-215.9,0.1V775l215.8,0c0,0,0-52.6,0.1-53.1l107,0.1l0,52.9c0,0,174.2,0.6,253.9,0.5l0.1-53.6h106.8
			c0.1,0.2,0.1,53,0.1,53l212.9,0.1C6214.9,775,6214.7,845.4,6215,877z"/>
		<path class="st0" d="M5331,1301.8c-9.6-33.3-19.1-65.7-28.8-99.4c6.5-2.7,11.7-5.2,17.1-7.3c40.3-15.6,80.8-30.9,121-46.8
			c26.6-10.5,54.1-24.8,79.1-40.7c3.6,8.5,21.2,70.6,24.8,83C5509.6,1231.9,5400,1302.2,5331,1301.8z"/>
		<path class="st0" d="M6035.4,1104.4c10.6,0,21.8,4.7,31.4,9c17,7.5,33.9,15.3,50.2,24.3c33.6,16.3,100.8,64.4,103.8,69
			c-18.2,29.4-37.7,60.6-56.1,90.3c-55.2-49.6-122.3-88-183.5-128.5C5992.9,1154.1,6022.9,1115.4,6035.4,1104.4z"/>
		<path class="st0" d="M5338.4,1002.1c12.8-19.7,49.8-65.8,60.7-76c34.8,11.1,114.6,63.1,147.5,94.6c-0.3-1-34.1,34.3-40.4,42.6
			c-6.1,7-12,14.2-18,21.3c-6,7.1-13.2,16.7-19.4,24.1c-11.1-14.4-24.3-28.9-39.8-39.9c-14.3-11.9-29.3-22.9-44.3-33.9
			C5369.8,1023.9,5354.5,1013.4,5338.4,1002.1z"/>
		<path class="st0" d="M6184.9,990.6c-6.8,14.6-15.9,24.2-25.8,33c-14,12.5-29.9,22.2-46.7,30.5c-25.8,14-92.8,34.5-96,33.7
			c-1.6-15-6.3-28.8-11.8-41.5c-5.2-12.1-12-23.4-18.6-36c16.3-9.2,32.2-17.3,47.3-26.7c15.8-9.8,31.2-20.4,46-31.6
			c14.3-10.7,27.6-22.7,42.4-35C6143,941.5,6163.8,965.6,6184.9,990.6z"/>
		<path class="st1" d="M1902.8,1221.4c0.9-34.8-9.4-66.5-32.8-93.2c-28.1-32.1-64.2-46.1-106.7-44.2c-50.1,2.4-87.4,25.6-111.2,69.4
			c-17.9,33.1-20.2,68.4-11.8,104.7c13.3,58,64.3,108.1,134.7,104.8c40.7-1.9,73.1-18.4,97.9-50
			C1893.7,1286.4,1903.2,1255.7,1902.8,1221.4z M1629,1087.9c-7.9,0-15.2,0-22.4,0c-69.2,0-138.5,0-207.7,0c-6,0-12-0.2-18,0.2
			c-3.7,0.3-7.4,1.7-11.3,2.7c-0.8,14.7-3.3,28.4,2,43.1c6.9,0.1,13.4,0.4,20,0.4c22.6,0.1,45.3,0,67.9,0.1c5.2,0,10.8-0.6,16.1,6.1
			c0.1,6.1,0.4,14,0.5,21.9c0,57.9-0.1,115.8,0.1,173.6c0,7.1-2,14.7,3.4,21.5c13.6,2.1,27.2,2.8,40.7-0.5
			c3.7-8.7,2.6-16.8,2.6-24.6c0.1-55.2,0-110.4,0.1-165.7c0-6-0.3-12,0.3-17.9c0.5-4.4,2.2-8.6,3.6-13.8
			c34.7-1.9,68.6,0.3,103.2-1.3c1.1-5.2,2.9-9.6,2.8-14C1632.7,1109.9,1634.9,1099.8,1629,1087.9z"/>
		<path class="st1" d="M2686.2,824.1c-492.8,0-981.6,0-1470.5,0c-0.8-7.8,4.7-9,8.1-11.2c38.7-25,79.2-46.6,121-65.8
			c86.9-39.9,177.5-68.2,270.9-88.1c58-12.4,116.6-21.2,175.6-26.7c60.4-5.7,121-8.4,181.6-6.8c43.9,1.2,87.9,3,131.7,6.8
			c51.7,4.4,103.1,12.1,154.1,22.1c85.2,16.6,168.2,40.3,248.6,73c54.4,22.1,106.7,48.3,156.6,79.2
			C2670.7,810.7,2678,814.1,2686.2,824.1z"/>
		<path class="st2" d="M2262.3,1084.9l53.7,0c-22.8,84.1-76.7,279.1-76.7,279.1l-46.8,0.1l-64.5-186.2c0,0-61.9,178.1-65,186.2
			c-13.8,0-33.4,0-46.6,0l-73.1-279l51.4-0.1l48.2,182.3l62.2-182.8h47.4l60,184.4L2262.3,1084.9z"/>
		<path class="st2" d="M2382.3,1281.9l-34,82.1h-53.9c0,0,115.6-271.3,118.7-277.9l56.6-0.3c0,0,81.5,192.3,117.9,278.8h-52.4
			l-34.3-82.5L2382.3,1281.9z M2442.4,1133.5c-0.3,0.5-40.5,98.6-40.5,98.6l79.9-0.5L2442.4,1133.5z"/>
		<path class="st2" d="M1902.8,1221.4c0.4,34.4-9.1,65-30,91.6c-24.8,31.5-57.2,48.1-97.9,50c-70.4,3.2-121.3-46.9-134.7-104.8
			c-8.3-36.2-6.1-71.6,11.8-104.7c23.8-43.9,61.1-67.1,111.2-69.4c42.5-2,78.6,12,106.7,44.2
			C1893.4,1154.8,1903.7,1186.5,1902.8,1221.4z M1770.5,1126c-35.4-0.2-66.3,19.4-80.2,52.5c-15.3,36.4-12,71.9,10.5,104.4
			c34.7,50.2,103.6,49.9,138.2-0.3c18.9-27.4,23.5-57.7,15.4-89.6C1843.9,1152.6,1810.2,1126.2,1770.5,1126z"/>
		<path class="st2" d="M1635,1084.9v51l-108.5,0.4l-0.5,225.5l-52,0.2l0-225.9c0,0-100,0-106.9-0.1l-0.2-51
			C1370.8,1084,1627.1,1084.9,1635,1084.9z"/>
		<path class="st1" d="M1770.5,1126c39.7,0.2,73.5,26.6,83.9,67.1c8.2,31.9,3.5,62.2-15.4,89.6c-34.6,50.2-103.5,50.5-138.2,0.3
			c-22.5-32.6-25.7-68-10.5-104.4C1704.2,1145.4,1735.1,1125.9,1770.5,1126z M1756.9,1289.4c20.3,4.6,35.8-0.8,49-14
			c24.8-24.6,28.3-69.2,7.8-97.4c-23.4-32-67-31.1-89.2,1.7c-5.3,7.8-6.1,14.9-2.2,24.1c10.7,25,20,50.6,30,76
			C1753.6,1283,1755.2,1285.9,1756.9,1289.4z"/>
		<path class="st3" d="M1756.9,1289.4c-1.7-3.5-3.4-6.4-4.6-9.5c-9.9-25.3-24.4-61.1-35.1-86.1c0,0,2-6.1,7.3-13.9
			c22.1-32.8,65.8-33.7,89.2-1.7c20.6,28.2,17.1,72.7-7.8,97.4C1792.7,1288.6,1777.2,1294,1756.9,1289.4z"/>
	</g>
	<path class="st3" d="M1951.4,561.5c-573.9,0-1039.1,280.8-1039.1,627.2s465.2,627.2,1039.1,627.2s1039.1-280.8,1039.1-627.2
		S2525.2,561.5,1951.4,561.5z M1393.8,726c52.9-21.6,109.6-40.1,168.4-55.2c123.1-31.4,254-47.4,389.1-47.4s266,15.9,389.1,47.4
		c58.8,15,115.5,33.6,168.4,55.2c52,21.2,100.9,45.5,145.2,72.3c11.3,6.8,22.3,13.8,33.1,21c2.2,1.5,1.2,4.9-1.5,4.9H1217.1
		c-2.6,0-3.7-3.4-1.5-4.9c10.7-7.1,21.7-14.1,33.1-21C1293,771.5,1341.8,747.2,1393.8,726z M1393.8,1651.3
		c-52-21.2-100.9-45.5-145.2-72.3c-43.7-26.4-83.3-55.3-117.6-86c-34-30.4-63-62.6-86.3-95.9c-46.7-66.7-70.4-136.9-70.4-208.6
		c0-71.7,23.7-141.9,70.4-208.6c3.2-4.6,6.6-9.2,10.1-13.8c0.5-0.7,1.3-1.1,2.1-1.1h336.3c142.4-2.8,246.2,114.1,260.8,131.4
		c1,1.2,2.7,1.3,3.8,0.3c63.7-56.2,135.8-42.8,138.1-42.4c0,0,0.1,0,0.1,0c90.8,11.8,121.5,96.1,122.9,100c0,0.1,0.1,0.2,0.1,0.3
		c47.9,201.8-109.8,234.1-133.2,237.8c-1.5,0.2-2.5,1.7-2.2,3.2c21.3,93,21.3,351.3,21.3,351.3l-0.1,0.4
		c-83.4-7.4-164.6-21-242.7-41C1503.4,1691.5,1446.8,1672.9,1393.8,1651.3z M2771.7,1493.1c-34.3,30.7-73.9,59.6-117.6,86
		c-44.3,26.7-93.1,51-145.2,72.3c-52.9,21.6-109.6,40.1-168.4,55.2c-78.3,20-159.9,33.7-243.6,41.1c-1.6,0.1-2.9-1.1-2.9-2.7
		c-2-350.2,41.1-442,46.5-452.2c0.3-0.7,0.4-1.4,0.2-2.1l-10.1-28.9c-0.8-2.4-4.2-2.4-5,0l-37.7,108.5c-7.5,18.7-25,18.5-25,18.5
		h-48.5c-19.9-1-24.4-22.9-24.7-24.6c0-0.1,0-0.1,0-0.2l-73.8-271.8c0-0.2-0.1-0.4-0.1-0.5c-2.4-32.8,27.7-31.9,27.7-31.9l51.8-0.8
		c20.5,0,26,24.9,26.2,26.2c0,0,0,0.1,0,0.1l22.5,85c0.7,2.6,4.3,2.7,5.1,0.2l31.2-93.4c0-0.1,0.1-0.2,0.1-0.3
		c7.9-16.7,23.2-17.5,23.2-17.5l46.9-0.4c21.6,0.4,28,24.7,28.5,26.7c0,0.1,0,0.2,0.1,0.3l22.3,62.5c0.7,2.1,3.5,2.4,4.7,0.6
		c129.6-194.9,287.8-183.1,292.3-182.7c0.1,0,0.1,0,0.2,0h346.3c0.3,0,0.5,0,0.8-0.1l0,0c1.1-0.3,2.3,0,3,0.9
		c3.2,4.3,6.4,8.6,9.4,13c46.7,66.7,70.4,136.9,70.4,208.6c0,71.7-23.7,141.9-70.4,208.6C2834.7,1430.5,2805.7,1462.8,2771.7,1493.1
		z"/>
</g>
<g id="Layer_2" class="st4">
</g>
</svg>
