<?xml version="1.0" encoding="utf-8"?>
<!-- Generator: Adobe Illustrator 24.0.1, SVG Export Plug-In . SVG Version: 6.00 Build 0)  -->
<svg version="1.1" id="Layer_1" xmlns="http://www.w3.org/2000/svg" xmlns:xlink="http://www.w3.org/1999/xlink" x="0px" y="0px"
	 viewBox="0 0 656.7 107.8" style="enable-background:new 0 0 656.7 107.8;" xml:space="preserve">
<style type="text/css">
	.st0{fill:#0058A1;}
	.st1{fill:#E7372E;}
	.st2{fill:#23589C;}
	.st3{fill:#7C7C7C;}
</style>
<image style="display:none;overflow:visible;" width="1359" height="223" xlink:href="（グループ付き）SBI証券ロゴPASS.PNG"  transform="matrix(0.4832 0 0 0.4832 0 0)">
</image>
<g>
	<path class="st0" d="M260.4,107.2c0-1.1,0-1.9,0-2.7c0-33.6,0-70.1-0.1-103.7c0,0,35.4,0,51.7,0.1c6.5,0,12.8,0.8,18.7,3.9
		c7.5,3.9,11.3,10.3,11.9,18.5c0.2,3.5,0.1,7.1-0.7,10.5c-1.8,8.7-8.1,13.3-16.2,15.7c-1.3,0.4-2.6,0.7-4.6,1.3
		c1.2,0.4,1.8,0.7,2.4,0.9c3.2,1.1,6.5,1.9,9.5,3.3c7.7,3.6,11.7,10,12.4,18.2c0.4,4.5,0.3,9.2-0.7,13.6
		c-2.5,11.3-10.4,17.2-21.4,19.5c-3.5,0.7-7.2,1-10.8,1c-16.3,0.1-32.7,0-49,0C262.7,107.2,261.7,107.2,260.4,107.2z M280.6,98.9
		c0,0,19.4,0.1,28.3-0.2c8.2-0.3,13.2-4.8,15.1-12.7c1.1-4.9,1.4-9.8,0.5-14.8c-1.7-9.9-7.8-15.1-18-15.1c-7.8,0-25.9,0-25.9,0
		C280.6,70.4,280.6,84.9,280.6,98.9z M280.4,9.3c0,11.8,0,26.5,0,38.3c0,0,17.6,0.1,25.3-0.1c7.6-0.1,12.7-3.8,14.7-10.5
		c1.8-5.9,1.8-11.8,0.1-17.7c-1.7-5.9-6.1-9.6-12.3-9.8C299.5,9.2,280.4,9.3,280.4,9.3z"/>
	<path class="st0" d="M157,73.5l20.6,0.1c0.2,3.3,0.7,9.1,1.6,12.3c1.9,7.5,7.7,12.2,15.4,12.8c2.8,0.2,5.6,0.1,8.4-0.4
		c5.6-1,9.9-3.8,11.6-9.5c1.9-6.1,0.8-11.6-3.5-16.3c-3.4-3.8-7.9-6-12.5-8c-6.7-3-13.7-5.5-20.2-9c-4.6-2.4-9.3-5.4-12.8-9.2
		c-12.3-13.3-6.5-36,10.7-42.2c13.1-4.7,26.5-4.6,39.6,0.3c10.7,4,16.1,12.2,17.7,23.2c0.1,0.5,0.1,1,0.1,1.4c0,0.5,0.1,1.9,0.1,1.9
		l-20.4-0.1c-0.1-2.5-0.7-7.2-1.3-9.6c-1.6-6.2-5.7-10-12.1-11.3c-4.3-0.9-8.6-1-12.8,0.5c-4.3,1.5-7.2,4.3-8.1,8.7
		c-1.9,9.1,0,13.6,7,17.2c7.1,3.6,14.3,6.8,21.6,10.1c6.4,2.9,12.8,5.8,18.5,10.2c13.3,10.5,12.1,33,1.8,41.8
		c-4.7,4-10,6.3-15.9,7.5c-10.3,2.1-20.6,2-30.8-0.7c-13-3.4-20.6-11.8-23.1-24.9C157.6,78.2,157.4,75.8,157,73.5z"/>
	<path class="st0" d="M532.4,46.2v6.2c-3.4,0-17.3,0-17.3,0s0.1,33.5,0,45.2l21.9,0v6.6c-21.6,0-68,0-68,0v-6.4c2.2,0,4.5,0,7.1,0
		c0-22,0-43.6,0-65.5l15.3,0l-0.2,65.2l7.5,0c0-30.1,0-60.1,0-90.5c-8.7,0-17.8,0-26.3,0V0.8c0,0,44.2-0.1,62,0v6.3l-19.3,0v39.1
		L532.4,46.2z"/>
	<path class="st0" d="M394.3,107.5c-5.8,0-11.8,0-17.6,0c0,0,0.1-72.9,0-106.8h17.7L394.3,107.5z"/>
	<path class="st0" d="M428.6,68.6c12.3,0,24.4,0,36.6,0c0,11.3,0,22.6,0,34.2l-22.9,0l0,5c-4.5,0-9.1,0-13.7,0
		C428.6,94.9,428.6,81.5,428.6,68.6z M452.8,96.3l-0.1-21.6l-10.4,0c0,6,0,15.7,0,21.7C442.3,96.4,449.5,96.3,452.8,96.3z"/>
	<path class="st0" d="M656.1,71.4c-1.1,1.5-2.6,3.5-4.1,5.6c-6.7-3.2-13.1-6.7-19.6-10.6c-0.1,1.3-0.3,2.7-0.3,4
		c-0.2,8.8-0.8,17.6-3,26.2c-1.8,6.9-4.7,9.4-11.9,9.7c-6.6,0.3-13.2,0.1-20.1,0.1c-0.5-1.9-1.2-4.1-1.8-6.5
		c3.6,0.3,6.9,0.7,10.1,0.8c5.8,0.1,8.1-1.7,8.9-7.5c1-6.6,1.6-13.2,2.4-19.8c0.1-0.7,0.3-2.2,0.3-2.2l-16.1,0c0,0-0.1,1.2-0.2,1.7
		c-2.7,18.3-14,28.4-31.3,32.9c-1.9,0.5-3.9,0.8-5.9,1.3c-2.1,0.5-3.6,0.1-4.4-2c-0.4-0.9-1-1.8-1.7-2.9c9.7-2.8,18.5-6.8,23.6-15.9
		c2.5-4.4,4.2-10.6,3.9-15c-4.8,0-9.9,0-15,0l0-5.3c-1.2,0.7-2.1,1.3-3.1,1.8c-4.7,2.6-9.4,5.2-14.1,7.9c-1.5,0.8-2.4,0.8-3.4-0.7
		c-0.8-1.2-1.7-2.3-2.8-3.7c9-4.8,16.8-10.7,24.1-18.4c-7.6,0-14.6,0-21.8,0c0-2.1,0-4,0-6.1c3.1,0,6.2,0,9.2,0c5.4,0,10.8,0,16.2,0
		c0.9,0,2.1-0.3,2.5-0.9c2.9-4.8,5.6-9.7,8.4-14.5c0.1-0.2,0-0.4,0-1c-1,0-1.9,0-2.9,0c-8.4,0-19.7-0.1-28,0v-5.9l16.5,0
		c-3.6-6.8-7.1-13.4-10.5-19.9c1.5-0.9,6.1-3.7,6.1-3.7c7,4.5,13.5,9.2,19.1,14.4c-4.8,3.1-9.5,6.1-14.1,9.1l16.5,0.1
		c0,0,0.2-0.5,0.7-2c2-6.2,3.3-12.5,3.5-19.1c0-0.7,0.1-1.8,0.2-2.8c3.2,0.4,6.3,0.7,9.3,1.1c1.3,0.2,4.3,0.9,5.9,1.2
		c1.8,0.3,1.8,0.8,1.4,2.4c-1.7,6.2-3.3,12.5-5,18.9c0,0,32.7,0,45.4,0v6.1c-10.2,0-20.2,0-31.3,0c3,6.5,5.7,12.5,8.5,16.4l27.9,0
		l0,6.2l-23.2,0c3.9,3.1,7.6,6.7,12,10.3C647,66.2,651.6,68.6,656.1,71.4z M571.5,65.1c19.7,0,39.3,0,58.9,0
		c-4.6-4.1-9.3-8.3-13.8-12.2l-31.2,0c0,0-0.3,0.3-0.5,0.4C580.5,57.1,576.1,61,571.5,65.1z M611.2,46.6c-3.1-4.5-7.5-11.5-9.2-16.6
		l-1.2,0c-2.2,4.5-5.8,11-8.7,14.6c-0.4,0.6-0.7,1.2-1.2,2C597.7,46.6,604.8,46.6,611.2,46.6z M624,24.2c0,0,0.6-0.6,2.1-1.8
		c4.8-3.7,9.7-7.5,14.2-11.9c0.9-0.7,1.7-1.8,2.9-2.9c0,0-11.6-5.4-17-7.3c-1.8,6.6-4.9,13.1-9,19.3C618.3,20.3,624,24.2,624,24.2z"
		/>
	<path class="st0" d="M426,23.9c0-1.8,0-4,0-6.1c0,0,30.8,0,43.7,0l0,6.1L426,23.9z"/>
	<path class="st0" d="M428.5,41.1c0-2.1,0-4.1,0-6.2c12.2,0,24.3,0,36.6,0c0,2,0,4,0,6.2C453,41.1,440.9,41.1,428.5,41.1z"/>
	<path class="st0" d="M428.2,7V0.7l37.2,0.1l0,6.1C453,7,440.4,7,428.2,7z"/>
	<path class="st0" d="M428.5,57.5c0-2,0-3.8,0-5.8c12.2,0,24.4,0,36.7,0c0,1.9,0,3.8,0,5.8C453,57.5,440.9,57.5,428.5,57.5z"/>
	<path class="st1" d="M120,38.1c0.3-4.4,1.2-8,0.8-11.6c-0.6-5.2-4.3-8.5-8.8-10.9c-5.6-2.9-11.7-4.2-17.9-4.3
		c-34.4,0-64.7,11.2-90.8,33.7c-0.2,0.1-0.3,0.2-1.4,0.8c1.2-1.7,1.8-2.7,2.5-3.7c0.8-1.1,1.6-2.1,2.5-3.1
		c10.6-11.7,23.7-19.7,38-25.9c18.1-7.9,36.9-13.1,56.9-12c5.6,0.3,11.5,1.6,16.7,3.7c9.4,3.7,12.5,12,8.4,21.2
		C125.3,30.2,122.5,33.9,120,38.1z"/>
	<path class="st2" d="M63.8,31.4c7.5,0,14.6-0.1,21.7,0c3.8,0.1,7.7,0.8,9.2,4.8c1.7,4.3,0,8.1-3,11.3c-1,1.1-2.2,1.9-3.5,3
		c4.8,3,5,7.4,3.5,12.1c-1.7,5.6-5.6,10.1-11.3,10.8c-8.6,1-26.4,0.9-26.4,0.9C57.4,59.6,60.6,45.6,63.8,31.4z M66.6,65.5
		c1.9,0,3.1,0.1,4.3,0c2.7-0.3,5.5-0.3,8.1-1.1c2.4-0.7,3.7-4,3-6.4c-0.7-2.5-2.8-2.7-4.9-2.7c-2.2,0-4.3,0-6.5,0.1
		c-0.7,0.1-1.8,0.2-1.8,0.2L66.6,65.5z M70.5,48.2c2.1,0,5.5,0.1,5.5,0.1s4-0.3,5.8-1.1c1.4-0.7,3.2-3.4,2.1-5.2
		c-0.7-1.1-2.4-1.8-3.8-2c-1.9-0.4-3.9-0.2-5.9,0c-0.8,0.1-1.9,0.2-1.9,0.2S71.1,45.5,70.5,48.2z"/>
	<path class="st2" d="M18.2,59.9l10.5,0c-0.2,7.5,7.3,7.7,10.9,6.1c0,0,3-1.1,3-4.5c0.1-2.2-1.9-2.9-3.4-3.6
		c-2.5-1.2-5.2-1.7-7.9-2.6c-10.7-3.4-9.5-11.9-5.2-17.7c4.9-6.7,18-9.3,25.4-5.4c6.3,3,4.9,12.1,4.9,12.1H45.5
		c-0.5-5.1-3.2-6.1-7.7-5.2c-1.7,0.3-3.4,1.4-3.4,3.7c0,2.4,1.4,2.6,2.5,3.2c2.1,1,4.5,1.4,6.7,2.1c4.3,1.4,9,2.6,10,8
		c0.9,5.3-1.1,9.9-4.9,13.3c-7.2,6.2-15.6,7-24.3,4C19.6,71.9,17.5,66.6,18.2,59.9z"/>
	<path class="st2" d="M112.9,31.4c-2.9,12.7-9.3,42.7-9.3,42.7l-10.7,0c1-4.3,1.9-8.4,2.8-12.4c2.1-9.2,4.7-21.1,6.7-30.3
		L112.9,31.4z"/>
	<path class="st3" d="M52,106.3c0,0-3.7-7.6-4.9-8.6l-4.7,0l-1.3,8.7l-3.1-0.1c1.2-6.2,2.5-12.8,3.7-19.1h9.3c2.3,0,4.3,0.8,5.2,3.2
		c0.9,2.6-0.7,4.6-2.8,6c-0.8,0.6-2.2,1.1-3.1,1.3c1.4,2.7,3,6.1,4.3,8.7L52,106.3z M42.9,95.8c0,0,7.2,0.1,7.9-0.1
		c1.5-0.3,3.1-1.2,3-3.6c0-0.6,0-2.4-3.3-2.7c-1.5-0.1-6.6-0.1-6.6-0.1L42.9,95.8z"/>
	<path class="st3" d="M36.1,96.4c-0.2,7.5-3.3,11.6-12,9.9c-0.3-0.1-0.6-0.1-0.9-0.3c-3.8-1.6-5-4.1-5-6.4
		c-0.5-8,6.9-14.3,13.7-12.6c1.6,0.4,4,2.2,4.6,3.9c0.2,0.6,0.2,1.7,0.2,1.7l-2.5,0.6c-0.3-6.1-8.3-5.8-12,0.1
		c-1.1,1.7-1.4,3.9-1.5,5.9c-0.1,2.3,2.8,5.2,5.9,5.3c4.3,0,6.2-1.7,6.2-5.6c-1.5,0-4,0-5.5,0l0.8-2.5H36.1z"/>
	<path class="st3" d="M76.3,94.4c0,6-3.8,11.2-9.6,12c-3.8,0.5-8.7-1.7-9.2-6.4c-0.5-5.1,3.2-13.5,11.6-13.1
		C73.6,87.1,76.3,89.9,76.3,94.4z M73.9,95c0.1-4.9-3.8-7.4-8.4-5.6c-4,1.6-7.2,8.2-5.3,12.1c0.7,1.4,2.8,2.7,4.3,3
		C69.6,105.3,73.8,100.9,73.9,95z"/>
	<path class="st3" d="M99.1,87.2c2.7,0,5.2,0.1,7.6,0c2.8-0.1,4.6,1,5.5,2.9c0.3,0.7,0.4,1.5,0.3,2.2c-0.3,2.6-2.3,5.1-4.9,5.7
		c-1.3,0.3-2.1,0.4-3.4,0.5c-1.3,0.1-3.3,0.3-4.9,0.3c-0.5,2-1.4,7.4-1.4,7.4l-2.5,0C96.4,100.8,98,92.9,99.1,87.2z M99.9,96.4
		c0,0,5.1,0.3,7.5-0.3c2.1-0.5,3-2.9,2.7-4.8c-0.1-0.7-0.7-1.7-2.9-1.8h-5.9L99.9,96.4z"/>
	<path class="st3" d="M83,104.2c3.3,0.9,5.7-0.3,7.1-2.7c1.9-3.3,3.2-14.4,3.2-14.4h2.4c-0.8,8.3-2.4,13.4-3.6,15.9
		c-2,3.4-8.5,4.8-11.6,2.5c-1-0.8-2-2.6-1.9-3.9c0.4-4.4,1.5-10.2,2.3-14.5h2.4c0,0-1.5,7.9-2.1,11.6C80.8,101,80.5,103.2,83,104.2"
		/>
</g>
</svg>
