<?xml version="1.0" encoding="utf-8"?>
<!-- Generator: Adobe Illustrator 24.0.1, SVG Export Plug-In . SVG Version: 6.00 Build 0)  -->
<svg version="1.1" id="Layer_1" xmlns="http://www.w3.org/2000/svg" xmlns:xlink="http://www.w3.org/1999/xlink" x="0px" y="0px"
	 viewBox="0 0 566.5 89.3" style="enable-background:new 0 0 566.5 89.3;" xml:space="preserve">
<style type="text/css">
	.st0{fill:#231815;}
	.st1{fill:#0074BB;}
</style>
<g>
	<path class="st0" d="M413.3,54.9c-10.1-0.1-20,0-29.9-0.1v-3.7h28.2v-6.7h-28.2v-3.7h28.1v-6.6l-13.1,0L401,30l12-0.1v-8.3h-6.2
		l3.8-6h-9.8c-1.2,1.7-4.1,6-4.1,6l-5.5,0v-6.3h-8.4v6.3h-9.6v-6.3h-8.6l0,6.3c-0.5,0.1-5.1,0-5.1,0l-4.3-6h-9.6
		c1.3,2.2,2.5,3.9,3.9,6.1H343V30H355l2.6,4.2h-13.1V41h28.2v3.5h-28.2v6.7h28.2v3.7h-30.1c0,2.9-0.1,5.6,0.1,8.5h8.3
		c-2.5,3.4-4.7,6.3-7.1,9.6h11.4l7.2-9.6l10.6,0V73h9.9l0-9.7l10.7,0l7.2,9.8h11.3c-1.3-1.7-7.2-9.8-7.2-9.8h8.2V54.9z M368.2,34.2
		l-2.8-4.2h25.5c-0.1,0.3-2.8,4.2-2.8,4.2L368.2,34.2z"/>
	<path class="st0" d="M174.7,74.7c-22.1,0-44.6,0-66.5,0l0-59.7c0,0,40.3-0.2,59.4-0.1c4.8,0,7.1,2.3,7.1,7.1L174.7,74.7z
		 M119.5,65.3l44,0c0-5.2,0.1-10.8,0-16c-14.9,0-29.3,0-44,0L119.5,65.3z M163.5,39.5v-15l-44,0l0,15.1
		C134,39.6,148.8,39.5,163.5,39.5z"/>
	<path class="st0" d="M226,33.9c0,8.1,0,16.9,0,25.3c0,0,7.7,0,11.9,0V67L226,67l0,9.3c0,0-7.8,0-11.5,0l0-9.3c-3.8,0-7.7,0-11.7,0
		c0-2.7,0-5.2,0-7.9c3.9,0,7.7,0,11.7,0c0-8.4,0-17,0-25.3c0,0-1.3,1.8-1.7,2.4c-6.5,10.2-21.1,32.6-21.1,32.6s-8.3,0-11.9,0
		c4.2-6.4,8.1-12.3,12.1-18.3c3.9-6,7.9-12,12.1-18.4c-6.1,0-11.7,0-17.5,0c0-3.1,0-6.1,0-9.2l27.9,0l0-10.2H226l0,10.2l28,0v9.2
		c-5.7,0-11.4,0-17.6,0c8.2,12.3,16.3,24.6,24.4,36.7h-12L226,33.9z"/>
	<path class="st0" d="M488.6,73H475c0,0-21.4-30.8-22-31.7c-0.6,0.8-21.5,31.7-21.5,31.7h-13.3l26.6-37.8h-24.7v-9.5l27.2,0l0-11.3
		h11.2l0,11.3h27.3v9.3c-8.2,0-16.2,0-24.8,0C470.2,47.9,479.3,60.2,488.6,73z"/>
	<path class="st1" d="M12.2,12.2c0,9.1,0,18.1,0,26.9H0V0h89.3v39.1c0,0-8.3,0-12.2,0l0-26.9H12.2z"/>
	<path d="M77.1,77.1c0-9.1,0-18.1,0-26.9h12.2v39.1H0V50.2c0,0,8.3,0,12.2,0l0,26.9H77.1z"/>
	<path class="st0" d="M306,64l28.8,0v9.1c-23,0-46.3,0-69.4,0l0-9.1c9.5,0,19.1,0,28.6,0c0-13.2,0-26.1,0-39.3h-23.6
		c0-3.1,0-6.3,0-9.1l59,0v9.1H306C306,37.9,306,50.7,306,64z"/>
	<path class="st0" d="M537.9,57.2l0,11.4c0,3.1-1.2,4.4-4.1,4.4h-28.2c0-2.6,0-5.3,0-8.1c7,0,14,0,21.3,0v-7.6
		c-11.4,0-22.7,0-34.1,0c0-2.9,0-5.6,0-8.5l34.1,0l10.2-7.6c-10.7,0-20.8,0-31.1,0c0-2.7,0-5.1,0-7.7c15.5,0,31,0,46.7,0v7.4
		c0,0-10,7.1-11.2,8l24.9,0v8.5L537.9,57.2z"/>
	<path class="st0" d="M502.7,29.8c0,3.5,0,6.9,0,10.4c-3.2,0-6.1,0-9.2,0c0-6,0-11.8,0-18c3.6,0,7.3,0,11.4,0
		c-1.4-2.4-2.6-4.5-3.9-6.9c3.6,0,6.8,0,10.1,0.1c0.5,0,1,0.7,1.4,1.2c1,1.4,1.9,2.9,2.9,4.4c0.3,0.5,0.9,1.1,1.4,1.1
		c3.4,0.1,6.8,0.1,10.7,0.1c-1.4-2.4-2.7-4.4-4.1-6.8c3.7,0,6.9,0,10.1,0.1c0.5,0,1,0.7,1.4,1.2c1,1.4,2,2.9,2.9,4.4
		c0.5,0.8,1.1,1.2,2.1,1.2c4.3,0.1,4.3,0.2,6.3-3.7c0.5-1,1-2,1.6-3c3.2,0,6.3,0,9.7,0c-1.1,2.3-2.1,4.3-3.4,6.7c2.2,0,4,0,5.8,0
		c3.7,0,5.4,1.7,5.4,5.4c0,4.1,0,8.3,0,12.6c-3.1,0-6,0-9.2,0c0-3.4,0-6.8,0-10.4C538.2,29.8,520.6,29.8,502.7,29.8z"/>
	<path d="M74.1,45.3c-0.5,16.4-14.2,29.4-30.7,28.6c-16.9-0.8-28.9-15.2-28-31.3c0.9-15.6,14.8-28.3,30.6-27.5
		C62.5,16,74.5,29.7,74.1,45.3z M73.1,44.5c0-15.8-12.8-28.6-28.5-28.5c-15.6,0.1-28.3,12.8-28.3,28.5C16.2,60.2,29.1,73,44.8,73
		C60.4,72.9,73.1,60.2,73.1,44.5z"/>
</g>
</svg>
