<?xml version="1.0" encoding="utf-8"?>
<!-- Generator: Adobe Illustrator 24.0.1, SVG Export Plug-In . SVG Version: 6.00 Build 0)  -->
<svg version="1.1" id="Linkers_x5F_logo_x5F_4c_x5F_Y"
	 xmlns="http://www.w3.org/2000/svg" xmlns:xlink="http://www.w3.org/1999/xlink" x="0px" y="0px" viewBox="0 0 312 56"
	 style="enable-background:new 0 0 312 56;" xml:space="preserve">
<style type="text/css">
	.st0{fill:url(#SVGID_1_);}
	.st1{fill:url(#SVGID_2_);}
</style>
<g id="ヨコロゴ_1_">
	
		<linearGradient id="SVGID_1_" gradientUnits="userSpaceOnUse" x1="20.5512" y1="725.1001" x2="62.1987" y2="766.7477" gradientTransform="matrix(1 0 0 1 0 -718)">
		<stop  offset="0" style="stop-color:#335FA9"/>
		<stop  offset="0.5" style="stop-color:#8AC6F0"/>
		<stop  offset="1" style="stop-color:#335FA9"/>
	</linearGradient>
	<path class="st0" d="M71.4,11.1c-0.8-0.8-1.8-1.6-2.7-2.2c-3.2-2.2-6.8-3.2-10.6-3.2c-4.6,0-9.3,1.5-13.6,4.3c0,0,0,0-0.1-0.1
		C41,7.1,36.8,5.7,32.2,5.7c-6.2,0-12.9,2.7-18.1,7.9C4.7,22.9,3.5,37.1,11.5,45c4.1,4.1,9.9,5.8,15.8,5.1c3.8-0.4,7.6-1.8,11-4.1
		c0,0,0,0,0.1,0.1c8.1,6.8,21.3,5.3,30.3-3.6C78.1,33,79.3,19,71.4,11.1z M32.8,44.5c-4.4-0.7-9.1-3.4-13.3-7.6
		c-7.6-7.5-10.4-17.1-4.8-22.7C20,8.9,29,11.1,36.4,18c-5.2,7.9-5.8,17.5-1.3,24.3c0.5,0.8,1.1,1.5,1.7,2.2
		C35.5,44.7,34.2,44.7,32.8,44.5z M68.1,41.9c-5.3,5.3-14.3,3-21.7-3.8c-0.4-0.3-0.7-0.7-1.1-1c-0.1-0.1-0.2-0.2-0.3-0.4
		c-0.7-0.7-1.4-1.5-2-2.3c-4.1-5-6.1-10.4-5.2-15c-0.1-0.1-0.2-0.2-0.3-0.4c0.1,0.1,0.2,0.2,0.3,0.4c4,4.1,6.6,8.7,7.2,12.9
		c0.2,1.5,0.2,2.9,0,4.3c0.1,0.1,0.2,0.2,0.3,0.4c0.4,0.4,0.7,0.7,1.1,1c2.4-3.5,3.8-7.4,4.2-11.3c0.6-5.7-0.9-11.1-4.6-15.2
		c4.5-0.8,9.8,1.2,14.7,5.2c0.9,0.7,1.8,1.5,2.6,2.4C70.9,26.6,73.7,36.2,68.1,41.9z"/>
	<g>
		<g>
			
				<linearGradient id="SVGID_2_" gradientUnits="userSpaceOnUse" x1="102.2013" y1="-712.1675" x2="102.2013" y2="-665.8675" gradientTransform="matrix(1 0 0 -1 0 -660.6)">
				<stop  offset="0" style="stop-color:#335FA9"/>
				<stop  offset="0.5" style="stop-color:#8AC6F0"/>
				<stop  offset="1" style="stop-color:#335FA9"/>
			</linearGradient>
			<path class="st1" d="M118,44.7v7h-11.4c-2.7,0-5.4-0.3-7.8-0.8s-4.6-1.4-6.4-2.7c-1.9-1.3-3.3-2.9-4.4-5c-1.1-2-1.6-4.6-1.6-7.6
				V5.4h8.9v30.1c0,1.8,0.3,3.2,0.9,4.4s1.4,2.1,2.4,2.8s2.2,1.2,3.6,1.5s2.8,0.5,4.4,0.5H118z"/>
			<path d="M122.8,17.1h7.7v34.5h-7.7C122.8,51.7,122.8,17.1,122.8,17.1z M131.4,9.1c0-2.7-2.2-4.8-4.8-4.8c-2.7,0-4.8,2.2-4.8,4.8
				c0,2.7,2.2,4.8,4.8,4.8S131.4,11.9,131.4,9.1"/>
			<path d="M137.5,17.1h16.1c2.1,0,4.1,0.2,5.9,0.7c1.9,0.4,3.5,1.2,4.8,2.2c1.4,1,2.5,2.4,3.3,4.1s1.2,3.7,1.2,6.1v21.4h-7.7V30.1
				c0-1.2-0.2-2.2-0.7-3.1c-0.5-0.8-1.1-1.5-1.8-2c-0.8-0.5-1.7-0.9-2.7-1.1s-2.2-0.3-3.3-0.3h-7.4v28h-7.7L137.5,17.1L137.5,17.1z"
				/>
			<path d="M175.4,5.7h8.3v26.9L197.6,17h10.6l-15.8,17.2l15.8,17.2h-10.6L183.7,36v15.5h-8.3V5.7z"/>
			<path d="M217.3,50.7c-1.9-0.6-3.5-1.6-4.8-2.9c-1.4-1.4-2.5-3.1-3.3-5.3s-1.2-4.9-1.2-8.1s0.4-5.9,1.2-8.1s1.9-4,3.3-5.3
				c1.4-1.4,3-2.3,4.8-2.9c1.9-0.6,3.8-0.9,5.9-0.9h13.2v6.5h-12.2c-1,0-2,0.1-2.9,0.4c-0.9,0.2-1.7,0.7-2.5,1.2
				c-0.7,0.6-1.4,1.3-1.9,2.3s-0.9,2.1-1.1,3.6h20.5v6.5h-20.5c0.2,1.5,0.6,2.7,1.1,3.6c0.5,1,1.1,1.7,1.9,2.3
				c0.7,0.6,1.5,1,2.5,1.2c0.9,0.2,1.9,0.3,2.9,0.3h12.2v6.5h-13.2C221.1,51.6,219.1,51.2,217.3,50.7"/>
			<path d="M242.8,30.1c0-2.4,0.4-4.5,1.2-6.1c0.8-1.7,1.9-3,3.3-4c1.4-1,3-1.8,4.8-2.2c1.9-0.4,3.8-0.7,5.9-0.7h11.3v13.8h-7.7
				v-7.3h-2.7c-1.2,0-2.3,0.1-3.3,0.3c-1,0.2-2,0.6-2.7,1.1c-0.8,0.5-1.4,1.2-1.8,2c-0.5,0.8-0.7,1.8-0.7,3.1v21.4h-7.7L242.8,30.1
				L242.8,30.1z"/>
			<path d="M275.5,45.1h18.6c1.3,0,2.5-0.3,3.4-0.8c0.9-0.6,1.4-1.5,1.4-2.8c0-1.5-0.5-2.5-1.4-3s-2.1-0.8-3.4-0.8h-8.6
				c-1.7,0-3.2-0.2-4.5-0.5c-1.4-0.3-2.5-0.9-3.5-1.7c-0.9-0.8-1.7-1.9-2.2-3.2c-0.5-1.3-0.8-3-0.8-4.9s0.3-3.5,0.8-4.8
				c0.5-1.3,1.2-2.3,2.2-3.1c0.9-0.8,2.1-1.4,3.5-1.7c1.4-0.3,2.9-0.5,4.5-0.5h19.4v6.5h-18.6c-1.3,0-2.5,0.3-3.4,0.8
				c-0.9,0.6-1.4,1.5-1.4,2.8c0,1.5,0.5,2.5,1.4,3s2.1,0.8,3.4,0.8h8.6c1.7,0,3.2,0.2,4.5,0.5c1.4,0.3,2.5,0.9,3.4,1.7
				c0.9,0.8,1.7,1.9,2.2,3.2c0.5,1.3,0.8,3,0.8,4.9s-0.3,3.5-0.8,4.8s-1.2,2.3-2.2,3.1c-0.9,0.8-2.1,1.4-3.4,1.7
				c-1.4,0.3-2.9,0.5-4.5,0.5h-19.6v-6.5H275.5z"/>
		</g>
	</g>
</g>
</svg>
