<?xml version="1.0" encoding="utf-8"?>
<!-- Generator: Adobe Illustrator 24.0.1, SVG Export Plug-In . SVG Version: 6.00 Build 0)  -->
<svg version="1.1" id="Layer_1" xmlns="http://www.w3.org/2000/svg" xmlns:xlink="http://www.w3.org/1999/xlink" x="0px" y="0px"
	 viewBox="0 0 193 40" style="enable-background:new 0 0 193 40;" xml:space="preserve">
<style type="text/css">
	.st0{fill:#C3DA53;}
</style>
<image style="display:none;overflow:visible;" width="194" height="40" xlink:href="バリューデザイン.jpg" >
</image>
<g>
	<path class="st0" d="M4.7,13.3L9,22.6l4.2-9.2h4.3L9,30.9L0.5,13.3H4.7z"/>
	<path class="st0" d="M32.3,13.3h3.8v16.5h-3.8v-1.7c-1.6,1.5-3.2,2.2-5.1,2.2c-2.3,0-4.2-0.8-5.6-2.5c-1.5-1.7-2.2-3.8-2.2-6.3
		c0-2.5,0.7-4.5,2.2-6.2c1.5-1.6,3.3-2.5,5.5-2.5c1.9,0,3.6,0.8,5.2,2.4V13.3z M23.2,21.5c0,1.6,0.4,2.9,1.3,3.9
		c0.9,1,2,1.5,3.3,1.5c1.4,0,2.5-0.5,3.4-1.5c0.9-1,1.3-2.3,1.3-3.8s-0.4-2.8-1.3-3.8c-0.9-1-2-1.5-3.4-1.5c-1.3,0-2.4,0.5-3.3,1.5
		C23.7,18.8,23.2,20,23.2,21.5z"/>
	<path class="st0" d="M46.1,1.2v28.5h-3.8V1.2H46.1z"/>
	<path class="st0" d="M54.9,13.3v9.4c0,2.7,1.1,4.1,3.2,4.1c2.2,0,3.2-1.4,3.2-4.1v-9.4h3.8v9.5c0,1.3-0.2,2.5-0.5,3.4
		c-0.3,0.9-0.9,1.6-1.6,2.3c-1.3,1.1-2.9,1.7-4.9,1.7c-2,0-3.6-0.6-4.9-1.7c-0.8-0.7-1.3-1.5-1.7-2.3c-0.3-0.8-0.5-1.9-0.5-3.4v-9.5
		H54.9z"/>
	<path class="st0" d="M85.7,22.4H73.9c0.1,1.4,0.5,2.4,1.3,3.2c0.8,0.8,1.8,1.2,3,1.2c0.9,0,1.7-0.2,2.3-0.7
		c0.6-0.5,1.3-1.3,2.1-2.5l3.2,1.8c-0.5,0.8-1,1.6-1.6,2.2c-0.6,0.6-1.1,1.1-1.8,1.5c-0.6,0.4-1.3,0.7-2,0.9
		c-0.7,0.2-1.5,0.3-2.4,0.3c-2.5,0-4.4-0.8-5.9-2.4c-1.5-1.6-2.2-3.7-2.2-6.3c0-2.6,0.7-4.7,2.2-6.3c1.5-1.6,3.4-2.4,5.8-2.4
		c2.4,0,4.3,0.8,5.7,2.3c1.4,1.5,2.1,3.7,2.1,6.4L85.7,22.4z M81.8,19.3c-0.5-2-1.8-3-3.8-3c-0.5,0-0.9,0.1-1.3,0.2
		c-0.4,0.1-0.8,0.3-1.1,0.6c-0.3,0.3-0.6,0.6-0.9,1c-0.2,0.4-0.4,0.8-0.5,1.3H81.8z"/>
	<path class="st0" d="M103.1,1.2h3.8v28.5h-3.8v-1.7c-1.5,1.5-3.2,2.2-5.1,2.2c-2.3,0-4.1-0.8-5.6-2.5c-1.5-1.7-2.2-3.8-2.2-6.3
		c0-2.5,0.7-4.5,2.2-6.2c1.5-1.7,3.3-2.5,5.5-2.5c1.9,0,3.6,0.8,5.2,2.4V1.2z M94.1,21.5c0,1.6,0.4,2.9,1.3,3.9c0.9,1,2,1.5,3.3,1.5
		c1.4,0,2.5-0.5,3.4-1.5c0.9-1,1.3-2.3,1.3-3.8s-0.4-2.8-1.3-3.8c-0.9-1-2-1.5-3.4-1.5c-1.3,0-2.4,0.5-3.3,1.5
		C94.5,18.8,94.1,20,94.1,21.5z"/>
	<path class="st0" d="M127.1,22.4h-11.8c0.1,1.4,0.5,2.4,1.3,3.2c0.8,0.8,1.8,1.2,3,1.2c0.9,0,1.7-0.2,2.3-0.7
		c0.6-0.5,1.3-1.3,2.1-2.5l3.2,1.8c-0.5,0.8-1,1.6-1.6,2.2c-0.6,0.6-1.1,1.1-1.8,1.5c-0.6,0.4-1.3,0.7-2,0.9
		c-0.7,0.2-1.5,0.3-2.4,0.3c-2.5,0-4.4-0.8-5.9-2.4c-1.5-1.6-2.2-3.7-2.2-6.3c0-2.6,0.7-4.7,2.2-6.3c1.5-1.6,3.4-2.4,5.8-2.4
		c2.4,0,4.3,0.8,5.7,2.3c1.4,1.5,2.1,3.7,2.1,6.4L127.1,22.4z M123.2,19.3c-0.5-2-1.8-3-3.8-3c-0.5,0-0.9,0.1-1.3,0.2
		c-0.4,0.1-0.8,0.3-1.1,0.6c-0.3,0.3-0.6,0.6-0.9,1c-0.2,0.4-0.4,0.8-0.5,1.3H123.2z"/>
	<path class="st0" d="M142.1,16.1l-3.1,1.7c-0.5-1-1.1-1.5-1.8-1.5c-0.3,0-0.6,0.1-0.9,0.3c-0.2,0.2-0.4,0.5-0.4,0.9
		c0,0.6,0.7,1.3,2.2,1.9c2,0.9,3.4,1.7,4.1,2.4c0.7,0.7,1,1.7,1,3c0,1.6-0.6,2.9-1.8,4c-1.1,1-2.5,1.5-4.1,1.5c-2.8,0-4.7-1.3-5.9-4
		l3.2-1.5c0.5,0.8,0.8,1.3,1,1.5c0.5,0.4,1,0.6,1.7,0.6c1.3,0,1.9-0.6,1.9-1.8c0-0.7-0.5-1.3-1.5-1.9c-0.4-0.2-0.8-0.4-1.1-0.6
		c-0.4-0.2-0.8-0.4-1.2-0.6c-1.1-0.5-1.9-1.1-2.3-1.6c-0.6-0.7-0.9-1.6-0.9-2.7c0-1.4,0.5-2.6,1.5-3.5c1-0.9,2.2-1.4,3.6-1.4
		C139.5,12.9,141.1,13.9,142.1,16.1z"/>
	<path class="st0" d="M146.8,6.5c0-0.7,0.2-1.2,0.7-1.7c0.5-0.5,1.1-0.7,1.7-0.7c0.7,0,1.3,0.2,1.8,0.7c0.5,0.5,0.7,1.1,0.7,1.7
		s-0.2,1.3-0.7,1.8C150.6,8.7,150,9,149.3,9c-0.7,0-1.3-0.2-1.8-0.7C147,7.8,146.8,7.2,146.8,6.5z M151.2,13.3v16.5h-3.8V13.3H151.2
		z"/>
	<path class="st0" d="M172.9,29.4c0,0.8,0,1.5-0.1,2.1c-0.1,0.6-0.1,1.1-0.2,1.6c-0.3,1.2-0.8,2.3-1.6,3.2c-1.5,1.7-3.5,2.6-6.1,2.6
		c-2.2,0-4-0.6-5.4-1.8c-1.5-1.2-2.3-2.9-2.5-5.1h3.8c0.1,0.8,0.4,1.4,0.7,1.9c0.8,1,1.9,1.5,3.4,1.5c2.8,0,4.2-1.7,4.2-5.1v-2.3
		c-1.5,1.5-3.2,2.3-5.2,2.3c-2.2,0-4.1-0.8-5.5-2.4c-1.4-1.6-2.2-3.7-2.2-6.2c0-2.4,0.7-4.4,2-6.1c1.4-1.8,3.3-2.7,5.7-2.7
		c2.1,0,3.8,0.8,5.2,2.3v-1.9h3.8V29.4z M169.3,21.6c0-1.6-0.4-2.9-1.3-3.8c-0.9-1-2-1.5-3.3-1.5c-1.4,0-2.6,0.5-3.4,1.6
		c-0.8,1-1.1,2.2-1.1,3.7c0,1.5,0.4,2.7,1.1,3.7c0.8,1,2,1.6,3.4,1.6c1.5,0,2.6-0.5,3.4-1.6C168.9,24.3,169.3,23.1,169.3,21.6z"/>
	<path class="st0" d="M178,13.3h3.8v1.5c1.3-1.3,2.8-2,4.5-2c1.9,0,3.4,0.6,4.5,1.8c0.9,1,1.4,2.7,1.4,5v10.1h-3.8v-9.2
		c0-1.6-0.2-2.7-0.7-3.4c-0.4-0.6-1.2-0.9-2.4-0.9c-1.3,0-2.2,0.4-2.7,1.3c-0.5,0.8-0.8,2.3-0.8,4.3v7.9H178V13.3z"/>
</g>
</svg>
