<?xml version="1.0" encoding="utf-8"?>
<!-- Generator: Adobe Illustrator 24.0.1, SVG Export Plug-In . SVG Version: 6.00 Build 0)  -->
<svg version="1.1" xmlns="http://www.w3.org/2000/svg" xmlns:xlink="http://www.w3.org/1999/xlink" x="0px" y="0px"
	 viewBox="0 0 609.4 260.8" style="enable-background:new 0 0 609.4 260.8;" xml:space="preserve">
<style type="text/css">
	.st0{fill:#006AB7;}
	.st1{fill:#006AB7;stroke:#006FBC;stroke-width:0.502;}
	.st2{fill:#006AB7;stroke:#006FBC;stroke-width:0.1112;}
	.st3{fill:#A6175F;}
	.st4{fill:#FFFFFF;stroke:#000000;}
	.st5{fill:none;stroke:#000000;}
</style>
<g id="背景">
</g>
<g id="レイヤー_1">
	<g>
		<path class="st0" d="M253.5,43.6c0,0,0.5,6.3-4.8,10.9h-27.4l-1.9,1.5v63.2l0.9,1.1h33.2v10.8h-33c-7.2,0.7-13.1-3-13.6-9.4V43.6
			H253.5z"/>
		<path class="st0" d="M292.3,43.6c9.5,0.7,17.2,4.7,22,13.2c7.2,10.2,1,28.3-2.9,29.4c0,0-5.8,5.9-13.8,6.3c0,0,27.2,39.2,27,38.8
			h-13.3l-30.1-44.9c8.2-0.5,19.2-1.7,23.4-9.4c1.7-6.3,3.7-17.4-8.5-22.5h-16.7l-1.7,2.1v74.6c-2,0.7-12.5,0-12.5,0V43.6H292.3z"/>
		<path class="st0" d="M380,43.6c-0.4,5.9-2.4,9.2-3.2,10.9h-32.6v27.2l1.2,0.9h31.4v10.5h-32.6v25.7c0,1.6,2.7,1.6,2.7,1.6h30
			c0,0,0.8,7.1,0,10.8h-32.6c-4.5,0.8-13.8-5.6-12.7-10.8V43.6H380z"/>
		<path class="st0" d="M440.3,43.6c-0.2,3.7-2.1,8.5-4.5,10.9h-32.1l-1.4,1.3l37.5,60.3c2.5,3.6,5,15-8.5,15l-0.1,0.1l-41.9-0.1
			v-10.8h37.6l1.6-2l-38.1-58.7c-2.2-3.7-2.5-15,9.7-16.1H440.3z"/>
		<path class="st0" d="M499.8,43.6c1.1,5.7-4.3,10.9-4.3,10.9h-31.7v64.6l1.1,1.3h30.6v10.8h-34.7c0,0-9.7-0.4-9.7-10.8V43.6H499.8z
			"/>
		<path class="st0" d="M551.4,43.6h-42.2v74.7v2.9c0.9,10,12.3,10,12.3,10h41.3V53C562.8,48.9,558.1,43.6,551.4,43.6z M550.3,120.4
			h-27.5l-1.3-1.1V54.5h27.8l0.9,1.1V120.4z"/>
	</g>
	<g>
		<path class="st0" d="M58.5,47.5l44.9,37.6v49.1L61,102.8c-15.9-4.6-18.6,13.4-18.6,13.4V53.5C43.5,45.9,51.8,41.6,58.5,47.5z"/>
		<path class="st0" d="M42.5,170.3l0-62.4c0,0,1.4,10.9,4.4,12.7l0,0l55.7,41.8c9.4,3.6,13.8-2.2,14.3-5.9c0,0,0.3,56.4,0,57.3
			c-3,5.5-10.3,6.1-14.5,2.6L42.5,170.3"/>
		<path class="st0" d="M131.6,47.3l44.9,37.6v49.1l-42.3-31.4c-15.9-4.6-18.6,13.4-18.6,13.4V53.2C116.6,45.6,125,41.3,131.6,47.3z"
			/>
		<path class="st0" d="M115.8,169.5l0-62.4c0,0,1.4,10.9,4.4,12.7l0,0l55.7,41.8c9.4,3.6,13.8-2.2,14.3-5.9c0,0,0.3,56.4,0,57.3
			c-3,5.5-10.3,6.1-14.5,2.6L115.8,169.5"/>
	</g>
	<path class="st1" d="M288,186.9l-2.6,9.8h-20.8l2.6-9.8H288z"/>
	<path class="st2" d="M324.4,184.2c8.8,2.2,13.1,7.2,13.3,11.7c1,18.5-28.8,21.5-41.2,21.5c-3.3,0-13.8,0-14.1-5.4
		c-0.1-2,2.6-6.9,3.9-8.3c1-0.9,6-2.7,7.2-2.7c0.4,0,0.7,0.1,0.7,0.7c0,0.9-0.8,1.4-1.4,1.8c-0.5,0.4-0.9,0.8-1.4,1.4l0,0.2
		c30.7,1.2,38.6-8.4,38.5-9.9c-0.2-4.7-24.2-8.5-28.4-9.2c-4.3-0.7-8.9-2.2-9.2-7.8c-0.2-3.1,0.8-9.9,2.1-12.4
		c2.3-4.8,17.5-13.6,36.3-13.6c3.6,0,7.2,0.5,10.9,1.3c2,0.5,2.3,1.2,2.4,3.1c0.4,6.9-1.7,8.5-6.7,10.6c-3.6,1.5-4.3,2-7.5,4.6
		c-0.6,0.4-1.4,0.9-2.1,0.9c-0.9,0-1.4-0.5-1.4-1.4c0-0.2,1.5-3.1,5.9-6.5l-0.2-0.2c-22.1,0.8-31.2,9.5-31.1,11.6
		C301.1,177.5,300.1,178.2,324.4,184.2z"/>
	<path class="st2" d="M377.5,202.1c-3.6,5.3-7.2,7.5-13.5,7.5c-3.4,4-7.4,7-12.8,7c-4.5,0-8.8-4.8-9.5-13.3
		c-0.5-7,2.3-11.6,6.9-15.7c4.4-4.1,10.5-6.5,15.7-6.8c1.9-0.1,4.8,0.8,4.9,3.4c0.1,1.4-0.9,2-1.8,2.5c2.6,0.7,3.2,2.7,3.4,5.5
		c0.2,4.1-1.3,7.4-2.8,11c3.8,0.7,6-2.8,8.6-4.9L377.5,202.1z M360.4,191.1l-0.2-0.2c-2.8,1.9-6.7,4.1-9.2,6.8
		c-1.8,2.1-3.2,5.7-3.1,8.6c0.1,2.7,1.8,3.5,4,3.5c2.8,0,4.5-1.8,6.4-3.7c-0.7-1.5-1.2-2.7-1.3-4.4c-0.2-3.7,1.9-7.7,3.1-10.8h0.2
		L360.4,191.1z"/>
	<path class="st2" d="M403.7,202.3c-4.4,5.3-12,14.7-19.4,14.7c-6.3,0-8-6.6-8.3-12.1c-0.5-9.8,3.2-20,8-27.7
		c7.3-9.9,14.7-18.8,17.5-18.8c1.5,0,1.9,2.2,1.9,3.4c-0.1,8.8-1.9,17-19.5,36.6c-0.7,1.6-0.8,4.2-0.3,6.4c0.9,2.1,2.2,4,4.5,4
		c4.7,0,11-6,14.3-9.3L403.7,202.3z M385.4,189.8c5.8-6.1,10.6-15.1,11.9-20.4h0.2l0,0.2l-0.2-0.2c-5.8,5.2-9.3,12.8-12.1,20.2
		L385.4,189.8z"/>
	<path class="st2" d="M426,191.3c1.6-1.9,9.7-10.6,11.8-10.6c0.7,0,1.6,0.3,2.2,5.1c0.3,2.2-1.9,4.4-3.2,5.7
		c-2.6,2.7-8.3,10.1-8.1,14.3c0.1,1.5,0.9,2,2.3,2c3.3,0,10.3-6.5,12.8-8.8l0.7,4c-4.1,4.6-12.7,15.3-19,15.3
		c-3.2,0-5.2-2.9-5.4-6.1c-0.1-2.8,0.7-5.4,1.4-7.8l-0.2-0.2c-3.2,3.2-8.5,11.5-13.2,11.5c-4.2,0-6.8-5.2-7-9.2
		c-0.5-9,5.5-18.4,10.8-22.3c1.2-0.9,2.3-1,3.7-1c1.2,0,5.5-0.8,5.3,2c-0.1,1.5-2.3,4.1-3.1,5c-2.5,3.3-3,4-6.3,6.6
		c-2.6,2-4.5,4.1-4.3,8c0,0.5,0.2,1.4,0.8,1.4c1.5,0,6-2.8,9.9-6.6L426,191.3z"/>
	<path class="st2" d="M471.6,177.3c-3.6,8.8-4.1,12.3-13.5,11.6c-2.7,4.1-7.2,11.7-6.9,17.3c0.1,2,0.8,3.3,2.7,3.3
		c2.7,0,5.7-2.8,14.2-9.7l0.6,4.1c-4.8,5-13.5,15-20.8,15c-3.3,0-5.5-2.5-5.7-6.2c-0.2-3.1,0.8-6.6,1.7-9.3l-0.2-0.2l-4.2,3.8
		l-1.1-3.5c4.9-4.3,9.4-9,12.3-14.9c-5.2,0-3.6-0.4-8.1,0.4l0.9-1.7c4.3-8.1,4.8-9.7,14-10.1c2.4-3.8,4-8.2,9-8.2
		c1.1,0,2.8,0.3,2.8,1.8c0.1,1.7-2.2,4.7-3,6L471.6,177.3z"/>
	<path class="st2" d="M492.5,204c-3.6,5.1-10.7,13.5-17.2,13.5c-5.1,0-7.7-6.3-8-11.1c-0.6-11.4,9.5-22.4,14.7-22.4
		c1.5,0,3.8,0.6,3.9,2.6c0.2,4.7-7.8,12.9-11.3,15.6c-0.5,3.8,0.9,5.9,4.9,5.9c4.5,0,8.7-4.9,12-7.6L492.5,204z M482.9,178.1
		c-0.2-3.8,3.7-7.2,7.1-7.2c1.5,0,2.9,1.2,3,2.9c0.2,3.7-2.7,8.3-6.4,8.3C484.5,182.1,483,180.3,482.9,178.1z"/>
	<path class="st2" d="M527.1,202.1c-3.6,5.3-7.2,7.5-13.5,7.5c-3.4,4-7.4,7-12.8,7c-4.5,0-8.8-4.8-9.5-13.3
		c-0.5-7,2.3-11.6,6.9-15.7c4.4-4.1,10.5-6.5,15.7-6.8c1.9-0.1,4.8,0.8,4.9,3.4c0.1,1.4-0.9,2-1.8,2.5c2.6,0.7,3.2,2.7,3.4,5.5
		c0.2,4.1-1.3,7.4-2.8,11c3.8,0.7,6-2.8,8.6-4.9L527.1,202.1z M510,191.1l-0.2-0.2c-2.8,1.9-6.7,4.1-9.2,6.8
		c-1.8,2.1-3.2,5.7-3.1,8.6c0.1,2.7,1.8,3.5,4,3.5c2.8,0,4.5-1.8,6.4-3.7c-0.7-1.5-1.2-2.7-1.3-4.4c-0.2-3.7,1.9-7.7,3.1-10.8h0.2
		L510,191.1z"/>
	<path class="st2" d="M565.9,197.7l0.9,4.1c-4.3,4.4-12.6,15.8-18.8,15.8c-3.3,0-5-3-5.1-6.1c-0.3-5.6,4-11.7,6.5-16l-0.2-0.2
		c-4.8,4-8.9,8.8-12.5,14.2c-1.2,1.8-4.1,6.3-6.4,6.3c-3.8,0-5-5.9-5.3-9c-0.6-6.4,4.3-15.8,9.1-20.4c1.1-1,1.8-1.1,3.3-1.1
		c5.2,0.2,4.8,1.5,4.8,2c0.2,3.6-10.1,13-10,15.3c0,0.6,0.5,1,1,1c0.6,0,1.3-0.8,1.6-1.3c6.4-9.5,21.5-20.9,24-20.9
		c0.3,0,0.9,0.5,1.5,1.8c0.6,1.4,1.2,3.1,1.5,5c0.2,3.6-10,10.7-9.7,17.1c0,0.8,0.8,1.7,1.6,1.7c2.1,0,5.7-3.3,7.1-4.7L565.9,197.7z
		"/>
	<path class="st3" d="M260.8,187.3c-8.7,12.6-24.4,29.4-38.5,29.4c-10.4,0-15.2-11.6-15.5-23.3c-0.6-23.3,20.1-47.2,38.6-47
		c4.6,0,10.3,1.4,10.3,8.5c0,8.7-7,21.9-34.3,33.1l-0.3,3.9c-0.3,6.8,4.3,9.1,8.8,9.1c10.1,0,22.1-13,29.6-20.5L260.8,187.3z
		 M243.2,158.6c0-1.2-0.7-2.3-1.7-2c-7.1,2.3-15.4,10.9-19.2,22.6C234.8,173.9,243.3,161.7,243.2,158.6z"/>
</g>
</svg>
