<?xml version="1.0" encoding="utf-8"?>
<!-- Generator: Adobe Illustrator 24.0.1, SVG Export Plug-In . SVG Version: 6.00 Build 0)  -->
<svg version="1.1" xmlns="http://www.w3.org/2000/svg" xmlns:xlink="http://www.w3.org/1999/xlink" x="0px" y="0px"
	 viewBox="0 0 172 172" style="enable-background:new 0 0 172 172;" xml:space="preserve">
<style type="text/css">
	.st0{fill:#FFFFFF;}
	.st1{fill:#CE002E;}
	.st2{fill:#505050;}
	.st3{fill:#FDFDFD;}
	.st4{fill:none;stroke:#F1F1F1;stroke-width:2;stroke-miterlimit:10;}
	.st5{fill:none;stroke:#FFFFFF;stroke-width:2;stroke-linecap:round;stroke-linejoin:round;stroke-miterlimit:10;}
	.st6{fill:none;stroke:#FFFFFF;stroke-width:4;stroke-linecap:round;stroke-linejoin:round;stroke-miterlimit:10;}
	.st7{display:none;opacity:0.5;fill:#FFFFFF;}
	.st8{display:none;}
	.st9{fill:#FAFAFA;}
	.st10{fill:none;stroke:#FFFFFF;stroke-width:2;stroke-miterlimit:10;}
	.st11{fill:none;stroke:#CE002E;stroke-width:4;stroke-miterlimit:10;}
	.st12{clip-path:url(#SVGID_62_);}
	.st13{clip-path:url(#SVGID_66_);}
	.st14{clip-path:url(#SVGID_70_);fill:#F1F1F1;}
	.st15{clip-path:url(#SVGID_70_);}
	.st16{display:none;clip-path:url(#SVGID_70_);}
	.st17{clip-path:url(#SVGID_62_);fill:#CE002E;}
	
		.st18{clip-path:url(#SVGID_62_);fill:none;stroke:#FFFFFF;stroke-width:3.7037;stroke-linecap:round;stroke-linejoin:round;stroke-miterlimit:10;}
	.st19{fill:#F7F7F7;}
	.st20{fill:none;}
	.st21{fill:none;stroke:#505050;stroke-width:3.1552;stroke-miterlimit:10;}
	.st22{fill:none;stroke:#F1F1F1;stroke-width:0.9995;stroke-miterlimit:10;}
	.st23{fill:none;stroke:#FFFFFF;stroke-linecap:round;stroke-linejoin:round;stroke-miterlimit:10;}
	.st24{fill:none;stroke:#CE002E;stroke-width:2;stroke-miterlimit:10;}
	.st25{fill:#F1F1F1;}
	.st26{clip-path:url(#SVGID_136_);}
	.st27{clip-path:url(#SVGID_140_);}
	.st28{fill:none;stroke:#FFFFFF;stroke-miterlimit:10;}
	.st29{fill:none;stroke:#CE002E;stroke-width:3;stroke-linejoin:round;stroke-miterlimit:10;}
</style>
<g id="corporate_x5F_TOP_x5F_SP">
</g>
<g id="corporate_x5F_TOP_x5F_PC">
	<g id="step5box_1_">
		<rect class="st0" width="172" height="172"/>
		<g>
			<g>
				<path class="st0" d="M125.1,112.4h-67c-1.1,0-2-0.9-2-2V72.8c0-1.1,0.9-2,2-2h67c1.1,0,2,0.9,2,2v37.6
					C127.1,111.5,126.2,112.4,125.1,112.4z"/>
				<path class="st2" d="M125.1,113.9h-67c-1.9,0-3.5-1.6-3.5-3.5V72.8c0-1.9,1.6-3.5,3.5-3.5h67c1.9,0,3.5,1.6,3.5,3.5v37.6
					C128.6,112.4,127.1,113.9,125.1,113.9z M58.1,72.3c-0.3,0-0.5,0.2-0.5,0.5v37.6c0,0.3,0.2,0.5,0.5,0.5h67c0.3,0,0.5-0.2,0.5-0.5
					V72.8c0-0.3-0.2-0.5-0.5-0.5H58.1z"/>
			</g>
			<g>
				<path class="st0" d="M119.5,106.8h-67c-1.1,0-2-0.9-2-2V67.2c0-1.1,0.9-2,2-2h67c1.1,0,2,0.9,2,2v37.6
					C121.5,105.9,120.6,106.8,119.5,106.8z"/>
				<path class="st2" d="M119.5,108.3h-67c-1.9,0-3.5-1.6-3.5-3.5V67.2c0-1.9,1.6-3.5,3.5-3.5h67c1.9,0,3.5,1.6,3.5,3.5v37.6
					C123,106.8,121.4,108.3,119.5,108.3z M52.5,66.7c-0.3,0-0.5,0.2-0.5,0.5v37.6c0,0.3,0.2,0.5,0.5,0.5h67c0.3,0,0.5-0.2,0.5-0.5
					V67.2c0-0.3-0.2-0.5-0.5-0.5H52.5z"/>
			</g>
			<g>
				<g>
					<g>
						<path class="st0" d="M113.9,101.2h-67c-1.1,0-2-0.9-2-2V61.6c0-1.1,0.9-2,2-2h67c1.1,0,2,0.9,2,2v37.6
							C115.9,100.3,115,101.2,113.9,101.2z"/>
						<path class="st2" d="M113.9,102.7h-67c-1.9,0-3.5-1.6-3.5-3.5V61.6c0-1.9,1.6-3.5,3.5-3.5h67c1.9,0,3.5,1.6,3.5,3.5v37.6
							C117.4,101.1,115.8,102.7,113.9,102.7z M46.9,61.1c-0.3,0-0.5,0.2-0.5,0.5v37.6c0,0.3,0.2,0.5,0.5,0.5h67
							c0.3,0,0.5-0.2,0.5-0.5V61.6c0-0.3-0.2-0.5-0.5-0.5H46.9z"/>
					</g>
					<path class="st2" d="M44.9,68.8v-3c3.4,0,6.2-2.8,6.2-6.2h3C54.1,64.6,49.9,68.8,44.9,68.8z"/>
					<path class="st2" d="M115.9,68.8c-5.1,0-9.2-4.1-9.2-9.2h3c0,3.4,2.8,6.2,6.2,6.2V68.8z"/>
					<path class="st2" d="M54.1,101.2h-3c0-3.4-2.8-6.2-6.2-6.2v-3C49.9,92,54.1,96.1,54.1,101.2z"/>
					<path class="st2" d="M109.7,101.2h-3c0-5.1,4.1-9.2,9.2-9.2v3C112.5,95,109.7,97.8,109.7,101.2z"/>
				</g>
				<path class="st1" d="M79.9,68.6c-6,0-10.9,4.9-10.9,10.9c0,6,4.9,10.9,10.9,10.9c6,0,10.9-4.9,10.9-10.9
					C90.8,73.5,85.9,68.6,79.9,68.6z M83.4,81.3c0.4,0,0.7,0.3,0.7,0.7c0,0.4-0.3,0.7-0.7,0.7h-2.8v1.8c0,0.4-0.3,0.7-0.7,0.7
					c-0.4,0-0.7-0.3-0.7-0.7v-1.8h-2.8c-0.4,0-0.7-0.3-0.7-0.7c0-0.4,0.3-0.7,0.7-0.7h2.8v-1.1h-2.8c-0.4,0-0.7-0.3-0.7-0.7
					c0-0.4,0.3-0.7,0.7-0.7h2.1L75.8,75c-0.2-0.3-0.2-0.7,0.2-1c0.3-0.2,0.7-0.2,1,0.2l2.9,4.1l2.9-4.1c0.2-0.3,0.7-0.4,1-0.2
					c0.3,0.2,0.4,0.7,0.2,1l-2.7,3.8h2.1c0.4,0,0.7,0.3,0.7,0.7c0,0.4-0.3,0.7-0.7,0.7h-2.8v1.1H83.4z"/>
				<path class="st0" d="M79.9,85.7c-0.5,0-1-0.4-1-1v-1.5h-2.5c-0.5,0-1-0.4-1-1c0-0.5,0.4-1,1-1h2.5v-0.8h-2.5c-0.5,0-1-0.4-1-1
					c0-0.5,0.4-1,1-1H78l-2.4-3.4c-0.3-0.4-0.2-1,0.2-1.3c0.2-0.1,0.4-0.2,0.6-0.2c0.3,0,0.6,0.1,0.8,0.4l2.7,3.8l2.7-3.8
					c0.2-0.3,0.5-0.4,0.8-0.4c0.2,0,0.4,0.1,0.6,0.2c0.2,0.2,0.3,0.4,0.4,0.6c0,0.3,0,0.5-0.2,0.7l-2.4,3.4h1.6c0.5,0,1,0.4,1,1
					c0,0.5-0.4,1-1,1h-2.5v0.8h2.5c0.5,0,1,0.4,1,1c0,0.5-0.4,1-1,1h-2.5v1.5C80.8,85.2,80.4,85.7,79.9,85.7z"/>
			</g>
		</g>
	</g>
</g>
</svg>
