<?xml version="1.0" encoding="utf-8"?>
<!-- Generator: Adobe Illustrator 24.0.1, SVG Export Plug-In . SVG Version: 6.00 Build 0)  -->
<svg version="1.1" xmlns="http://www.w3.org/2000/svg" xmlns:xlink="http://www.w3.org/1999/xlink" x="0px" y="0px"
	 viewBox="0 0 172 172" style="enable-background:new 0 0 172 172;" xml:space="preserve">
<style type="text/css">
	.st0{fill:#FFFFFF;}
	.st1{fill:#CE002E;}
	.st2{fill:#505050;}
	.st3{fill:#FDFDFD;}
	.st4{fill:none;stroke:#F1F1F1;stroke-width:2;stroke-miterlimit:10;}
	.st5{fill:none;stroke:#FFFFFF;stroke-width:2;stroke-linecap:round;stroke-linejoin:round;stroke-miterlimit:10;}
	.st6{fill:none;stroke:#FFFFFF;stroke-width:4;stroke-linecap:round;stroke-linejoin:round;stroke-miterlimit:10;}
	.st7{display:none;opacity:0.5;fill:#FFFFFF;}
	.st8{display:none;}
	.st9{fill:#FAFAFA;}
	.st10{fill:none;stroke:#FFFFFF;stroke-width:2;stroke-miterlimit:10;}
	.st11{fill:none;stroke:#CE002E;stroke-width:4;stroke-miterlimit:10;}
	.st12{clip-path:url(#SVGID_62_);}
	.st13{clip-path:url(#SVGID_66_);}
	.st14{clip-path:url(#SVGID_70_);fill:#F1F1F1;}
	.st15{clip-path:url(#SVGID_70_);}
	.st16{display:none;clip-path:url(#SVGID_70_);}
	.st17{clip-path:url(#SVGID_62_);fill:#CE002E;}
	
		.st18{clip-path:url(#SVGID_62_);fill:none;stroke:#FFFFFF;stroke-width:3.7037;stroke-linecap:round;stroke-linejoin:round;stroke-miterlimit:10;}
	.st19{fill:#F7F7F7;}
	.st20{fill:none;}
	.st21{fill:none;stroke:#505050;stroke-width:3.1552;stroke-miterlimit:10;}
	.st22{fill:none;stroke:#F1F1F1;stroke-width:0.9995;stroke-miterlimit:10;}
	.st23{fill:none;stroke:#FFFFFF;stroke-linecap:round;stroke-linejoin:round;stroke-miterlimit:10;}
	.st24{fill:none;stroke:#CE002E;stroke-width:2;stroke-miterlimit:10;}
	.st25{fill:#F1F1F1;}
	.st26{clip-path:url(#SVGID_136_);}
	.st27{clip-path:url(#SVGID_140_);}
	.st28{fill:none;stroke:#FFFFFF;stroke-miterlimit:10;}
	.st29{fill:none;stroke:#CE002E;stroke-width:3;stroke-linejoin:round;stroke-miterlimit:10;}
</style>
<g id="corporate_x5F_TOP_x5F_SP">
</g>
<g id="corporate_x5F_TOP_x5F_PC">
	<g id="step2box_1_">
		<rect class="st0" width="172" height="172"/>
		<g>
			<g>
				<path class="st2" d="M41.5,139.9c-1,0-1.8-0.8-1.8-1.8v-1c0-5.3,2.9-10,7.6-12.3c-0.8-0.7-1.6-1.5-2.1-2.4
					c-1.4-2.2-1.8-4.8-1.3-7.3c0.6-2.5,2.1-4.7,4.3-6c1.5-1,3.3-1.5,5.2-1.5c3.4,0,6.4,1.7,8.2,4.5c1.4,2.2,1.8,4.8,1.3,7.3
					c-0.5,2.1-1.7,4.1-3.4,5.4c4.7,2.3,7.6,7,7.6,12.3v1c0,1-0.8,1.8-1.8,1.8H41.5z M63.5,136.4c-0.3-5.4-4.7-9.6-10.2-9.6
					c-5.4,0-9.8,4.2-10.2,9.6H63.5z M53.3,111.2c-3.4,0-6.1,2.7-6.1,6.1c0,1.6,0.6,3.2,1.8,4.3c1.2,1.2,2.7,1.8,4.3,1.8
					c3.4,0,6.1-2.8,6.1-6.1C59.4,113.9,56.7,111.2,53.3,111.2z"/>
			</g>
			<g>
				<path class="st2" d="M74.1,139.9c-1,0-1.8-0.8-1.8-1.8v-1c0-5.3,2.9-10,7.6-12.3c-0.8-0.7-1.6-1.5-2.1-2.4
					c-1.4-2.2-1.8-4.8-1.3-7.3c0.6-2.5,2.1-4.7,4.3-6c1.5-1,3.3-1.5,5.2-1.5c3.4,0,6.4,1.7,8.2,4.5c1.4,2.2,1.8,4.8,1.3,7.3
					c-0.5,2.1-1.7,4.1-3.4,5.4c4.7,2.3,7.6,7,7.6,12.3v1c0,1-0.8,1.8-1.8,1.8H74.1z M96.1,136.4c-0.3-5.4-4.7-9.6-10.2-9.6
					c-5.4,0-9.8,4.2-10.2,9.6H96.1z M85.9,111.2c-3.4,0-6.1,2.7-6.1,6.1c0,1.6,0.6,3.2,1.8,4.3c1.2,1.2,2.7,1.8,4.3,1.8
					c3.4,0,6.1-2.8,6.1-6.1C92.1,113.9,89.3,111.2,85.9,111.2z"/>
			</g>
			<g>
				<path class="st2" d="M106.7,139.9c-1,0-1.8-0.8-1.8-1.8v-1c0-5.3,2.9-10,7.6-12.3c-0.8-0.7-1.6-1.5-2.1-2.4
					c-1.4-2.2-1.8-4.8-1.3-7.3c0.6-2.5,2.1-4.7,4.3-6c1.5-1,3.3-1.5,5.2-1.5c3.4,0,6.4,1.7,8.2,4.5c1.4,2.2,1.8,4.8,1.3,7.3
					c-0.5,2.1-1.7,4.1-3.4,5.4c4.7,2.3,7.6,7,7.6,12.3v1c0,1-0.8,1.8-1.8,1.8H106.7z M128.7,136.4c-0.3-5.4-4.7-9.6-10.2-9.6
					c-5.4,0-9.8,4.2-10.2,9.6H128.7z M118.6,111.2c-3.4,0-6.1,2.7-6.1,6.1c0,1.6,0.6,3.2,1.8,4.3c1.2,1.2,2.7,1.8,4.3,1.8
					c3.4,0,6.1-2.8,6.1-6.1C124.7,113.9,121.9,111.2,118.6,111.2z"/>
			</g>
			<g>
				<path class="st2" d="M57.9,62.1c-5.2,0-9.4-4.2-9.4-9.4c0-5.2,4.2-9.4,9.4-9.4s9.4,4.2,9.4,9.4C67.3,57.9,63.1,62.1,57.9,62.1z
					 M57.9,46.5c-3.4,0-6.2,2.8-6.2,6.2s2.8,6.2,6.2,6.2c3.4,0,6.2-2.8,6.2-6.2S61.3,46.5,57.9,46.5z"/>
			</g>
			<g>
				<path class="st2" d="M56.9,52.9c-2.8,0-5.2-0.8-6.9-1.7l1.4-2.8c2.7,1.3,7,2.3,12.7-0.6l1.4,2.8C62.3,52.3,59.4,52.9,56.9,52.9z
					"/>
			</g>
			<path class="st2" d="M88.8,61.1l-10.5,7.5l-2.6-2.7c-1.5-1.6-3-3.2-4.6-4.9c-1.1-1.2-2.4-1.8-3.9-1.8c0,0-0.1,0-0.1,0s-5,0-5,0
				c-0.5,0-1,0.3-1.2,0.7c-0.8,1.4-1.5,2.8-2.3,4.1l-0.4,0.7L57.8,64c-0.8-1.4-1.6-2.7-2.3-4.1c-0.2-0.4-0.7-0.7-1.2-0.7
				c-0.5,0-1,0-1.5,0c-0.5,0-1,0-1.5,0c-1,0-2.3,0-3.6,0.2c-1.7,0.2-3.2,0.9-4.4,2c-1.1,1-1.9,2.4-2.3,4c-0.4,1.5-0.4,3.1-0.4,4.7
				v16.7c0,1.6,0.6,3,1.6,3.9c1,0.9,2.3,1.4,3.6,1.4c0.8,0,1.5-0.1,2.1-0.5l0.3-0.1l0.2,0.2c0.3,0.3,0.6,0.4,1,0.4h17.8
				c0.8,0,1.4-0.7,1.4-1.4v-6.7c0-3,0-6.1,0-9.1v-0.9c0,0,4.8,3.9,5.7,4.6c0.7,0.6,1.2,1,2,1.3c0.5,0.2,1.1,0.3,1.7,0.3
				c0.5,0,1-0.1,1.5-0.2c0.8-0.3,1.3-0.7,2.1-1.2c1.9-1.3,3.7-2.7,5.6-4l7.9-6.1c0.2-0.2,0.3-0.5,0.1-0.7l-5.5-6.6
				C89.3,61,89,61,88.8,61.1z M83.1,73.9l-2.3,1.6l-1.5,1.1c-0.1,0.1-0.1,0.1-0.2,0.1l-0.1,0.1L78.6,77l0,0h0l0,0h-0.1l-0.1,0
				c0,0-0.1,0-0.2,0l-0.1,0h0l0,0h0c-0.1,0-0.1,0-0.2,0l-0.4,0l-0.1,0c0,0-0.1,0-0.2,0l-0.1,0c-0.1,0-0.1,0-0.2-0.1l-0.1,0l-0.1-0.1
				l-0.1,0l-0.1-0.1c-0.1-0.1-0.2-0.2-0.3-0.2c-0.8-0.7-1.7-1.4-2.6-2.1l-1.1-0.9c-1.1-0.9-2.2-1.8-3.3-2.7l-1.2-0.9
				c-0.4-0.3-0.7-0.4-1.1-0.4c-0.2,0-0.4,0.1-0.5,0.1c-0.5,0.2-0.9,0.8-0.9,1.3v6.7c0,3.5,0,7.1,0,10.6v1H50.7l0-1.1
				c0-0.3,0-0.6,0-0.9v-0.2c0-1.1,0-2.1,0-3.2V68.8c0-0.4-0.2-0.7-0.5-1c-0.1-0.1-0.2-0.2-0.4-0.3l-0.1,0h0l-0.1-0.1l-0.1,0
				c0,0-0.1,0-0.1,0c-0.1,0-0.1,0-0.1,0h-0.1c-0.8,0-1.5,0.7-1.5,1.4v17l0,0.8c0,1.4-0.6,2-1,2.3c-0.1,0.1-0.2,0.1-0.3,0.2
				c-0.1,0-0.1,0.1-0.2,0.1c-0.1,0-0.2,0.1-0.2,0.1l-0.1,0h0c-0.1,0-0.2,0-0.3,0c-0.1,0-0.2,0-0.3,0l-0.1,0l0,0c0,0-0.1,0-0.1,0
				l-0.1,0c-0.1,0-0.2-0.1-0.3-0.1c-0.1-0.1-0.2-0.1-0.3-0.2c-0.9-0.6-1-1.8-1-2.2c0-0.1,0-0.2,0-0.2V68.7c0-0.4,0-0.8,0.1-1.3
				c0-0.1,0-0.1,0-0.2v-0.1l0.1-0.6c0.1-0.4,0.2-0.8,0.3-1.1c0,0,0-0.1,0.1-0.1c0.7-1.5,1.8-2.3,2.6-2.6c0.3-0.1,0.6-0.2,1-0.3
				c0.2-0.1,0.4-0.1,0.6-0.1c0.1,0,0.2,0,0.4-0.1c0.5,0,1.1-0.1,1.7-0.1h3.2l0.1,0.2c0.9,1.6,1.7,3.1,2.6,4.6l0.8,1.4
				c0.2,0.4,0.7,0.7,1.2,0.7c0.5,0,1-0.3,1.2-0.7c0.5-0.9,1-1.8,1.5-2.7c0.6-1.1,1.3-2.2,1.9-3.3l0.1-0.2h4.1c0,0,0.1,0,0.3,0
				c0,0,0.1,0,0.1,0h0c0.1,0,0.2,0.1,0.4,0.1c0.1,0.1,0.2,0.1,0.4,0.2c0,0,0,0,0.1,0c0.1,0,0.1,0.1,0.1,0.1c0,0,0.1,0.1,0.1,0.1
				c0,0,0.1,0.1,0.1,0.1c0.1,0,0.1,0.1,0.2,0.1C68.9,63,69,63,69,63.1l0.7,0.7c0.4,0.4,0.8,0.9,1.2,1.3c1.1,1.2,2.2,2.3,3.3,3.5
				l1.6,1.7c0.2,0.2,1.2,1.3,1.2,1.3c0.2,0.3,0.7,0.4,1.1,0.4c0.2,0,0.5-0.1,0.6-0.2c1.1-0.7,2.1-1.5,3.1-2.2c0,0,6.8-4.9,6.9-5
				l2.7,3.2C89.4,69.3,85.1,72.4,83.1,73.9z"/>
			<g>
				<path class="st1" d="M111.7,62c-7.3,0-13.2-5.9-13.2-13.2s5.9-13.2,13.2-13.2c0.8,0,1.5,0.7,1.5,1.5v10.2h10.2
					c0.8,0,1.5,0.7,1.5,1.5C124.9,56.1,118.9,62,111.7,62z M110.2,38.7c-4.9,0.7-8.7,5-8.7,10.1c0,5.6,4.6,10.2,10.2,10.2
					c5.1,0,9.4-3.8,10.1-8.7h-10.1c-0.8,0-1.5-0.7-1.5-1.5V38.7z"/>
			</g>
			<g>
				<path class="st1" d="M128.1,45.4h-11.7c-0.8,0-1.5-0.7-1.5-1.5V32.2c0-0.8,0.7-1.5,1.5-1.5c7.3,0,13.2,5.9,13.2,13.2
					C129.6,44.7,129,45.4,128.1,45.4z M117.9,42.4h8.6c-0.7-4.4-4.2-8-8.6-8.6V42.4z"/>
			</g>
		</g>
	</g>
</g>
</svg>
